mtllib model_1.mtl
o model_1
v -3.552354097366333 13.419110298156738 0.2173721045255661 
v -3.552354097366333 13.419110298156738 0.3495587706565857 
v -12.866568565368652 7.572542667388916 0.2173721045255661 
v -12.866568565368652 7.572542667388916 0.3495587706565857 
v -12.967708587646484 7.67368221282959 0.3495587706565857 
v -12.866568565368652 7.572542667388916 0.3495587706565857 
v -4.06033992767334 15.222888946533203 0.3495587706565857 
v -3.552354097366333 13.419110298156738 0.3495587706565857 
v -12.967708587646484 7.67368221282959 0.3495587706565857 
v -12.967708587646484 7.67368221282959 0.2173721045255661 
v -12.866568565368652 7.572542667388916 0.3495587706565857 
v -12.866568565368652 7.572542667388916 0.2173721045255661 
v -3.552354097366333 13.419110298156738 0.3495587706565857 
v -3.552354097366333 13.419110298156738 0.2173721045255661 
v -4.06033992767334 15.222888946533203 0.3495587706565857 
v -4.06033992767334 15.222888946533203 0.2173721045255661 
v -4.06033992767334 15.222888946533203 0.2173721045255661 
v -3.552354097366333 13.419110298156738 0.2173721045255661 
v -12.967708587646484 7.67368221282959 0.2173721045255661 
v -12.866568565368652 7.572542667388916 0.2173721045255661 
v -4.06033992767334 15.222888946533203 0.3495587706565857 
v -4.06033992767334 15.222888946533203 0.2173721045255661 
v -12.967708587646484 7.67368221282959 0.3495587706565857 
v -12.967708587646484 7.67368221282959 0.2173721045255661 
v 3.963808298110962 16.667234420776367 0.2173617035150528 
v 3.963808298110962 16.667234420776367 0.3495483994483948 
v -2.2653510570526123 19.344371795654297 0.2173617035150528 
v -2.2653510570526123 19.344371795654297 0.3495483994483948 
v -2.2653510570526123 19.477123260498047 0.3495483994483948 
v -2.2653510570526123 19.344371795654297 0.3495483994483948 
v 3.2771294116973877 18.48149299621582 0.3495483994483948 
v 3.963808298110962 16.667234420776367 0.3495483994483948 
v -2.2653510570526123 19.477123260498047 0.3495483994483948 
v -2.2653510570526123 19.477123260498047 0.2173617035150528 
v -2.2653510570526123 19.344371795654297 0.3495483994483948 
v -2.2653510570526123 19.344371795654297 0.2173617035150528 
v 3.963808298110962 16.667234420776367 0.3495483994483948 
v 3.963808298110962 16.667234420776367 0.2173617035150528 
v 3.2771294116973877 18.48149299621582 0.3495483994483948 
v 3.2771294116973877 18.48149299621582 0.2173617035150528 
v 3.2771294116973877 18.48149299621582 0.2173617035150528 
v 3.963808298110962 16.667234420776367 0.2173617035150528 
v -2.2653510570526123 19.477123260498047 0.2173617035150528 
v -2.2653510570526123 19.344371795654297 0.2173617035150528 
v 3.2771294116973877 18.48149299621582 0.3495483994483948 
v 3.2771294116973877 18.48149299621582 0.2173617035150528 
v -2.2653510570526123 19.477123260498047 0.3495483994483948 
v -2.2653510570526123 19.477123260498047 0.2173617035150528 
v -4.054044723510742 15.221611022949219 0.2173617035150528 
v -4.054044723510742 15.221611022949219 0.3495483994483948 
v 3.9917526245117188 16.65414810180664 0.2173617035150528 
v 3.9917526245117188 16.65414810180664 0.3495483994483948 
v 4.063150882720947 16.542232513427734 0.3495483994483948 
v 3.9917526245117188 16.65414810180664 0.3495483994483948 
v -3.545020341873169 13.420575141906738 0.3495483994483948 
v -4.054044723510742 15.221611022949219 0.3495483994483948 
v 4.063150882720947 16.542232513427734 0.3495483994483948 
v 4.063150882720947 16.542232513427734 0.2173617035150528 
v 3.9917526245117188 16.65414810180664 0.3495483994483948 
v 3.9917526245117188 16.65414810180664 0.2173617035150528 
v -4.054044723510742 15.221611022949219 0.3495483994483948 
v -4.054044723510742 15.221611022949219 0.2173617035150528 
v -3.545020341873169 13.420575141906738 0.3495483994483948 
v -3.545020341873169 13.420575141906738 0.2173617035150528 
v -3.545020341873169 13.420575141906738 0.2173617035150528 
v -4.054044723510742 15.221611022949219 0.2173617035150528 
v 4.063150882720947 16.542232513427734 0.2173617035150528 
v 3.9917526245117188 16.65414810180664 0.2173617035150528 
v -3.545020341873169 13.420575141906738 0.3495483994483948 
v -3.545020341873169 13.420575141906738 0.2173617035150528 
v 4.063150882720947 16.542232513427734 0.3495483994483948 
v 4.063150882720947 16.542232513427734 0.2173617035150528 
vn 0.5302024483680725 -0.8478679060935974 0.002184694167226553 
vn 0.5302024483680725 -0.8478679060935974 0.002184694167226553 
vn 0.5302024483680725 -0.8478679060935974 0.002184694167226553 
vn 0.5302024483680725 -0.8478679060935974 0.002184694167226553 
vn 0 0 1 
vn 0 0 1 
vn 0 0 1 
vn 0 0 1 
vn -0.7871813178062439 -0.6167171597480774 0.002184694167226553 
vn -0.7871813178062439 -0.6167171597480774 0.002184694167226553 
vn -0.7871813178062439 -0.6167171597480774 0.002184694167226553 
vn -0.7871813178062439 -0.6167171597480774 0.002184694167226553 
vn 0.965268611907959 0.26124903559684753 0.002184694167226553 
vn 0.965268611907959 0.26124903559684753 0.002184694167226553 
vn 0.965268611907959 0.26124903559684753 0.002184694167226553 
vn 0.965268611907959 0.26124903559684753 0.002184694167226553 
vn 1.4624598461496913e-13 1.4624598461496913e-13 -1 
vn 1.4624598461496913e-13 1.4624598461496913e-13 -1 
vn 1.4624598461496913e-13 1.4624598461496913e-13 -1 
vn 1.4624598461496913e-13 1.4624598461496913e-13 -1 
vn -0.6459941267967224 0.7633388042449951 0.002184694167226553 
vn -0.6459941267967224 0.7633388042449951 0.002184694167226553 
vn -0.6459941267967224 0.7633388042449951 0.002184694167226553 
vn -0.6459941267967224 0.7633388042449951 0.002184694167226553 
vn -0.3965924084186554 -0.9179922342300415 0.002184694167226553 
vn -0.3965924084186554 -0.9179922342300415 0.002184694167226553 
vn -0.3965924084186554 -0.9179922342300415 0.002184694167226553 
vn -0.3965924084186554 -0.9179922342300415 0.002184694167226553 
vn 0 0 1 
vn 0 0 1 
vn 0 0 1 
vn 0 0 1 
vn -0.9927064776420593 0.12053639441728592 0.002184694167226553 
vn -0.9927064776420593 0.12053639441728592 0.002184694167226553 
vn -0.9927064776420593 0.12053639441728592 0.002184694167226553 
vn -0.9927064776420593 0.12053639441728592 0.002184694167226553 
vn 0.935014009475708 0.354604035615921 0.002184694167226553 
vn 0.935014009475708 0.354604035615921 0.002184694167226553 
vn 0.935014009475708 0.354604035615921 0.002184694167226553 
vn 0.935014009475708 0.354604035615921 0.002184694167226553 
vn 2.0682311115474694e-13 4.2775797696334704e-26 -1 
vn 2.0682311115474694e-13 4.2775797696334704e-26 -1 
vn 2.0682311115474694e-13 4.2775797696334704e-26 -1 
vn 2.0682311115474694e-13 4.2775797696334704e-26 -1 
vn 0.17282135784626007 0.9849507808685303 0.002184694167226553 
vn 0.17282135784626007 0.9849507808685303 0.002184694167226553 
vn 0.17282135784626007 0.9849507808685303 0.002184694167226553 
vn 0.17282135784626007 0.9849507808685303 0.002184694167226553 
vn -0.17427663505077362 0.9846944808959961 0.002184694167226553 
vn -0.17427663505077362 0.9846944808959961 0.002184694167226553 
vn -0.17427663505077362 0.9846944808959961 0.002184694167226553 
vn -0.17427663505077362 0.9846944808959961 0.002184694167226553 
vn 0 0 1 
vn 0 0 1 
vn 0 0 1 
vn 0 0 1 
vn 0.9017285704612732 0.4322974681854248 0.002184694167226553 
vn 0.9017285704612732 0.4322974681854248 0.002184694167226553 
vn 0.9017285704612732 0.4322974681854248 0.002184694167226553 
vn 0.9017285704612732 0.4322974681854248 0.002184694167226553 
vn -0.9668381810188293 -0.25538113713264465 0.002184694167226553 
vn -0.9668381810188293 -0.25538113713264465 0.002184694167226553 
vn -0.9668381810188293 -0.25538113713264465 0.002184694167226553 
vn -0.9668381810188293 -0.25538113713264465 0.002184694167226553 
vn 1.7436186771756929e-13 1.1123736751595531e-13 -1 
vn 1.7436186771756929e-13 1.1123736751595531e-13 -1 
vn 1.7436186771756929e-13 1.1123736751595531e-13 -1 
vn 1.7436186771756929e-13 1.1123736751595531e-13 -1 
vn 0.38404738903045654 -0.9233109951019287 0.002184694167226553 
vn 0.38404738903045654 -0.9233109951019287 0.002184694167226553 
vn 0.38404738903045654 -0.9233109951019287 0.002184694167226553 
vn 0.38404738903045654 -0.9233109951019287 0.002184694167226553 
vt 0.6250036954879761 0 
vt 0.6250036954879761 0.24997636675834656 
vt 0.37503737211227417 0 
vt 0.37503737211227417 0.24997636675834656 
vt 0.010821506381034851 0.015570304356515408 
vt 0.48358654975891113 0.032113753259181976 
vt 0.0018464899621903896 0.9893225431442261 
vt 0.9952837228775024 0.9905389547348022 
vt 0.12494975328445435 0.24997636675834656 
vt 0.12494975328445435 0 
vt 0.37503737211227417 0.24997636675834656 
vt 0.37503737211227417 0 
vt 0.6250036954879761 0.24997636675834656 
vt 0.6250036954879761 0 
vt 0.874970018863678 0.24997636675834656 
vt 0.874970018863678 0 
vt 0.017128273844718933 0.025058457627892494 
vt 0.7613269090652466 0.021530810743570328 
vt 0.0022103420924395323 0.9916337132453918 
vt 0.9906749129295349 0.9963778257369995 
vt 0.6250036954879761 0.4999527335166931 
vt 0.6250036954879761 0.7500507235527039 
vt 0.37503737211227417 0.4999527335166931 
vt 0.37503737211227417 0.7500507235527039 
vt 0.6250036954879761 0 
vt 0.6250036954879761 0.24997636675834656 
vt 0.37503737211227417 0 
vt 0.37503737211227417 0.24997636675834656 
vt 0.010821506381034851 0.015570304356515408 
vt 0.48358654975891113 0.032113753259181976 
vt 0.0018464899621903896 0.9893225431442261 
vt 0.9952837228775024 0.9905389547348022 
vt 0.12494975328445435 0.24997636675834656 
vt 0.12494975328445435 0 
vt 0.37503737211227417 0.24997636675834656 
vt 0.37503737211227417 0 
vt 0.6250036954879761 0.24997636675834656 
vt 0.6250036954879761 0 
vt 0.874970018863678 0.24997636675834656 
vt 0.874970018863678 0 
vt 0.017128273844718933 0.025058457627892494 
vt 0.7613269090652466 0.021530810743570328 
vt 0.0022103420924395323 0.9916337132453918 
vt 0.9906749129295349 0.9963778257369995 
vt 0.6250036954879761 0.4999527335166931 
vt 0.6250036954879761 0.7500507235527039 
vt 0.37503737211227417 0.4999527335166931 
vt 0.37503737211227417 0.7500507235527039 
vt 0.6250036954879761 0 
vt 0.6250036954879761 0.24997636675834656 
vt 0.37503737211227417 0 
vt 0.37503737211227417 0.24997636675834656 
vt 0.9863086938858032 0.015570304356515408 
vt 0.49983859062194824 0.032113753259181976 
vt 0.9952837228775024 0.9893225431442261 
vt 0.0018464899621903896 0.9905389547348022 
vt 0.12494975328445435 0.24997636675834656 
vt 0.12494975328445435 0 
vt 0.37503737211227417 0.24997636675834656 
vt 0.37503737211227417 0 
vt 0.6250036954879761 0.24997636675834656 
vt 0.6250036954879761 0 
vt 0.874970018863678 0.24997636675834656 
vt 0.874970018863678 0 
vt 0.9800019264221191 0.025058457627892494 
vt 0.23580332100391388 0.021530810743570328 
vt 0.9949198961257935 0.9916337132453918 
vt 0.006455282215029001 0.9963778257369995 
vt 0.6250036954879761 0.4999527335166931 
vt 0.6250036954879761 0.7500507235527039 
vt 0.37503737211227417 0.4999527335166931 
vt 0.37503737211227417 0.7500507235527039 
s on 
f 1/1/1 2/2/2 3/3/3 
f 2/2/2 4/4/4 3/3/3 
f 3/3/3 4/4/4 4/4/4 
f 4/4/4 5/5/5 4/4/4 
f 4/4/4 5/5/5 5/5/5 
f 5/5/5 6/6/6 5/5/5 
f 5/5/5 6/6/6 7/7/7 
f 6/6/6 8/8/8 7/7/7 
f 7/7/7 8/8/8 8/8/8 
f 8/8/8 9/9/9 8/8/8 
f 8/8/8 9/9/9 9/9/9 
f 9/9/9 10/10/10 9/9/9 
f 9/9/9 10/10/10 11/11/11 
f 10/10/10 12/12/12 11/11/11 
f 11/11/11 12/12/12 12/12/12 
f 12/12/12 13/13/13 12/12/12 
f 12/12/12 13/13/13 13/13/13 
f 13/13/13 14/14/14 13/13/13 
f 13/13/13 14/14/14 15/15/15 
f 14/14/14 16/16/16 15/15/15 
f 15/15/15 16/16/16 16/16/16 
f 16/16/16 17/17/17 16/16/16 
f 16/16/16 17/17/17 17/17/17 
f 17/17/17 18/18/18 17/17/17 
f 17/17/17 18/18/18 19/19/19 
f 18/18/18 20/20/20 19/19/19 
f 19/19/19 20/20/20 20/20/20 
f 20/20/20 21/21/21 20/20/20 
f 20/20/20 21/21/21 21/21/21 
f 21/21/21 22/22/22 21/21/21 
f 21/21/21 22/22/22 23/23/23 
f 22/22/22 24/24/24 23/23/23 
f 23/23/23 24/24/24 24/24/24 
f 24/24/24 25/25/25 24/24/24 
f 24/24/24 25/25/25 25/25/25 
f 25/25/25 26/26/26 25/25/25 
f 25/25/25 26/26/26 27/27/27 
f 26/26/26 28/28/28 27/27/27 
f 27/27/27 28/28/28 28/28/28 
f 28/28/28 29/29/29 28/28/28 
f 28/28/28 29/29/29 29/29/29 
f 29/29/29 30/30/30 29/29/29 
f 29/29/29 30/30/30 31/31/31 
f 30/30/30 32/32/32 31/31/31 
f 31/31/31 32/32/32 32/32/32 
f 32/32/32 33/33/33 32/32/32 
f 32/32/32 33/33/33 33/33/33 
f 33/33/33 34/34/34 33/33/33 
f 33/33/33 34/34/34 35/35/35 
f 34/34/34 36/36/36 35/35/35 
f 35/35/35 36/36/36 36/36/36 
f 36/36/36 37/37/37 36/36/36 
f 36/36/36 37/37/37 37/37/37 
f 37/37/37 38/38/38 37/37/37 
f 37/37/37 38/38/38 39/39/39 
f 38/38/38 40/40/40 39/39/39 
f 39/39/39 40/40/40 40/40/40 
f 40/40/40 41/41/41 40/40/40 
f 40/40/40 41/41/41 41/41/41 
f 41/41/41 42/42/42 41/41/41 
f 41/41/41 42/42/42 43/43/43 
f 42/42/42 44/44/44 43/43/43 
f 43/43/43 44/44/44 44/44/44 
f 44/44/44 45/45/45 44/44/44 
f 44/44/44 45/45/45 45/45/45 
f 45/45/45 46/46/46 45/45/45 
f 45/45/45 46/46/46 47/47/47 
f 46/46/46 48/48/48 47/47/47 
f 47/47/47 48/48/48 48/48/48 
f 48/48/48 49/49/49 48/48/48 
f 48/48/48 49/49/49 49/49/49 
f 49/49/49 50/50/50 49/49/49 
f 49/49/49 50/50/50 51/51/51 
f 50/50/50 52/52/52 51/51/51 
f 51/51/51 52/52/52 52/52/52 
f 52/52/52 53/53/53 52/52/52 
f 52/52/52 53/53/53 53/53/53 
f 53/53/53 54/54/54 53/53/53 
f 53/53/53 54/54/54 55/55/55 
f 54/54/54 56/56/56 55/55/55 
f 55/55/55 56/56/56 56/56/56 
f 56/56/56 57/57/57 56/56/56 
f 56/56/56 57/57/57 57/57/57 
f 57/57/57 58/58/58 57/57/57 
f 57/57/57 58/58/58 59/59/59 
f 58/58/58 60/60/60 59/59/59 
f 59/59/59 60/60/60 60/60/60 
f 60/60/60 61/61/61 60/60/60 
f 60/60/60 61/61/61 61/61/61 
f 61/61/61 62/62/62 61/61/61 
f 61/61/61 62/62/62 63/63/63 
f 62/62/62 64/64/64 63/63/63 
f 63/63/63 64/64/64 64/64/64 
f 64/64/64 65/65/65 64/64/64 
f 64/64/64 65/65/65 65/65/65 
f 65/65/65 66/66/66 65/65/65 
f 65/65/65 66/66/66 67/67/67 
f 66/66/66 68/68/68 67/67/67 
f 67/67/67 68/68/68 68/68/68 
f 68/68/68 69/69/69 68/68/68 
f 68/68/68 69/69/69 69/69/69 
f 69/69/69 70/70/70 69/69/69 
f 69/69/69 70/70/70 71/71/71 
f 70/70/70 72/72/72 71/71/71 

