mtllib model_4.mtl
o model_4
v -10.948187828063965 13.644688606262207 0.03647230938076973 
v -10.948187828063965 11.867836952209473 0.03647230938076973 
v -6.148876190185547 13.644688606262207 0.03647230938076973 
v -6.148876190185547 11.867836952209473 0.03647230938076973 
v -10.948187828063965 13.644688606262207 0.010587177239358425 
v -6.148876190185547 13.644688606262207 0.010587177239358425 
v -10.948187828063965 11.867836952209473 0.010587177239358425 
v -6.148876190185547 11.867836952209473 0.010587177239358425 
vn -0.0017453398322686553 0 3.5034408569335938 
vn -0.0017453398322686553 0 3.5034408569335938 
vn -0.0017453398322686553 0 3.5034408569335938 
vn -0.0017453398322686553 0 3.5034408569335938 
vn -0.0017453398322686553 -9.50161512512128e-14 -3.5034408569335938 
vn -0.0017453398322686553 -9.50161512512128e-14 -3.5034408569335938 
vn -0.0017453398322686553 -9.50161512512128e-14 -3.5034408569335938 
vn -0.0017453398322686553 -9.50161512512128e-14 -3.5034408569335938 
vt 0.13807399570941925 0.7156521081924438 
vt 0.13807399570941925 0.30735599994659424 
vt 0.8616958856582642 0.7156521081924438 
vt 0.8616958856582642 0.30735599994659424 
vt 0.13807399570941925 0.7156521081924438 
vt 0.8616958856582642 0.7156521081924438 
vt 0.13807399570941925 0.30735599994659424 
vt 0.8616958856582642 0.30735599994659424 
s on 
f 1/1/1 2/2/2 3/3/3 
f 2/2/2 4/4/4 3/3/3 
f 3/3/3 4/4/4 4/4/4 
f 4/4/4 5/5/5 4/4/4 
f 4/4/4 5/5/5 5/5/5 
f 5/5/5 6/6/6 5/5/5 
f 5/5/5 6/6/6 7/7/7 
f 6/6/6 8/8/8 7/7/7 

