mtllib model_21.mtl
o model_21
v -2.15606689453125 -3.783466100692749 0.915553092956543 
v -2.143064260482788 -3.861670732498169 0.886438250541687 
v -2.1352627277374268 -3.8002243041992188 0.9276843070983887 
v -2.1118581295013428 -3.858877658843994 0.915553092956543 
v -2.062448263168335 -3.833740472793579 0.934963047504425 
v -2.0702497959136963 -3.9203240871429443 0.8961431980133057 
v -2.0182392597198486 -3.8923938274383545 0.9252581000328064 
v -2.023440361022949 -3.9817705154418945 0.8670282959938049 
v -2.109257459640503 -3.9287030696868896 0.8451921343803406 
v -2.062448263168335 -3.99014949798584 0.7942411303520203 
v -2.1274611949920654 -3.744363784790039 0.9301105737686157 
v -2.106657028198242 -3.7778801918029785 0.9398155212402344 
v -2.062448263168335 -3.7639150619506836 0.9470942616462708 
v -2.0104377269744873 -3.8002243041992188 0.949520468711853 
v -1.9766310453414917 -3.7667078971862793 0.9446679949760437 
v -1.9272211790084839 -3.8281543254852295 0.9252581000328064 
v -1.9636284112930298 -3.861670732498169 0.9373892545700073 
v -1.8856128454208374 -3.8951869010925293 0.8961431980133057 
v -1.9168190956115723 -3.925910234451294 0.915553092956543 
v -1.849205493927002 -3.962219476699829 0.8160772919654846 
v -1.9688293933868408 -3.9566333293914795 0.903421938419342 
v -2.062448263168335 -3.733191728591919 0.9422417879104614 
v -1.914218544960022 -4.020872592926025 0.8306347131729126 
v -1.9584273099899292 -4.03483772277832 0.806372344493866 
v -1.9168190956115723 -4.0460100173950195 0.7481425404548645 
v -1.997435212135315 -4.03483772277832 0.7748311758041382 
v -1.9584273099899292 -4.037631034851074 0.7190276980400085 
v -2.013038396835327 -4.004114627838135 0.7020440101623535 
v -2.0546464920043945 -3.9594264030456543 0.6802078485488892 
v -1.9558268785476685 -3.9845635890960693 0.6607978940010071 
v -2.1040565967559814 -3.948254346847534 0.7554212808609009 
v -2.109257459640503 -3.9287030696868896 0.8451921343803406 
v -2.1352627277374268 -3.9035658836364746 0.8112248182296753 
v -2.143064260482788 -3.861670732498169 0.886438250541687 
v -2.1638684272766113 -3.850498676300049 0.8621758222579956 
v -2.15606689453125 -3.783466100692749 0.915553092956543 
v -2.1716699600219727 -3.7667078971862793 0.8961431980133057 
v -2.1274611949920654 -3.744363784790039 0.9301105737686157 
v -2.1378631591796875 -3.722019672393799 0.9107006192207336 
v -2.062448263168335 -3.733191728591919 0.9422417879104614 
v -2.0650486946105957 -3.705261468887329 0.9228318333625793 
v -1.9610278606414795 -3.7359848022460938 0.915553092956543 
v -1.9766310453414917 -3.7667078971862793 0.9446679949760437 
v -1.9090174436569214 -3.794638156890869 0.8888644576072693 
v -1.9272211790084839 -3.8281543254852295 0.9252581000328064 
v -1.8726102113723755 -3.8560845851898193 0.852470874786377 
v -1.8856128454208374 -3.8951869010925293 0.8961431980133057 
v -1.849205493927002 -3.962219476699829 0.8160772919654846 
v -1.8414039611816406 -3.923117160797119 0.7918148636817932 
v -1.8752107620239258 -3.8141894340515137 0.8015198111534119 
v -1.914218544960022 -3.758328914642334 0.837913453578949 
v -1.9610278606414795 -3.708054542541504 0.871880829334259 
v -2.0702497959136963 -3.6912965774536133 0.8912907242774963 
v -2.143064260482788 -3.716433525085449 0.88401198387146 
v -2.1716699600219727 -3.758328914642334 0.869454562664032 
v -2.1612679958343506 -3.755535840988159 0.8500446677207947 
v -2.1352627277374268 -3.7276058197021484 0.854897141456604 
v -2.0754506587982178 -3.6996755599975586 0.8573233485221863 
v -1.989633560180664 -3.708054542541504 0.8330609798431396 
v -1.9428242444992065 -3.744363784790039 0.7942411303520203 
v -1.9038164615631104 -3.7890522480010986 0.7529950141906738 
v -1.8570070266723633 -3.872842788696289 0.7214539051055908 
v -1.8466049432754517 -3.875635862350464 0.7675524950027466 
v -1.8414039611816406 -3.9454612731933594 0.7287326455116272 
v -1.8466049432754517 -3.99014949798584 0.7457163333892822 
v -1.867409110069275 -3.948254346847534 0.6874865889549255 
v -1.8986153602600098 -3.875635862350464 0.6826340556144714 
v -1.9636284112930298 -3.794638156890869 0.7093226909637451 
v -1.9922341108322144 -3.755535840988159 0.7602737545967102 
v -2.015638828277588 -3.733191728591919 0.7990936040878296 
v -2.0702497959136963 -3.7387778759002686 0.8112248182296753 
v -2.049445629119873 -3.7667078971862793 0.7651262283325195 
v -2.02864146232605 -3.797431230545044 0.7190276980400085 
v -2.023440361022949 -3.825361490249634 0.6705029010772705 
v -2.072850227355957 -3.8281543254852295 0.7214539051055908 
v -2.096254825592041 -3.797431230545044 0.7699787020683289 
v -2.1170589923858643 -3.7667078971862793 0.8160772919654846 
v -2.1482653617858887 -3.8002243041992188 0.820929765701294 
v -2.1638684272766113 -3.8281543254852295 0.837913453578949 
v -2.143064260482788 -3.8700497150421143 0.7893886566162109 
v -2.130061626434326 -3.833740472793579 0.7748311758041382 
v -2.109257459640503 -3.861670732498169 0.7263063788414001 
v -2.119659662246704 -3.9035658836364746 0.7335851192474365 
v -2.0754506587982178 -3.9063589572906494 0.6656504273414612 
v -2.0806517601013184 -3.8700497150421143 0.6729291081428528 
v -2.049445629119873 -3.847705602645874 0.6632241606712341 
v -2.02864146232605 -3.884014844894409 0.6413879990577698 
v -1.9922341108322144 -3.844912528991699 0.6535192131996155 
v -1.997435212135315 -3.9342892169952393 0.6438142657279968 
v -1.9480252265930176 -3.9035658836364746 0.6486667394638062 
v -1.9064170122146606 -3.9594264030456543 0.6632241606712341 
v -1.8882132768630981 -3.99014949798584 0.6826340556144714 
v -1.914218544960022 -4.015286922454834 0.6899127960205078 
v -1.883012294769287 -4.023665904998779 0.7190276980400085 
v -1.8908138275146484 -4.04042387008667 0.7724049687385559 
v -1.8726102113723755 -3.9957356452941895 0.8330609798431396 
v -1.8648086786270142 -4.023665904998779 0.7578475475311279 
v -1.8648086786270142 -3.9929425716400146 0.7044702172279358 
vn -0.7021063566207886 -0.09021635353565216 0.7063339352607727 
vn -0.7219594717025757 -0.48353156447410583 0.4949462115764618 
vn -0.46196848154067993 -0.21172654628753662 0.8612531423568726 
vn -0.43183550238609314 -0.4251711070537567 0.7954543828964233 
vn -0.1737821102142334 -0.2659933269023895 0.9481810927391052 
vn -0.40687981247901917 -0.5792591571807861 0.7063339352607727 
vn -0.14712245762348175 -0.3797668516635895 0.913308322429657 
vn -0.3297024965286255 -0.7368127107620239 0.590256929397583 
vn -0.6712338328361511 -0.6605602502822876 0.3363112509250641 
vn -0.5977672338485718 -0.7945176362991333 0.10684575140476227 
vn -0.42786821722984314 0.2810794413089752 0.8590245246887207 
vn -0.2674211263656616 -0.04863901063799858 0.962351381778717 
vn -0.09807363152503967 0.036579571664333344 0.9945066571235657 
vn 0.0402631014585495 -0.062339477241039276 0.9972425103187561 
vn 0.3538733720779419 0.29148057103157043 0.888714075088501 
vn 0.5853674411773682 0.12725117802619934 0.8007197380065918 
vn 0.17327441275119781 -0.16929803788661957 0.9702134728431702 
vn 0.7608493566513062 -0.022627603262662888 0.6485338807106018 
vn 0.3881031572818756 -0.35080230236053467 0.8522403836250305 
vn 0.9084693193435669 -0.2242165505886078 0.3527185618877411 
vn -0.013180054724216461 -0.5812548995018005 0.8136147856712341 
vn -0.037578023970127106 0.40553146600723267 0.913308322429657 
vn 0.21816012263298035 -0.8081108927726746 0.5471406579017639 
vn -0.13724170625209808 -0.9256102442741394 0.3527185618877411 
vn 0.1335480958223343 -0.9842853546142578 -0.11553031951189041 
vn -0.39827463030815125 -0.9158900380134583 0.05022686347365379 
vn -0.18571852147579193 -0.9106779098510742 -0.3690181374549866 
vn -0.4311732053756714 -0.7568793892860413 -0.4911448359489441 
vn -0.550220787525177 -0.5689241290092468 -0.6112139225006104 
vn -0.011332795955240726 -0.49291643500328064 -0.8700028657913208 
vn -0.7777265310287476 -0.5967705249786377 -0.1975002884864807 
vn -0.6712338328361511 -0.6605602502822876 0.3363112509250641 
vn -0.8634950518608093 -0.5043525099754333 -0.002184694167226553 
vn -0.7219594717025757 -0.48353156447410583 0.4949462115764618 
vn -0.9249185919761658 -0.34735822677612305 0.15449213981628418 
vn -0.7021063566207886 -0.09021635353565216 0.7063339352607727 
vn -0.9225403070449829 0.11289363354444504 0.3690181374549866 
vn -0.42786821722984314 0.2810794413089752 0.8590245246887207 
vn -0.5649954080581665 0.6143350005149841 0.5507928133010864 
vn -0.037578023970127106 0.40553146600723267 0.913308322429657 
vn -0.011308916844427586 0.7750890254974365 0.6317508816719055 
vn 0.5394420623779297 0.6073737144470215 0.5831804275512695 
vn 0.3538733720779419 0.29148057103157043 0.888714075088501 
vn 0.8078095316886902 0.37287259101867676 0.456519216299057 
vn 0.5853674411773682 0.12725117802619934 0.8007197380065918 
vn 0.9031564593315125 0.23874561488628387 0.3568037748336792 
vn 0.7608493566513062 -0.022627603262662888 0.6485338807106018 
vn 0.9084693193435669 -0.2242165505886078 0.3527185618877411 
vn 0.9869776368141174 0.06783986836671829 0.1458524912595749 
vn 0.8743482828140259 0.48446738719940186 0.028397228568792343 
vn 0.7715105414390564 0.6342307925224304 0.05022686347365379 
vn 0.49257808923721313 0.860723078250885 0.12854042649269104 
vn -0.0641121044754982 0.9901830554008484 0.1242060661315918 
vn -0.5926607847213745 0.8054491877555847 -0.002184694167226553 
vn -0.9319940209388733 0.325833261013031 -0.15880759060382843 
vn -0.7009790539741516 0.4105227589607239 -0.5831804275512695 
vn -0.485988050699234 0.6958920359611511 -0.528724730014801 
vn -0.18918558955192566 0.8870229721069336 -0.42118772864341736 
vn 0.17074817419052124 0.9152343273162842 -0.3649536371231079 
vn 0.425241619348526 0.8171088099479675 -0.3892335295677185 
vn 0.5995147228240967 0.675616443157196 -0.42909738421440125 
vn 0.8118362426757812 0.3735854923725128 -0.4487268626689911 
vn 0.9498443603515625 0.31179845333099365 -0.024029340595006943 
vn 0.9501231908798218 -0.01509558130055666 -0.31150925159454346 
vn 0.9218441247940063 -0.3685576915740967 -0.11986933648586273 
vn 0.701516330242157 -0.015123292803764343 -0.7124928832054138 
vn 0.5344179272651672 0.37612664699554443 -0.7569189071655273 
vn 0.21582993865013123 0.7179975509643555 -0.661737859249115 
vn 0.005668974481523037 0.8071955442428589 -0.590256929397583 
vn -0.09414935857057571 0.8042950630187988 -0.5867242813110352 
vn -0.29121559858322144 0.7154027223587036 -0.6351318359375 
vn -0.3295471966266632 0.716647744178772 -0.6146662831306458 
vn -0.27735745906829834 0.7608070969581604 -0.5867242813110352 
vn -0.2194351851940155 0.7046805024147034 -0.67473965883255 
vn -0.5687016844749451 0.6301019787788391 -0.528724730014801 
vn -0.5447631478309631 0.5741521120071411 -0.6112139225006104 
vn -0.4825502336025238 0.550601065158844 -0.681163489818573 
vn -0.7415168285369873 0.30561304092407227 -0.5972883701324463 
vn -0.963047206401825 -0.045302730053663254 -0.26549527049064636 
vn -0.935961902141571 -0.11671758443117142 -0.33219319581985474 
vn -0.7637205719947815 0.3306560516357422 -0.5544344186782837 
vn -0.789874255657196 0.31695756316185 -0.5250110030174255 
vn -0.8843082189559937 -0.20958489179611206 -0.417220801115036 
vn -0.6544951796531677 -0.1828691065311432 -0.7336177229881287 
vn -0.694511890411377 0.30453264713287354 -0.651853621006012 
vn -0.4521920382976532 0.5029635429382324 -0.736579954624176 
vn -0.21595758199691772 0.0777093917131424 -0.9733054637908936 
vn 0.12158213555812836 0.48173758387565613 -0.8678402304649353 
vn -0.11058134585618973 -0.2620205283164978 -0.9587059020996094 
vn 0.30174520611763 0.15310999751091003 -0.9410139322280884 
vn 0.3894319236278534 -0.15516386926174164 -0.9078915119171143 
vn 0.4653474688529968 -0.41459259390830994 -0.7820260524749756 
vn 0.1721721738576889 -0.696100115776062 -0.6969945430755615 
vn 0.4799191355705261 -0.7607437968254089 -0.43697428703308105 
vn 0.3806282877922058 -0.907817542552948 0.1760382205247879 
vn 0.6353242993354797 -0.5593594312667847 0.5324283838272095 
vn 0.7123432755470276 -0.7016646265983582 0.0152922747656703 
vn 0.7205068469047546 -0.4116222560405731 -0.5580654144287109 
vt 0.7966275215148926 0.17843516170978546 
vt 0.787054181098938 0.1708984375 
vt 0.7970209717750549 0.1743021160364151 
vt 0.7920375466346741 0.1673731952905655 
vt 0.7987257838249207 0.1640910804271698 
vt 0.7877098917961121 0.1584993153810501 
vt 0.7951849699020386 0.155095636844635 
vt 0.7840378880500793 0.14974699914455414 
vt 0.7798413634300232 0.161781445145607 
vt 0.7736776471138 0.15096260607242584 
vt 0.8038403391838074 0.17807048559188843 
vt 0.8017420768737793 0.17272183299064636 
vt 0.8068565726280212 0.1687103658914566 
vt 0.8062008619308472 0.16020116209983826 
vt 0.8123645782470703 0.1584993153810501 
vt 0.8080368638038635 0.1481667160987854 
vt 0.8021354675292969 0.15108415484428406 
vt 0.8014797568321228 0.13856348395347595 
vt 0.7968897819519043 0.1425749659538269 
vt 0.7902015447616577 0.1277446448802948 
vt 0.7912507057189941 0.14658643305301666 
vt 0.8103974461555481 0.17126311361789703 
vt 0.7846935987472534 0.13661852478981018 
vt 0.7808904647827148 0.13953596353530884 
vt 0.7782676219940186 0.1344304382801056 
vt 0.7769562005996704 0.14196716248989105 
vt 0.7760382294654846 0.1368616372346878 
vt 0.7728908061981201 0.1401437669992447 
vt 0.7692188620567322 0.14075155556201935 
vt 0.7718417048454285 0.13540291786193848 
vt 0.7677763104438782 0.14682956039905548 
vt 0.7635797262191772 0.15436628460884094 
vt 0.7621371746063232 0.14962543547153473 
vt 0.7542686462402344 0.1526644378900528 
vt 0.7551866769790649 0.1495038866996765 
vt 0.7475804090499878 0.14634332060813904 
vt 0.7494164109230042 0.1447630375623703 
vt 0.7456132769584656 0.1412377953529358 
vt 0.7478426694869995 0.14087311923503876 
vt 0.7453510165214539 0.134552001953125 
vt 0.7477115392684937 0.13528135418891907 
vt 0.750990092754364 0.12835243344306946 
vt 0.7479738593101501 0.1265290379524231 
vt 0.7550554871559143 0.12421940267086029 
vt 0.752432644367218 0.12057259678840637 
vt 0.7608257532119751 0.12130195647478104 
vt 0.759514331817627 0.1163180023431778 
vt 0.770792543888092 0.11704736202955246 
vt 0.768694281578064 0.12142352014780045 
vt 0.7613503336906433 0.12616436183452606 
vt 0.7568914890289307 0.12798775732517242 
vt 0.7530883550643921 0.13041895627975464 
vt 0.7498098015785217 0.13601072132587433 
vt 0.74954754114151 0.14075155556201935 
vt 0.7508589625358582 0.143668994307518 
vt 0.7521703839302063 0.14306120574474335 
vt 0.7515146732330322 0.14075155556201935 
vt 0.751776933670044 0.1368616372346878 
vt 0.7545309662818909 0.13272860646247864 
vt 0.7579406499862671 0.1310267597436905 
vt 0.7618749141693115 0.12968960404396057 
vt 0.76725172996521 0.1277446448802948 
vt 0.7663336992263794 0.12494876235723495 
vt 0.7723662257194519 0.12592123448848724 
vt 0.7777431011199951 0.12385471910238266 
vt 0.7717105150222778 0.12944647669792175 
vt 0.7673828601837158 0.1310267597436905 
vt 0.7625306248664856 0.1334579586982727 
vt 0.7589897513389587 0.13406576216220856 
vt 0.7562357783317566 0.1346735656261444 
vt 0.7550554871559143 0.13771255314350128 
vt 0.7583340406417847 0.13722631335258484 
vt 0.7613503336906433 0.1367400735616684 
vt 0.7639731764793396 0.1368616372346878 
vt 0.7618749141693115 0.13965752720832825 
vt 0.758727490901947 0.14050844311714172 
vt 0.7550554871559143 0.14099468290805817 
vt 0.7554489374160767 0.14415523409843445 
vt 0.7554489374160767 0.1469511240720749 
vt 0.7606946229934692 0.14646488428115845 
vt 0.759514331817627 0.143668994307518 
vt 0.763055145740509 0.14221027493476868 
vt 0.7648911476135254 0.14427679777145386 
vt 0.7665960192680359 0.1402653157711029 
vt 0.7650222778320312 0.13977907598018646 
vt 0.7646288871765137 0.13819879293441772 
vt 0.76646488904953 0.13771255314350128 
vt 0.7652845978736877 0.1357675939798355 
vt 0.7689565420150757 0.13698320090770721 
vt 0.7683008313179016 0.13418732583522797 
vt 0.7714482545852661 0.1322423666715622 
vt 0.7736776471138 0.1312698870897293 
vt 0.7745956778526306 0.1333363950252533 
vt 0.7766939401626587 0.1312698870897293 
vt 0.7802347540855408 0.13260704278945923 
vt 0.7877098917961121 0.13260704278945923 
vt 0.7795790433883667 0.12920336425304413 
vt 0.7748579382896423 0.1288386732339859 
s on 
f 1/1/1 2/2/2 3/3/3 
f 2/2/2 4/4/4 3/3/3 
f 3/3/3 4/4/4 5/5/5 
f 4/4/4 6/6/6 5/5/5 
f 5/5/5 6/6/6 7/7/7 
f 6/6/6 6/6/6 7/7/7 
f 7/7/7 6/6/6 8/8/8 
f 6/6/6 9/9/9 8/8/8 
f 8/8/8 9/9/9 10/10/10 
f 9/9/9 10/10/10 10/10/10 
f 10/10/10 10/10/10 4/4/4 
f 10/10/10 4/4/4 4/4/4 
f 4/4/4 4/4/4 6/6/6 
f 4/4/4 2/2/2 6/6/6 
f 6/6/6 2/2/2 9/9/9 
f 2/2/2 9/9/9 9/9/9 
f 9/9/9 9/9/9 1/1/1 
f 9/9/9 1/1/1 1/1/1 
f 1/1/1 1/1/1 11/11/11 
f 1/1/1 3/3/3 11/11/11 
f 11/11/11 3/3/3 12/12/12 
f 3/3/3 5/5/5 12/12/12 
f 12/12/12 5/5/5 13/13/13 
f 5/5/5 14/14/14 13/13/13 
f 13/13/13 14/14/14 15/15/15 
f 14/14/14 14/14/14 15/15/15 
f 15/15/15 14/14/14 16/16/16 
f 14/14/14 17/17/17 16/16/16 
f 16/16/16 17/17/17 18/18/18 
f 17/17/17 19/19/19 18/18/18 
f 18/18/18 19/19/19 20/20/20 
f 19/19/19 20/20/20 20/20/20 
f 20/20/20 20/20/20 5/5/5 
f 20/20/20 5/5/5 5/5/5 
f 5/5/5 5/5/5 14/14/14 
f 5/5/5 7/7/7 14/14/14 
f 14/14/14 7/7/7 17/17/17 
f 7/7/7 21/21/21 17/17/17 
f 17/17/17 21/21/21 19/19/19 
f 21/21/21 19/19/19 19/19/19 
f 19/19/19 19/19/19 12/12/12 
f 19/19/19 12/12/12 12/12/12 
f 12/12/12 12/12/12 11/11/11 
f 12/12/12 13/13/13 11/11/11 
f 11/11/11 13/13/13 22/22/22 
f 13/13/13 15/15/15 22/22/22 
f 22/22/22 15/15/15 15/15/15 
f 15/15/15 7/7/7 15/15/15 
f 15/15/15 7/7/7 7/7/7 
f 7/7/7 8/8/8 7/7/7 
f 7/7/7 8/8/8 21/21/21 
f 8/8/8 8/8/8 21/21/21 
f 21/21/21 8/8/8 23/23/23 
f 8/8/8 24/24/24 23/23/23 
f 23/23/23 24/24/24 25/25/25 
f 24/24/24 26/26/26 25/25/25 
f 25/25/25 26/26/26 27/27/27 
f 26/26/26 10/10/10 27/27/27 
f 27/27/27 10/10/10 28/28/28 
f 10/10/10 29/29/29 28/28/28 
f 28/28/28 29/29/29 28/28/28 
f 29/29/29 30/30/30 28/28/28 
f 28/28/28 30/30/30 27/27/27 
f 30/30/30 27/27/27 27/27/27 
f 27/27/27 27/27/27 8/8/8 
f 27/27/27 8/8/8 8/8/8 
f 8/8/8 8/8/8 24/24/24 
f 8/8/8 10/10/10 24/24/24 
f 24/24/24 10/10/10 26/26/26 
f 10/10/10 26/26/26 26/26/26 
f 26/26/26 26/26/26 29/29/29 
f 26/26/26 29/29/29 29/29/29 
f 29/29/29 29/29/29 31/31/31 
f 29/29/29 10/10/10 31/31/31 
f 31/31/31 10/10/10 31/31/31 
f 10/10/10 32/32/32 31/31/31 
f 31/31/31 32/32/32 33/33/33 
f 32/32/32 34/34/34 33/33/33 
f 33/33/33 34/34/34 35/35/35 
f 34/34/34 36/36/36 35/35/35 
f 35/35/35 36/36/36 37/37/37 
f 36/36/36 38/38/38 37/37/37 
f 37/37/37 38/38/38 39/39/39 
f 38/38/38 40/40/40 39/39/39 
f 39/39/39 40/40/40 41/41/41 
f 40/40/40 40/40/40 41/41/41 
f 41/41/41 40/40/40 42/42/42 
f 40/40/40 43/43/43 42/42/42 
f 42/42/42 43/43/43 44/44/44 
f 43/43/43 45/45/45 44/44/44 
f 44/44/44 45/45/45 46/46/46 
f 45/45/45 47/47/47 46/46/46 
f 46/46/46 47/47/47 46/46/46 
f 47/47/47 48/48/48 46/46/46 
f 46/46/46 48/48/48 46/46/46 
f 48/48/48 49/49/49 46/46/46 
f 46/46/46 49/49/49 46/46/46 
f 49/49/49 50/50/50 46/46/46 
f 46/46/46 50/50/50 44/44/44 
f 50/50/50 51/51/51 44/44/44 
f 44/44/44 51/51/51 42/42/42 
f 51/51/51 52/52/52 42/42/42 
f 42/42/42 52/52/52 42/42/42 
f 52/52/52 53/53/53 42/42/42 
f 42/42/42 53/53/53 41/41/41 
f 53/53/53 53/53/53 41/41/41 
f 41/41/41 53/53/53 39/39/39 
f 53/53/53 54/54/54 39/39/39 
f 39/39/39 54/54/54 37/37/37 
f 54/54/54 55/55/55 37/37/37 
f 37/37/37 55/55/55 35/35/35 
f 55/55/55 35/35/35 35/35/35 
f 35/35/35 35/35/35 55/55/55 
f 35/35/35 55/55/55 55/55/55 
f 55/55/55 55/55/55 56/56/56 
f 55/55/55 54/54/54 56/56/56 
f 56/56/56 54/54/54 57/57/57 
f 54/54/54 53/53/53 57/57/57 
f 57/57/57 53/53/53 58/58/58 
f 53/53/53 53/53/53 58/58/58 
f 58/58/58 53/53/53 59/59/59 
f 53/53/53 52/52/52 59/59/59 
f 59/59/59 52/52/52 60/60/60 
f 52/52/52 51/51/51 60/60/60 
f 60/60/60 51/51/51 61/61/61 
f 51/51/51 50/50/50 61/61/61 
f 61/61/61 50/50/50 62/62/62 
f 50/50/50 63/63/63 62/62/62 
f 62/62/62 63/63/63 64/64/64 
f 63/63/63 49/49/49 64/64/64 
f 64/64/64 49/49/49 64/64/64 
f 49/49/49 48/48/48 64/64/64 
f 64/64/64 48/48/48 64/64/64 
f 48/48/48 65/65/65 64/64/64 
f 64/64/64 65/65/65 64/64/64 
f 65/65/65 66/66/66 64/64/64 
f 64/64/64 66/66/66 64/64/64 
f 66/66/66 67/67/67 64/64/64 
f 64/64/64 67/67/67 62/62/62 
f 67/67/67 68/68/68 62/62/62 
f 62/62/62 68/68/68 61/61/61 
f 68/68/68 69/69/69 61/61/61 
f 61/61/61 69/69/69 60/60/60 
f 69/69/69 70/70/70 60/60/60 
f 60/60/60 70/70/70 59/59/59 
f 70/70/70 70/70/70 59/59/59 
f 59/59/59 70/70/70 58/58/58 
f 70/70/70 70/70/70 58/58/58 
f 58/58/58 70/70/70 71/71/71 
f 70/70/70 70/70/70 71/71/71 
f 71/71/71 70/70/70 72/72/72 
f 70/70/70 69/69/69 72/72/72 
f 72/72/72 69/69/69 73/73/73 
f 69/69/69 68/68/68 73/73/73 
f 73/73/73 68/68/68 73/73/73 
f 68/68/68 74/74/74 73/73/73 
f 73/73/73 74/74/74 73/73/73 
f 74/74/74 75/75/75 73/73/73 
f 73/73/73 75/75/75 72/72/72 
f 75/75/75 76/76/76 72/72/72 
f 72/72/72 76/76/76 71/71/71 
f 76/76/76 77/77/77 71/71/71 
f 71/71/71 77/77/77 58/58/58 
f 77/77/77 77/77/77 58/58/58 
f 58/58/58 77/77/77 57/57/57 
f 77/77/77 77/77/77 57/57/57 
f 57/57/57 77/77/77 56/56/56 
f 77/77/77 78/78/78 56/56/56 
f 56/56/56 78/78/78 56/56/56 
f 78/78/78 79/79/79 56/56/56 
f 56/56/56 79/79/79 55/55/55 
f 79/79/79 79/79/79 55/55/55 
f 55/55/55 79/79/79 35/35/35 
f 79/79/79 80/80/80 35/35/35 
f 35/35/35 80/80/80 33/33/33 
f 80/80/80 33/33/33 33/33/33 
f 33/33/33 33/33/33 50/50/50 
f 33/33/33 50/50/50 50/50/50 
f 50/50/50 50/50/50 63/63/63 
f 50/50/50 49/49/49 63/63/63 
f 63/63/63 49/49/49 49/49/49 
f 49/49/49 77/77/77 49/49/49 
f 49/49/49 77/77/77 77/77/77 
f 77/77/77 76/76/76 77/77/77 
f 77/77/77 76/76/76 78/78/78 
f 76/76/76 81/81/81 78/78/78 
f 78/78/78 81/81/81 79/79/79 
f 81/81/81 81/81/81 79/79/79 
f 79/79/79 81/81/81 80/80/80 
f 81/81/81 82/82/82 80/80/80 
f 80/80/80 82/82/82 80/80/80 
f 82/82/82 83/83/83 80/80/80 
f 80/80/80 83/83/83 33/33/33 
f 83/83/83 83/83/83 33/33/33 
f 33/33/33 83/83/83 31/31/31 
f 83/83/83 83/83/83 31/31/31 
f 31/31/31 83/83/83 29/29/29 
f 83/83/83 83/83/83 29/29/29 
f 29/29/29 83/83/83 84/84/84 
f 83/83/83 83/83/83 84/84/84 
f 84/84/84 83/83/83 85/85/85 
f 83/83/83 82/82/82 85/85/85 
f 85/85/85 82/82/82 75/75/75 
f 82/82/82 81/81/81 75/75/75 
f 75/75/75 81/81/81 76/76/76 
f 81/81/81 76/76/76 76/76/76 
f 76/76/76 76/76/76 85/85/85 
f 76/76/76 85/85/85 85/85/85 
f 85/85/85 85/85/85 86/86/86 
f 85/85/85 75/75/75 86/86/86 
f 86/86/86 75/75/75 86/86/86 
f 75/75/75 74/74/74 86/86/86 
f 86/86/86 74/74/74 87/87/87 
f 74/74/74 88/88/88 87/87/87 
f 87/87/87 88/88/88 87/87/87 
f 88/88/88 89/89/89 87/87/87 
f 87/87/87 89/89/89 29/29/29 
f 89/89/89 30/30/30 29/29/29 
f 29/29/29 30/30/30 30/30/30 
f 30/30/30 86/86/86 30/30/30 
f 30/30/30 86/86/86 86/86/86 
f 86/86/86 87/87/87 86/86/86 
f 86/86/86 87/87/87 85/85/85 
f 87/87/87 87/87/87 85/85/85 
f 85/85/85 87/87/87 84/84/84 
f 87/87/87 29/29/29 84/84/84 
f 84/84/84 29/29/29 29/29/29 
f 29/29/29 74/74/74 29/29/29 
f 29/29/29 74/74/74 74/74/74 
f 74/74/74 68/68/68 74/74/74 
f 74/74/74 68/68/68 88/88/88 
f 68/68/68 90/90/90 88/88/88 
f 88/88/88 90/90/90 89/89/89 
f 90/90/90 91/91/91 89/89/89 
f 89/89/89 91/91/91 30/30/30 
f 91/91/91 92/92/92 30/30/30 
f 30/30/30 92/92/92 93/93/93 
f 92/92/92 94/94/94 93/93/93 
f 93/93/93 94/94/94 27/27/27 
f 94/94/94 94/94/94 27/27/27 
f 27/27/27 94/94/94 25/25/25 
f 94/94/94 95/95/95 25/25/25 
f 25/25/25 95/95/95 23/23/23 
f 95/95/95 96/96/96 23/23/23 
f 23/23/23 96/96/96 21/21/21 
f 96/96/96 96/96/96 21/21/21 
f 21/21/21 96/96/96 19/19/19 
f 96/96/96 96/96/96 19/19/19 
f 19/19/19 96/96/96 20/20/20 
f 96/96/96 96/96/96 20/20/20 
f 20/20/20 96/96/96 97/97/97 
f 96/96/96 95/95/95 97/97/97 
f 97/97/97 95/95/95 97/97/97 
f 95/95/95 94/94/94 97/97/97 
f 97/97/97 94/94/94 65/65/65 
f 94/94/94 94/94/94 65/65/65 
f 65/65/65 94/94/94 98/98/98 
f 94/94/94 92/92/92 98/98/98 
f 98/98/98 92/92/92 66/66/66 
f 92/92/92 91/91/91 66/66/66 
f 66/66/66 91/91/91 66/66/66 
f 91/91/91 90/90/90 66/66/66 
f 66/66/66 90/90/90 67/67/67 
f 90/90/90 68/68/68 67/67/67 
f 67/67/67 68/68/68 68/68/68 
f 68/68/68 27/27/27 68/68/68 
f 68/68/68 27/27/27 27/27/27 
f 27/27/27 30/30/30 27/27/27 
f 27/27/27 30/30/30 93/93/93 
f 30/30/30 93/93/93 93/93/93 
f 93/93/93 93/93/93 20/20/20 
f 93/93/93 20/20/20 20/20/20 
f 20/20/20 20/20/20 65/65/65 
f 20/20/20 97/97/97 65/65/65 
f 65/65/65 97/97/97 97/97/97 
f 97/97/97 65/65/65 97/97/97 
f 97/97/97 65/65/65 65/65/65 
f 65/65/65 98/98/98 65/65/65 
f 65/65/65 98/98/98 66/66/66 

