mtllib model_24.mtl
o model_24
v 2.1560728549957275 -3.783466100692749 0.9155521392822266 
v 2.127467155456543 -3.744363784790039 0.9301095604896545 
v 2.1352686882019043 -3.8002243041992188 0.9276832938194275 
v 2.1066629886627197 -3.7778801918029785 0.9398145079612732 
v 2.0624542236328125 -3.833740472793579 0.9349620342254639 
v 2.0624542236328125 -3.7639150619506836 0.9470932483673096 
v 2.010443687438965 -3.8002243041992188 0.9495194554328918 
v 1.9766370058059692 -3.7667078971862793 0.9446669816970825 
v 1.9272271394729614 -3.8281543254852295 0.9252570867538452 
v 1.9636344909667969 -3.861670732498169 0.9373883008956909 
v 1.885618805885315 -3.8951869010925293 0.8961421847343445 
v 1.9168250560760498 -3.925910234451294 0.9155521392822266 
v 1.849211573600769 -3.962219476699829 0.8160762786865234 
v 1.8726162910461426 -3.9957356452941895 0.8330599665641785 
v 1.8648146390914917 -4.023665904998779 0.7578465342521667 
v 1.8908199071884155 -4.04042387008667 0.7724039554595947 
v 1.8830183744430542 -4.023665904998779 0.7190266847610474 
v 1.9168250560760498 -4.0460100173950195 0.7481415867805481 
v 1.9142245054244995 -4.020872592926025 0.8306336998939514 
v 1.968835473060608 -3.9566333293914795 0.9034209251403809 
v 2.0182454586029053 -3.8923938274383545 0.9252570867538452 
v 2.070255756378174 -3.9203240871429443 0.8961421847343445 
v 2.1118640899658203 -3.858877658843994 0.9155521392822266 
v 2.1430702209472656 -3.861670732498169 0.8864372372627258 
v 2.0624542236328125 -3.733191728591919 0.9422407746315002 
v 1.8466110229492188 -3.99014949798584 0.745715320110321 
v 2.1092636585235596 -3.9287030696868896 0.8451911807060242 
v 2.0234463214874268 -3.9817705154418945 0.8670273423194885 
v 2.0624542236328125 -3.99014949798584 0.7942401170730591 
v 1.9584333896636963 -4.03483772277832 0.8063713312149048 
v 1.9974411725997925 -4.03483772277832 0.7748302221298218 
v 1.9584333896636963 -4.037631034851074 0.7190266847610474 
v 2.0130443572998047 -4.004114627838135 0.7020429968833923 
v 1.955832839012146 -3.9845635890960693 0.6607969403266907 
v 1.9142245054244995 -4.015286922454834 0.6899117827415466 
v 1.8882193565368652 -3.99014949798584 0.682633101940155 
v 1.8648146390914917 -3.9929425716400146 0.7044692635536194 
v 1.867415189743042 -3.948254346847534 0.6874855756759644 
v 1.9064229726791382 -3.9594264030456543 0.663223147392273 
v 1.9974411725997925 -3.9342892169952393 0.6438132524490356 
v 1.9480313062667847 -3.9035658836364746 0.648665726184845 
v 1.8986214399337769 -3.875635862350464 0.682633101940155 
v 1.8414100408554077 -3.9454612731933594 0.728731632232666 
v 1.849211573600769 -3.962219476699829 0.8160762786865234 
v 1.8414100408554077 -3.923117160797119 0.791813850402832 
v 1.8726162910461426 -3.8560845851898193 0.8524698615074158 
v 1.8752167224884033 -3.8141894340515137 0.8015188574790955 
v 1.9090235233306885 -3.794638156890869 0.8888635039329529 
v 1.9272271394729614 -3.8281543254852295 0.9252570867538452 
v 1.9766370058059692 -3.7667078971862793 0.9446669816970825 
v 1.885618805885315 -3.8951869010925293 0.8961421847343445 
v 1.8466110229492188 -3.875635862350464 0.7675514817237854 
v 1.8570131063461304 -3.872842788696289 0.7214528918266296 
v 1.9636344909667969 -3.794638156890869 0.7093217372894287 
v 1.9922401905059814 -3.844912528991699 0.6535181999206543 
v 2.0286474227905273 -3.884014844894409 0.6413869857788086 
v 2.054652690887451 -3.9594264030456543 0.680206835269928 
v 2.104062557220459 -3.948254346847534 0.7554202675819397 
v 2.1092636585235596 -3.9287030696868896 0.8451911807060242 
v 2.1352686882019043 -3.9035658836364746 0.8112238049507141 
v 2.1430702209472656 -3.861670732498169 0.8864372372627258 
v 2.163874387741089 -3.850498676300049 0.8621748685836792 
v 2.1560728549957275 -3.783466100692749 0.9155521392822266 
v 2.1716761589050293 -3.7667078971862793 0.8961421847343445 
v 2.127467155456543 -3.744363784790039 0.9301095604896545 
v 2.137869358062744 -3.722019672393799 0.9106996655464172 
v 2.0624542236328125 -3.733191728591919 0.9422407746315002 
v 2.0650546550750732 -3.705261468887329 0.9228308200836182 
v 1.9610339403152466 -3.7359848022460938 0.9155521392822266 
v 1.9142245054244995 -3.758328914642334 0.8379124402999878 
v 1.903822422027588 -3.7890522480010986 0.7529940605163574 
v 1.9922401905059814 -3.755535840988159 0.760272741317749 
v 2.0286474227905273 -3.797431230545044 0.7190266847610474 
v 2.0494515895843506 -3.7667078971862793 0.7651252150535583 
v 2.0728561878204346 -3.8281543254852295 0.7214528918266296 
v 2.0234463214874268 -3.825361490249634 0.6705018877983093 
v 2.0494515895843506 -3.847705602645874 0.663223147392273 
v 2.080657958984375 -3.8700497150421143 0.6729280948638916 
v 2.0754568576812744 -3.9063589572906494 0.6656494140625 
v 2.1196656227111816 -3.9035658836364746 0.7335841059684753 
v 2.1430702209472656 -3.8700497150421143 0.7893876433372498 
v 2.1092636585235596 -3.861670732498169 0.7263054251670837 
v 2.130067825317383 -3.833740472793579 0.7748302221298218 
v 2.163874387741089 -3.8281543254852295 0.8379124402999878 
v 2.1716761589050293 -3.758328914642334 0.8694535493850708 
v 2.1430702209472656 -3.716433525085449 0.8840109705924988 
v 2.161273956298828 -3.755535840988159 0.8500436544418335 
v 2.148271322250366 -3.8002243041992188 0.8209287524223328 
v 2.0962610244750977 -3.797431230545044 0.7699777483940125 
v 2.070255756378174 -3.7387778759002686 0.8112238049507141 
v 2.0156447887420654 -3.733191728591919 0.7990925908088684 
v 1.9428303241729736 -3.744363784790039 0.7942401170730591 
v 1.9610339403152466 -3.708054542541504 0.8718798160552979 
v 1.9896396398544312 -3.708054542541504 0.8330599665641785 
v 2.0754568576812744 -3.6996755599975586 0.8573223352432251 
v 2.117065191268921 -3.7667078971862793 0.8160762786865234 
v 2.1352686882019043 -3.7276058197021484 0.8548961281776428 
v 2.070255756378174 -3.6912965774536133 0.8912897109985352 
vn 0.7021063566207886 -0.09021635353565216 0.7063339352607727 
vn 0.4299246370792389 0.2779238820075989 0.8590245246887207 
vn 0.46196848154067993 -0.21172654628753662 0.8612531423568726 
vn 0.2667223811149597 -0.052335239946842194 0.962351381778717 
vn 0.1737821102142334 -0.2659933269023895 0.9481810927391052 
vn 0.09807363152503967 0.036579571664333344 0.9945066571235657 
vn -0.043320417404174805 -0.060255032032728195 0.9972425103187561 
vn -0.3562523424625397 0.2885681092739105 0.888714075088501 
vn -0.586156964302063 0.12356333434581757 0.8007197380065918 
vn -0.17587359249591827 -0.16659630835056305 0.9702134728431702 
vn -0.7608493566513062 -0.022627603262662888 0.6485338807106018 
vn -0.3881031572818756 -0.35080230236053467 0.8522403836250305 
vn -0.9093661904335022 -0.2205510139465332 0.3527185618877411 
vn -0.6378105878829956 -0.556522786617279 0.5324283838272095 
vn -0.7123432755470276 -0.7016646265983582 0.0152922747656703 
vn -0.3771432042121887 -0.9092708826065063 0.1760382205247879 
vn -0.4799191355705261 -0.7607437968254089 -0.43697428703308105 
vn -0.12980805337429047 -0.9847855567932129 -0.11553031951189041 
vn -0.21451550722122192 -0.8090860247612 0.5471406579017639 
vn 0.00941471941769123 -0.5813280940055847 0.8136147856712341 
vn 0.14712245762348175 -0.3797668516635895 0.913308322429657 
vn 0.40687981247901917 -0.5792591571807861 0.7063339352607727 
vn 0.42918217182159424 -0.42784929275512695 0.7954543828964233 
vn 0.7219594717025757 -0.48353156447410583 0.4949462115764618 
vn 0.037578023970127106 0.40553146600723267 0.913308322429657 
vn -0.9218441247940063 -0.3685576915740967 -0.11986933648586273 
vn 0.6712338328361511 -0.6605602502822876 0.3363112509250641 
vn 0.3297024965286255 -0.7368127107620239 0.590256929397583 
vn 0.5977672338485718 -0.7945176362991333 0.10684575140476227 
vn 0.14097341895103455 -0.9250492453575134 0.3527185618877411 
vn 0.3948092758655548 -0.9173891544342041 0.05022686347365379 
vn 0.18201586604118347 -0.9114251732826233 -0.3690181374549866 
vn 0.43444889783859253 -0.7550039291381836 -0.4911448359489441 
vn 0.011332795955240726 -0.49291643500328064 -0.8700028657913208 
vn -0.1721721738576889 -0.696100115776062 -0.6969945430755615 
vn -0.4653474688529968 -0.41459259390830994 -0.7820260524749756 
vn -0.7205068469047546 -0.4116222560405731 -0.5580654144287109 
vn -0.7015876173973083 -0.011342853307723999 -0.7124928832054138 
vn -0.3894319236278534 -0.15516386926174164 -0.9078915119171143 
vn 0.11058134585618973 -0.2620205283164978 -0.9587059020996094 
vn -0.30343806743621826 0.1497269719839096 -0.9410139322280884 
vn -0.5365850925445557 0.373028427362442 -0.7569189071655273 
vn -0.9500557780265808 -0.018869031220674515 -0.31150925159454346 
vn -0.9093661904335022 -0.2205510139465332 0.3527185618877411 
vn -0.9869776368141174 0.06783986836671829 0.1458524912595749 
vn -0.9031564593315125 0.23874561488628387 0.3568037748336792 
vn -0.8743482828140259 0.48446738719940186 0.028397228568792343 
vn -0.8062214255332947 0.3762940466403961 0.456519216299057 
vn -0.586156964302063 0.12356333434581757 0.8007197380065918 
vn -0.3562523424625397 0.2885681092739105 0.888714075088501 
vn -0.7608493566513062 -0.022627603262662888 0.6485338807106018 
vn -0.9498443603515625 0.31179845333099365 -0.024029340595006943 
vn -0.813408613204956 0.37014952301979065 -0.4487268626689911 
vn -0.21582993865013123 0.7179975509643555 -0.661737859249115 
vn -0.12524305284023285 0.4807988107204437 -0.8678402304649353 
vn 0.2146502435207367 0.08125081658363342 -0.9733054637908936 
vn 0.550220787525177 -0.5689241290092468 -0.6112139225006104 
vn 0.7777265310287476 -0.5967705249786377 -0.1975002884864807 
vn 0.6712338328361511 -0.6605602502822876 0.3363112509250641 
vn 0.8634950518608093 -0.5043525099754333 -0.002184694167226553 
vn 0.7219594717025757 -0.48353156447410583 0.4949462115764618 
vn 0.9249185919761658 -0.34735822677612305 0.15449213981628418 
vn 0.7021063566207886 -0.09021635353565216 0.7063339352607727 
vn 0.9225403070449829 0.11289363354444504 0.3690181374549866 
vn 0.4299246370792389 0.2779238820075989 0.8590245246887207 
vn 0.5622127056121826 0.6168826222419739 0.5507928133010864 
vn 0.037578023970127106 0.40553146600723267 0.913308322429657 
vn 0.011308916844427586 0.7750890254974365 0.6317508816719055 
vn -0.5422547459602356 0.6048639416694641 0.5831804275512695 
vn -0.7739027142524719 0.6313096284866333 0.05022686347365379 
vn -0.5966832041740417 0.6781184077262878 -0.42909738421440125 
vn -0.0018896718975156546 0.8072131872177124 -0.590256929397583 
vn 0.27735745906829834 0.7608070969581604 -0.5867242813110352 
vn 0.3295471966266632 0.716647744178772 -0.6146662831306458 
vn 0.5687016844749451 0.6301019787788391 -0.528724730014801 
vn 0.2194351851940155 0.7046805024147034 -0.67473965883255 
vn 0.4521920382976532 0.5029635429382324 -0.736579954624176 
vn 0.6960194706916809 0.30107107758522034 -0.651853621006012 
vn 0.6555019021034241 -0.1792270839214325 -0.7336177229881287 
vn 0.8843082189559937 -0.20958489179611206 -0.417220801115036 
vn 0.9364215135574341 -0.11297091096639633 -0.33219319581985474 
vn 0.789874255657196 0.31695756316185 -0.5250110030174255 
vn 0.7637205719947815 0.3306560516357422 -0.5544344186782837 
vn 0.963047206401825 -0.045302730053663254 -0.26549527049064636 
vn 0.9319940209388733 0.325833261013031 -0.15880759060382843 
vn 0.5926607847213745 0.8054491877555847 -0.002184694167226553 
vn 0.7009790539741516 0.4105227589607239 -0.5831804275512695 
vn 0.742948055267334 0.30211707949638367 -0.5972883701324463 
vn 0.5447631478309631 0.5741521120071411 -0.6112139225006104 
vn 0.29121559858322144 0.7154027223587036 -0.6351318359375 
vn 0.09414935857057571 0.8042950630187988 -0.5867242813110352 
vn -0.425241619348526 0.8171088099479675 -0.3892335295677185 
vn -0.48929691314697266 0.8625925183296204 0.12854042649269104 
vn -0.17445681989192963 0.9145346879959106 -0.3649536371231079 
vn 0.18549302220344543 0.8878024816513062 -0.42118772864341736 
vn 0.47970348596572876 0.5530830025672913 -0.681163489818573 
vn 0.485988050699234 0.6958920359611511 -0.528724730014801 
vn 0.0641121044754982 0.9901830554008484 0.1242060661315918 
vt 0.1613350361585617 0.1777421534061432 
vt 0.1541222333908081 0.17737747728824615 
vt 0.16094161570072174 0.17360912263393402 
vt 0.15622049570083618 0.17202883958816528 
vt 0.15923677384853363 0.16339808702468872 
vt 0.15110597014427185 0.16801735758781433 
vt 0.15176168084144592 0.15950815379619598 
vt 0.14559799432754517 0.15780632197856903 
vt 0.14992567896842957 0.14747372269630432 
vt 0.15582707524299622 0.15039116144180298 
vt 0.1564827859401703 0.13787047564983368 
vt 0.1610727608203888 0.14188195765018463 
vt 0.16776099801063538 0.12705163657665253 
vt 0.1702526956796646 0.13191403448581696 
vt 0.1783834993839264 0.12851035594940186 
vt 0.17772778868675232 0.13191403448581696 
vt 0.1812686175107956 0.13057687878608704 
vt 0.17969492077827454 0.1337374448776245 
vt 0.17326895892620087 0.1359255164861679 
vt 0.16671186685562134 0.14589343965053558 
vt 0.1627776026725769 0.15440264344215393 
vt 0.1702526956796646 0.15780632197856903 
vt 0.1659250110387802 0.1666802018880844 
vt 0.17090840637683868 0.17020544409751892 
vt 0.14756512641906738 0.17057012021541595 
vt 0.18021948635578156 0.12316171824932098 
vt 0.17812120914459229 0.16108843684196472 
vt 0.17392466962337494 0.14905400574207306 
vt 0.18428489565849304 0.15026959776878357 
vt 0.17707207798957825 0.13884295523166656 
vt 0.18100634217262268 0.14127415418624878 
vt 0.18192432820796967 0.13616864383220673 
vt 0.18507173657417297 0.13945075869560242 
vt 0.1861208826303482 0.1347099244594574 
vt 0.18336689472198486 0.13264340162277222 
vt 0.18428489565849304 0.13057687878608704 
vt 0.18310461938381195 0.12814567983150482 
vt 0.18625201284885406 0.12875348329544067 
vt 0.18651430308818817 0.13154935836791992 
vt 0.1890060007572174 0.13629019260406494 
vt 0.18966171145439148 0.1334943175315857 
vt 0.19057971239089966 0.1303337663412094 
vt 0.1855963170528412 0.12522824108600616 
vt 0.18717001378536224 0.11635436117649078 
vt 0.1892682909965515 0.12073051929473877 
vt 0.1971368044614792 0.12060896307229996 
vt 0.19661223888397217 0.1254713535308838 
vt 0.20290705561637878 0.12352640181779861 
vt 0.20552989840507507 0.11987960338592529 
vt 0.20998872816562653 0.12583604454994202 
vt 0.19844822585582733 0.11562500149011612 
vt 0.1916288435459137 0.12425576150417328 
vt 0.19071084260940552 0.12705163657665253 
vt 0.19543196260929108 0.13276496529579163 
vt 0.19267797470092773 0.13507460057735443 
vt 0.19149769842624664 0.1370195597410202 
vt 0.1887437254190445 0.14005856215953827 
vt 0.1901862770318985 0.1461365669965744 
vt 0.19438281655311584 0.15367327630519867 
vt 0.19582538306713104 0.14893244206905365 
vt 0.2036939114332199 0.15197144448757172 
vt 0.20277591049671173 0.14881087839603424 
vt 0.2103821486234665 0.14565032720565796 
vt 0.20854616165161133 0.14407004415988922 
vt 0.2123492807149887 0.1405448019504547 
vt 0.21011985838413239 0.14018012583255768 
vt 0.21261155605316162 0.13385899364948273 
vt 0.21025100350379944 0.134588360786438 
vt 0.20697245001792908 0.12765944004058838 
vt 0.20107106864452362 0.12729476392269135 
vt 0.19608767330646515 0.1289965957403183 
vt 0.19897279143333435 0.13337275385856628 
vt 0.19661223888397217 0.13604708015918732 
vt 0.19962850213050842 0.13653331995010376 
vt 0.19608767330646515 0.13896451890468597 
vt 0.19398939609527588 0.13616864383220673 
vt 0.1933336853981018 0.13750579953193665 
vt 0.19294026494026184 0.13908608257770538 
vt 0.1913665533065796 0.13957232236862183 
vt 0.1930714100599289 0.14358380436897278 
vt 0.19726794958114624 0.14577187597751617 
vt 0.19490739703178406 0.1415172815322876 
vt 0.19844822585582733 0.14297600090503693 
vt 0.20251363515853882 0.14625811576843262 
vt 0.20710359513759613 0.14297600090503693 
vt 0.20841501653194427 0.14005856215953827 
vt 0.20579217374324799 0.14236819744110107 
vt 0.20251363515853882 0.14346224069595337 
vt 0.19923508167266846 0.13981543481349945 
vt 0.20290705561637878 0.1370195597410202 
vt 0.2017267793416977 0.13398055732250214 
vt 0.2000219225883484 0.1303337663412094 
vt 0.204874187707901 0.12972596287727356 
vt 0.2034316211938858 0.13203559815883636 
vt 0.20618560910224915 0.13616864383220673 
vt 0.20290705561637878 0.1403016746044159 
vt 0.20644788444042206 0.14005856215953827 
vt 0.20815274119377136 0.13531771302223206 
s on 
f 1/1/1 2/2/2 3/3/3 
f 2/2/2 4/4/4 3/3/3 
f 3/3/3 4/4/4 5/5/5 
f 4/4/4 6/6/6 5/5/5 
f 5/5/5 6/6/6 7/7/7 
f 6/6/6 8/8/8 7/7/7 
f 7/7/7 8/8/8 7/7/7 
f 8/8/8 9/9/9 7/7/7 
f 7/7/7 9/9/9 10/10/10 
f 9/9/9 11/11/11 10/10/10 
f 10/10/10 11/11/11 12/12/12 
f 11/11/11 13/13/13 12/12/12 
f 12/12/12 13/13/13 14/14/14 
f 13/13/13 15/15/15 14/14/14 
f 14/14/14 15/15/15 16/16/16 
f 15/15/15 17/17/17 16/16/16 
f 16/16/16 17/17/17 16/16/16 
f 17/17/17 18/18/18 16/16/16 
f 16/16/16 18/18/18 16/16/16 
f 18/18/18 19/19/19 16/16/16 
f 16/16/16 19/19/19 14/14/14 
f 19/19/19 20/20/20 14/14/14 
f 14/14/14 20/20/20 12/12/12 
f 20/20/20 20/20/20 12/12/12 
f 12/12/12 20/20/20 10/10/10 
f 20/20/20 21/21/21 10/10/10 
f 10/10/10 21/21/21 7/7/7 
f 21/21/21 21/21/21 7/7/7 
f 7/7/7 21/21/21 5/5/5 
f 21/21/21 22/22/22 5/5/5 
f 5/5/5 22/22/22 5/5/5 
f 22/22/22 23/23/23 5/5/5 
f 5/5/5 23/23/23 3/3/3 
f 23/23/23 24/24/24 3/3/3 
f 3/3/3 24/24/24 1/1/1 
f 24/24/24 1/1/1 1/1/1 
f 1/1/1 1/1/1 4/4/4 
f 1/1/1 4/4/4 4/4/4 
f 4/4/4 4/4/4 6/6/6 
f 4/4/4 2/2/2 6/6/6 
f 6/6/6 2/2/2 6/6/6 
f 2/2/2 25/25/25 6/6/6 
f 6/6/6 25/25/25 8/8/8 
f 25/25/25 8/8/8 8/8/8 
f 8/8/8 8/8/8 13/13/13 
f 8/8/8 13/13/13 13/13/13 
f 13/13/13 13/13/13 15/15/15 
f 13/13/13 26/26/26 15/15/15 
f 15/15/15 26/26/26 17/17/17 
f 26/26/26 17/17/17 17/17/17 
f 17/17/17 17/17/17 23/23/23 
f 17/17/17 23/23/23 23/23/23 
f 23/23/23 23/23/23 24/24/24 
f 23/23/23 22/22/22 24/24/24 
f 24/24/24 22/22/22 27/27/27 
f 22/22/22 28/28/28 27/27/27 
f 27/27/27 28/28/28 29/29/29 
f 28/28/28 30/30/30 29/29/29 
f 29/29/29 30/30/30 31/31/31 
f 30/30/30 18/18/18 31/31/31 
f 31/31/31 18/18/18 32/32/32 
f 18/18/18 17/17/17 32/32/32 
f 32/32/32 17/17/17 17/17/17 
f 17/17/17 22/22/22 17/17/17 
f 17/17/17 22/22/22 22/22/22 
f 22/22/22 21/21/21 22/22/22 
f 22/22/22 21/21/21 28/28/28 
f 21/21/21 20/20/20 28/28/28 
f 28/28/28 20/20/20 28/28/28 
f 20/20/20 19/19/19 28/28/28 
f 28/28/28 19/19/19 30/30/30 
f 19/19/19 18/18/18 30/30/30 
f 30/30/30 18/18/18 18/18/18 
f 18/18/18 31/31/31 18/18/18 
f 18/18/18 31/31/31 31/31/31 
f 31/31/31 32/32/32 31/31/31 
f 31/31/31 32/32/32 29/29/29 
f 32/32/32 32/32/32 29/29/29 
f 29/29/29 32/32/32 33/33/33 
f 32/32/32 32/32/32 33/33/33 
f 33/33/33 32/32/32 34/34/34 
f 32/32/32 35/35/35 34/34/34 
f 34/34/34 35/35/35 36/36/36 
f 35/35/35 17/17/17 36/36/36 
f 36/36/36 17/17/17 37/37/37 
f 17/17/17 26/26/26 37/37/37 
f 37/37/37 26/26/26 37/37/37 
f 26/26/26 38/38/38 37/37/37 
f 37/37/37 38/38/38 36/36/36 
f 38/38/38 39/39/39 36/36/36 
f 36/36/36 39/39/39 34/34/34 
f 39/39/39 39/39/39 34/34/34 
f 34/34/34 39/39/39 40/40/40 
f 39/39/39 39/39/39 40/40/40 
f 40/40/40 39/39/39 41/41/41 
f 39/39/39 38/38/38 41/41/41 
f 41/41/41 38/38/38 42/42/42 
f 38/38/38 38/38/38 42/42/42 
f 42/42/42 38/38/38 43/43/43 
f 38/38/38 26/26/26 43/43/43 
f 43/43/43 26/26/26 43/43/43 
f 26/26/26 44/44/44 43/43/43 
f 43/43/43 44/44/44 45/45/45 
f 44/44/44 46/46/46 45/45/45 
f 45/45/45 46/46/46 47/47/47 
f 46/46/46 46/46/46 47/47/47 
f 47/47/47 46/46/46 48/48/48 
f 46/46/46 49/49/49 48/48/48 
f 48/48/48 49/49/49 50/50/50 
f 49/49/49 50/50/50 50/50/50 
f 50/50/50 50/50/50 32/32/32 
f 50/50/50 32/32/32 32/32/32 
f 32/32/32 32/32/32 35/35/35 
f 32/32/32 17/17/17 35/35/35 
f 35/35/35 17/17/17 17/17/17 
f 17/17/17 44/44/44 17/17/17 
f 17/17/17 44/44/44 44/44/44 
f 44/44/44 51/51/51 44/44/44 
f 44/44/44 51/51/51 46/46/46 
f 51/51/51 49/49/49 46/46/46 
f 46/46/46 49/49/49 49/49/49 
f 49/49/49 47/47/47 49/49/49 
f 49/49/49 47/47/47 47/47/47 
f 47/47/47 52/52/52 47/47/47 
f 47/47/47 52/52/52 45/45/45 
f 52/52/52 52/52/52 45/45/45 
f 45/45/45 52/52/52 43/43/43 
f 52/52/52 53/53/53 43/43/43 
f 43/43/43 53/53/53 42/42/42 
f 53/53/53 54/54/54 42/42/42 
f 42/42/42 54/54/54 41/41/41 
f 54/54/54 55/55/55 41/41/41 
f 41/41/41 55/55/55 40/40/40 
f 55/55/55 56/56/56 40/40/40 
f 40/40/40 56/56/56 40/40/40 
f 56/56/56 57/57/57 40/40/40 
f 40/40/40 57/57/57 34/34/34 
f 57/57/57 57/57/57 34/34/34 
f 34/34/34 57/57/57 33/33/33 
f 57/57/57 57/57/57 33/33/33 
f 33/33/33 57/57/57 29/29/29 
f 57/57/57 58/58/58 29/29/29 
f 29/29/29 58/58/58 59/59/59 
f 58/58/58 60/60/60 59/59/59 
f 59/59/59 60/60/60 61/61/61 
f 60/60/60 62/62/62 61/61/61 
f 61/61/61 62/62/62 63/63/63 
f 62/62/62 64/64/64 63/63/63 
f 63/63/63 64/64/64 65/65/65 
f 64/64/64 66/66/66 65/65/65 
f 65/65/65 66/66/66 67/67/67 
f 66/66/66 68/68/68 67/67/67 
f 67/67/67 68/68/68 67/67/67 
f 68/68/68 69/69/69 67/67/67 
f 67/67/67 69/69/69 50/50/50 
f 69/69/69 69/69/69 50/50/50 
f 50/50/50 69/69/69 48/48/48 
f 69/69/69 70/70/70 48/48/48 
f 48/48/48 70/70/70 47/47/47 
f 70/70/70 71/71/71 47/47/47 
f 47/47/47 71/71/71 53/53/53 
f 71/71/71 71/71/71 53/53/53 
f 53/53/53 71/71/71 54/54/54 
f 71/71/71 72/72/72 54/54/54 
f 54/54/54 72/72/72 73/73/73 
f 72/72/72 74/74/74 73/73/73 
f 73/73/73 74/74/74 73/73/73 
f 74/74/74 75/75/75 73/73/73 
f 73/73/73 75/75/75 76/76/76 
f 75/75/75 77/77/77 76/76/76 
f 76/76/76 77/77/77 56/56/56 
f 77/77/77 78/78/78 56/56/56 
f 56/56/56 78/78/78 56/56/56 
f 78/78/78 79/79/79 56/56/56 
f 56/56/56 79/79/79 57/57/57 
f 79/79/79 80/80/80 57/57/57 
f 57/57/57 80/80/80 58/58/58 
f 80/80/80 80/80/80 58/58/58 
f 58/58/58 80/80/80 60/60/60 
f 80/80/80 81/81/81 60/60/60 
f 60/60/60 81/81/81 62/62/62 
f 81/81/81 62/62/62 62/62/62 
f 62/62/62 62/62/62 47/47/47 
f 62/62/62 47/47/47 47/47/47 
f 47/47/47 47/47/47 52/52/52 
f 47/47/47 53/53/53 52/52/52 
f 52/52/52 53/53/53 53/53/53 
f 53/53/53 56/56/56 53/53/53 
f 53/53/53 56/56/56 56/56/56 
f 56/56/56 55/55/55 56/56/56 
f 56/56/56 55/55/55 76/76/76 
f 55/55/55 54/54/54 76/76/76 
f 76/76/76 54/54/54 73/73/73 
f 54/54/54 73/73/73 73/73/73 
f 73/73/73 73/73/73 77/77/77 
f 73/73/73 77/77/77 77/77/77 
f 77/77/77 77/77/77 78/78/78 
f 77/77/77 75/75/75 78/78/78 
f 78/78/78 75/75/75 82/82/82 
f 75/75/75 83/83/83 82/82/82 
f 82/82/82 83/83/83 81/81/81 
f 83/83/83 84/84/84 81/81/81 
f 81/81/81 84/84/84 62/62/62 
f 84/84/84 85/85/85 62/62/62 
f 62/62/62 85/85/85 64/64/64 
f 85/85/85 86/86/86 64/64/64 
f 64/64/64 86/86/86 66/66/66 
f 86/86/86 66/66/66 66/66/66 
f 66/66/66 66/66/66 79/79/79 
f 66/66/66 79/79/79 79/79/79 
f 79/79/79 79/79/79 80/80/80 
f 79/79/79 78/78/78 80/80/80 
f 80/80/80 78/78/78 80/80/80 
f 78/78/78 82/82/82 80/80/80 
f 80/80/80 82/82/82 81/81/81 
f 82/82/82 81/81/81 81/81/81 
f 81/81/81 81/81/81 86/86/86 
f 81/81/81 86/86/86 86/86/86 
f 86/86/86 86/86/86 87/87/87 
f 86/86/86 85/85/85 87/87/87 
f 87/87/87 85/85/85 87/87/87 
f 85/85/85 84/84/84 87/87/87 
f 87/87/87 84/84/84 88/88/88 
f 84/84/84 83/83/83 88/88/88 
f 88/88/88 83/83/83 89/89/89 
f 83/83/83 75/75/75 89/89/89 
f 89/89/89 75/75/75 89/89/89 
f 75/75/75 74/74/74 89/89/89 
f 89/89/89 74/74/74 90/90/90 
f 74/74/74 74/74/74 90/90/90 
f 90/90/90 74/74/74 91/91/91 
f 74/74/74 72/72/72 91/91/91 
f 91/91/91 72/72/72 92/92/92 
f 72/72/72 71/71/71 92/92/92 
f 92/92/92 71/71/71 92/92/92 
f 71/71/71 70/70/70 92/92/92 
f 92/92/92 70/70/70 93/93/93 
f 70/70/70 69/69/69 93/93/93 
f 93/93/93 69/69/69 69/69/69 
f 69/69/69 93/93/93 69/69/69 
f 69/69/69 93/93/93 93/93/93 
f 93/93/93 94/94/94 93/93/93 
f 93/93/93 94/94/94 92/92/92 
f 94/94/94 94/94/94 92/92/92 
f 92/92/92 94/94/94 91/91/91 
f 94/94/94 95/95/95 91/91/91 
f 91/91/91 95/95/95 90/90/90 
f 95/95/95 96/96/96 90/90/90 
f 90/90/90 96/96/96 89/89/89 
f 96/96/96 96/96/96 89/89/89 
f 89/89/89 96/96/96 88/88/88 
f 96/96/96 96/96/96 88/88/88 
f 88/88/88 96/96/96 87/87/87 
f 96/96/96 97/97/97 87/87/87 
f 87/87/87 97/97/97 86/86/86 
f 97/97/97 97/97/97 86/86/86 
f 86/86/86 97/97/97 98/98/98 
f 97/97/97 95/95/95 98/98/98 
f 98/98/98 95/95/95 98/98/98 
f 95/95/95 94/94/94 98/98/98 
f 98/98/98 94/94/94 98/98/98 
f 94/94/94 93/93/93 98/98/98 
f 98/98/98 93/93/93 98/98/98 
f 93/93/93 69/69/69 98/98/98 
f 98/98/98 69/69/69 98/98/98 
f 69/69/69 68/68/68 98/98/98 
f 98/98/98 68/68/68 98/98/98 
f 68/68/68 66/66/66 98/98/98 
f 98/98/98 66/66/66 86/86/86 
f 66/66/66 86/86/86 86/86/86 
f 86/86/86 86/86/86 96/96/96 
f 86/86/86 96/96/96 96/96/96 
f 96/96/96 96/96/96 97/97/97 
f 96/96/96 95/95/95 97/97/97 

