mtllib model_27.mtl
o model_27
v 48.23845291137695 22.156341552734375 0.017130445688962936 
v 48.23845291137695 22.156341552734375 -0.0034852130338549614 
v 42.48950958251953 22.156341552734375 0.017130445688962936 
v 42.48950958251953 22.156341552734375 -0.0034852130338549614 
v 42.48950958251953 22.156341552734375 0.017130445688962936 
v 42.48950958251953 20.76869773864746 0.017130445688962936 
v 48.23845291137695 22.156341552734375 0.017130445688962936 
v 48.23845291137695 20.76869773864746 0.017130445688962936 
v 48.23845291137695 22.156341552734375 0.017130445688962936 
v 48.23845291137695 20.76869773864746 0.017130445688962936 
v 48.23845291137695 22.156341552734375 -0.0034852130338549614 
v 48.23845291137695 20.76869773864746 -0.0034852130338549614 
v 48.23845291137695 22.156341552734375 -0.0034852130338549614 
v 48.23845291137695 20.76869773864746 -0.0034852130338549614 
v 42.48950958251953 22.156341552734375 -0.0034852130338549614 
v 42.48950958251953 20.76869773864746 -0.0034852130338549614 
v 42.48950958251953 20.76869773864746 -0.0034852130338549614 
v 42.48950958251953 20.76869773864746 0.017130445688962936 
v 42.48950958251953 22.156341552734375 -0.0034852130338549614 
v 42.48950958251953 22.156341552734375 0.017130445688962936 
vn -4.1295970549387606e-13 3.993361473083496 0.008724294602870941 
vn -4.1295970549387606e-13 3.993361473083496 0.008724294602870941 
vn -4.1295970549387606e-13 3.993361473083496 0.008724294602870941 
vn -4.1295970549387606e-13 3.993361473083496 0.008724294602870941 
vn 0 0 3.99337100982666 
vn 0 0 3.99337100982666 
vn 0 0 3.99337100982666 
vn 0 0 3.99337100982666 
vn 3.993361473083496 0 0.008724294602870941 
vn 3.993361473083496 0 0.008724294602870941 
vn 3.993361473083496 0 0.008724294602870941 
vn 3.993361473083496 0 0.008724294602870941 
vn -8.259214167617712e-13 0 -3.99337100982666 
vn -8.259214167617712e-13 0 -3.99337100982666 
vn -8.259214167617712e-13 0 -3.99337100982666 
vn -8.259214167617712e-13 0 -3.99337100982666 
vn -3.993361473083496 -8.259194109877521e-13 0.008724294602870941 
vn -3.993361473083496 -8.259194109877521e-13 0.008724294602870941 
vn -3.993361473083496 -8.259194109877521e-13 0.008724294602870941 
vn -3.993361473083496 -8.259194109877521e-13 0.008724294602870941 
vt 0.9608744382858276 0.8192139863967896 
vt 0.9608744382858276 0.8192139863967896 
vt 0.07420869916677475 0.8192139863967896 
vt 0.07420869916677475 0.8192139863967896 
vt 0.07420869916677475 0.8192139863967896 
vt 0.07420869916677475 0.4147050082683563 
vt 0.9608744382858276 0.8192139863967896 
vt 0.9608744382858276 0.4147050082683563 
vt 0.9608744382858276 0.8192139863967896 
vt 0.9608744382858276 0.4147050082683563 
vt 0.9608744382858276 0.8192139863967896 
vt 0.9608744382858276 0.4147050082683563 
vt 0.9608744382858276 0.8192139863967896 
vt 0.9608744382858276 0.4147050082683563 
vt 0.07420869916677475 0.8192139863967896 
vt 0.07420869916677475 0.4147050082683563 
vt 0.07420869916677475 0.4147050082683563 
vt 0.07420869916677475 0.4147050082683563 
vt 0.07420869916677475 0.8192139863967896 
vt 0.07420869916677475 0.8192139863967896 
s on 
f 1/1/1 2/2/2 3/3/3 
f 2/2/2 4/4/4 3/3/3 
f 3/3/3 4/4/4 4/4/4 
f 4/4/4 5/5/5 4/4/4 
f 4/4/4 5/5/5 5/5/5 
f 5/5/5 6/6/6 5/5/5 
f 5/5/5 6/6/6 7/7/7 
f 6/6/6 8/8/8 7/7/7 
f 7/7/7 8/8/8 8/8/8 
f 8/8/8 9/9/9 8/8/8 
f 8/8/8 9/9/9 9/9/9 
f 9/9/9 10/10/10 9/9/9 
f 9/9/9 10/10/10 11/11/11 
f 10/10/10 12/12/12 11/11/11 
f 11/11/11 12/12/12 12/12/12 
f 12/12/12 13/13/13 12/12/12 
f 12/12/12 13/13/13 13/13/13 
f 13/13/13 14/14/14 13/13/13 
f 13/13/13 14/14/14 15/15/15 
f 14/14/14 16/16/16 15/15/15 
f 15/15/15 16/16/16 16/16/16 
f 16/16/16 17/17/17 16/16/16 
f 16/16/16 17/17/17 17/17/17 
f 17/17/17 18/18/18 17/17/17 
f 17/17/17 18/18/18 19/19/19 
f 18/18/18 20/20/20 19/19/19 

