mtllib model_19.mtl
o model_19
v 60.799537658691406 -14.669451713562012 0.5766897201538086 
v 60.799537658691406 -14.669451713562012 0.6045842170715332 
v 51.31950378417969 -14.669451713562012 0.5766897201538086 
v 51.31950378417969 -14.669451713562012 0.6045842170715332 
v 51.31950378417969 -11.706110954284668 0.6045842170715332 
v 51.31950378417969 -14.669451713562012 0.6045842170715332 
v 60.799537658691406 -11.706110954284668 0.6045842170715332 
v 60.799537658691406 -14.669451713562012 0.6045842170715332 
v 51.31950378417969 -11.706110954284668 0.6045842170715332 
v 51.31950378417969 -11.706110954284668 0.5766897201538086 
v 51.31950378417969 -14.669451713562012 0.6045842170715332 
v 51.31950378417969 -14.669451713562012 0.5766897201538086 
v 60.799537658691406 -14.669451713562012 0.6045842170715332 
v 60.799537658691406 -14.669451713562012 0.5766897201538086 
v 60.799537658691406 -11.706110954284668 0.6045842170715332 
v 60.799537658691406 -11.706110954284668 0.5766897201538086 
v 60.799537658691406 -11.706110954284668 0.5766897201538086 
v 60.799537658691406 -14.669451713562012 0.5766897201538086 
v 51.31950378417969 -11.706110954284668 0.5766897201538086 
v 51.31950378417969 -14.669451713562012 0.5766897201538086 
v 60.799537658691406 -11.706110954284668 0.6045842170715332 
v 60.799537658691406 -11.706110954284668 0.5766897201538086 
v 51.31950378417969 -11.706110954284668 0.6045842170715332 
v 51.31950378417969 -11.706110954284668 0.5766897201538086 
vn 9.142928384872628e-13 -2.9513254165649414 0.006447758991271257 
vn 9.142928384872628e-13 -2.9513254165649414 0.006447758991271257 
vn 9.142928384872628e-13 -2.9513254165649414 0.006447758991271257 
vn 9.142928384872628e-13 -2.9513254165649414 0.006447758991271257 
vn 0 0 2.9513325691223145 
vn 0 0 2.9513325691223145 
vn 0 0 2.9513325691223145 
vn 0 0 2.9513325691223145 
vn -2.9513254165649414 -6.104022994522784e-13 0.006447758991271257 
vn -2.9513254165649414 -6.104022994522784e-13 0.006447758991271257 
vn -2.9513254165649414 -6.104022994522784e-13 0.006447758991271257 
vn -2.9513254165649414 -6.104022994522784e-13 0.006447758991271257 
vn 2.9513254165649414 0 0.006447758991271257 
vn 2.9513254165649414 0 0.006447758991271257 
vn 2.9513254165649414 0 0.006447758991271257 
vn 2.9513254165649414 0 0.006447758991271257 
vn -6.104037631252113e-13 0 -2.9513325691223145 
vn -6.104037631252113e-13 0 -2.9513325691223145 
vn -6.104037631252113e-13 0 -2.9513325691223145 
vn -6.104037631252113e-13 0 -2.9513325691223145 
vn -3.052011497261392e-13 2.9513254165649414 0.006447758991271257 
vn -3.052011497261392e-13 2.9513254165649414 0.006447758991271257 
vn -3.052011497261392e-13 2.9513254165649414 0.006447758991271257 
vn -3.052011497261392e-13 2.9513254165649414 0.006447758991271257 
vt 1.0000005960464478 0.1727599948644638 
vt 1.0000005960464478 0.1727599948644638 
vt 0 0.1727599948644638 
vt 0 0.1727599948644638 
vt 0 0.827240526676178 
vt 0 0.1727599948644638 
vt 1.0000005960464478 0.827240526676178 
vt 1.0000005960464478 0.1727599948644638 
vt 0 0.827240526676178 
vt 0 0.827240526676178 
vt 0 0.1727599948644638 
vt 0 0.1727599948644638 
vt 1.0000005960464478 0.1727599948644638 
vt 1.0000005960464478 0.1727599948644638 
vt 1.0000005960464478 0.827240526676178 
vt 1.0000005960464478 0.827240526676178 
vt 1.0000005960464478 0.827240526676178 
vt 1.0000005960464478 0.1727599948644638 
vt 0 0.827240526676178 
vt 0 0.1727599948644638 
vt 1.0000005960464478 0.827240526676178 
vt 1.0000005960464478 0.827240526676178 
vt 0 0.827240526676178 
vt 0 0.827240526676178 
s on 
f 1/1/1 2/2/2 3/3/3 
f 2/2/2 4/4/4 3/3/3 
f 3/3/3 4/4/4 4/4/4 
f 4/4/4 5/5/5 4/4/4 
f 4/4/4 5/5/5 5/5/5 
f 5/5/5 6/6/6 5/5/5 
f 5/5/5 6/6/6 7/7/7 
f 6/6/6 8/8/8 7/7/7 
f 7/7/7 8/8/8 8/8/8 
f 8/8/8 9/9/9 8/8/8 
f 8/8/8 9/9/9 9/9/9 
f 9/9/9 10/10/10 9/9/9 
f 9/9/9 10/10/10 11/11/11 
f 10/10/10 12/12/12 11/11/11 
f 11/11/11 12/12/12 12/12/12 
f 12/12/12 13/13/13 12/12/12 
f 12/12/12 13/13/13 13/13/13 
f 13/13/13 14/14/14 13/13/13 
f 13/13/13 14/14/14 15/15/15 
f 14/14/14 16/16/16 15/15/15 
f 15/15/15 16/16/16 16/16/16 
f 16/16/16 17/17/17 16/16/16 
f 16/16/16 17/17/17 17/17/17 
f 17/17/17 18/18/18 17/17/17 
f 17/17/17 18/18/18 19/19/19 
f 18/18/18 20/20/20 19/19/19 
f 19/19/19 20/20/20 20/20/20 
f 20/20/20 21/21/21 20/20/20 
f 20/20/20 21/21/21 21/21/21 
f 21/21/21 22/22/22 21/21/21 
f 21/21/21 22/22/22 23/23/23 
f 22/22/22 24/24/24 23/23/23 

