mtllib model_20.mtl
o model_20
v 49.424842834472656 -2.55816912651062 0.5766740441322327 
v 49.424842834472656 -2.55816912651062 0.6045999526977539 
v 39.934120178222656 -2.55816912651062 0.5766740441322327 
v 39.934120178222656 -2.55816912651062 0.6045999526977539 
v 39.934120178222656 0.408512681722641 0.6045999526977539 
v 39.934120178222656 -2.55816912651062 0.6045999526977539 
v 49.424842834472656 0.408512681722641 0.6045999526977539 
v 49.424842834472656 -2.55816912651062 0.6045999526977539 
v 39.934120178222656 0.408512681722641 0.6045999526977539 
v 39.934120178222656 0.408512681722641 0.5766740441322327 
v 39.934120178222656 -2.55816912651062 0.6045999526977539 
v 39.934120178222656 -2.55816912651062 0.5766740441322327 
v 49.424842834472656 -2.55816912651062 0.6045999526977539 
v 49.424842834472656 -2.55816912651062 0.5766740441322327 
v 49.424842834472656 0.408512681722641 0.6045999526977539 
v 49.424842834472656 0.408512681722641 0.5766740441322327 
v 49.424842834472656 0.408512681722641 0.5766740441322327 
v 49.424842834472656 -2.55816912651062 0.5766740441322327 
v 39.934120178222656 0.408512681722641 0.5766740441322327 
v 39.934120178222656 -2.55816912651062 0.5766740441322327 
v 49.424842834472656 0.408512681722641 0.6045999526977539 
v 49.424842834472656 0.408512681722641 0.5766740441322327 
v 39.934120178222656 0.408512681722641 0.6045999526977539 
v 39.934120178222656 0.408512681722641 0.5766740441322327 
vn 9.132632801042706e-13 -2.9480018615722656 0.006440497934818268 
vn 9.132632801042706e-13 -2.9480018615722656 0.006440497934818268 
vn 9.132632801042706e-13 -2.9480018615722656 0.006440497934818268 
vn 9.132632801042706e-13 -2.9480018615722656 0.006440497934818268 
vn 0 0 2.9480090141296387 
vn 0 0 2.9480090141296387 
vn 0 0 2.9480090141296387 
vn 0 0 2.9480090141296387 
vn -2.9480018615722656 -6.097149152749226e-13 0.006440497934818268 
vn -2.9480018615722656 -6.097149152749226e-13 0.006440497934818268 
vn -2.9480018615722656 -6.097149152749226e-13 0.006440497934818268 
vn -2.9480018615722656 -6.097149152749226e-13 0.006440497934818268 
vn 2.9480018615722656 0 0.006440497934818268 
vn 2.9480018615722656 0 0.006440497934818268 
vn 2.9480018615722656 0 0.006440497934818268 
vn 2.9480018615722656 0 0.006440497934818268 
vn -6.097163789478555e-13 0 -2.9480090141296387 
vn -6.097163789478555e-13 0 -2.9480090141296387 
vn -6.097163789478555e-13 0 -2.9480090141296387 
vn -6.097163789478555e-13 0 -2.9480090141296387 
vn -3.048574576374613e-13 2.9480018615722656 0.006440497934818268 
vn -3.048574576374613e-13 2.9480018615722656 0.006440497934818268 
vn -3.048574576374613e-13 2.9480018615722656 0.006440497934818268 
vn -3.048574576374613e-13 2.9480018615722656 0.006440497934818268 
vt 0.8525083661079407 0.3156229853630066 
vt 0.8525083661079407 0.3156229853630066 
vt 0.14749200642108917 0.3156229853630066 
vt 0.14749200642108917 0.3156229853630066 
vt 0.14749200642108917 0.763297975063324 
vt 0.14749200642108917 0.3156229853630066 
vt 0.8525083661079407 0.763297975063324 
vt 0.8525083661079407 0.3156229853630066 
vt 0.14749200642108917 0.763297975063324 
vt 0.14749200642108917 0.763297975063324 
vt 0.14749200642108917 0.3156229853630066 
vt 0.14749200642108917 0.3156229853630066 
vt 0.8525083661079407 0.3156229853630066 
vt 0.8525083661079407 0.3156229853630066 
vt 0.8525083661079407 0.763297975063324 
vt 0.8525083661079407 0.763297975063324 
vt 0.8525083661079407 0.763297975063324 
vt 0.8525083661079407 0.3156229853630066 
vt 0.14749200642108917 0.763297975063324 
vt 0.14749200642108917 0.3156229853630066 
vt 0.8525083661079407 0.763297975063324 
vt 0.8525083661079407 0.763297975063324 
vt 0.14749200642108917 0.763297975063324 
vt 0.14749200642108917 0.763297975063324 
s on 
f 1/1/1 2/2/2 3/3/3 
f 2/2/2 4/4/4 3/3/3 
f 3/3/3 4/4/4 4/4/4 
f 4/4/4 5/5/5 4/4/4 
f 4/4/4 5/5/5 5/5/5 
f 5/5/5 6/6/6 5/5/5 
f 5/5/5 6/6/6 7/7/7 
f 6/6/6 8/8/8 7/7/7 
f 7/7/7 8/8/8 8/8/8 
f 8/8/8 9/9/9 8/8/8 
f 8/8/8 9/9/9 9/9/9 
f 9/9/9 10/10/10 9/9/9 
f 9/9/9 10/10/10 11/11/11 
f 10/10/10 12/12/12 11/11/11 
f 11/11/11 12/12/12 12/12/12 
f 12/12/12 13/13/13 12/12/12 
f 12/12/12 13/13/13 13/13/13 
f 13/13/13 14/14/14 13/13/13 
f 13/13/13 14/14/14 15/15/15 
f 14/14/14 16/16/16 15/15/15 
f 15/15/15 16/16/16 16/16/16 
f 16/16/16 17/17/17 16/16/16 
f 16/16/16 17/17/17 17/17/17 
f 17/17/17 18/18/18 17/17/17 
f 17/17/17 18/18/18 19/19/19 
f 18/18/18 20/20/20 19/19/19 
f 19/19/19 20/20/20 20/20/20 
f 20/20/20 21/21/21 20/20/20 
f 20/20/20 21/21/21 21/21/21 
f 21/21/21 22/22/22 21/21/21 
f 21/21/21 22/22/22 23/23/23 
f 22/22/22 24/24/24 23/23/23 

