mtllib model_11.mtl
o model_11
v -0.010607699863612652 2.4215199947357178 -2.896359920501709 
v -0.010607699863612652 3.0864741802215576 -2.896359920501709 
v -0.010607699863612652 2.4215199947357178 -5.861340045928955 
v -0.010607699863612652 3.0864741802215576 -5.861340045928955 
v 0.027083994820713997 3.0864741802215576 -2.896359920501709 
v 0.027083994820713997 2.4215199947357178 -2.896359920501709 
v 0.027083994820713997 3.0864741802215576 -5.861340045928955 
v 0.027083994820713997 2.4215199947357178 -5.861340045928955 
vn -0.999997615814209 -2.0682260971124217e-13 0.002184694167226553 
vn -0.999997615814209 -2.0682260971124217e-13 0.002184694167226553 
vn -0.999997615814209 -2.0682260971124217e-13 0.002184694167226553 
vn -0.999997615814209 -2.0682260971124217e-13 0.002184694167226553 
vn 0.999997615814209 0 0.002184694167226553 
vn 0.999997615814209 0 0.002184694167226553 
vn 0.999997615814209 0 0.002184694167226553 
vn 0.999997615814209 0 0.002184694167226553 
vt -1.1920899822825959e-7 0.35756799578666687 
vt -1.1920899822825959e-7 0.6784487366676331 
vt 1.0000004768371582 0.35756799578666687 
vt 1.0000004768371582 0.6784487366676331 
vt -1.1920899822825959e-7 0.6784487366676331 
vt -1.1920899822825959e-7 0.35756799578666687 
vt 1.0000004768371582 0.6784487366676331 
vt 1.0000004768371582 0.35756799578666687 
s on 
f 1/1/1 2/2/2 3/3/3 
f 2/2/2 4/4/4 3/3/3 
f 3/3/3 4/4/4 4/4/4 
f 4/4/4 5/5/5 4/4/4 
f 4/4/4 5/5/5 5/5/5 
f 5/5/5 6/6/6 5/5/5 
f 5/5/5 6/6/6 7/7/7 
f 6/6/6 8/8/8 7/7/7 

