mtllib model_10.mtl
o model_10
v -0.007530889939516783 0.84859299659729 -3.18099045753479 
v -0.007530889939516783 1.7805253267288208 -3.18099045753479 
v -0.007530889939516783 0.84859299659729 -5.661910057067871 
v -0.007530889939516783 1.7805253267288208 -5.661910057067871 
v 0.024007273837924004 1.7805253267288208 -3.18099045753479 
v 0.024007273837924004 0.84859299659729 -3.18099045753479 
v 0.024007273837924004 1.7805253267288208 -5.661910057067871 
v 0.024007273837924004 0.84859299659729 -5.661910057067871 
vn -0.999997615814209 -2.0682260971124217e-13 0.002184694167226553 
vn -0.999997615814209 -2.0682260971124217e-13 0.002184694167226553 
vn -0.999997615814209 -2.0682260971124217e-13 0.002184694167226553 
vn -0.999997615814209 -2.0682260971124217e-13 0.002184694167226553 
vn 0.999997615814209 0 -0.002184694167226553 
vn 0.999997615814209 0 -0.002184694167226553 
vn 0.999997615814209 0 -0.002184694167226553 
vn 0.999997615814209 0 -0.002184694167226553 
vt -1.1920899822825959e-7 0.22966699302196503 
vt -1.1920899822825959e-7 0.8044893145561218 
vt 1.0000004768371582 0.22966699302196503 
vt 1.0000004768371582 0.8044893145561218 
vt -1.1920899822825959e-7 0.8044893145561218 
vt -1.1920899822825959e-7 0.22966699302196503 
vt 1.0000004768371582 0.8044893145561218 
vt 1.0000004768371582 0.22966699302196503 
s on 
f 1/1/1 2/2/2 3/3/3 
f 2/2/2 4/4/4 3/3/3 
f 3/3/3 4/4/4 4/4/4 
f 4/4/4 5/5/5 4/4/4 
f 4/4/4 5/5/5 5/5/5 
f 5/5/5 6/6/6 5/5/5 
f 5/5/5 6/6/6 7/7/7 
f 6/6/6 8/8/8 7/7/7 

