mtllib model_5.mtl
o model_5
v -84.689697265625 -84.689697265625 84.689697265625 
v -84.689697265625 -84.689697265625 -84.689697265625 
v -84.689697265625 84.689697265625 -84.689697265625 
v -84.689697265625 84.689697265625 84.689697265625 
v -84.689697265625 84.689697265625 84.689697265625 
v -84.689697265625 84.689697265625 -84.689697265625 
v 84.689697265625 84.689697265625 -84.689697265625 
v 84.689697265625 84.689697265625 84.689697265625 
v 84.689697265625 84.689697265625 84.689697265625 
v 84.689697265625 84.689697265625 -84.689697265625 
v 84.689697265625 -84.689697265625 -84.689697265625 
v 84.689697265625 -84.689697265625 84.689697265625 
v -84.689697265625 -84.689697265625 -84.689697265625 
v -84.689697265625 -84.689697265625 84.689697265625 
v 84.689697265625 -84.689697265625 84.689697265625 
v 84.689697265625 -84.689697265625 -84.689697265625 
v -84.689697265625 -84.689697265625 -84.689697265625 
v 84.689697265625 -84.689697265625 -84.689697265625 
v 84.689697265625 84.689697265625 -84.689697265625 
v -84.689697265625 84.689697265625 -84.689697265625 
v 84.689697265625 -84.689697265625 84.689697265625 
v -84.689697265625 -84.689697265625 84.689697265625 
v -84.689697265625 84.689697265625 84.689697265625 
v 84.689697265625 84.689697265625 84.689697265625 
vn 0.011807811446487904 0 0 
vn 0.011807811446487904 0 0 
vn 0.011807811446487904 0 0 
vn 0.011807811446487904 0 0 
vn 0 -0.011807811446487904 0 
vn 0 -0.011807811446487904 0 
vn 0 -0.011807811446487904 0 
vn 0 -0.011807811446487904 0 
vn -0.011807811446487904 0 0 
vn -0.011807811446487904 0 0 
vn -0.011807811446487904 0 0 
vn -0.011807811446487904 0 0 
vn 0 0.011807811446487904 0 
vn 0 0.011807811446487904 0 
vn 0 0.011807811446487904 0 
vn 0 0.011807811446487904 0 
vn 0 0 0.011807811446487904 
vn 0 0 0.011807811446487904 
vn 0 0 0.011807811446487904 
vn 0 0 0.011807811446487904 
vn 0 0 -0.011807811446487904 
vn 0 0 -0.011807811446487904 
vn 0 0 -0.011807811446487904 
vn 0 0 -0.011807811446487904 
s on 
f 2//2 3//3 1//1 
f 3//3 4//4 1//1 
f 1//1 4//4 4//4 
f 4//4 8//8 4//4 
f 4//4 8//8 8//8 
f 8//8 5//5 8//8 
f 8//8 5//5 7//7 
f 5//5 6//6 7//7 
f 7//7 6//6 6//6 
f 6//6 24//24 6//6 
f 6//6 24//24 24//24 
f 24//24 21//21 24//24 
f 24//24 21//21 23//23 
f 21//21 22//22 23//23 
f 23//23 22//22 22//22 
f 22//22 20//20 22//22 
f 22//22 20//20 20//20 
f 20//20 17//17 20//20 
f 20//20 17//17 19//19 
f 17//17 18//18 19//19 
f 19//19 18//18 18//18 
f 18//18 14//14 18//18 
f 18//18 14//14 14//14 
f 14//14 15//15 14//14 
f 14//14 15//15 13//13 
f 15//15 16//16 13//13 
f 13//13 16//16 16//16 
f 16//16 10//10 16//16 
f 16//16 10//10 10//10 
f 10//10 11//11 10//10 
f 10//10 11//11 9//9 
f 11//11 12//12 9//9 

