mtllib model_9.mtl
o model_9
v -3.7929530143737793 9.565467834472656 0.20903460681438446 
v 1.687867283821106 9.565467834472656 0.20903460681438446 
v -3.7929530143737793 6.250977039337158 0.20903460681438446 
v 1.687867283821106 6.250977039337158 0.20903460681438446 
v -3.7929530143737793 6.250977039337158 0.2883979380130768 
v 1.687867283821106 6.250977039337158 0.2883979380130768 
v -3.7929530143737793 9.565467834472656 0.2883979380130768 
v 1.687867283821106 9.565467834472656 0.2883979380130768 
vn 5.726205642465898e-13 8.972601927299359e-26 -2.768648862838745 
vn 5.726205642465898e-13 8.972601927299359e-26 -2.768648862838745 
vn 5.726205642465898e-13 8.972601927299359e-26 -2.768648862838745 
vn 5.726205642465898e-13 8.972601927299359e-26 -2.768648862838745 
vn 0 0 2.768648862838745 
vn 0 0 2.768648862838745 
vn 0 0 2.768648862838745 
vn 0 0 2.768648862838745 
vt 0.20209500193595886 0.896304726600647 
vt 0.7060513496398926 0.896304726600647 
vt 0.20209500193595886 0.07009860128164291 
vt 0.7060513496398926 0.07009860128164291 
vt 0.20209500193595886 0.07009860128164291 
vt 0.7060513496398926 0.07009860128164291 
vt 0.20209500193595886 0.896304726600647 
vt 0.7060513496398926 0.896304726600647 
s on 
f 1/1/1 2/2/2 3/3/3 
f 2/2/2 4/4/4 3/3/3 
f 3/3/3 4/4/4 4/4/4 
f 4/4/4 5/5/5 4/4/4 
f 4/4/4 5/5/5 5/5/5 
f 5/5/5 6/6/6 5/5/5 
f 5/5/5 6/6/6 7/7/7 
f 6/6/6 8/8/8 7/7/7 

