mtllib model_10.mtl
o model_10
v 1.3199379444122314 12.62141227722168 0.25773343443870544 
v 6.800758361816406 12.62141227722168 0.25773343443870544 
v 1.3199379444122314 10.110281944274902 0.25773343443870544 
v 6.800758361816406 10.110281944274902 0.25773343443870544 
v 1.3199379444122314 10.110281944274902 0.33709678053855896 
v 6.800758361816406 10.110281944274902 0.33709678053855896 
v 1.3199379444122314 12.62141227722168 0.33709678053855896 
v 6.800758361816406 12.62141227722168 0.33709678053855896 
vn 5.726205642465898e-13 1.1843117001086145e-25 -2.768648862838745 
vn 5.726205642465898e-13 1.1843117001086145e-25 -2.768648862838745 
vn 5.726205642465898e-13 1.1843117001086145e-25 -2.768648862838745 
vn 5.726205642465898e-13 1.1843117001086145e-25 -2.768648862838745 
vn 0 0 2.768648862838745 
vn 0 0 2.768648862838745 
vn 0 0 2.768648862838745 
vn 0 0 2.768648862838745 
vt 0.20209500193595886 0.8963042497634888 
vt 0.7060513496398926 0.8963042497634888 
vt 0.20209500193595886 0.36331701278686523 
vt 0.7060513496398926 0.36331701278686523 
vt 0.20209500193595886 0.36331701278686523 
vt 0.7060513496398926 0.36331701278686523 
vt 0.20209500193595886 0.8963042497634888 
vt 0.7060513496398926 0.8963042497634888 
s on 
f 1/1/1 2/2/2 3/3/3 
f 2/2/2 4/4/4 3/3/3 
f 3/3/3 4/4/4 4/4/4 
f 4/4/4 5/5/5 4/4/4 
f 4/4/4 5/5/5 5/5/5 
f 5/5/5 6/6/6 5/5/5 
f 5/5/5 6/6/6 7/7/7 
f 6/6/6 8/8/8 7/7/7 

