mtllib model_12.mtl
o model_12
v 5.78904914855957 15.019196510314941 3.119129180908203 
v 11.269869804382324 15.019196510314941 3.119129180908203 
v 5.78904914855957 13.758667945861816 3.119129180908203 
v 11.269869804382324 13.758667945861816 3.119129180908203 
v 5.78904914855957 13.758667945861816 3.1984925270080566 
v 11.269869804382324 13.758667945861816 3.1984925270080566 
v 5.78904914855957 15.019196510314941 3.1984925270080566 
v 11.269869804382324 15.019196510314941 3.1984925270080566 
vn 5.726205642465898e-13 1.1843117001086145e-25 -2.768648862838745 
vn 5.726205642465898e-13 1.1843117001086145e-25 -2.768648862838745 
vn 5.726205642465898e-13 1.1843117001086145e-25 -2.768648862838745 
vn 5.726205642465898e-13 1.1843117001086145e-25 -2.768648862838745 
vn 0 0 2.768648862838745 
vn 0 0 2.768648862838745 
vn 0 0 2.768648862838745 
vn 0 0 2.768648862838745 
vt 0.20209500193595886 0.6848494410514832 
vt 0.7060513496398926 0.6848494410514832 
vt 0.20209500193595886 0.42534399032592773 
vt 0.7060513496398926 0.42534399032592773 
vt 0.20209500193595886 0.42534399032592773 
vt 0.7060513496398926 0.42534399032592773 
vt 0.20209500193595886 0.6848494410514832 
vt 0.7060513496398926 0.6848494410514832 
s on 
f 1/1/1 2/2/2 3/3/3 
f 2/2/2 4/4/4 3/3/3 
f 3/3/3 4/4/4 4/4/4 
f 4/4/4 5/5/5 4/4/4 
f 4/4/4 5/5/5 5/5/5 
f 5/5/5 6/6/6 5/5/5 
f 5/5/5 6/6/6 7/7/7 
f 6/6/6 8/8/8 7/7/7 

