mtllib model_8.mtl
o model_8
v -0.41928550601005554 5.568894863128662 0.25774067640304565 
v 2.501763343811035 5.568894863128662 0.25774067640304565 
v -0.41928550601005554 3.056722640991211 0.25774067640304565 
v 2.501763343811035 3.056722640991211 0.25774067640304565 
v -0.41928550601005554 3.056722640991211 0.3371039927005768 
v 2.501763343811035 3.056722640991211 0.3371039927005768 
v -0.41928550601005554 5.568894863128662 0.3371039927005768 
v 2.501763343811035 5.568894863128662 0.3371039927005768 
vn 5.726205642465898e-13 1.1843117001086145e-25 -2.768648862838745 
vn 5.726205642465898e-13 1.1843117001086145e-25 -2.768648862838745 
vn 5.726205642465898e-13 1.1843117001086145e-25 -2.768648862838745 
vn 5.726205642465898e-13 1.1843117001086145e-25 -2.768648862838745 
vn 0 0 2.768648862838745 
vn 0 0 2.768648862838745 
vn 0 0 2.768648862838745 
vn 0 0 2.768648862838745 
vt 0.31461301445961 0.7602702379226685 
vt 0.57478266954422 0.7602702379226685 
vt 0.31461301445961 0.22728300094604492 
vt 0.57478266954422 0.22728300094604492 
vt 0.31461301445961 0.22728300094604492 
vt 0.57478266954422 0.22728300094604492 
vt 0.31461301445961 0.7602702379226685 
vt 0.57478266954422 0.7602702379226685 
s on 
f 1/1/1 2/2/2 3/3/3 
f 2/2/2 4/4/4 3/3/3 
f 3/3/3 4/4/4 4/4/4 
f 4/4/4 5/5/5 4/4/4 
f 4/4/4 5/5/5 5/5/5 
f 5/5/5 6/6/6 5/5/5 
f 5/5/5 6/6/6 7/7/7 
f 6/6/6 8/8/8 7/7/7 

