mtllib model_6.mtl
o model_6
v 12.054740905761719 1.8295783996582031 0.25773343443870544 
v 17.535560607910156 1.8295783996582031 0.25773343443870544 
v 12.054740905761719 -0.6815519332885742 0.25773343443870544 
v 17.535560607910156 -0.6815519332885742 0.25773343443870544 
v 12.054740905761719 -0.6815519332885742 0.33709678053855896 
v 17.535560607910156 -0.6815519332885742 0.33709678053855896 
v 12.054740905761719 1.8295783996582031 0.33709678053855896 
v 17.535560607910156 1.8295783996582031 0.33709678053855896 
vn 5.726205642465898e-13 1.1843117001086145e-25 -2.768648862838745 
vn 5.726205642465898e-13 1.1843117001086145e-25 -2.768648862838745 
vn 5.726205642465898e-13 1.1843117001086145e-25 -2.768648862838745 
vn 5.726205642465898e-13 1.1843117001086145e-25 -2.768648862838745 
vn 0 0 2.768648862838745 
vn 0 0 2.768648862838745 
vn 0 0 2.768648862838745 
vn 0 0 2.768648862838745 
vt 0.20209500193595886 0.7945032715797424 
vt 0.7060513496398926 0.7945032715797424 
vt 0.20209500193595886 0.2615160048007965 
vt 0.7060513496398926 0.2615160048007965 
vt 0.20209500193595886 0.2615160048007965 
vt 0.7060513496398926 0.2615160048007965 
vt 0.20209500193595886 0.7945032715797424 
vt 0.7060513496398926 0.7945032715797424 
s on 
f 1/1/1 2/2/2 3/3/3 
f 2/2/2 4/4/4 3/3/3 
f 3/3/3 4/4/4 4/4/4 
f 4/4/4 5/5/5 4/4/4 
f 4/4/4 5/5/5 5/5/5 
f 5/5/5 6/6/6 5/5/5 
f 5/5/5 6/6/6 7/7/7 
f 6/6/6 8/8/8 7/7/7 

