mtllib model_6.mtl
o model_6
v 34.55901336669922 5.731353282928467 2.2247180938720703 
v 34.55901336669922 5.731353282928467 2.3660621643066406 
v 15.373988151550293 5.731353282928467 2.2247180938720703 
v 15.373988151550293 5.731353282928467 2.3660621643066406 
v 15.373988151550293 10.527185440063477 2.3660621643066406 
v 15.373988151550293 5.731353282928467 2.3660621643066406 
v 34.55901336669922 10.527185440063477 2.3660621643066406 
v 34.55901336669922 5.731353282928467 2.3660621643066406 
v 15.373988151550293 10.527185440063477 2.3660621643066406 
v 15.373988151550293 10.527185440063477 2.2247180938720703 
v 15.373988151550293 5.731353282928467 2.3660621643066406 
v 15.373988151550293 5.731353282928467 2.2247180938720703 
v 34.55901336669922 5.731353282928467 2.3660621643066406 
v 34.55901336669922 5.731353282928467 2.2247180938720703 
v 34.55901336669922 10.527185440063477 2.3660621643066406 
v 34.55901336669922 10.527185440063477 2.2247180938720703 
v 34.55901336669922 10.527185440063477 2.2247180938720703 
v 34.55901336669922 5.731353282928467 2.2247180938720703 
v 15.373988151550293 10.527185440063477 2.2247180938720703 
v 15.373988151550293 5.731353282928467 2.2247180938720703 
v 34.55901336669922 10.527185440063477 2.3660621643066406 
v 34.55901336669922 10.527185440063477 2.2247180938720703 
v 15.373988151550293 10.527185440063477 2.3660621643066406 
v 15.373988151550293 10.527185440063477 2.2247180938720703 
vn 2.8269107974626673e-13 -0.9125231504440308 0.001993588637560606 
vn 2.8269107974626673e-13 -0.9125231504440308 0.001993588637560606 
vn 2.8269107974626673e-13 -0.9125231504440308 0.001993588637560606 
vn 2.8269107974626673e-13 -0.9125231504440308 0.001993588637560606 
vn 0 0 0.9125252962112427 
vn 0 0 0.9125252962112427 
vn 0 0 0.9125252962112427 
vn 0 0 0.9125252962112427 
vn -0.9125231504440308 -1.8873086687215546e-13 0.001993588637560606 
vn -0.9125231504440308 -1.8873086687215546e-13 0.001993588637560606 
vn -0.9125231504440308 -1.8873086687215546e-13 0.001993588637560606 
vn -0.9125231504440308 -1.8873086687215546e-13 0.001993588637560606 
vn 0.9125231504440308 0 0.001993588637560606 
vn 0.9125231504440308 0 0.001993588637560606 
vn 0.9125231504440308 0 0.001993588637560606 
vn 0.9125231504440308 0 0.001993588637560606 
vn -1.8873132765807876e-13 0 -0.9125252962112427 
vn -1.8873132765807876e-13 0 -0.9125252962112427 
vn -1.8873132765807876e-13 0 -0.9125252962112427 
vn -1.8873132765807876e-13 0 -0.9125252962112427 
vn -9.436543343607773e-14 0.9125231504440308 0.001993588637560606 
vn -9.436543343607773e-14 0.9125231504440308 0.001993588637560606 
vn -9.436543343607773e-14 0.9125231504440308 0.001993588637560606 
vn -9.436543343607773e-14 0.9125231504440308 0.001993588637560606 
vt 1.0000004768371582 0.2764970064163208 
vt 1.0000004768371582 0.2764970064163208 
vt -5.96045985901128e-8 0.2764970064163208 
vt -5.96045985901128e-8 0.2764970064163208 
vt -5.96045985901128e-8 0.7235026955604553 
vt -5.96045985901128e-8 0.2764970064163208 
vt 1.0000004768371582 0.7235026955604553 
vt 1.0000004768371582 0.2764970064163208 
vt -5.96045985901128e-8 0.7235026955604553 
vt -5.96045985901128e-8 0.7235026955604553 
vt -5.96045985901128e-8 0.2764970064163208 
vt -5.96045985901128e-8 0.2764970064163208 
vt 1.0000004768371582 0.2764970064163208 
vt 1.0000004768371582 0.2764970064163208 
vt 1.0000004768371582 0.7235026955604553 
vt 1.0000004768371582 0.7235026955604553 
vt 1.0000004768371582 0.7235026955604553 
vt 1.0000004768371582 0.2764970064163208 
vt -5.96045985901128e-8 0.7235026955604553 
vt -5.96045985901128e-8 0.2764970064163208 
vt 1.0000004768371582 0.7235026955604553 
vt 1.0000004768371582 0.7235026955604553 
vt -5.96045985901128e-8 0.7235026955604553 
vt -5.96045985901128e-8 0.7235026955604553 
s on 
f 1/1/1 2/2/2 3/3/3 
f 2/2/2 4/4/4 3/3/3 
f 3/3/3 4/4/4 4/4/4 
f 4/4/4 5/5/5 4/4/4 
f 4/4/4 5/5/5 5/5/5 
f 5/5/5 6/6/6 5/5/5 
f 5/5/5 6/6/6 7/7/7 
f 6/6/6 8/8/8 7/7/7 
f 7/7/7 8/8/8 8/8/8 
f 8/8/8 9/9/9 8/8/8 
f 8/8/8 9/9/9 9/9/9 
f 9/9/9 10/10/10 9/9/9 
f 9/9/9 10/10/10 11/11/11 
f 10/10/10 12/12/12 11/11/11 
f 11/11/11 12/12/12 12/12/12 
f 12/12/12 13/13/13 12/12/12 
f 12/12/12 13/13/13 13/13/13 
f 13/13/13 14/14/14 13/13/13 
f 13/13/13 14/14/14 15/15/15 
f 14/14/14 16/16/16 15/15/15 
f 15/15/15 16/16/16 16/16/16 
f 16/16/16 17/17/17 16/16/16 
f 16/16/16 17/17/17 17/17/17 
f 17/17/17 18/18/18 17/17/17 
f 17/17/17 18/18/18 19/19/19 
f 18/18/18 20/20/20 19/19/19 
f 19/19/19 20/20/20 20/20/20 
f 20/20/20 21/21/21 20/20/20 
f 20/20/20 21/21/21 21/21/21 
f 21/21/21 22/22/22 21/21/21 
f 21/21/21 22/22/22 23/23/23 
f 22/22/22 24/24/24 23/23/23 

