mtllib model_11.mtl
o model_11
v 28.97433853149414 51.3202018737793 -0.16449730098247528 
v 28.97433853149414 51.3202018737793 -0.0355173721909523 
v 15.781960487365723 51.3202018737793 -0.16449730098247528 
v 15.781960487365723 51.3202018737793 -0.0355173721909523 
v 15.781960487365723 55.69651794433594 -0.0355173721909523 
v 15.781960487365723 51.3202018737793 -0.0355173721909523 
v 28.97433853149414 55.69651794433594 -0.0355173721909523 
v 28.97433853149414 51.3202018737793 -0.0355173721909523 
v 15.781960487365723 55.69651794433594 -0.0355173721909523 
v 15.781960487365723 55.69651794433594 -0.16449730098247528 
v 15.781960487365723 51.3202018737793 -0.0355173721909523 
v 15.781960487365723 51.3202018737793 -0.16449730098247528 
v 28.97433853149414 51.3202018737793 -0.0355173721909523 
v 28.97433853149414 51.3202018737793 -0.16449730098247528 
v 28.97433853149414 55.69651794433594 -0.0355173721909523 
v 28.97433853149414 55.69651794433594 -0.16449730098247528 
v 28.97433853149414 55.69651794433594 -0.16449730098247528 
v 28.97433853149414 51.3202018737793 -0.16449730098247528 
v 15.781960487365723 55.69651794433594 -0.16449730098247528 
v 15.781960487365723 51.3202018737793 -0.16449730098247528 
v 28.97433853149414 55.69651794433594 -0.0355173721909523 
v 28.97433853149414 55.69651794433594 -0.16449730098247528 
v 15.781960487365723 55.69651794433594 -0.0355173721909523 
v 15.781960487365723 55.69651794433594 -0.16449730098247528 
vn 3.097898456858039e-13 -0.999997615814209 0.002184694167226553 
vn 3.097898456858039e-13 -0.999997615814209 0.002184694167226553 
vn 3.097898456858039e-13 -0.999997615814209 0.002184694167226553 
vn 3.097898456858039e-13 -0.999997615814209 0.002184694167226553 
vn 0 0 1 
vn 0 0 1 
vn 0 0 1 
vn 0 0 1 
vn -0.999997615814209 -2.0682260971124217e-13 0.002184694167226553 
vn -0.999997615814209 -2.0682260971124217e-13 0.002184694167226553 
vn -0.999997615814209 -2.0682260971124217e-13 0.002184694167226553 
vn -0.999997615814209 -2.0682260971124217e-13 0.002184694167226553 
vn 0.999997615814209 0 0.002184694167226553 
vn 0.999997615814209 0 0.002184694167226553 
vn 0.999997615814209 0 0.002184694167226553 
vn 0.999997615814209 0 0.002184694167226553 
vn -2.0682311115474694e-13 0 -1 
vn -2.0682311115474694e-13 0 -1 
vn -2.0682311115474694e-13 0 -1 
vn -2.0682311115474694e-13 0 -1 
vn -1.0341130485562108e-13 0.999997615814209 0.002184694167226553 
vn -1.0341130485562108e-13 0.999997615814209 0.002184694167226553 
vn -1.0341130485562108e-13 0.999997615814209 0.002184694167226553 
vn -1.0341130485562108e-13 0.999997615814209 0.002184694167226553 
vt 0.9925805330276489 0.12106200307607651 
vt 0.9925805330276489 0.12106200307607651 
vt 0.007418689783662558 0.12106200307607651 
vt 0.007418689783662558 0.12106200307607651 
vt 0.007418689783662558 0.8789383172988892 
vt 0.007418689783662558 0.12106200307607651 
vt 0.9925805330276489 0.8789383172988892 
vt 0.9925805330276489 0.12106200307607651 
vt 0.007418689783662558 0.8789383172988892 
vt 0.007418689783662558 0.8789383172988892 
vt 0.007418689783662558 0.12106200307607651 
vt 0.007418689783662558 0.12106200307607651 
vt 0.9925805330276489 0.12106200307607651 
vt 0.9925805330276489 0.12106200307607651 
vt 0.9925805330276489 0.8789383172988892 
vt 0.9925805330276489 0.8789383172988892 
vt 0.9925805330276489 0.8789383172988892 
vt 0.9925805330276489 0.12106200307607651 
vt 0.007418689783662558 0.8789383172988892 
vt 0.007418689783662558 0.12106200307607651 
vt 0.9925805330276489 0.8789383172988892 
vt 0.9925805330276489 0.8789383172988892 
vt 0.007418689783662558 0.8789383172988892 
vt 0.007418689783662558 0.8789383172988892 
s on 
f 1/1/1 2/2/2 3/3/3 
f 2/2/2 4/4/4 3/3/3 
f 3/3/3 4/4/4 4/4/4 
f 4/4/4 5/5/5 4/4/4 
f 4/4/4 5/5/5 5/5/5 
f 5/5/5 6/6/6 5/5/5 
f 5/5/5 6/6/6 7/7/7 
f 6/6/6 8/8/8 7/7/7 
f 7/7/7 8/8/8 8/8/8 
f 8/8/8 9/9/9 8/8/8 
f 8/8/8 9/9/9 9/9/9 
f 9/9/9 10/10/10 9/9/9 
f 9/9/9 10/10/10 11/11/11 
f 10/10/10 12/12/12 11/11/11 
f 11/11/11 12/12/12 12/12/12 
f 12/12/12 13/13/13 12/12/12 
f 12/12/12 13/13/13 13/13/13 
f 13/13/13 14/14/14 13/13/13 
f 13/13/13 14/14/14 15/15/15 
f 14/14/14 16/16/16 15/15/15 
f 15/15/15 16/16/16 16/16/16 
f 16/16/16 17/17/17 16/16/16 
f 16/16/16 17/17/17 17/17/17 
f 17/17/17 18/18/18 17/17/17 
f 17/17/17 18/18/18 19/19/19 
f 18/18/18 20/20/20 19/19/19 
f 19/19/19 20/20/20 20/20/20 
f 20/20/20 21/21/21 20/20/20 
f 20/20/20 21/21/21 21/21/21 
f 21/21/21 22/22/22 21/21/21 
f 21/21/21 22/22/22 23/23/23 
f 22/22/22 24/24/24 23/23/23 

