mtllib model_9.mtl
o model_9
v 32.86307144165039 41.454498291015625 -0.09667889773845673 
v 32.86307144165039 41.454498291015625 0.032301027327775955 
v 15.307860374450684 41.454498291015625 -0.09667889773845673 
v 15.307860374450684 41.454498291015625 0.032301027327775955 
v 15.307860374450684 45.83081817626953 0.032301027327775955 
v 15.307860374450684 41.454498291015625 0.032301027327775955 
v 32.86307144165039 45.83081817626953 0.032301027327775955 
v 32.86307144165039 41.454498291015625 0.032301027327775955 
v 15.307860374450684 45.83081817626953 0.032301027327775955 
v 15.307860374450684 45.83081817626953 -0.09667889773845673 
v 15.307860374450684 41.454498291015625 0.032301027327775955 
v 15.307860374450684 41.454498291015625 -0.09667889773845673 
v 32.86307144165039 41.454498291015625 0.032301027327775955 
v 32.86307144165039 41.454498291015625 -0.09667889773845673 
v 32.86307144165039 45.83081817626953 0.032301027327775955 
v 32.86307144165039 45.83081817626953 -0.09667889773845673 
v 32.86307144165039 45.83081817626953 -0.09667889773845673 
v 32.86307144165039 41.454498291015625 -0.09667889773845673 
v 15.307860374450684 45.83081817626953 -0.09667889773845673 
v 15.307860374450684 41.454498291015625 -0.09667889773845673 
v 32.86307144165039 45.83081817626953 0.032301027327775955 
v 32.86307144165039 45.83081817626953 -0.09667889773845673 
v 15.307860374450684 45.83081817626953 0.032301027327775955 
v 15.307860374450684 45.83081817626953 -0.09667889773845673 
vn 3.097898456858039e-13 -0.999997615814209 0.002184694167226553 
vn 3.097898456858039e-13 -0.999997615814209 0.002184694167226553 
vn 3.097898456858039e-13 -0.999997615814209 0.002184694167226553 
vn 3.097898456858039e-13 -0.999997615814209 0.002184694167226553 
vn 0 0 1 
vn 0 0 1 
vn 0 0 1 
vn 0 0 1 
vn -0.999997615814209 -2.0682260971124217e-13 0.002184694167226553 
vn -0.999997615814209 -2.0682260971124217e-13 0.002184694167226553 
vn -0.999997615814209 -2.0682260971124217e-13 0.002184694167226553 
vn -0.999997615814209 -2.0682260971124217e-13 0.002184694167226553 
vn 0.999997615814209 0 0.002184694167226553 
vn 0.999997615814209 0 0.002184694167226553 
vn 0.999997615814209 0 0.002184694167226553 
vn 0.999997615814209 0 0.002184694167226553 
vn 2.0682311115474694e-13 4.2775797696334704e-26 -1 
vn 2.0682311115474694e-13 4.2775797696334704e-26 -1 
vn 2.0682311115474694e-13 4.2775797696334704e-26 -1 
vn 2.0682311115474694e-13 4.2775797696334704e-26 -1 
vn -1.0341130485562108e-13 0.999997615814209 0.002184694167226553 
vn -1.0341130485562108e-13 0.999997615814209 0.002184694167226553 
vn -1.0341130485562108e-13 0.999997615814209 0.002184694167226553 
vn -1.0341130485562108e-13 0.999997615814209 0.002184694167226553 
vt 1.0013831853866577 0.19675099849700928 
vt 1.0013831853866577 0.19675099849700928 
vt 0.01803239993751049 0.19675099849700928 
vt 0.01803239993751049 0.19675099849700928 
vt 0.01803239993751049 0.803248405456543 
vt 0.01803239993751049 0.19675099849700928 
vt 1.0013831853866577 0.803248405456543 
vt 1.0013831853866577 0.19675099849700928 
vt 0.01803239993751049 0.803248405456543 
vt 0.01803239993751049 0.803248405456543 
vt 0.01803239993751049 0.19675099849700928 
vt 0.01803239993751049 0.19675099849700928 
vt 1.0013831853866577 0.19675099849700928 
vt 1.0013831853866577 0.19675099849700928 
vt 1.0013831853866577 0.803248405456543 
vt 1.0013831853866577 0.803248405456543 
vt 1.0013831853866577 0.803248405456543 
vt 1.0013831853866577 0.19675099849700928 
vt 0.01803239993751049 0.803248405456543 
vt 0.01803239993751049 0.19675099849700928 
vt 1.0013831853866577 0.803248405456543 
vt 1.0013831853866577 0.803248405456543 
vt 0.01803239993751049 0.803248405456543 
vt 0.01803239993751049 0.803248405456543 
s on 
f 1/1/1 2/2/2 3/3/3 
f 2/2/2 4/4/4 3/3/3 
f 3/3/3 4/4/4 4/4/4 
f 4/4/4 5/5/5 4/4/4 
f 4/4/4 5/5/5 5/5/5 
f 5/5/5 6/6/6 5/5/5 
f 5/5/5 6/6/6 7/7/7 
f 6/6/6 8/8/8 7/7/7 
f 7/7/7 8/8/8 8/8/8 
f 8/8/8 9/9/9 8/8/8 
f 8/8/8 9/9/9 9/9/9 
f 9/9/9 10/10/10 9/9/9 
f 9/9/9 10/10/10 11/11/11 
f 10/10/10 12/12/12 11/11/11 
f 11/11/11 12/12/12 12/12/12 
f 12/12/12 13/13/13 12/12/12 
f 12/12/12 13/13/13 13/13/13 
f 13/13/13 14/14/14 13/13/13 
f 13/13/13 14/14/14 15/15/15 
f 14/14/14 16/16/16 15/15/15 
f 15/15/15 16/16/16 16/16/16 
f 16/16/16 17/17/17 16/16/16 
f 16/16/16 17/17/17 17/17/17 
f 17/17/17 18/18/18 17/17/17 
f 17/17/17 18/18/18 19/19/19 
f 18/18/18 20/20/20 19/19/19 
f 19/19/19 20/20/20 20/20/20 
f 20/20/20 21/21/21 20/20/20 
f 20/20/20 21/21/21 21/21/21 
f 21/21/21 22/22/22 21/21/21 
f 21/21/21 22/22/22 23/23/23 
f 22/22/22 24/24/24 23/23/23 

