mtllib model_17.mtl
o model_17
v 1.5495803356170654 -7.11334753036499 -0.0014490027679130435 
v 1.5495803356170654 -7.11334753036499 0.015094236470758915 
v -3.063715934753418 -7.11334753036499 -0.0014490027679130435 
v -3.063715934753418 -7.11334753036499 0.015094236470758915 
v -3.063715934753418 -5.35589075088501 0.015094236470758915 
v -3.063715934753418 -7.11334753036499 0.015094236470758915 
v 1.5495803356170654 -5.35589075088501 0.015094236470758915 
v 1.5495803356170654 -7.11334753036499 0.015094236470758915 
v -3.063715934753418 -5.35589075088501 0.015094236470758915 
v -3.063715934753418 -5.35589075088501 -0.0014490027679130435 
v -3.063715934753418 -7.11334753036499 0.015094236470758915 
v -3.063715934753418 -7.11334753036499 -0.0014490027679130435 
v 1.5495803356170654 -7.11334753036499 0.015094236470758915 
v 1.5495803356170654 -7.11334753036499 -0.0014490027679130435 
v 1.5495803356170654 -5.35589075088501 0.015094236470758915 
v 1.5495803356170654 -5.35589075088501 -0.0014490027679130435 
v 1.5495803356170654 -5.35589075088501 -0.0014490027679130435 
v 1.5495803356170654 -7.11334753036499 -0.0014490027679130435 
v -3.063715934753418 -5.35589075088501 -0.0014490027679130435 
v -3.063715934753418 -7.11334753036499 -0.0014490027679130435 
v 1.5495803356170654 -5.35589075088501 0.015094236470758915 
v 1.5495803356170654 -5.35589075088501 -0.0014490027679130435 
v -3.063715934753418 -5.35589075088501 0.015094236470758915 
v -3.063715934753418 -5.35589075088501 -0.0014490027679130435 
vn 1.5416418142066846e-12 -4.976399898529053 0.01087193749845028 
vn 1.5416418142066846e-12 -4.976399898529053 0.01087193749845028 
vn 1.5416418142066846e-12 -4.976399898529053 0.01087193749845028 
vn 1.5416418142066846e-12 -4.976399898529053 0.01087193749845028 
vn 0 0 4.976411819458008 
vn 0 0 4.976411819458008 
vn 0 0 4.976411819458008 
vn 0 0 4.976411819458008 
vn -4.976399898529053 -1.0292344233830963e-12 0.01087193749845028 
vn -4.976399898529053 -1.0292344233830963e-12 0.01087193749845028 
vn -4.976399898529053 -1.0292344233830963e-12 0.01087193749845028 
vn -4.976399898529053 -1.0292344233830963e-12 0.01087193749845028 
vn 4.976399898529053 0 0.01087193749845028 
vn 4.976399898529053 0 0.01087193749845028 
vn 4.976399898529053 0 0.01087193749845028 
vn 4.976399898529053 0 0.01087193749845028 
vn 1.0292370254683103e-12 2.1286997375413763e-25 -4.976411819458008 
vn 1.0292370254683103e-12 2.1286997375413763e-25 -4.976411819458008 
vn 1.0292370254683103e-12 2.1286997375413763e-25 -4.976411819458008 
vn 1.0292370254683103e-12 2.1286997375413763e-25 -4.976411819458008 
vn -5.146172116915482e-13 4.976399898529053 0.01087193749845028 
vn -5.146172116915482e-13 4.976399898529053 0.01087193749845028 
vn -5.146172116915482e-13 4.976399898529053 0.01087193749845028 
vn -5.146172116915482e-13 4.976399898529053 0.01087193749845028 
vt 0.7411536574363708 0.3170120120048523 
vt 0.7411536574363708 0.3170120120048523 
vt 0.2588469982147217 0.3170120120048523 
vt 0.2588469982147217 0.3170120120048523 
vt 0.2588469982147217 0.7290177941322327 
vt 0.2588469982147217 0.3170120120048523 
vt 0.7411536574363708 0.7290177941322327 
vt 0.7411536574363708 0.3170120120048523 
vt 0.2588469982147217 0.7290177941322327 
vt 0.2588469982147217 0.7290177941322327 
vt 0.2588469982147217 0.3170120120048523 
vt 0.2588469982147217 0.3170120120048523 
vt 0.7411536574363708 0.3170120120048523 
vt 0.7411536574363708 0.3170120120048523 
vt 0.7411536574363708 0.7290177941322327 
vt 0.7411536574363708 0.7290177941322327 
vt 0.7411536574363708 0.7290177941322327 
vt 0.7411536574363708 0.3170120120048523 
vt 0.2588469982147217 0.7290177941322327 
vt 0.2588469982147217 0.3170120120048523 
vt 0.7411536574363708 0.7290177941322327 
vt 0.7411536574363708 0.7290177941322327 
vt 0.2588469982147217 0.7290177941322327 
vt 0.2588469982147217 0.7290177941322327 
s on 
f 1/1/1 2/2/2 3/3/3 
f 2/2/2 4/4/4 3/3/3 
f 3/3/3 4/4/4 4/4/4 
f 4/4/4 5/5/5 4/4/4 
f 4/4/4 5/5/5 5/5/5 
f 5/5/5 6/6/6 5/5/5 
f 5/5/5 6/6/6 7/7/7 
f 6/6/6 8/8/8 7/7/7 
f 7/7/7 8/8/8 8/8/8 
f 8/8/8 9/9/9 8/8/8 
f 8/8/8 9/9/9 9/9/9 
f 9/9/9 10/10/10 9/9/9 
f 9/9/9 10/10/10 11/11/11 
f 10/10/10 12/12/12 11/11/11 
f 11/11/11 12/12/12 12/12/12 
f 12/12/12 13/13/13 12/12/12 
f 12/12/12 13/13/13 13/13/13 
f 13/13/13 14/14/14 13/13/13 
f 13/13/13 14/14/14 15/15/15 
f 14/14/14 16/16/16 15/15/15 
f 15/15/15 16/16/16 16/16/16 
f 16/16/16 17/17/17 16/16/16 
f 16/16/16 17/17/17 17/17/17 
f 17/17/17 18/18/18 17/17/17 
f 17/17/17 18/18/18 19/19/19 
f 18/18/18 20/20/20 19/19/19 
f 19/19/19 20/20/20 20/20/20 
f 20/20/20 21/21/21 20/20/20 
f 20/20/20 21/21/21 21/21/21 
f 21/21/21 22/22/22 21/21/21 
f 21/21/21 22/22/22 23/23/23 
f 22/22/22 24/24/24 23/23/23 

