mtllib model_7.mtl
o model_7
v 10.356212615966797 8.137923240661621 0.22701440751552582 
v 10.356212615966797 8.137923240661621 0.23906391859054565 
v 10.309709548950195 8.174893379211426 0.22701440751552582 
v 10.309709548950195 8.174893379211426 0.23906391859054565 
v 10.712733268737793 8.656271934509277 0.23478199541568756 
v 10.309709548950195 8.174893379211426 0.23906391859054565 
v 10.716508865356445 8.653739929199219 0.23478199541568756 
v 10.356212615966797 8.137923240661621 0.23906391859054565 
v 10.712733268737793 8.656271934509277 0.23478199541568756 
v 10.712733268737793 8.656271934509277 0.2312963455915451 
v 10.309709548950195 8.174893379211426 0.23906391859054565 
v 10.309709548950195 8.174893379211426 0.22701440751552582 
v 10.356212615966797 8.137923240661621 0.23906391859054565 
v 10.356212615966797 8.137923240661621 0.22701440751552582 
v 10.716508865356445 8.653739929199219 0.23478199541568756 
v 10.716508865356445 8.653739929199219 0.2312963455915451 
v 10.716508865356445 8.653739929199219 0.2312963455915451 
v 10.356212615966797 8.137923240661621 0.22701440751552582 
v 10.712733268737793 8.656271934509277 0.2312963455915451 
v 10.309709548950195 8.174893379211426 0.22701440751552582 
v 10.716508865356445 8.653739929199219 0.23478199541568756 
v 10.716508865356445 8.653739929199219 0.2312963455915451 
v 10.712733268737793 8.656271934509277 0.23478199541568756 
v 10.712733268737793 8.656271934509277 0.2312963455915451 
vn -1.380208134651184 -1.7240883111953735 -0.004172876477241516 
vn -1.380208134651184 -1.7240883111953735 -0.004172876477241516 
vn -1.380208134651184 -1.7240883111953735 -0.004172876477241516 
vn -1.380208134651184 -1.7240883111953735 -0.004172876477241516 
vn 0.004824897274374962 0.016678186133503914 2.2084319591522217 
vn 0.004824897274374962 0.016678186133503914 2.2084319591522217 
vn 0.004824897274374962 0.016678186133503914 2.2084319591522217 
vn 0.004824897274374962 0.016678186133503914 2.2084319591522217 
vn -1.6904300451278687 1.4212323427200317 0.004172846674919128 
vn -1.6904300451278687 1.4212323427200317 0.004172846674919128 
vn -1.6904300451278687 1.4212323427200317 0.004172846674919128 
vn -1.6904300451278687 1.4212323427200317 0.004172846674919128 
vn 1.8080204725265503 -1.2682733535766602 0.004159094300121069 
vn 1.8080204725265503 -1.2682733535766602 0.004159094300121069 
vn 1.8080204725265503 -1.2682733535766602 0.004159094300121069 
vn 1.8080204725265503 -1.2682733535766602 0.004159094300121069 
vn 0.004824897274374962 0.016678186133503914 -2.2084319591522217 
vn 0.004824897274374962 0.016678186133503914 -2.2084319591522217 
vn 0.004824897274374962 0.016678186133503914 -2.2084319591522217 
vn 0.004824897274374962 0.016678186133503914 -2.2084319591522217 
vn 1.2564030885696411 1.8162891864776611 -0.00416500074788928 
vn 1.2564030885696411 1.8162891864776611 -0.00416500074788928 
vn 1.2564030885696411 1.8162891864776611 -0.00416500074788928 
vn 1.2564030885696411 1.8162891864776611 -0.00416500074788928 
s on 
f 1//1 2//2 3//3 
f 2//2 4//4 3//3 
f 3//3 4//4 4//4 
f 4//4 5//5 4//4 
f 4//4 5//5 5//5 
f 5//5 6//6 5//5 
f 5//5 6//6 7//7 
f 6//6 8//8 7//7 
f 7//7 8//8 8//8 
f 8//8 9//9 8//8 
f 8//8 9//9 9//9 
f 9//9 10//10 9//9 
f 9//9 10//10 11//11 
f 10//10 12//12 11//11 
f 11//11 12//12 12//12 
f 12//12 13//13 12//12 
f 12//12 13//13 13//13 
f 13//13 14//14 13//13 
f 13//13 14//14 15//15 
f 14//14 16//16 15//15 
f 15//15 16//16 16//16 
f 16//16 17//17 16//16 
f 16//16 17//17 17//17 
f 17//17 18//18 17//17 
f 17//17 18//18 19//19 
f 18//18 20//20 19//19 
f 19//19 20//20 20//20 
f 20//20 21//21 20//20 
f 20//20 21//21 21//21 
f 21//21 22//22 21//21 
f 21//21 22//22 23//23 
f 22//22 24//24 23//23 

