mtllib model_25.mtl
o model_25
v 4.213155746459961 14.72174072265625 -0.006570979952812195 
v 4.213155746459961 14.72174072265625 0.020212046802043915 
v -3.2556374073028564 14.72174072265625 -0.006570979952812195 
v -3.2556374073028564 14.72174072265625 0.020212046802043915 
v -3.2556374073028564 17.56700897216797 0.020212046802043915 
v -3.2556374073028564 14.72174072265625 0.020212046802043915 
v 4.213155746459961 17.56700897216797 0.020212046802043915 
v 4.213155746459961 14.72174072265625 0.020212046802043915 
v -3.2556374073028564 17.56700897216797 0.020212046802043915 
v -3.2556374073028564 17.56700897216797 -0.006570979952812195 
v -3.2556374073028564 14.72174072265625 0.020212046802043915 
v -3.2556374073028564 14.72174072265625 -0.006570979952812195 
v 4.213155746459961 14.72174072265625 0.020212046802043915 
v 4.213155746459961 14.72174072265625 -0.006570979952812195 
v 4.213155746459961 17.56700897216797 0.020212046802043915 
v 4.213155746459961 17.56700897216797 -0.006570979952812195 
v 4.213155746459961 17.56700897216797 -0.006570979952812195 
v 4.213155746459961 14.72174072265625 -0.006570979952812195 
v -3.2556374073028564 17.56700897216797 -0.006570979952812195 
v -3.2556374073028564 14.72174072265625 -0.006570979952812195 
v 4.213155746459961 17.56700897216797 0.020212046802043915 
v 4.213155746459961 17.56700897216797 -0.006570979952812195 
v -3.2556374073028564 17.56700897216797 0.020212046802043915 
v -3.2556374073028564 17.56700897216797 -0.006570979952812195 
vn 9.522355777155656e-13 -3.0738041400909424 0.006715337745845318 
vn 9.522355777155656e-13 -3.0738041400909424 0.006715337745845318 
vn 9.522355777155656e-13 -3.0738041400909424 0.006715337745845318 
vn 9.522355777155656e-13 -3.0738041400909424 0.006715337745845318 
vn 0 0 3.0738115310668945 
vn 0 0 3.0738115310668945 
vn 0 0 3.0738115310668945 
vn 0 0 3.0738115310668945 
vn -3.0738041400909424 -6.35733707430447e-13 0.006715337745845318 
vn -3.0738041400909424 -6.35733707430447e-13 0.006715337745845318 
vn -3.0738041400909424 -6.35733707430447e-13 0.006715337745845318 
vn -3.0738041400909424 -6.35733707430447e-13 0.006715337745845318 
vn 3.0738041400909424 0 0.006715337745845318 
vn 3.0738041400909424 0 0.006715337745845318 
vn 3.0738041400909424 0 0.006715337745845318 
vn 3.0738041400909424 0 0.006715337745845318 
vn -6.357352253134885e-13 0 -3.0738115310668945 
vn -6.357352253134885e-13 0 -3.0738115310668945 
vn -6.357352253134885e-13 0 -3.0738115310668945 
vn -6.357352253134885e-13 0 -3.0738115310668945 
vn -3.178668537152235e-13 3.0738041400909424 0.006715337745845318 
vn -3.178668537152235e-13 3.0738041400909424 0.006715337745845318 
vn -3.178668537152235e-13 3.0738041400909424 0.006715337745845318 
vn -3.178668537152235e-13 3.0738041400909424 0.006715337745845318 
vt 0.8859289884567261 0.2589989900588989 
vt 0.8859289884567261 0.2589989900588989 
vt 0.11406999826431274 0.2589989900588989 
vt 0.11406999826431274 0.2589989900588989 
vt 0.11406999826431274 0.7934594750404358 
vt 0.11406999826431274 0.2589989900588989 
vt 0.8859289884567261 0.7934594750404358 
vt 0.8859289884567261 0.2589989900588989 
vt 0.11406999826431274 0.7934594750404358 
vt 0.11406999826431274 0.7934594750404358 
vt 0.11406999826431274 0.2589989900588989 
vt 0.11406999826431274 0.2589989900588989 
vt 0.8859289884567261 0.2589989900588989 
vt 0.8859289884567261 0.2589989900588989 
vt 0.8859289884567261 0.7934594750404358 
vt 0.8859289884567261 0.7934594750404358 
vt 0.8859289884567261 0.7934594750404358 
vt 0.8859289884567261 0.2589989900588989 
vt 0.11406999826431274 0.7934594750404358 
vt 0.11406999826431274 0.2589989900588989 
vt 0.8859289884567261 0.7934594750404358 
vt 0.8859289884567261 0.7934594750404358 
vt 0.11406999826431274 0.7934594750404358 
vt 0.11406999826431274 0.7934594750404358 
s on 
f 1/1/1 2/2/2 3/3/3 
f 2/2/2 4/4/4 3/3/3 
f 3/3/3 4/4/4 4/4/4 
f 4/4/4 5/5/5 4/4/4 
f 4/4/4 5/5/5 5/5/5 
f 5/5/5 6/6/6 5/5/5 
f 5/5/5 6/6/6 7/7/7 
f 6/6/6 8/8/8 7/7/7 
f 7/7/7 8/8/8 8/8/8 
f 8/8/8 9/9/9 8/8/8 
f 8/8/8 9/9/9 9/9/9 
f 9/9/9 10/10/10 9/9/9 
f 9/9/9 10/10/10 11/11/11 
f 10/10/10 12/12/12 11/11/11 
f 11/11/11 12/12/12 12/12/12 
f 12/12/12 13/13/13 12/12/12 
f 12/12/12 13/13/13 13/13/13 
f 13/13/13 14/14/14 13/13/13 
f 13/13/13 14/14/14 15/15/15 
f 14/14/14 16/16/16 15/15/15 
f 15/15/15 16/16/16 16/16/16 
f 16/16/16 17/17/17 16/16/16 
f 16/16/16 17/17/17 17/17/17 
f 17/17/17 18/18/18 17/17/17 
f 17/17/17 18/18/18 19/19/19 
f 18/18/18 20/20/20 19/19/19 
f 19/19/19 20/20/20 20/20/20 
f 20/20/20 21/21/21 20/20/20 
f 20/20/20 21/21/21 21/21/21 
f 21/21/21 22/22/22 21/21/21 
f 21/21/21 22/22/22 23/23/23 
f 22/22/22 24/24/24 23/23/23 

