mtllib model_20.mtl
o model_20
v -10.597557067871094 4.950597286224365 0.00023835648607928306 
v -10.597557067871094 4.950597286224365 0.013404831290245056 
v -11.962841987609863 4.950597286224365 0.00023835648607928306 
v -11.962841987609863 4.950597286224365 0.013404831290245056 
v -11.962841987609863 6.349324703216553 0.013404831290245056 
v -11.962841987609863 4.950597286224365 0.013404831290245056 
v -10.597557067871094 6.349324703216553 0.013404831290245056 
v -10.597557067871094 4.950597286224365 0.013404831290245056 
v -11.962841987609863 6.349324703216553 0.013404831290245056 
v -11.962841987609863 6.349324703216553 0.00023835648607928306 
v -11.962841987609863 4.950597286224365 0.013404831290245056 
v -11.962841987609863 4.950597286224365 0.00023835648607928306 
v -10.597557067871094 4.950597286224365 0.013404831290245056 
v -10.597557067871094 4.950597286224365 0.00023835648607928306 
v -10.597557067871094 6.349324703216553 0.013404831290245056 
v -10.597557067871094 6.349324703216553 0.00023835648607928306 
v -10.597557067871094 6.349324703216553 0.00023835648607928306 
v -10.597557067871094 4.950597286224365 0.00023835648607928306 
v -11.962841987609863 6.349324703216553 0.00023835648607928306 
v -11.962841987609863 4.950597286224365 0.00023835648607928306 
v -10.597557067871094 6.349324703216553 0.013404831290245056 
v -10.597557067871094 6.349324703216553 0.00023835648607928306 
v -11.962841987609863 6.349324703216553 0.013404831290245056 
v -11.962841987609863 6.349324703216553 0.00023835648607928306 
v 12.32104206085205 5.590607166290283 0.00023835648607928306 
v 12.32104206085205 5.590607166290283 0.013404831290245056 
v 10.955758094787598 5.590607166290283 0.00023835648607928306 
v 10.955758094787598 5.590607166290283 0.013404831290245056 
v 10.955758094787598 6.989334583282471 0.013404831290245056 
v 10.955758094787598 5.590607166290283 0.013404831290245056 
v 12.32104206085205 6.989334583282471 0.013404831290245056 
v 12.32104206085205 5.590607166290283 0.013404831290245056 
v 10.955758094787598 6.989334583282471 0.013404831290245056 
v 10.955758094787598 6.989334583282471 0.00023835648607928306 
v 10.955758094787598 5.590607166290283 0.013404831290245056 
v 10.955758094787598 5.590607166290283 0.00023835648607928306 
v 12.32104206085205 5.590607166290283 0.013404831290245056 
v 12.32104206085205 5.590607166290283 0.00023835648607928306 
v 12.32104206085205 6.989334583282471 0.013404831290245056 
v 12.32104206085205 6.989334583282471 0.00023835648607928306 
v 12.32104206085205 6.989334583282471 0.00023835648607928306 
v 12.32104206085205 5.590607166290283 0.00023835648607928306 
v 10.955758094787598 6.989334583282471 0.00023835648607928306 
v 10.955758094787598 5.590607166290283 0.00023835648607928306 
v 12.32104206085205 6.989334583282471 0.013404831290245056 
v 12.32104206085205 6.989334583282471 0.00023835648607928306 
v 10.955758094787598 6.989334583282471 0.013404831290245056 
v 10.955758094787598 6.989334583282471 0.00023835648607928306 
vn 1.937021940415229e-12 -6.252681732177734 0.013660229742527008 
vn 1.937021940415229e-12 -6.252681732177734 0.013660229742527008 
vn 1.937021940415229e-12 -6.252681732177734 0.013660229742527008 
vn 1.937021940415229e-12 -6.252681732177734 0.013660229742527008 
vn 0 0 6.252696514129639 
vn 0 0 6.252696514129639 
vn 0 0 6.252696514129639 
vn 0 0 6.252696514129639 
vn -6.252681732177734 -1.2931990547859762e-12 0.013660229742527008 
vn -6.252681732177734 -1.2931990547859762e-12 0.013660229742527008 
vn -6.252681732177734 -1.2931990547859762e-12 0.013660229742527008 
vn -6.252681732177734 -1.2931990547859762e-12 0.013660229742527008 
vn 6.252681732177734 0 0.013660229742527008 
vn 6.252681732177734 0 0.013660229742527008 
vn 6.252681732177734 0 0.013660229742527008 
vn 6.252681732177734 0 0.013660229742527008 
vn -1.2932020905520591e-12 0 -6.252696514129639 
vn -1.2932020905520591e-12 0 -6.252696514129639 
vn -1.2932020905520591e-12 0 -6.252696514129639 
vn -1.2932020905520591e-12 0 -6.252696514129639 
vn -6.465995273929881e-13 6.252681732177734 0.013660229742527008 
vn -6.465995273929881e-13 6.252681732177734 0.013660229742527008 
vn -6.465995273929881e-13 6.252681732177734 0.013660229742527008 
vn -6.465995273929881e-13 6.252681732177734 0.013660229742527008 
vn 1.937021940415229e-12 -6.252681732177734 0.013660229742527008 
vn 1.937021940415229e-12 -6.252681732177734 0.013660229742527008 
vn 1.937021940415229e-12 -6.252681732177734 0.013660229742527008 
vn 1.937021940415229e-12 -6.252681732177734 0.013660229742527008 
vn 0 0 6.252696514129639 
vn 0 0 6.252696514129639 
vn 0 0 6.252696514129639 
vn 0 0 6.252696514129639 
vn -6.252681732177734 -1.2931990547859762e-12 0.013660229742527008 
vn -6.252681732177734 -1.2931990547859762e-12 0.013660229742527008 
vn -6.252681732177734 -1.2931990547859762e-12 0.013660229742527008 
vn -6.252681732177734 -1.2931990547859762e-12 0.013660229742527008 
vn 6.252681732177734 0 0.013660229742527008 
vn 6.252681732177734 0 0.013660229742527008 
vn 6.252681732177734 0 0.013660229742527008 
vn 6.252681732177734 0 0.013660229742527008 
vn -1.2932020905520591e-12 0 -6.252696514129639 
vn -1.2932020905520591e-12 0 -6.252696514129639 
vn -1.2932020905520591e-12 0 -6.252696514129639 
vn -1.2932020905520591e-12 0 -6.252696514129639 
vn -6.465995273929881e-13 6.252681732177734 0.013660229742527008 
vn -6.465995273929881e-13 6.252681732177734 0.013660229742527008 
vn -6.465995273929881e-13 6.252681732177734 0.013660229742527008 
vn -6.465995273929881e-13 6.252681732177734 0.013660229742527008 
vt 0.7228502035140991 0.2871989905834198 
vt 0.7228502035140991 0.2871989905834198 
vt 0.27714499831199646 0.2871989905834198 
vt 0.27714499831199646 0.2871989905834198 
vt 0.27714499831199646 0.6791895627975464 
vt 0.27714499831199646 0.2871989905834198 
vt 0.7228502035140991 0.6791895627975464 
vt 0.7228502035140991 0.2871989905834198 
vt 0.27714499831199646 0.6791895627975464 
vt 0.27714499831199646 0.6791895627975464 
vt 0.27714499831199646 0.2871989905834198 
vt 0.27714499831199646 0.2871989905834198 
vt 0.7228502035140991 0.2871989905834198 
vt 0.7228502035140991 0.2871989905834198 
vt 0.7228502035140991 0.6791895627975464 
vt 0.7228502035140991 0.6791895627975464 
vt 0.7228502035140991 0.6791895627975464 
vt 0.7228502035140991 0.2871989905834198 
vt 0.27714499831199646 0.6791895627975464 
vt 0.27714499831199646 0.2871989905834198 
vt 0.7228502035140991 0.6791895627975464 
vt 0.7228502035140991 0.6791895627975464 
vt 0.27714499831199646 0.6791895627975464 
vt 0.27714499831199646 0.6791895627975464 
vt 0.7228502035140991 0.2871989905834198 
vt 0.7228502035140991 0.2871989905834198 
vt 0.27714499831199646 0.2871989905834198 
vt 0.27714499831199646 0.2871989905834198 
vt 0.27714499831199646 0.6791895627975464 
vt 0.27714499831199646 0.2871989905834198 
vt 0.7228502035140991 0.6791895627975464 
vt 0.7228502035140991 0.2871989905834198 
vt 0.27714499831199646 0.6791895627975464 
vt 0.27714499831199646 0.6791895627975464 
vt 0.27714499831199646 0.2871989905834198 
vt 0.27714499831199646 0.2871989905834198 
vt 0.7228502035140991 0.2871989905834198 
vt 0.7228502035140991 0.2871989905834198 
vt 0.7228502035140991 0.6791895627975464 
vt 0.7228502035140991 0.6791895627975464 
vt 0.7228502035140991 0.6791895627975464 
vt 0.7228502035140991 0.2871989905834198 
vt 0.27714499831199646 0.6791895627975464 
vt 0.27714499831199646 0.2871989905834198 
vt 0.7228502035140991 0.6791895627975464 
vt 0.7228502035140991 0.6791895627975464 
vt 0.27714499831199646 0.6791895627975464 
vt 0.27714499831199646 0.6791895627975464 
s on 
f 1/1/1 2/2/2 3/3/3 
f 2/2/2 4/4/4 3/3/3 
f 3/3/3 4/4/4 4/4/4 
f 4/4/4 5/5/5 4/4/4 
f 4/4/4 5/5/5 5/5/5 
f 5/5/5 6/6/6 5/5/5 
f 5/5/5 6/6/6 7/7/7 
f 6/6/6 8/8/8 7/7/7 
f 7/7/7 8/8/8 8/8/8 
f 8/8/8 9/9/9 8/8/8 
f 8/8/8 9/9/9 9/9/9 
f 9/9/9 10/10/10 9/9/9 
f 9/9/9 10/10/10 11/11/11 
f 10/10/10 12/12/12 11/11/11 
f 11/11/11 12/12/12 12/12/12 
f 12/12/12 13/13/13 12/12/12 
f 12/12/12 13/13/13 13/13/13 
f 13/13/13 14/14/14 13/13/13 
f 13/13/13 14/14/14 15/15/15 
f 14/14/14 16/16/16 15/15/15 
f 15/15/15 16/16/16 16/16/16 
f 16/16/16 17/17/17 16/16/16 
f 16/16/16 17/17/17 17/17/17 
f 17/17/17 18/18/18 17/17/17 
f 17/17/17 18/18/18 19/19/19 
f 18/18/18 20/20/20 19/19/19 
f 19/19/19 20/20/20 20/20/20 
f 20/20/20 21/21/21 20/20/20 
f 20/20/20 21/21/21 21/21/21 
f 21/21/21 22/22/22 21/21/21 
f 21/21/21 22/22/22 23/23/23 
f 22/22/22 24/24/24 23/23/23 
f 23/23/23 24/24/24 25/25/25 
f 24/24/24 26/26/26 25/25/25 
f 25/25/25 26/26/26 27/27/27 
f 26/26/26 28/28/28 27/27/27 
f 27/27/27 28/28/28 28/28/28 
f 28/28/28 29/29/29 28/28/28 
f 28/28/28 29/29/29 29/29/29 
f 29/29/29 30/30/30 29/29/29 
f 29/29/29 30/30/30 31/31/31 
f 30/30/30 32/32/32 31/31/31 
f 31/31/31 32/32/32 32/32/32 
f 32/32/32 33/33/33 32/32/32 
f 32/32/32 33/33/33 33/33/33 
f 33/33/33 34/34/34 33/33/33 
f 33/33/33 34/34/34 35/35/35 
f 34/34/34 36/36/36 35/35/35 
f 35/35/35 36/36/36 36/36/36 
f 36/36/36 37/37/37 36/36/36 
f 36/36/36 37/37/37 37/37/37 
f 37/37/37 38/38/38 37/37/37 
f 37/37/37 38/38/38 39/39/39 
f 38/38/38 40/40/40 39/39/39 
f 39/39/39 40/40/40 40/40/40 
f 40/40/40 41/41/41 40/40/40 
f 40/40/40 41/41/41 41/41/41 
f 41/41/41 42/42/42 41/41/41 
f 41/41/41 42/42/42 43/43/43 
f 42/42/42 44/44/44 43/43/43 
f 43/43/43 44/44/44 44/44/44 
f 44/44/44 45/45/45 44/44/44 
f 44/44/44 45/45/45 45/45/45 
f 45/45/45 46/46/46 45/45/45 
f 45/45/45 46/46/46 47/47/47 
f 46/46/46 48/48/48 47/47/47 

