mtllib model_8.mtl
o model_8
v 9.794178009033203 7.94603157043457 0.39662206172943115 
v 9.794178009033203 7.561192035675049 0.39662206172943115 
v 9.765985488891602 7.94603157043457 0.42481470108032227 
v 9.765985488891602 7.561192035675049 0.42481470108032227 
v 9.754953384399414 7.94603157043457 0.46403777599334717 
v 9.754953384399414 7.561192035675049 0.46403777599334717 
v 9.765985488891602 7.94603157043457 0.5020362138748169 
v 9.765985488891602 7.561192035675049 0.5020362138748169 
v 9.794178009033203 7.94603157043457 0.5302280187606812 
v 9.794178009033203 7.561192035675049 0.5302280187606812 
v 9.833401679992676 7.94603157043457 0.5412601232528687 
v 9.833401679992676 7.561192035675049 0.5412601232528687 
v 9.871400833129883 7.94603157043457 0.5302280187606812 
v 9.871400833129883 7.561192035675049 0.5302280187606812 
v 9.899593353271484 7.94603157043457 0.5020362138748169 
v 9.899593353271484 7.561192035675049 0.5020362138748169 
v 9.910624504089355 7.94603157043457 0.46403777599334717 
v 9.910624504089355 7.561192035675049 0.46403777599334717 
v 9.899593353271484 7.94603157043457 0.42481470108032227 
v 9.899593353271484 7.561192035675049 0.42481470108032227 
v 9.871400833129883 7.94603157043457 0.39662206172943115 
v 9.871400833129883 7.561192035675049 0.39662206172943115 
v 9.832176208496094 7.94603157043457 0.3855907917022705 
v 9.832176208496094 7.561192035675049 0.3855907917022705 
v 9.794178009033203 7.94603157043457 0.39662206172943115 
v 9.794178009033203 7.561192035675049 0.39662206172943115 
v 9.794178009033203 7.561192035675049 0.5302280187606812 
v 9.765985488891602 7.561192035675049 0.5020362138748169 
v 9.833401679992676 7.561192035675049 0.46403777599334717 
v 9.754953384399414 7.561192035675049 0.46403777599334717 
v 9.765985488891602 7.561192035675049 0.42481470108032227 
v 9.794178009033203 7.561192035675049 0.39662206172943115 
v 9.832176208496094 7.561192035675049 0.3855907917022705 
v 9.871400833129883 7.561192035675049 0.39662206172943115 
v 9.899593353271484 7.561192035675049 0.42481470108032227 
v 9.910624504089355 7.561192035675049 0.46403777599334717 
v 9.899593353271484 7.561192035675049 0.5020362138748169 
v 9.871400833129883 7.561192035675049 0.5302280187606812 
v 9.833401679992676 7.561192035675049 0.5412601232528687 
v 9.871400833129883 7.94603157043457 0.5302280187606812 
v 9.899593353271484 7.94603157043457 0.5020362138748169 
v 9.833401679992676 7.94603157043457 0.46403777599334717 
v 9.910624504089355 7.94603157043457 0.46403777599334717 
v 9.899593353271484 7.94603157043457 0.42481470108032227 
v 9.871400833129883 7.94603157043457 0.39662206172943115 
v 9.832176208496094 7.94603157043457 0.3855907917022705 
v 9.794178009033203 7.94603157043457 0.39662206172943115 
v 9.765985488891602 7.94603157043457 0.42481470108032227 
v 9.754953384399414 7.94603157043457 0.46403777599334717 
v 9.765985488891602 7.94603157043457 0.5020362138748169 
v 9.794178009033203 7.94603157043457 0.5302280187606812 
v 9.833401679992676 7.94603157043457 0.5412601232528687 
vn -1.1014631986618042 0 -1.914223551750183 
vn -1.1014631986618042 0 -1.914223551750183 
vn -1.9118125438690186 0 -1.1056426763534546 
vn -1.9118125438690186 0 -1.1056426763534546 
vn -2.2085001468658447 0 4.562784611944481e-13 
vn -2.2085001468658447 0 4.562784611944481e-13 
vn -1.9118125438690186 -2.2867244122565245e-13 1.1056426763534546 
vn -1.9118125438690186 -2.2867244122565245e-13 1.1056426763534546 
vn -1.1014631986618042 0.008340764790773392 1.9142053127288818 
vn -1.1014631986618042 0.008340764790773392 1.9142053127288818 
vn -0.004824897274374962 -4.567677616348909e-13 2.2084949016571045 
vn -0.004824897274374962 -4.567677616348909e-13 2.2084949016571045 
vn 1.1014631986618042 -3.9590563900154807e-13 1.914223551750183 
vn 1.1014631986618042 -3.9590563900154807e-13 1.914223551750183 
vn 1.9118125438690186 -2.2867244122565245e-13 1.1056426763534546 
vn 1.9118125438690186 -2.2867244122565245e-13 1.1056426763534546 
vn 2.2085001468658447 0 4.903863896206474e-16 
vn 2.2085001468658447 0 4.903863896206474e-16 
vn 1.9118125438690186 0 -1.1056426763534546 
vn 1.9118125438690186 0 -1.1056426763534546 
vn 1.1014631986618042 0 -1.914223551750183 
vn 1.1014631986618042 0 -1.914223551750183 
vn -0.004824897274374962 0 -2.2084949016571045 
vn -0.004824897274374962 0 -2.2084949016571045 
vn -1.1014631986618042 0 -1.914223551750183 
vn -1.1014631986618042 0 -1.914223551750183 
vn 0.004824897274374962 -2.2084949016571045 -6.84169843175042e-13 
vn 0.004824897274374962 -2.2084949016571045 -6.84169843175042e-13 
vn 0.004824897274374962 -2.2084949016571045 -6.84169843175042e-13 
vn 0.004824897274374962 -2.2084949016571045 -6.84169843175042e-13 
vn 0.004824897274374962 -2.2084949016571045 -6.84169843175042e-13 
vn 0.004824897274374962 -2.2084949016571045 -6.84169843175042e-13 
vn 0.004824897274374962 -2.2084949016571045 -6.84169843175042e-13 
vn 0.004824897274374962 -2.2084949016571045 -6.84169843175042e-13 
vn 0.004824897274374962 -2.2084949016571045 -6.84169843175042e-13 
vn 0.004824897274374962 -2.2084949016571045 -6.84169843175042e-13 
vn 0.004824897274374962 -2.2084949016571045 -6.84169843175042e-13 
vn 0.004824897274374962 -2.2084949016571045 -6.84169843175042e-13 
vn 0.004824897274374962 -2.2084949016571045 -6.84169843175042e-13 
vn 0.004824897274374962 2.2084949016571045 2.283849379145636e-13 
vn 0.004824897274374962 2.2084949016571045 2.283849379145636e-13 
vn -0.004824897274374962 2.2084949016571045 2.2838279661527294e-13 
vn 0.004824897274374962 2.2084949016571045 2.283849379145636e-13 
vn 0.004824897274374962 2.2084949016571045 2.283849379145636e-13 
vn 0.004824897274374962 2.2084949016571045 2.283849379145636e-13 
vn -0.004824897274374962 2.2084949016571045 2.2838279661527294e-13 
vn -0.004824897274374962 2.2084949016571045 2.2838279661527294e-13 
vn 0.004824897274374962 2.2084949016571045 2.283849379145636e-13 
vn 0.004824897274374962 2.2084949016571045 2.283849379145636e-13 
vn 0.004824897274374962 2.2084949016571045 2.283849379145636e-13 
vn -0.004824897274374962 2.2084949016571045 2.2838279661527294e-13 
vn -0.004824897274374962 2.2084949016571045 2.2838279661527294e-13 
s on 
f 1//1 2//2 3//3 
f 2//2 4//4 3//3 
f 3//3 4//4 5//5 
f 4//4 6//6 5//5 
f 5//5 6//6 7//7 
f 6//6 8//8 7//7 
f 7//7 8//8 9//9 
f 8//8 10//10 9//9 
f 9//9 10//10 11//11 
f 10//10 12//12 11//11 
f 11//11 12//12 13//13 
f 12//12 14//14 13//13 
f 13//13 14//14 15//15 
f 14//14 16//16 15//15 
f 15//15 16//16 17//17 
f 16//16 18//18 17//17 
f 17//17 18//18 19//19 
f 18//18 20//20 19//19 
f 19//19 20//20 21//21 
f 20//20 22//22 21//21 
f 21//21 22//22 23//23 
f 22//22 24//24 23//23 
f 23//23 24//24 25//25 
f 24//24 26//26 25//25 
f 25//25 26//26 26//26 
f 26//26 27//27 26//26 
f 26//26 27//27 27//27 
f 27//27 28//28 27//27 
f 27//27 28//28 29//29 
f 28//28 30//30 29//29 
f 29//29 30//30 31//31 
f 30//30 31//31 31//31 
f 31//31 31//31 31//31 
f 31//31 32//32 31//31 
f 31//31 32//32 29//29 
f 32//32 33//33 29//29 
f 29//29 33//33 34//34 
f 33//33 34//34 34//34 
f 34//34 34//34 34//34 
f 34//34 35//35 34//34 
f 34//34 35//35 29//29 
f 35//35 36//36 29//29 
f 29//29 36//36 37//37 
f 36//36 37//37 37//37 
f 37//37 37//37 37//37 
f 37//37 38//38 37//37 
f 37//37 38//38 29//29 
f 38//38 39//39 29//29 
f 29//29 39//39 27//27 
f 39//39 27//27 27//27 
f 27//27 27//27 40//40 
f 27//27 40//40 40//40 
f 40//40 40//40 40//40 
f 40//40 41//41 40//40 
f 40//40 41//41 42//42 
f 41//41 43//43 42//42 
f 42//42 43//43 44//44 
f 43//43 44//44 44//44 
f 44//44 44//44 44//44 
f 44//44 45//45 44//44 
f 44//44 45//45 42//42 
f 45//45 46//46 42//42 
f 42//42 46//46 47//47 
f 46//46 47//47 47//47 
f 47//47 47//47 47//47 
f 47//47 48//48 47//47 
f 47//47 48//48 42//42 
f 48//48 49//49 42//42 
f 42//42 49//49 50//50 
f 49//49 50//50 50//50 
f 50//50 50//50 50//50 
f 50//50 51//51 50//50 
f 50//50 51//51 42//42 
f 51//51 52//52 42//42 
f 42//42 52//52 40//40 

