mtllib model_6.mtl
o model_6
v 0.8713111281394958 10.793599128723145 -0.2840099632740021 
v 0.8713111281394958 10.932497024536133 -0.19120341539382935 
v 1.1765480041503906 10.793599128723145 -0.2840099632740021 
v 1.1765480041503906 10.932497024536133 -0.19120341539382935 
v 0.8713111281394958 11.02530288696289 -0.05230536311864853 
v 1.1765480041503906 11.02530288696289 -0.05230536311864853 
v 0.8713111281394958 11.057893753051758 0.11153372377157211 
v 1.1765480041503906 11.057893753051758 0.11153372377157211 
v 0.8713111281394958 11.02530288696289 0.27537283301353455 
v 1.1765480041503906 11.02530288696289 0.27537283301353455 
v 0.8713111281394958 10.932497024536133 0.41427087783813477 
v 1.1765480041503906 10.932497024536133 0.41427087783813477 
v 0.8713111281394958 10.793599128723145 0.5070774555206299 
v 1.1765480041503906 10.793599128723145 0.5070774555206299 
v 0.8713111281394958 10.629759788513184 0.539668083190918 
v 1.1765480041503906 10.629759788513184 0.539668083190918 
v 0.8713111281394958 10.465920448303223 0.5070774555206299 
v 1.1765480041503906 10.465920448303223 0.5070774555206299 
v 0.8713111281394958 10.327022552490234 0.41427087783813477 
v 1.1765480041503906 10.327022552490234 0.41427087783813477 
v 0.8713111281394958 10.23421573638916 0.27537283301353455 
v 1.1765480041503906 10.23421573638916 0.27537283301353455 
v 0.8713111281394958 10.201624870300293 0.11153372377157211 
v 1.1765480041503906 10.201624870300293 0.11153372377157211 
v 0.8713111281394958 10.23421573638916 -0.05230536311864853 
v 1.1765480041503906 10.23421573638916 -0.05230536311864853 
v 0.8713111281394958 10.327022552490234 -0.19120341539382935 
v 1.1765480041503906 10.327022552490234 -0.19120341539382935 
v 0.8713111281394958 10.465920448303223 -0.2840099632740021 
v 1.1765480041503906 10.465920448303223 -0.2840099632740021 
v 0.8713111281394958 10.629759788513184 -0.31660062074661255 
v 1.1765480041503906 10.629759788513184 -0.31660062074661255 
v 0.8713111281394958 10.793599128723145 -0.2840099632740021 
v 1.1765480041503906 10.793599128723145 -0.2840099632740021 
v 11.289905548095703 9.052166938781738 -0.04652450233697891 
v 11.289905548095703 9.052166938781738 0.22475340962409973 
v 11.289905548095703 7.651670455932617 -0.04652450233697891 
v 11.289905548095703 7.651670455932617 0.22475340962409973 
v 11.289905548095703 7.5193400382995605 -0.04652450233697891 
v 11.289905548095703 7.5193400382995605 0.22475340962409973 
v 9.36284065246582 9.052166938781738 -0.04652450233697891 
v 11.289905548095703 9.052166938781738 -0.04652450233697891 
v 9.36284065246582 7.651670455932617 -0.04652450233697891 
v 11.289905548095703 7.651670455932617 -0.04652450233697891 
v 11.289905548095703 7.5193400382995605 -0.04652450233697891 
v 11.289905548095703 9.052166938781738 0.22475340962409973 
v 11.289905548095703 9.052166938781738 -0.04652450233697891 
v 9.36284065246582 9.052166938781738 0.22475340962409973 
v 9.36284065246582 9.052166938781738 -0.04652450233697891 
v 11.289905548095703 7.5193400382995605 0.5893018245697021 
v 11.289905548095703 7.574477672576904 0.5893018245697021 
v 9.36284065246582 7.5193400382995605 0.5893018245697021 
v 9.36284065246582 7.574477672576904 0.5893018245697021 
v 9.36284065246582 7.651670455932617 0.22475340962409973 
v 9.36284065246582 7.574477672576904 0.5893018245697021 
v 11.289905548095703 7.651670455932617 0.22475340962409973 
v 11.289905548095703 7.574477672576904 0.5893018245697021 
v 11.289905548095703 7.5193400382995605 0.22475340962409973 
v 11.289905548095703 7.5193400382995605 0.5893018245697021 
v 9.36284065246582 7.5193400382995605 0.22475340962409973 
v 9.36284065246582 7.5193400382995605 0.5893018245697021 
v 9.36284065246582 7.5193400382995605 0.22475340962409973 
v 9.36284065246582 7.5193400382995605 -0.04652450233697891 
v 11.289905548095703 7.5193400382995605 0.22475340962409973 
v 11.289905548095703 7.5193400382995605 -0.04652450233697891 
v 11.289905548095703 7.651670455932617 0.22475340962409973 
v 11.289905548095703 7.574477672576904 0.5893018245697021 
v 11.289905548095703 7.5193400382995605 0.22475340962409973 
v 11.289905548095703 7.5193400382995605 0.5893018245697021 
v 9.36284065246582 7.574477672576904 0.5893018245697021 
v 9.36284065246582 7.651670455932617 0.22475340962409973 
v 9.36284065246582 7.5193400382995605 0.5893018245697021 
v 9.36284065246582 7.5193400382995605 0.22475340962409973 
v 9.36284065246582 7.5193400382995605 -0.04652450233697891 
v 9.36284065246582 7.651670455932617 -0.04652450233697891 
v 9.36284065246582 9.052166938781738 -0.04652450233697891 
v 9.36284065246582 9.052166938781738 0.22475340962409973 
v 9.36284065246582 7.5193400382995605 -0.04652450233697891 
v 10.349278450012207 8.170587539672852 0.25377947092056274 
v 10.357331275939941 8.159329414367676 0.22379562258720398 
v 10.351664543151855 8.173401832580566 0.25377947092056274 
v 10.364789009094238 8.169023513793945 0.22379562258720398 
v 10.351664543151855 8.177153587341309 0.25377947092056274 
v 10.364789009094238 8.18153190612793 0.22379562258720398 
v 10.349575996398926 8.180280685424805 0.25377947092056274 
v 10.357629776000977 8.19153881072998 0.22379562258720398 
v 10.345996856689453 8.18153190612793 0.25377947092056274 
v 10.345996856689453 8.195290565490723 0.22379562258720398 
v 10.34241771697998 8.180280685424805 0.25377947092056274 
v 10.33436393737793 8.19153881072998 0.22379562258720398 
v 10.340031623840332 8.17746639251709 0.25377947092056274 
v 10.32690715789795 8.181844711303711 0.22379562258720398 
v 10.340031623840332 8.173714637756348 0.25377947092056274 
v 10.32690715789795 8.169336318969727 0.22379562258720398 
v 10.342119216918945 8.170587539672852 0.25377947092056274 
v 10.334065437316895 8.159329414367676 0.22379562258720398 
v 10.345698356628418 8.169336318969727 0.25377947092056274 
v 10.345698356628418 8.155577659606934 0.22379562258720398 
v 10.349278450012207 8.170587539672852 0.25377947092056274 
v 10.357331275939941 8.159329414367676 0.22379562258720398 
v 10.345698356628418 8.169336318969727 0.25377947092056274 
v 10.349278450012207 8.170587539672852 0.25377947092056274 
v 10.342119216918945 8.170587539672852 0.25377947092056274 
v 10.340031623840332 8.173714637756348 0.25377947092056274 
v 10.340031623840332 8.17746639251709 0.25377947092056274 
v 10.34241771697998 8.180280685424805 0.25377947092056274 
v 10.345996856689453 8.18153190612793 0.25377947092056274 
v 10.349575996398926 8.180280685424805 0.25377947092056274 
v 10.351664543151855 8.177153587341309 0.25377947092056274 
v 10.351664543151855 8.173401832580566 0.25377947092056274 
v 10.345698356628418 8.155577659606934 0.22379562258720398 
v 10.334065437316895 8.159329414367676 0.22379562258720398 
v 10.357331275939941 8.159329414367676 0.22379562258720398 
v 10.32690715789795 8.169336318969727 0.22379562258720398 
v 10.32690715789795 8.181844711303711 0.22379562258720398 
v 10.33436393737793 8.19153881072998 0.22379562258720398 
v 10.345996856689453 8.195290565490723 0.22379562258720398 
v 10.357629776000977 8.19153881072998 0.22379562258720398 
v 10.364789009094238 8.18153190612793 0.22379562258720398 
v 10.364789009094238 8.169023513793945 0.22379562258720398 
vn 0.015579696744680405 2.7290217876434326 -6.588440895080566 
vn 0.015579696744680405 5.042574405670166 -5.042574405670166 
vn 0.015579696744680405 2.7290217876434326 -6.588440895080566 
vn 0.015579696744680405 5.042574405670166 -5.042574405670166 
vn -0.015579696744680405 6.588440895080566 -2.7290217876434326 
vn 0.015579696744680405 6.588440895080566 -2.7290217876434326 
vn -0.015579696744680405 7.131277084350586 7.374529589418422e-13 
vn -0.015579696744680405 7.131277084350586 7.374529589418422e-13 
vn 0.015579696744680405 6.588440895080566 2.7290217876434326 
vn 0.015579696744680405 6.588440895080566 2.7290217876434326 
vn 0.015579696744680405 5.042574405670166 5.042574405670166 
vn 0.015579696744680405 5.042574405670166 5.042574405670166 
vn 0.015579696744680405 2.7290217876434326 6.588440895080566 
vn 0.015579696744680405 2.7290217876434326 6.588440895080566 
vn 0.015579696744680405 -1.4749128567775882e-12 7.131277084350586 
vn 0.015579696744680405 -1.4749128567775882e-12 7.131277084350586 
vn 0.015579696744680405 -2.7290217876434326 6.588440895080566 
vn 0.015579696744680405 -2.7290217876434326 6.588440895080566 
vn 0.015579696744680405 -5.042574405670166 5.042574405670166 
vn 0.015579696744680405 -5.042574405670166 5.042574405670166 
vn 0.015579696744680405 -6.588440895080566 2.7290217876434326 
vn 0.015579696744680405 -6.588440895080566 2.7290217876434326 
vn 0.015579696744680405 -7.131277084350586 -2.209199186434252e-12 
vn 0.015579696744680405 -7.131277084350586 -2.209199186434252e-12 
vn 0.015579696744680405 -6.588440895080566 -2.7290217876434326 
vn 0.015579696744680405 -6.588440895080566 -2.7290217876434326 
vn 0.015579696744680405 -5.042574405670166 -5.042574405670166 
vn 0.015579696744680405 -5.042574405670166 -5.042574405670166 
vn 0.015579696744680405 -2.7290217876434326 -6.588440895080566 
vn 0.015579696744680405 -2.7290217876434326 -6.588440895080566 
vn 0.015579696744680405 0 -7.131277084350586 
vn 0.015579696744680405 0 -7.131277084350586 
vn 0.015579696744680405 2.7290217876434326 -6.588440895080566 
vn 0.015579696744680405 2.7290217876434326 -6.588440895080566 
vn 2.2085001468658447 0 4.903863896206474e-16 
vn 2.2085001468658447 0 4.903863896206474e-16 
vn 2.2085001468658447 0 4.903863896206474e-16 
vn 2.2085001468658447 0 4.903863896206474e-16 
vn 2.2085001468658447 0 4.903863896206474e-16 
vn 2.2085001468658447 0 4.903863896206474e-16 
vn 0.004824897274374962 0 -2.2084949016571045 
vn 0.004824897274374962 0 -2.2084949016571045 
vn 0.004824897274374962 0 -2.2084949016571045 
vn 0.004824897274374962 0 -2.2084949016571045 
vn 0.004824897274374962 0 -2.2084949016571045 
vn 0.004824897274374962 2.2084949016571045 2.283849379145636e-13 
vn 0.004824897274374962 2.2084949016571045 2.283849379145636e-13 
vn 0.004824897274374962 2.2084949016571045 2.283849379145636e-13 
vn 0.004824897274374962 2.2084949016571045 2.283849379145636e-13 
vn 0.004824897274374962 -4.567677616348909e-13 2.2084949016571045 
vn 0.004824897274374962 -4.567677616348909e-13 2.2084949016571045 
vn 0.004824897274374962 -4.567677616348909e-13 2.2084949016571045 
vn 0.004824897274374962 -4.567677616348909e-13 2.2084949016571045 
vn 0.004824897274374962 2.1593048572540283 0.4635213315486908 
vn 0.004824897274374962 2.1593048572540283 0.4635213315486908 
vn 0.004824897274374962 2.1593048572540283 0.4635213315486908 
vn 0.004824897274374962 2.1593048572540283 0.4635213315486908 
vn 0.004824897274374962 -2.2084949016571045 -6.84169843175042e-13 
vn 0.004824897274374962 -2.2084949016571045 -6.84169843175042e-13 
vn 0.004824897274374962 -2.2084949016571045 -6.84169843175042e-13 
vn 0.004824897274374962 -2.2084949016571045 -6.84169843175042e-13 
vn 0.004824897274374962 -2.2084949016571045 -6.84169843175042e-13 
vn 0.004824897274374962 -2.2084949016571045 -6.84169843175042e-13 
vn 0.004824897274374962 -2.2084949016571045 -6.84169843175042e-13 
vn 0.004824897274374962 -2.2084949016571045 -6.84169843175042e-13 
vn 2.2085001468658447 0 4.903863896206474e-16 
vn 2.2085001468658447 0 4.903863896206474e-16 
vn 2.2085001468658447 0 4.903863896206474e-16 
vn 2.2085001468658447 0 4.903863896206474e-16 
vn -2.2085001468658447 0 4.562784611944481e-13 
vn -2.2085001468658447 0 4.562784611944481e-13 
vn -2.2085001468658447 0 4.562784611944481e-13 
vn -2.2085001468658447 0 4.562784611944481e-13 
vn -2.2085001468658447 0 4.562784611944481e-13 
vn -2.2085001468658447 0 4.562784611944481e-13 
vn -2.2085001468658447 0 4.562784611944481e-13 
vn -2.2085001468658447 0 4.562784611944481e-13 
vn 0.004824897274374962 0 -2.2084949016571045 
vn 0.9996275305747986 -1.3998591899871826 1.3851395845413208 
vn 1.1676886081695557 -1.6371209621429443 0.9131323099136353 
vn 1.6332480907440186 -0.5447754263877869 1.3831822872161865 
vn 1.9020776748657227 -0.6406979560852051 0.9214550256729126 
vn 1.6461764574050903 0.5208768844604492 1.3770486116409302 
vn 1.9166252613067627 0.6039921641349792 0.9160860776901245 
vn 1.0253551006317139 1.380186915397644 1.3860747814178467 
vn 1.1921597719192505 1.6155476570129395 0.9199094772338867 
vn 0.014474598690867424 1.7176885604858398 1.388095498085022 
vn 0.014474598690867424 2.0069854259490967 0.9215599298477173 
vn -0.9996275305747986 1.4071801900863647 1.3777014017105103 
vn -1.1676886081695557 1.6344242095947266 0.9179506301879883 
vn -1.6332480907440186 0.5534510016441345 1.379733920097351 
vn -1.9020776748657227 0.6433485746383667 0.9196063280105591 
vn -1.6461764574050903 -0.5226741433143616 1.376367449760437 
vn -1.9166252613067627 -0.6065756678581238 0.9143775105476379 
vn -1.0253551006317139 -1.3875489234924316 1.3787051439285278 
vn -1.1921597719192505 -1.6127960681915283 0.924725353717804 
vn -0.014474598690867424 -1.7281222343444824 1.3750840425491333 
vn -0.014474598690867424 -2.0069854259490967 0.9215599298477173 
vn 0.9996275305747986 -1.3998591899871826 1.3851395845413208 
vn 1.1676886081695557 -1.6371209621429443 0.9131323099136353 
vn -0.014474598690867424 -1.7281222343444824 1.3750840425491333 
vn 0.9996275305747986 -1.3998591899871826 1.3851395845413208 
vn -1.0253551006317139 -1.3875489234924316 1.3787051439285278 
vn -1.6461764574050903 -0.5226741433143616 1.376367449760437 
vn -1.6332480907440186 0.5534510016441345 1.379733920097351 
vn -0.9996275305747986 1.4071801900863647 1.3777014017105103 
vn 0.014474598690867424 1.7176885604858398 1.388095498085022 
vn 1.0253551006317139 1.380186915397644 1.3860747814178467 
vn 1.6461764574050903 0.5208768844604492 1.3770486116409302 
vn 1.6332480907440186 -0.5447754263877869 1.3831822872161865 
vn -0.004824897274374962 0 -2.2084949016571045 
vn -0.004824897274374962 0 -2.2084949016571045 
vn -0.004824897274374962 0 -2.2084949016571045 
vn -0.004824897274374962 0 -2.2084949016571045 
vn -0.004824897274374962 0 -2.2084949016571045 
vn -0.004824897274374962 0 -2.2084949016571045 
vn -0.004824897274374962 0 -2.2084949016571045 
vn -0.004824897274374962 0 -2.2084949016571045 
vn -0.004824897274374962 0 -2.2084949016571045 
vn -0.004824897274374962 0 -2.2084949016571045 
s on 
f 1//1 2//2 3//3 
f 2//2 4//4 3//3 
f 3//3 4//4 4//4 
f 4//4 2//2 4//4 
f 4//4 2//2 2//2 
f 2//2 5//5 2//2 
f 2//2 5//5 4//4 
f 5//5 6//6 4//4 
f 4//4 6//6 6//6 
f 6//6 5//5 6//6 
f 6//6 5//5 5//5 
f 5//5 7//7 5//5 
f 5//5 7//7 6//6 
f 7//7 8//8 6//6 
f 6//6 8//8 8//8 
f 8//8 7//7 8//8 
f 8//8 7//7 7//7 
f 7//7 9//9 7//7 
f 7//7 9//9 8//8 
f 9//9 10//10 8//8 
f 8//8 10//10 10//10 
f 10//10 9//9 10//10 
f 10//10 9//9 9//9 
f 9//9 11//11 9//9 
f 9//9 11//11 10//10 
f 11//11 12//12 10//10 
f 10//10 12//12 12//12 
f 12//12 11//11 12//12 
f 12//12 11//11 11//11 
f 11//11 13//13 11//11 
f 11//11 13//13 12//12 
f 13//13 14//14 12//12 
f 12//12 14//14 14//14 
f 14//14 13//13 14//14 
f 14//14 13//13 13//13 
f 13//13 15//15 13//13 
f 13//13 15//15 14//14 
f 15//15 16//16 14//14 
f 14//14 16//16 16//16 
f 16//16 15//15 16//16 
f 16//16 15//15 15//15 
f 15//15 17//17 15//15 
f 15//15 17//17 16//16 
f 17//17 18//18 16//16 
f 16//16 18//18 18//18 
f 18//18 17//17 18//18 
f 18//18 17//17 17//17 
f 17//17 19//19 17//17 
f 17//17 19//19 18//18 
f 19//19 20//20 18//18 
f 18//18 20//20 20//20 
f 20//20 19//19 20//20 
f 20//20 19//19 19//19 
f 19//19 21//21 19//19 
f 19//19 21//21 20//20 
f 21//21 22//22 20//20 
f 20//20 22//22 22//22 
f 22//22 21//21 22//22 
f 22//22 21//21 21//21 
f 21//21 23//23 21//21 
f 21//21 23//23 22//22 
f 23//23 24//24 22//22 
f 22//22 24//24 24//24 
f 24//24 23//23 24//24 
f 24//24 23//23 23//23 
f 23//23 25//25 23//23 
f 23//23 25//25 24//24 
f 25//25 26//26 24//24 
f 24//24 26//26 26//26 
f 26//26 25//25 26//26 
f 26//26 25//25 25//25 
f 25//25 27//27 25//25 
f 25//25 27//27 26//26 
f 27//27 28//28 26//26 
f 26//26 28//28 28//28 
f 28//28 27//27 28//28 
f 28//28 27//27 27//27 
f 27//27 29//29 27//27 
f 27//27 29//29 28//28 
f 29//29 30//30 28//28 
f 28//28 30//30 30//30 
f 30//30 29//29 30//30 
f 30//30 29//29 29//29 
f 29//29 31//31 29//29 
f 29//29 31//31 30//30 
f 31//31 32//32 30//30 
f 30//30 32//32 32//32 
f 32//32 31//31 32//32 
f 32//32 31//31 31//31 
f 31//31 33//33 31//31 
f 31//31 33//33 32//32 
f 33//33 34//34 32//32 
f 32//32 34//34 34//34 
f 34//34 35//35 34//34 
f 34//34 35//35 35//35 
f 35//35 36//36 35//35 
f 35//35 36//36 37//37 
f 36//36 38//38 37//37 
f 37//37 38//38 39//39 
f 38//38 40//40 39//39 
f 39//39 40//40 40//40 
f 40//40 41//41 40//40 
f 40//40 41//41 41//41 
f 41//41 42//42 41//41 
f 41//41 42//42 43//43 
f 42//42 44//44 43//43 
f 43//43 44//44 45//45 
f 44//44 45//45 45//45 
f 45//45 45//45 46//46 
f 45//45 46//46 46//46 
f 46//46 46//46 46//46 
f 46//46 47//47 46//46 
f 46//46 47//47 48//48 
f 47//47 49//49 48//48 
f 48//48 49//49 49//49 
f 49//49 50//50 49//49 
f 49//49 50//50 50//50 
f 50//50 51//51 50//50 
f 50//50 51//51 52//52 
f 51//51 53//53 52//52 
f 52//52 53//53 53//53 
f 53//53 54//54 53//53 
f 53//53 54//54 54//54 
f 54//54 55//55 54//54 
f 54//54 55//55 56//56 
f 55//55 57//57 56//56 
f 56//56 57//57 57//57 
f 57//57 58//58 57//57 
f 57//57 58//58 58//58 
f 58//58 59//59 58//58 
f 58//58 59//59 60//60 
f 59//59 61//61 60//60 
f 60//60 61//61 61//61 
f 61//61 62//62 61//61 
f 61//61 62//62 62//62 
f 62//62 63//63 62//62 
f 62//62 63//63 64//64 
f 63//63 65//65 64//64 
f 64//64 65//65 65//65 
f 65//65 66//66 65//65 
f 65//65 66//66 66//66 
f 66//66 67//67 66//66 
f 66//66 67//67 68//68 
f 67//67 69//69 68//68 
f 68//68 69//69 69//69 
f 69//69 70//70 69//69 
f 69//69 70//70 70//70 
f 70//70 71//71 70//70 
f 70//70 71//71 72//72 
f 71//71 73//73 72//72 
f 72//72 73//73 73//73 
f 73//73 71//71 73//73 
f 73//73 71//71 74//74 
f 71//71 75//75 74//74 
f 74//74 75//75 75//75 
f 75//75 71//71 75//75 
f 75//75 71//71 76//76 
f 71//71 77//77 76//76 
f 76//76 77//77 77//77 
f 77//77 79//79 77//77 
f 77//77 79//79 79//79 
f 79//79 80//80 79//79 
f 79//79 80//80 81//81 
f 80//80 82//82 81//81 
f 81//81 82//82 83//83 
f 82//82 84//84 83//83 
f 83//83 84//84 85//85 
f 84//84 86//86 85//85 
f 85//85 86//86 87//87 
f 86//86 88//88 87//87 
f 87//87 88//88 89//89 
f 88//88 90//90 89//89 
f 89//89 90//90 91//91 
f 90//90 92//92 91//91 
f 91//91 92//92 93//93 
f 92//92 94//94 93//93 
f 93//93 94//94 95//95 
f 94//94 96//96 95//95 
f 95//95 96//96 97//97 
f 96//96 98//98 97//97 
f 97//97 98//98 99//99 
f 98//98 100//100 99//99 
f 99//99 100//100 100//100 
f 100//100 101//101 100//100 
f 100//100 101//101 101//101 
f 101//101 102//102 101//101 
f 101//101 102//102 103//103 
f 102//102 104//104 103//103 
f 103//103 104//104 104//104 
f 104//104 102//102 104//104 
f 104//104 102//102 105//105 
f 102//102 106//106 105//105 
f 105//105 106//106 106//106 
f 106//106 102//102 106//106 
f 106//106 102//102 107//107 
f 102//102 108//108 107//107 
f 107//107 108//108 108//108 
f 108//108 102//102 108//108 
f 108//108 102//102 109//109 
f 102//102 110//110 109//109 
f 109//109 110//110 110//110 
f 110//110 111//111 110//110 
f 110//110 111//111 111//111 
f 111//111 112//112 111//111 
f 111//111 112//112 113//113 
f 112//112 114//114 113//113 
f 113//113 114//114 115//115 
f 114//114 115//115 115//115 
f 115//115 115//115 115//115 
f 115//115 116//116 115//115 
f 115//115 116//116 113//113 
f 116//116 117//117 113//113 
f 113//113 117//117 118//118 
f 117//117 118//118 118//118 
f 118//118 118//118 118//118 
f 118//118 119//119 118//118 
f 118//118 119//119 113//113 
f 119//119 120//120 113//113 
f 43//43 45//45 78//78 

