mtllib model_14.mtl
o model_14
v 0.2063121497631073 10.793599128723145 -0.2840099632740021 
v 0.2063121497631073 10.629759788513184 -0.31660062074661255 
v -0.03206851705908775 10.793599128723145 -0.2840099632740021 
v -0.03206851705908775 10.629759788513184 -0.31660062074661255 
v 0.2063121497631073 10.465920448303223 -0.2840099632740021 
v -0.03206851705908775 10.465920448303223 -0.2840099632740021 
v 0.2063121497631073 10.327022552490234 -0.19120341539382935 
v -0.03206851705908775 10.327022552490234 -0.19120341539382935 
v 0.2063121497631073 10.23421573638916 -0.05230536311864853 
v -0.03206851705908775 10.23421573638916 -0.05230536311864853 
v 0.2063121497631073 10.201624870300293 0.11153372377157211 
v -0.03206851705908775 10.201624870300293 0.11153372377157211 
v 0.2063121497631073 10.23421573638916 0.27537283301353455 
v -0.03206851705908775 10.23421573638916 0.27537283301353455 
v 0.2063121497631073 10.327022552490234 0.41427087783813477 
v -0.03206851705908775 10.327022552490234 0.41427087783813477 
v 0.2063121497631073 10.465920448303223 0.5070774555206299 
v -0.03206851705908775 10.465920448303223 0.5070774555206299 
v 0.2063121497631073 10.629759788513184 0.539668083190918 
v -0.03206851705908775 10.629759788513184 0.539668083190918 
v 0.2063121497631073 10.793599128723145 0.5070774555206299 
v -0.03206851705908775 10.793599128723145 0.5070774555206299 
v 0.2063121497631073 10.932497024536133 0.41427087783813477 
v -0.03206851705908775 10.932497024536133 0.41427087783813477 
v 0.2063121497631073 11.02530288696289 0.27537283301353455 
v -0.03206851705908775 11.02530288696289 0.27537283301353455 
v 0.2063121497631073 11.057893753051758 0.11153372377157211 
v -0.03206851705908775 11.057893753051758 0.11153372377157211 
v 0.2063121497631073 11.02530288696289 -0.05230536311864853 
v -0.03206851705908775 11.02530288696289 -0.05230536311864853 
v 0.2063121497631073 10.932497024536133 -0.19120341539382935 
v -0.03206851705908775 10.932497024536133 -0.19120341539382935 
v 0.2063121497631073 10.793599128723145 -0.2840099632740021 
v -0.03206851705908775 10.793599128723145 -0.2840099632740021 
vn 0.015579696744680405 2.7290217876434326 -6.588440895080566 
vn 0.015579696744680405 0 -7.131277084350586 
vn 0.015579696744680405 2.7290217876434326 -6.588440895080566 
vn 0.015579696744680405 0 -7.131277084350586 
vn 0.015579696744680405 -2.7290217876434326 -6.588440895080566 
vn 0.015579696744680405 -2.7290217876434326 -6.588440895080566 
vn 0.015579696744680405 -5.042574405670166 -5.042574405670166 
vn 0.015579696744680405 -5.042574405670166 -5.042574405670166 
vn 0.015579696744680405 -6.588440895080566 -2.7290217876434326 
vn 0.015579696744680405 -6.588440895080566 -2.7290217876434326 
vn 0.015579696744680405 -7.131277084350586 -2.209199186434252e-12 
vn -0.015579696744680405 -7.131277084350586 -2.2092059084877214e-12 
vn 0.015579696744680405 -6.588440895080566 2.7290217876434326 
vn -0.015579696744680405 -6.588440895080566 2.7290217876434326 
vn 0.015579696744680405 -5.042574405670166 5.042574405670166 
vn -0.015579696744680405 -5.042574405670166 5.042574405670166 
vn 0.015579696744680405 -2.7290217876434326 6.588440895080566 
vn 0.015579696744680405 -2.7290217876434326 6.588440895080566 
vn 0.015579696744680405 -1.4749128567775882e-12 7.131277084350586 
vn -0.015579696744680405 -1.4749128567775882e-12 7.131277084350586 
vn 0.015579696744680405 2.7290217876434326 6.588440895080566 
vn -0.015579696744680405 2.7290217876434326 6.588440895080566 
vn 0.015579696744680405 5.042574405670166 5.042574405670166 
vn -0.015579696744680405 5.042574405670166 5.042574405670166 
vn 0.015579696744680405 6.588440895080566 2.7290217876434326 
vn 0.015579696744680405 6.588440895080566 2.7290217876434326 
vn 0.015579696744680405 7.131277084350586 7.374598978357461e-13 
vn 0.015579696744680405 7.131277084350586 7.374598978357461e-13 
vn 0.015579696744680405 6.588440895080566 -2.7290217876434326 
vn 0.015579696744680405 6.588440895080566 -2.7290217876434326 
vn 0.015579696744680405 5.042574405670166 -5.042574405670166 
vn 0.015579696744680405 5.042574405670166 -5.042574405670166 
vn 0.015579696744680405 2.7290217876434326 -6.588440895080566 
vn 0.015579696744680405 2.7290217876434326 -6.588440895080566 
s on 
f 1//1 2//2 3//3 
f 2//2 4//4 3//3 
f 3//3 4//4 4//4 
f 4//4 2//2 4//4 
f 4//4 2//2 2//2 
f 2//2 5//5 2//2 
f 2//2 5//5 4//4 
f 5//5 6//6 4//4 
f 4//4 6//6 6//6 
f 6//6 5//5 6//6 
f 6//6 5//5 5//5 
f 5//5 7//7 5//5 
f 5//5 7//7 6//6 
f 7//7 8//8 6//6 
f 6//6 8//8 8//8 
f 8//8 7//7 8//8 
f 8//8 7//7 7//7 
f 7//7 9//9 7//7 
f 7//7 9//9 8//8 
f 9//9 10//10 8//8 
f 8//8 10//10 10//10 
f 10//10 9//9 10//10 
f 10//10 9//9 9//9 
f 9//9 11//11 9//9 
f 9//9 11//11 10//10 
f 11//11 12//12 10//10 
f 10//10 12//12 12//12 
f 12//12 11//11 12//12 
f 12//12 11//11 11//11 
f 11//11 13//13 11//11 
f 11//11 13//13 12//12 
f 13//13 14//14 12//12 
f 12//12 14//14 14//14 
f 14//14 13//13 14//14 
f 14//14 13//13 13//13 
f 13//13 15//15 13//13 
f 13//13 15//15 14//14 
f 15//15 16//16 14//14 
f 14//14 16//16 16//16 
f 16//16 15//15 16//16 
f 16//16 15//15 15//15 
f 15//15 17//17 15//15 
f 15//15 17//17 16//16 
f 17//17 18//18 16//16 
f 16//16 18//18 18//18 
f 18//18 17//17 18//18 
f 18//18 17//17 17//17 
f 17//17 19//19 17//17 
f 17//17 19//19 18//18 
f 19//19 20//20 18//18 
f 18//18 20//20 20//20 
f 20//20 19//19 20//20 
f 20//20 19//19 19//19 
f 19//19 21//21 19//19 
f 19//19 21//21 20//20 
f 21//21 22//22 20//20 
f 20//20 22//22 22//22 
f 22//22 21//21 22//22 
f 22//22 21//21 21//21 
f 21//21 23//23 21//21 
f 21//21 23//23 22//22 
f 23//23 24//24 22//22 
f 22//22 24//24 24//24 
f 24//24 23//23 24//24 
f 24//24 23//23 23//23 
f 23//23 25//25 23//23 
f 23//23 25//25 24//24 
f 25//25 26//26 24//24 
f 24//24 26//26 26//26 
f 26//26 25//25 26//26 
f 26//26 25//25 25//25 
f 25//25 27//27 25//25 
f 25//25 27//27 26//26 
f 27//27 28//28 26//26 
f 26//26 28//28 28//28 
f 28//28 27//27 28//28 
f 28//28 27//27 27//27 
f 27//27 29//29 27//27 
f 27//27 29//29 28//28 
f 29//29 30//30 28//28 
f 28//28 30//30 30//30 
f 30//30 29//29 30//30 
f 30//30 29//29 29//29 
f 29//29 31//31 29//29 
f 29//29 31//31 30//30 
f 31//31 32//32 30//30 
f 30//30 32//32 32//32 
f 32//32 31//31 32//32 
f 32//32 31//31 31//31 
f 31//31 33//33 31//31 
f 31//31 33//33 32//32 
f 33//33 34//34 32//32 

