mtllib model_3.mtl
o model_3
v -1.4725048542022705 0.47900351881980896 -0.27273938059806824 
v -1.4951889514923096 0.47900351881980896 -0.24272103607654572 
v 0.03304307907819748 0.47900351881980896 -0.27273938059806824 
v 0.05572708696126938 0.47900351881980896 -0.24272103607654572 
v 0.044797949492931366 0.47900351881980896 -0.2784711420536041 
v 0.06777342408895493 0.47900351881980896 -0.24797292053699493 
v 0.045186541974544525 0.47900351881980896 -0.2786844074726105 
v 0.06821059435606003 0.47900351881980896 -0.2481595128774643 
v 0.008561842143535614 0.47900351881980896 -0.304890513420105 
v 0.008173249661922455 0.47900351881980896 -0.30467721819877625 
v -0.0029987471643835306 0.47900351881980896 -0.29854559898376465 
v -1.4725048542022705 0.47900351881980896 -0.27273938059806824 
v -1.4364631175994873 0.47900351881980896 -0.29854559898376465 
v -0.03957489877939224 0.47900351881980896 -0.32477834820747375 
v -0.05001828819513321 0.47900351881980896 -0.31832680106163025 
v -0.09514344483613968 0.47900351881980896 -0.33738818764686584 
v -0.10471249371767044 0.47900351881980896 -0.3307766914367676 
v -0.15474362671375275 0.47900351881980896 -0.3417069911956787 
v -0.1634383499622345 0.47900351881980896 -0.33501550555229187 
v -1.276023507118225 0.47900351881980896 -0.33501550555229187 
v -1.2847182750701904 0.47900351881980896 -0.3417069911956787 
v -1.3347493410110474 0.47900351881980896 -0.3307766914367676 
v -1.3443669080734253 0.47900351881980896 -0.33738818764686584 
v -1.389492154121399 0.47900351881980896 -0.31832680106163025 
v -1.399886965751648 0.47900351881980896 -0.32477834820747375 
v -1.4364631175994873 0.47900351881980896 -0.29854559898376465 
v -1.4476350545883179 0.47900351881980896 -0.30467721819877625 
v -1.4725048542022705 0.47900351881980896 -0.27273938059806824 
v -1.484259843826294 0.47900351881980896 -0.2784711420536041 
v -1.4951889514923096 0.47900351881980896 -0.24272103607654572 
v -1.5072352886199951 0.47900351881980896 -0.24797292053699493 
v -1.5151041746139526 0.47900351881980896 -0.21526195108890533 
v -1.2850096225738525 0.47900351881980896 -0.34194692969322205 
v -0.15445217490196228 0.47900351881980896 -0.34194692969322205 
v -0.09514344483613968 0.47900351881980896 -0.33738818764686584 
v -0.09480343014001846 0.47900351881980896 -0.3376281261444092 
v -0.03957489877939224 0.47900351881980896 -0.32477834820747375 
v -0.03918630629777908 0.47900351881980896 -0.3249916136264801 
v -1.3447070121765137 0.47900351881980896 -0.3376281261444092 
v -1.400275468826294 0.47900351881980896 -0.3249916136264801 
v -1.4480236768722534 0.47900351881980896 -0.304890513420105 
v -1.484259843826294 0.47900351881980896 -0.2784711420536041 
v -1.48464834690094 0.47900351881980896 -0.2786844074726105 
v -1.5072352886199951 0.47900351881980896 -0.24797292053699493 
v -1.5076724290847778 0.47900351881980896 -0.2481595128774643 
v -1.515541434288025 0.47900351881980896 -0.2154219001531601 
v -1.5151041746139526 0.47900351881980896 0.40491336584091187 
v -1.502912163734436 0.47900351881980896 0.4001413583755493 
v -1.4951889514923096 0.47900351881980896 0.43237245082855225 
v 0.06345032900571823 0.47900351881980896 0.4001413583755493 
v 0.05572708696126938 0.47900351881980896 0.43237245082855225 
v -1.515541434288025 0.47900351881980896 0.4050733149051666 
v -1.5072352886199951 0.47900351881980896 0.43765097856521606 
v -1.484259843826294 0.47900351881980896 0.46812257170677185 
v -1.4725048542022705 0.47900351881980896 0.46241748332977295 
v -1.4476350545883179 0.47900351881980896 0.49432864785194397 
v -1.4364631175994873 0.47900351881980896 0.48819699883461 
v -1.399886965751648 0.47900351881980896 0.5144297480583191 
v -1.389492154121399 0.47900351881980896 0.5079782009124756 
v -1.3443669080734253 0.47900351881980896 0.5270395874977112 
v -1.3347493410110474 0.47900351881980896 0.5204281210899353 
v -1.2847182750701904 0.47900351881980896 0.5313584208488464 
v -1.276023507118225 0.47900351881980896 0.5246669054031372 
v -0.15474362671375275 0.47900351881980896 0.5313584208488464 
v -0.1634383499622345 0.47900351881980896 0.5246669054031372 
v -0.10471249371767044 0.47900351881980896 0.5204281210899353 
v -1.3347493410110474 0.47900351881980896 0.5204281210899353 
v -1.5076724290847778 0.47900351881980896 0.4378376007080078 
v -1.48464834690094 0.47900351881980896 0.4683358371257782 
v -1.4480236768722534 0.47900351881980896 0.4945419132709503 
v -1.400275468826294 0.47900351881980896 0.5146430134773254 
v -1.399886965751648 0.47900351881980896 0.5144297480583191 
v -1.3447070121765137 0.47900351881980896 0.5272795557975769 
v -1.3443669080734253 0.47900351881980896 0.5270395874977112 
v -1.2850096225738525 0.47900351881980896 0.5315983295440674 
v -0.15445217490196228 0.47900351881980896 0.5315983295440674 
v -0.09514344483613968 0.47900351881980896 0.5270395874977112 
v -0.05001828819513321 0.47900351881980896 0.5079782009124756 
v -1.389492154121399 0.47900351881980896 0.5079782009124756 
v -0.09480343014001846 0.47900351881980896 0.5272795557975769 
v -0.03957489877939224 0.47900351881980896 0.5144297480583191 
v -0.0029987471643835306 0.47900351881980896 0.48819699883461 
v -1.389492154121399 0.47900351881980896 0.5079782009124756 
v -1.4364631175994873 0.47900351881980896 0.48819699883461 
v -0.03918630629777908 0.47900351881980896 0.5146430134773254 
v 0.008173249661922455 0.47900351881980896 0.49432864785194397 
v 0.03304307907819748 0.47900351881980896 0.46241748332977295 
v 0.044797949492931366 0.47900351881980896 0.46812257170677185 
v 0.05572708696126938 0.47900351881980896 0.43237245082855225 
v 0.06777342408895493 0.47900351881980896 0.43765097856521606 
v 0.07564239948987961 0.47900351881980896 0.40491336584091187 
v 0.06345032900571823 0.47900351881980896 0.4001413583755493 
v 0.06345032900571823 0.47900351881980896 -0.21048994362354279 
v -1.502912163734436 0.47900351881980896 -0.21048994362354279 
v 0.07564239948987961 0.47900351881980896 -0.21526195108890533 
v -1.4951889514923096 0.47900351881980896 -0.24272103607654572 
v 0.07607956975698471 0.47900351881980896 0.4050733149051666 
v 0.07607956975698471 0.47900351881980896 -0.2154219001531601 
v 0.06777342408895493 0.47900351881980896 0.43765097856521606 
v 0.06821059435606003 0.47900351881980896 0.4378376007080078 
v 0.045186541974544525 0.47900351881980896 0.4683358371257782 
v 0.044797949492931366 0.47900351881980896 0.46812257170677185 
v 0.008561842143535614 0.47900351881980896 0.4945419132709503 
v -0.05001828819513321 0.47900351881980896 -0.31832680106163025 
v -0.0029987471643835306 0.47900351881980896 -0.29854559898376465 
v -0.0029987471643835306 0.47900351881980896 0.48819699883461 
v 0.03304307907819748 0.47900351881980896 0.46241748332977295 
v 0.03304307907819748 0.47900351881980896 0.46241748332977295 
v 0.05572708696126938 0.47900351881980896 0.43237245082855225 
v -0.05001828819513321 0.47900351881980896 -0.31832680106163025 
v -0.10471249371767044 0.47900351881980896 -0.3307766914367676 
v -0.10471249371767044 0.47900351881980896 -0.3307766914367676 
v -1.502912163734436 0.47900351881980896 -0.21048994362354279 
v -1.3347493410110474 0.47900351881980896 0.5204281210899353 
vn 0.002184694167226553 0.999997615814209 1.0353354865056882e-13 
vn 0.002184694167226553 0.999997615814209 1.0353354865056882e-13 
vn 0.002184694167226553 0.999997615814209 1.0353354865056882e-13 
vn 0.002184694167226553 0.999997615814209 1.0353354865056882e-13 
vn 0.002184694167226553 0.999997615814209 1.0353354865056882e-13 
vn 0.002184694167226553 0.999997615814209 1.0353354865056882e-13 
vn 0.002184694167226553 0.999997615814209 1.0353354865056882e-13 
vn 0.002184694167226553 0.999997615814209 1.0353354865056882e-13 
vn 0.002184694167226553 0.999997615814209 1.0353354865056882e-13 
vn 0.002184694167226553 0.999997615814209 1.0353354865056882e-13 
vn 0.002184694167226553 0.999997615814209 1.0353354865056882e-13 
vn 0.002184694167226553 0.999997615814209 1.0353354865056882e-13 
vn 0.002184694167226553 0.999997615814209 1.0353354865056882e-13 
vn 0.002184694167226553 0.999997615814209 1.0353354865056882e-13 
vn 0.002184694167226553 0.999997615814209 1.0353354865056882e-13 
vn 0.002184694167226553 0.999997615814209 1.0353354865056882e-13 
vn 0.002184694167226553 0.999997615814209 1.0353354865056882e-13 
vn 0.002184694167226553 0.999997615814209 1.0353354865056882e-13 
vn 0.002184694167226553 0.999997615814209 1.0353354865056882e-13 
vn 0.002184694167226553 0.999997615814209 1.0353354865056882e-13 
vn 0.002184694167226553 0.999997615814209 1.0353354865056882e-13 
vn 0.002184694167226553 0.999997615814209 1.0353354865056882e-13 
vn 0.002184694167226553 0.999997615814209 1.0353354865056882e-13 
vn 0.002184694167226553 0.999997615814209 1.0353354865056882e-13 
vn 0.002184694167226553 0.999997615814209 1.0353354865056882e-13 
vn 0.002184694167226553 0.999997615814209 1.0353354865056882e-13 
vn 0.002184694167226553 0.999997615814209 1.0353354865056882e-13 
vn 0.002184694167226553 0.999997615814209 1.0353354865056882e-13 
vn 0.002184694167226553 0.999997615814209 1.0353354865056882e-13 
vn 0.002184694167226553 0.999997615814209 1.0353354865056882e-13 
vn 0.002184694167226553 0.999997615814209 1.0353354865056882e-13 
vn 0.002184694167226553 0.999997615814209 1.0353354865056882e-13 
vn 0.002184694167226553 0.999997615814209 1.0353354865056882e-13 
vn 0.002184694167226553 0.999997615814209 1.0353354865056882e-13 
vn 0.002184694167226553 0.999997615814209 1.0353354865056882e-13 
vn 0.002184694167226553 0.999997615814209 1.0353354865056882e-13 
vn 0.002184694167226553 0.999997615814209 1.0353354865056882e-13 
vn 0.002184694167226553 0.999997615814209 1.0353354865056882e-13 
vn 0.002184694167226553 0.999997615814209 1.0353354865056882e-13 
vn 0.002184694167226553 0.999997615814209 1.0353354865056882e-13 
vn 0.002184694167226553 0.999997615814209 1.0353354865056882e-13 
vn 0.002184694167226553 0.999997615814209 1.0353354865056882e-13 
vn 0.002184694167226553 0.999997615814209 1.0353354865056882e-13 
vn 0.002184694167226553 0.999997615814209 1.0353354865056882e-13 
vn 0.002184694167226553 0.999997615814209 1.0353354865056882e-13 
vn 0.002184694167226553 0.999997615814209 1.0353354865056882e-13 
vn 0.002184694167226553 0.999997615814209 1.0353354865056882e-13 
vn 0.002184694167226553 0.999997615814209 1.0353354865056882e-13 
vn 0.002184694167226553 0.999997615814209 1.0353354865056882e-13 
vn 0.002184694167226553 0.999997615814209 1.0353354865056882e-13 
vn 0.002184694167226553 0.999997615814209 1.0353354865056882e-13 
vn 0.002184694167226553 0.999997615814209 1.0353354865056882e-13 
vn 0.002184694167226553 0.999997615814209 1.0353354865056882e-13 
vn 0.002184694167226553 0.999997615814209 1.0353354865056882e-13 
vn 0.002184694167226553 0.999997615814209 1.0353354865056882e-13 
vn 0.002184694167226553 0.999997615814209 1.0353354865056882e-13 
vn 0.002184694167226553 0.999997615814209 1.0353354865056882e-13 
vn 0.002184694167226553 0.999997615814209 1.0353354865056882e-13 
vn 0.002184694167226553 0.999997615814209 1.0353354865056882e-13 
vn 0.002184694167226553 0.999997615814209 1.0353354865056882e-13 
vn 0.002184694167226553 0.999997615814209 1.0353354865056882e-13 
vn 0.002184694167226553 0.999997615814209 1.0353354865056882e-13 
vn 0.002184694167226553 0.999997615814209 1.0353354865056882e-13 
vn 0.002184694167226553 0.999997615814209 1.0353354865056882e-13 
vn 0.002184694167226553 0.999997615814209 1.0353354865056882e-13 
vn 0.002184694167226553 0.999997615814209 1.0353354865056882e-13 
vn 0.002184694167226553 0.999997615814209 1.0353354865056882e-13 
vn 0.002184694167226553 0.999997615814209 1.0353354865056882e-13 
vn 0.002184694167226553 0.999997615814209 1.0353354865056882e-13 
vn 0.002184694167226553 0.999997615814209 1.0353354865056882e-13 
vn 0.002184694167226553 0.999997615814209 1.0353354865056882e-13 
vn 0.002184694167226553 0.999997615814209 1.0353354865056882e-13 
vn 0.002184694167226553 0.999997615814209 1.0353354865056882e-13 
vn 0.002184694167226553 0.999997615814209 1.0353354865056882e-13 
vn 0.002184694167226553 0.999997615814209 1.0353354865056882e-13 
vn 0.002184694167226553 0.999997615814209 1.0353354865056882e-13 
vn 0.002184694167226553 0.999997615814209 1.0353354865056882e-13 
vn 0.002184694167226553 0.999997615814209 1.0353354865056882e-13 
vn 0.002184694167226553 0.999997615814209 1.0353354865056882e-13 
vn 0.002184694167226553 0.999997615814209 1.0353354865056882e-13 
vn 0.002184694167226553 0.999997615814209 1.0353354865056882e-13 
vn 0.002184694167226553 0.999997615814209 1.0353354865056882e-13 
vn 0.002184694167226553 0.999997615814209 1.0353354865056882e-13 
vn 0.002184694167226553 0.999997615814209 1.0353354865056882e-13 
vn 0.002184694167226553 0.999997615814209 1.0353354865056882e-13 
vn 0.002184694167226553 0.999997615814209 1.0353354865056882e-13 
vn 0.002184694167226553 0.999997615814209 1.0353354865056882e-13 
vn 0.002184694167226553 0.999997615814209 1.0353354865056882e-13 
vn 0.002184694167226553 0.999997615814209 1.0353354865056882e-13 
vn 0.002184694167226553 0.999997615814209 1.0353354865056882e-13 
vn 0.002184694167226553 0.999997615814209 1.0353354865056882e-13 
vn 0.002184694167226553 0.999997615814209 1.0353354865056882e-13 
vn 0.002184694167226553 0.999997615814209 1.0353354865056882e-13 
vn 0.002184694167226553 0.999997615814209 1.0353354865056882e-13 
vn 0.002184694167226553 0.999997615814209 1.0353354865056882e-13 
vn 0.002184694167226553 0.999997615814209 1.0353354865056882e-13 
vn 0.002184694167226553 0.999997615814209 1.0353354865056882e-13 
vn 0.002184694167226553 0.999997615814209 1.0353354865056882e-13 
vn 0.002184694167226553 0.999997615814209 1.0353354865056882e-13 
vn 0.002184694167226553 0.999997615814209 1.0353354865056882e-13 
vn 0.002184694167226553 0.999997615814209 1.0353354865056882e-13 
vn 0.002184694167226553 0.999997615814209 1.0353354865056882e-13 
vn 0.002184694167226553 0.999997615814209 1.0353354865056882e-13 
vn 0.002184694167226553 0.999997615814209 1.0353354865056882e-13 
vn 0.002184694167226553 0.999997615814209 1.0353354865056882e-13 
vn 0.002184694167226553 0.999997615814209 1.0353354865056882e-13 
vn 0.002184694167226553 0.999997615814209 1.0353354865056882e-13 
vn 0.002184694167226553 0.999997615814209 1.0353354865056882e-13 
vn 0.002184694167226553 0.999997615814209 1.0353354865056882e-13 
vn 0.002184694167226553 0.999997615814209 1.0353354865056882e-13 
vn 0.002184694167226553 0.999997615814209 1.0353354865056882e-13 
vn 0.002184694167226553 0.999997615814209 1.0353354865056882e-13 
vn 0.002184694167226553 0.999997615814209 1.0353354865056882e-13 
vn 0.002184694167226553 0.999997615814209 1.0353354865056882e-13 
s on 
f 1//1 2//2 3//3 
f 2//2 4//4 3//3 
f 3//3 4//4 5//5 
f 4//4 6//6 5//5 
f 5//5 6//6 7//7 
f 6//6 8//8 7//7 
f 7//7 8//8 8//8 
f 8//8 7//7 8//8 
f 8//8 7//7 7//7 
f 7//7 9//9 7//7 
f 7//7 9//9 5//5 
f 9//9 10//10 5//5 
f 5//5 10//10 3//3 
f 10//10 11//11 3//3 
f 3//3 11//11 12//12 
f 11//11 13//13 12//12 
f 12//12 13//13 13//13 
f 13//13 10//10 13//13 
f 13//13 10//10 10//10 
f 10//10 14//14 10//10 
f 10//10 14//14 11//11 
f 14//14 15//15 11//11 
f 11//11 15//15 15//15 
f 15//15 14//14 15//15 
f 15//15 14//14 14//14 
f 14//14 16//16 14//14 
f 14//14 16//16 15//15 
f 16//16 17//17 15//15 
f 15//15 17//17 17//17 
f 17//17 16//16 17//17 
f 17//17 16//16 16//16 
f 16//16 18//18 16//16 
f 16//16 18//18 17//17 
f 18//18 19//19 17//17 
f 17//17 19//19 19//19 
f 19//19 18//18 19//19 
f 19//19 18//18 20//20 
f 18//18 21//21 20//20 
f 20//20 21//21 22//22 
f 21//21 23//23 22//22 
f 22//22 23//23 24//24 
f 23//23 25//25 24//24 
f 24//24 25//25 26//26 
f 25//25 27//27 26//26 
f 26//26 27//27 28//28 
f 27//27 29//29 28//28 
f 28//28 29//29 30//30 
f 29//29 31//31 30//30 
f 30//30 31//31 32//32 
f 31//31 32//32 32//32 
f 32//32 32//32 23//23 
f 32//32 23//23 23//23 
f 23//23 23//23 23//23 
f 23//23 21//21 23//23 
f 23//23 21//21 33//33 
f 21//21 18//18 33//33 
f 33//33 18//18 34//34 
f 18//18 35//35 34//34 
f 34//34 35//35 36//36 
f 35//35 37//37 36//36 
f 36//36 37//37 38//38 
f 37//37 10//10 38//38 
f 38//38 10//10 9//9 
f 10//10 9//9 9//9 
f 9//9 9//9 33//33 
f 9//9 33//33 33//33 
f 33//33 33//33 33//33 
f 33//33 39//39 33//33 
f 33//33 39//39 23//23 
f 39//39 25//25 23//23 
f 23//23 25//25 25//25 
f 25//25 39//39 25//25 
f 25//25 39//39 39//39 
f 39//39 40//40 39//39 
f 39//39 40//40 25//25 
f 40//40 27//27 25//25 
f 25//25 27//27 27//27 
f 27//27 40//40 27//27 
f 27//27 40//40 40//40 
f 40//40 41//41 40//40 
f 40//40 41//41 27//27 
f 41//41 42//42 27//27 
f 27//27 42//42 42//42 
f 42//42 41//41 42//42 
f 42//42 41//41 41//41 
f 41//41 43//43 41//41 
f 41//41 43//43 42//42 
f 43//43 44//44 42//42 
f 42//42 44//44 44//44 
f 44//44 43//43 44//44 
f 44//44 43//43 43//43 
f 43//43 45//45 43//43 
f 43//43 45//45 44//44 
f 45//45 46//46 44//44 
f 44//44 46//46 32//32 
f 46//46 47//47 32//32 
f 32//32 47//47 48//48 
f 47//47 49//49 48//48 
f 48//48 49//49 50//50 
f 49//49 51//51 50//50 
f 50//50 51//51 51//51 
f 51//51 46//46 51//51 
f 51//51 46//46 46//46 
f 46//46 52//52 46//46 
f 46//46 52//52 47//47 
f 52//52 53//53 47//47 
f 47//47 53//53 49//49 
f 53//53 54//54 49//49 
f 49//49 54//54 55//55 
f 54//54 56//56 55//55 
f 55//55 56//56 57//57 
f 56//56 58//58 57//57 
f 57//57 58//58 59//59 
f 58//58 60//60 59//59 
f 59//59 60//60 61//61 
f 60//60 62//62 61//61 
f 61//61 62//62 63//63 
f 62//62 64//64 63//63 
f 63//63 64//64 65//65 
f 64//64 66//66 65//65 
f 65//65 66//66 63//63 
f 66//66 67//67 63//63 
f 63//63 67//67 67//67 
f 67//67 52//52 67//67 
f 67//67 52//52 52//52 
f 52//52 68//68 52//52 
f 52//52 68//68 53//53 
f 68//68 69//69 53//53 
f 53//53 69//69 54//54 
f 69//69 70//70 54//54 
f 54//54 70//70 56//56 
f 70//70 71//71 56//56 
f 56//56 71//71 72//72 
f 71//71 73//73 72//72 
f 72//72 73//73 74//74 
f 73//73 75//75 74//74 
f 74//74 75//75 62//62 
f 75//75 76//76 62//62 
f 62//62 76//76 64//64 
f 76//76 77//77 64//64 
f 64//64 77//77 66//66 
f 77//77 78//78 66//66 
f 66//66 78//78 79//79 
f 78//78 79//79 79//79 
f 79//79 79//79 76//76 
f 79//79 76//76 76//76 
f 76//76 76//76 76//76 
f 76//76 80//80 76//76 
f 76//76 80//80 77//77 
f 80//80 81//81 77//77 
f 77//77 81//81 78//78 
f 81//81 82//82 78//78 
f 78//78 82//82 83//83 
f 82//82 84//84 83//83 
f 83//83 84//84 84//84 
f 84//84 80//80 84//84 
f 84//84 80//80 80//80 
f 80//80 85//85 80//80 
f 80//80 85//85 81//81 
f 85//85 86//86 81//81 
f 81//81 86//86 82//82 
f 86//86 87//87 82//82 
f 82//82 87//87 87//87 
f 87//87 86//86 87//87 
f 87//87 86//86 86//86 
f 86//86 88//88 86//86 
f 86//86 88//88 87//87 
f 88//88 89//89 87//87 
f 87//87 89//89 89//89 
f 89//89 88//88 89//89 
f 89//89 88//88 88//88 
f 88//88 90//90 88//88 
f 88//88 90//90 89//89 
f 90//90 91//91 89//89 
f 89//89 91//91 92//92 
f 91//91 93//93 92//92 
f 92//92 93//93 48//48 
f 93//93 94//94 48//48 
f 48//48 94//94 32//32 
f 94//94 30//30 32//32 
f 32//32 30//30 30//30 
f 30//30 91//91 30//30 
f 30//30 91//91 91//91 
f 91//91 95//95 91//91 
f 91//91 95//95 93//93 
f 95//95 4//4 93//93 
f 93//93 4//4 96//96 
f 4//4 96//96 96//96 
f 96//96 96//96 91//91 
f 96//96 91//91 91//91 
f 91//91 91//91 91//91 
f 91//91 97//97 91//91 
f 91//91 97//97 95//95 
f 97//97 98//98 95//95 
f 95//95 98//98 6//6 
f 98//98 8//8 6//6 
f 6//6 8//8 8//8 
f 8//8 91//91 8//8 
f 8//8 91//91 91//91 
f 91//91 99//99 91//91 
f 91//91 99//99 97//97 
f 99//99 100//100 97//97 
f 97//97 100//100 100//100 
f 100//100 99//99 100//100 
f 100//100 99//99 101//101 
f 99//99 102//102 101//101 
f 101//101 102//102 103//103 
f 102//102 86//86 103//103 
f 103//103 86//86 85//85 
f 86//86 85//85 85//85 
f 85//85 85//85 24//24 
f 85//85 24//24 24//24 
f 24//24 24//24 24//24 
f 24//24 26//26 24//24 
f 24//24 26//26 104//104 
f 26//26 105//105 104//104 
f 104//104 105//105 105//105 
f 105//105 106//106 105//105 
f 105//105 106//106 106//106 
f 106//106 107//107 106//106 
f 106//106 107//107 57//57 
f 107//107 55//55 57//57 
f 57//57 55//55 55//55 
f 55//55 108//108 55//55 
f 55//55 108//108 108//108 
f 108//108 109//109 108//108 
f 108//108 109//109 55//55 
f 109//109 49//49 55//55 
f 55//55 49//49 49//49 
f 49//49 24//24 49//49 
f 49//49 24//24 24//24 
f 24//24 110//110 24//24 
f 24//24 110//110 22//22 
f 110//110 111//111 22//22 
f 22//22 111//111 111//111 
f 111//111 20//20 111//111 
f 111//111 20//20 20//20 
f 20//20 22//22 20//20 
f 20//20 22//22 19//19 
f 22//22 112//112 19//19 
f 93//93 96//96 113//113 
f 95//95 6//6 4//4 
f 66//66 79//79 114//114 

