mtllib model_9.mtl
o model_9
v 9.36284065246582 7.651669502258301 0.22475513815879822 
v 11.289905548095703 7.651669502258301 0.22475513815879822 
v 9.36284065246582 9.052165985107422 0.22475513815879822 
v 11.289905548095703 9.052165985107422 0.22475513815879822 
v 10.848870277404785 7.94603157043457 0.39662206172943115 
v 10.848870277404785 7.561192035675049 0.39662206172943115 
v 10.8206787109375 7.94603157043457 0.42481470108032227 
v 10.8206787109375 7.561192035675049 0.42481470108032227 
v 10.809646606445312 7.94603157043457 0.46403777599334717 
v 10.809646606445312 7.561192035675049 0.46403777599334717 
v 10.8206787109375 7.94603157043457 0.5020362138748169 
v 10.8206787109375 7.561192035675049 0.5020362138748169 
v 10.848870277404785 7.94603157043457 0.5302280187606812 
v 10.848870277404785 7.561192035675049 0.5302280187606812 
v 10.888094902038574 7.94603157043457 0.5412601232528687 
v 10.888094902038574 7.561192035675049 0.5412601232528687 
v 10.926093101501465 7.94603157043457 0.5302280187606812 
v 10.926093101501465 7.561192035675049 0.5302280187606812 
v 10.954285621643066 7.94603157043457 0.5020362138748169 
v 10.954285621643066 7.561192035675049 0.5020362138748169 
v 10.965317726135254 7.94603157043457 0.46403777599334717 
v 10.965317726135254 7.561192035675049 0.46403777599334717 
v 10.954285621643066 7.94603157043457 0.42481470108032227 
v 10.954285621643066 7.561192035675049 0.42481470108032227 
v 10.926093101501465 7.94603157043457 0.39662206172943115 
v 10.926093101501465 7.561192035675049 0.39662206172943115 
v 10.886869430541992 7.94603157043457 0.3855907917022705 
v 10.886869430541992 7.561192035675049 0.3855907917022705 
v 10.848870277404785 7.94603157043457 0.39662206172943115 
v 10.848870277404785 7.561192035675049 0.39662206172943115 
v 10.848870277404785 7.561192035675049 0.5302280187606812 
v 10.8206787109375 7.561192035675049 0.5020362138748169 
v 10.888094902038574 7.561192035675049 0.46403777599334717 
v 10.809646606445312 7.561192035675049 0.46403777599334717 
v 10.8206787109375 7.561192035675049 0.42481470108032227 
v 10.848870277404785 7.561192035675049 0.39662206172943115 
v 10.886869430541992 7.561192035675049 0.3855907917022705 
v 10.926093101501465 7.561192035675049 0.39662206172943115 
v 10.954285621643066 7.561192035675049 0.42481470108032227 
v 10.965317726135254 7.561192035675049 0.46403777599334717 
v 10.954285621643066 7.561192035675049 0.5020362138748169 
v 10.926093101501465 7.561192035675049 0.5302280187606812 
v 10.888094902038574 7.561192035675049 0.5412601232528687 
v 10.926093101501465 7.94603157043457 0.5302280187606812 
v 10.954285621643066 7.94603157043457 0.5020362138748169 
v 10.888094902038574 7.94603157043457 0.46403777599334717 
v 10.965317726135254 7.94603157043457 0.46403777599334717 
v 10.954285621643066 7.94603157043457 0.42481470108032227 
v 10.926093101501465 7.94603157043457 0.39662206172943115 
v 10.886869430541992 7.94603157043457 0.3855907917022705 
v 10.848870277404785 7.94603157043457 0.39662206172943115 
v 10.8206787109375 7.94603157043457 0.42481470108032227 
v 10.809646606445312 7.94603157043457 0.46403777599334717 
v 10.8206787109375 7.94603157043457 0.5020362138748169 
v 10.848870277404785 7.94603157043457 0.5302280187606812 
v 10.888094902038574 7.94603157043457 0.5412601232528687 
vn 0.004824897274374962 -4.567677616348909e-13 2.2084949016571045 
vn 0.004824897274374962 -4.567677616348909e-13 2.2084949016571045 
vn 0.004824897274374962 -4.567677616348909e-13 2.2084949016571045 
vn 0.004824897274374962 -4.567677616348909e-13 2.2084949016571045 
vn -1.1014631986618042 0 -1.914223551750183 
vn -1.1014631986618042 0 -1.914223551750183 
vn -1.9118125438690186 0 -1.1056426763534546 
vn -1.9118125438690186 0 -1.1056426763534546 
vn -2.2085001468658447 0 4.562784611944481e-13 
vn -2.2085001468658447 0 4.562784611944481e-13 
vn -1.9118125438690186 -2.2867244122565245e-13 1.1056426763534546 
vn -1.9118125438690186 -2.2867244122565245e-13 1.1056426763534546 
vn -1.1014631986618042 0.008340764790773392 1.9142053127288818 
vn -1.1014631986618042 0.008340764790773392 1.9142053127288818 
vn -0.004824897274374962 -4.567677616348909e-13 2.2084949016571045 
vn -0.004824897274374962 -4.567677616348909e-13 2.2084949016571045 
vn 1.1014631986618042 -3.9590563900154807e-13 1.914223551750183 
vn 1.1014631986618042 -3.9590563900154807e-13 1.914223551750183 
vn 1.9118125438690186 -2.2867244122565245e-13 1.1056426763534546 
vn 1.9118125438690186 -2.2867244122565245e-13 1.1056426763534546 
vn 2.2085001468658447 0 4.903863896206474e-16 
vn 2.2085001468658447 0 4.903863896206474e-16 
vn 1.9118125438690186 0 -1.1056426763534546 
vn 1.9118125438690186 0 -1.1056426763534546 
vn 1.1014631986618042 0 -1.914223551750183 
vn 1.1014631986618042 0 -1.914223551750183 
vn 0.004824897274374962 0 -2.2084949016571045 
vn 0.004824897274374962 0 -2.2084949016571045 
vn -1.1014631986618042 0 -1.914223551750183 
vn -1.1014631986618042 0 -1.914223551750183 
vn 0.004824897274374962 -2.2084949016571045 -6.84169843175042e-13 
vn 0.004824897274374962 -2.2084949016571045 -6.84169843175042e-13 
vn -0.004824897274374962 -2.2084949016571045 -6.841719573692784e-13 
vn -0.004824897274374962 -2.2084949016571045 -6.841719573692784e-13 
vn -0.004824897274374962 -2.2084949016571045 -6.841719573692784e-13 
vn 0.004824897274374962 -2.2084949016571045 -6.84169843175042e-13 
vn 0.004824897274374962 -2.2084949016571045 -6.84169843175042e-13 
vn 0.004824897274374962 -2.2084949016571045 -6.84169843175042e-13 
vn 0.004824897274374962 -2.2084949016571045 -6.84169843175042e-13 
vn 0.004824897274374962 -2.2084949016571045 -6.84169843175042e-13 
vn 0.004824897274374962 -2.2084949016571045 -6.84169843175042e-13 
vn 0.004824897274374962 -2.2084949016571045 -6.84169843175042e-13 
vn 0.004824897274374962 -2.2084949016571045 -6.84169843175042e-13 
vn 0.004824897274374962 2.2084949016571045 2.283849379145636e-13 
vn 0.004824897274374962 2.2084949016571045 2.283849379145636e-13 
vn -0.004824897274374962 2.2084949016571045 2.2838279661527294e-13 
vn 0.004824897274374962 2.2084949016571045 2.283849379145636e-13 
vn 0.004824897274374962 2.2084949016571045 2.283849379145636e-13 
vn 0.004824897274374962 2.2084949016571045 2.283849379145636e-13 
vn -0.004824897274374962 2.2084949016571045 2.2838279661527294e-13 
vn -0.004824897274374962 2.2084949016571045 2.2838279661527294e-13 
vn 0.004824897274374962 2.2084949016571045 2.283849379145636e-13 
vn 0.004824897274374962 2.2084949016571045 2.283849379145636e-13 
vn 0.004824897274374962 2.2084949016571045 2.283849379145636e-13 
vn -0.004824897274374962 2.2084949016571045 2.2838279661527294e-13 
vn -0.004824897274374962 2.2084949016571045 2.2838279661527294e-13 
vt 0 0 
vt 1.0000005960464478 0 
vt 0 1.0000005960464478 
vt 1.0000005960464478 1.0000005960464478 
vt 0.4367923438549042 0.3403831720352173 
vt 0.06089299917221069 0.3403831720352173 
vt 0.4367923438549042 0.3195706605911255 
vt 0.06089299917221069 0.3195706605911255 
vt 0.4367923438549042 0.29871994256973267 
vt 0.06089299917221069 0.29871994256973267 
vt 0.4367923438549042 0.27790743112564087 
vt 0.06089299917221069 0.27790743112564087 
vt 0.4367923438549042 0.25705674290657043 
vt 0.06089299917221069 0.25705674290657043 
vt 0.4367923438549042 0.23624421656131744 
vt 0.06089299917221069 0.23624421656131744 
vt 0.4367923438549042 0.21539351344108582 
vt 0.06089299917221069 0.21539351344108582 
vt 0.4367923438549042 0.19458100199699402 
vt 0.06089299917221069 0.19458100199699402 
vt 0.4367923438549042 0.1737302988767624 
vt 0.06089299917221069 0.1737302988767624 
vt 0.4367923438549042 0.15287959575653076 
vt 0.06089299917221069 0.15287959575653076 
vt 0.4367923438549042 0.13206708431243896 
vt 0.06089299917221069 0.13206708431243896 
vt 0.4367923438549042 0.11121637374162674 
vt 0.06089299917221069 0.11121637374162674 
vt 0.4367923438549042 0.09040386229753494 
vt 0.06089299917221069 0.09040386229753494 
vt 0.6180925965309143 0.13470205664634705 
vt 0.6752359867095947 0.07749628275632858 
vt 0.7533665299415588 0.2065720558166504 
vt 0.7533665299415588 0.05656920373439789 
vt 0.831497073173523 0.07749628275632858 
vt 0.8887442946434021 0.13470205664634705 
vt 0.9096276164054871 0.21279671788215637 
vt 0.8887442946434021 0.2909295856952667 
vt 0.831497073173523 0.3481353521347046 
vt 0.7533665299415588 0.3690624237060547 
vt 0.6752359867095947 0.3481353521347046 
vt 0.6180925965309143 0.2909295856952667 
vt 0.5971054434776306 0.21279671788215637 
vt 0.620378315448761 0.13439655303955078 
vt 0.6775217056274414 0.07719077914953232 
vt 0.7556522488594055 0.20626655220985413 
vt 0.7556522488594055 0.056263700127601624 
vt 0.8337827920913696 0.07719077914953232 
vt 0.8910300135612488 0.13439655303955078 
vt 0.9119133353233337 0.21252940595149994 
vt 0.8910300135612488 0.29062408208847046 
vt 0.8337827920913696 0.3478298485279083 
vt 0.7556522488594055 0.3687569200992584 
vt 0.6775217056274414 0.3478298485279083 
vt 0.620378315448761 0.29062408208847046 
vt 0.5993911623954773 0.21252940595149994 
s on 
f 1/1/1 2/2/2 3/3/3 
f 2/2/2 4/4/4 3/3/3 
f 3/3/3 4/4/4 4/4/4 
f 4/4/4 5/5/5 4/4/4 
f 4/4/4 5/5/5 5/5/5 
f 5/5/5 6/6/6 5/5/5 
f 5/5/5 6/6/6 7/7/7 
f 6/6/6 8/8/8 7/7/7 
f 7/7/7 8/8/8 9/9/9 
f 8/8/8 10/10/10 9/9/9 
f 9/9/9 10/10/10 11/11/11 
f 10/10/10 12/12/12 11/11/11 
f 11/11/11 12/12/12 13/13/13 
f 12/12/12 14/14/14 13/13/13 
f 13/13/13 14/14/14 15/15/15 
f 14/14/14 16/16/16 15/15/15 
f 15/15/15 16/16/16 17/17/17 
f 16/16/16 18/18/18 17/17/17 
f 17/17/17 18/18/18 19/19/19 
f 18/18/18 20/20/20 19/19/19 
f 19/19/19 20/20/20 21/21/21 
f 20/20/20 22/22/22 21/21/21 
f 21/21/21 22/22/22 23/23/23 
f 22/22/22 24/24/24 23/23/23 
f 23/23/23 24/24/24 25/25/25 
f 24/24/24 26/26/26 25/25/25 
f 25/25/25 26/26/26 27/27/27 
f 26/26/26 28/28/28 27/27/27 
f 27/27/27 28/28/28 29/29/29 
f 28/28/28 30/30/30 29/29/29 
f 29/29/29 30/30/30 30/30/30 
f 30/30/30 31/31/31 30/30/30 
f 30/30/30 31/31/31 31/31/31 
f 31/31/31 32/32/32 31/31/31 
f 31/31/31 32/32/32 33/33/33 
f 32/32/32 34/34/34 33/33/33 
f 33/33/33 34/34/34 35/35/35 
f 34/34/34 35/35/35 35/35/35 
f 35/35/35 35/35/35 35/35/35 
f 35/35/35 36/36/36 35/35/35 
f 35/35/35 36/36/36 33/33/33 
f 36/36/36 37/37/37 33/33/33 
f 33/33/33 37/37/37 38/38/38 
f 37/37/37 38/38/38 38/38/38 
f 38/38/38 38/38/38 38/38/38 
f 38/38/38 39/39/39 38/38/38 
f 38/38/38 39/39/39 33/33/33 
f 39/39/39 40/40/40 33/33/33 
f 33/33/33 40/40/40 41/41/41 
f 40/40/40 41/41/41 41/41/41 
f 41/41/41 41/41/41 41/41/41 
f 41/41/41 42/42/42 41/41/41 
f 41/41/41 42/42/42 33/33/33 
f 42/42/42 43/43/43 33/33/33 
f 33/33/33 43/43/43 31/31/31 
f 43/43/43 31/31/31 31/31/31 
f 31/31/31 31/31/31 44/44/44 
f 31/31/31 44/44/44 44/44/44 
f 44/44/44 44/44/44 44/44/44 
f 44/44/44 45/45/45 44/44/44 
f 44/44/44 45/45/45 46/46/46 
f 45/45/45 47/47/47 46/46/46 
f 46/46/46 47/47/47 48/48/48 
f 47/47/47 48/48/48 48/48/48 
f 48/48/48 48/48/48 48/48/48 
f 48/48/48 49/49/49 48/48/48 
f 48/48/48 49/49/49 46/46/46 
f 49/49/49 50/50/50 46/46/46 
f 46/46/46 50/50/50 51/51/51 
f 50/50/50 51/51/51 51/51/51 
f 51/51/51 51/51/51 51/51/51 
f 51/51/51 52/52/52 51/51/51 
f 51/51/51 52/52/52 46/46/46 
f 52/52/52 53/53/53 46/46/46 
f 46/46/46 53/53/53 54/54/54 
f 53/53/53 54/54/54 54/54/54 
f 54/54/54 54/54/54 54/54/54 
f 54/54/54 55/55/55 54/54/54 
f 54/54/54 55/55/55 46/46/46 
f 55/55/55 56/56/56 46/46/46 
f 46/46/46 56/56/56 44/44/44 

