mtllib model_13.mtl
o model_13
v 1.6448149681091309 10.946846008300781 -0.20555604994297028 
v 1.6448149681091309 10.801366806030273 -0.3027615249156952 
v 1.463152527809143 10.968033790588379 -0.226740762591362 
v 1.463152527809143 10.812832832336426 -0.33044376969337463 
v 1.463152527809143 10.968033790588379 -0.226740762591362 
v 1.463152527809143 11.071737289428711 -0.07153975963592529 
v 1.6448149681091309 10.946846008300781 -0.20555604994297028 
v 1.6448149681091309 11.044054985046387 -0.06007297337055206 
v 1.463152527809143 10.629759788513184 0.5899264216423035 
v 1.463152527809143 10.446686744689941 0.5535109639167786 
v 1.6448149681091309 10.629759788513184 0.5599667429924011 
v 1.6448149681091309 10.458152770996094 0.5258286595344543 
v 1.463152527809143 11.108152389526367 0.11153358966112137 
v 1.3398520946502686 11.086530685424805 0.11153358966112137 
v 1.463152527809143 11.071737289428711 0.2946069538593292 
v 1.3398520946502686 11.051761627197266 0.286333829164505 
v 1.463152527809143 11.071737289428711 0.2946069538593292 
v 1.3398520946502686 11.051761627197266 0.286333829164505 
v 1.463152527809143 10.968033790588379 0.44980791211128235 
v 1.3398520946502686 10.952746391296387 0.4345201253890991 
v 1.463152527809143 10.968033790588379 0.44980791211128235 
v 1.3398520946502686 10.952746391296387 0.4345201253890991 
v 1.463152527809143 10.812832832336426 0.5535109639167786 
v 1.3398520946502686 10.804559707641602 0.5335391163825989 
v 1.463152527809143 10.812832832336426 0.5535109639167786 
v 1.3398520946502686 10.804559707641602 0.5335391163825989 
v 1.463152527809143 10.629759788513184 0.5899264216423035 
v 1.3398520946502686 10.629759788513184 0.5683083534240723 
v 1.463152527809143 10.629759788513184 0.5899264216423035 
v 1.3398520946502686 10.629759788513184 0.5683083534240723 
v 1.463152527809143 10.446686744689941 0.5535109639167786 
v 1.3398520946502686 10.454959869384766 0.5335391163825989 
v 1.463152527809143 10.446686744689941 0.5535109639167786 
v 1.3398520946502686 10.454959869384766 0.5335391163825989 
v 1.463152527809143 10.291485786437988 0.44980791211128235 
v 1.3398520946502686 10.30677318572998 0.4345201253890991 
v 1.463152527809143 10.291485786437988 0.44980791211128235 
v 1.3398520946502686 10.30677318572998 0.4345201253890991 
v 1.463152527809143 10.187782287597656 0.2946069538593292 
v 1.3398520946502686 10.207754135131836 0.286333829164505 
v 1.463152527809143 10.187782287597656 0.2946069538593292 
v 1.3398520946502686 10.207754135131836 0.286333829164505 
v 1.463152527809143 10.1513671875 0.11153358966112137 
v 1.3398520946502686 10.172985076904297 0.11153358966112137 
v 1.463152527809143 10.1513671875 0.11153358966112137 
v 1.3398520946502686 10.172985076904297 0.11153358966112137 
v 1.463152527809143 10.187782287597656 -0.07153975963592529 
v 1.3398520946502686 10.207754135131836 -0.06326663494110107 
v 1.463152527809143 10.187782287597656 -0.07153975963592529 
v 1.3398520946502686 10.207754135131836 -0.06326663494110107 
v 1.463152527809143 10.291485786437988 -0.226740762591362 
v 1.3398520946502686 10.30677318572998 -0.21145294606685638 
v 1.463152527809143 10.291485786437988 -0.226740762591362 
v 1.3398520946502686 10.30677318572998 -0.21145294606685638 
v 1.463152527809143 10.446686744689941 -0.33044376969337463 
v 1.3398520946502686 10.454959869384766 -0.3104681372642517 
v 1.463152527809143 10.446686744689941 -0.33044376969337463 
v 1.3398520946502686 10.454959869384766 -0.3104681372642517 
v 1.463152527809143 10.629759788513184 -0.36685922741889954 
v 1.3398520946502686 10.629759788513184 -0.3452373147010803 
v 1.463152527809143 10.629759788513184 -0.36685922741889954 
v 1.3398520946502686 10.629759788513184 -0.3452373147010803 
v 1.463152527809143 10.812832832336426 -0.33044376969337463 
v 1.3398520946502686 10.804559707641602 -0.3104681372642517 
v 1.463152527809143 10.812832832336426 -0.33044376969337463 
v 1.3398520946502686 10.804559707641602 -0.3104681372642517 
v 1.463152527809143 10.968033790588379 -0.226740762591362 
v 1.3398520946502686 10.952746391296387 -0.21145294606685638 
v 1.463152527809143 10.968033790588379 -0.226740762591362 
v 1.3398520946502686 10.952746391296387 -0.21145294606685638 
v 1.463152527809143 11.071737289428711 -0.07153975963592529 
v 1.3398520946502686 11.051761627197266 -0.06326663494110107 
v 1.3398520946502686 11.051761627197266 -0.06326663494110107 
v 1.3398520946502686 11.086530685424805 0.11153358966112137 
v 1.463152527809143 11.071737289428711 -0.07153975963592529 
v 1.463152527809143 11.108152389526367 0.11153358966112137 
v 1.6448149681091309 10.801366806030273 -0.3027615249156952 
v 1.6448149681091309 10.629759788513184 -0.33689576387405396 
v 1.463152527809143 10.812832832336426 -0.33044376969337463 
v 1.463152527809143 10.629759788513184 -0.36685922741889954 
v 1.6448149681091309 10.629759788513184 -0.33689576387405396 
v 1.6448149681091309 10.458152770996094 -0.3027615249156952 
v 1.463152527809143 10.629759788513184 -0.36685922741889954 
v 1.463152527809143 10.446686744689941 -0.33044376969337463 
v 1.6448149681091309 10.458152770996094 -0.3027615249156952 
v 1.6448149681091309 10.31266975402832 -0.20555226504802704 
v 1.463152527809143 10.446686744689941 -0.33044376969337463 
v 1.463152527809143 10.291485786437988 -0.226740762591362 
v 1.6448149681091309 10.31266975402832 -0.20555226504802704 
v 1.6448149681091309 10.21546459197998 -0.06007297337055206 
v 1.463152527809143 10.291485786437988 -0.226740762591362 
v 1.463152527809143 10.187782287597656 -0.07153975963592529 
v 1.6448149681091309 10.21546459197998 -0.06007297337055206 
v 1.6448149681091309 10.181326866149902 0.11153358966112137 
v 1.463152527809143 10.187782287597656 -0.07153975963592529 
v 1.463152527809143 10.1513671875 0.11153358966112137 
v 1.6448149681091309 10.181326866149902 0.11153358966112137 
v 1.6448149681091309 10.21546459197998 0.2831401526927948 
v 1.463152527809143 10.1513671875 0.11153358966112137 
v 1.463152527809143 10.187782287597656 0.2946069538593292 
v 1.6448149681091309 10.21546459197998 0.2831401526927948 
v 1.6448149681091309 10.31266975402832 0.428623229265213 
v 1.463152527809143 10.187782287597656 0.2946069538593292 
v 1.463152527809143 10.291485786437988 0.44980791211128235 
v 1.6448149681091309 10.31266975402832 0.428623229265213 
v 1.6448149681091309 10.458152770996094 0.5258286595344543 
v 1.463152527809143 10.291485786437988 0.44980791211128235 
v 1.463152527809143 10.446686744689941 0.5535109639167786 
v 1.463152527809143 10.812832832336426 0.5535109639167786 
v 1.463152527809143 10.629759788513184 0.5899264216423035 
v 1.6448149681091309 10.801366806030273 0.5258286595344543 
v 1.6448149681091309 10.629759788513184 0.5599667429924011 
v 1.463152527809143 10.968033790588379 0.44980791211128235 
v 1.463152527809143 10.812832832336426 0.5535109639167786 
v 1.6448149681091309 10.946849822998047 0.428623229265213 
v 1.6448149681091309 10.801366806030273 0.5258286595344543 
v 1.463152527809143 11.071737289428711 0.2946069538593292 
v 1.463152527809143 10.968033790588379 0.44980791211128235 
v 1.6448149681091309 11.044054985046387 0.2831401526927948 
v 1.6448149681091309 10.946849822998047 0.428623229265213 
v 1.463152527809143 11.108152389526367 0.11153358966112137 
v 1.463152527809143 11.071737289428711 0.2946069538593292 
v 1.6448149681091309 11.0781888961792 0.11153358966112137 
v 1.6448149681091309 11.044054985046387 0.2831401526927948 
v 1.6448149681091309 11.0781888961792 0.11153358966112137 
v 1.6448149681091309 11.044054985046387 -0.06007297337055206 
v 1.463152527809143 11.108152389526367 0.11153358966112137 
v 1.463152527809143 11.071737289428711 -0.07153975963592529 
vn 1.132503628730774 3.9088587760925293 -5.856075286865234 
vn 1.132503628730774 3.9088587760925293 -5.856075286865234 
vn 1.132503628730774 3.9088587760925293 -5.856075286865234 
vn 1.132503628730774 3.9088587760925293 -5.856075286865234 
vn 1.132503628730774 5.841093063354492 -3.9312117099761963 
vn 1.132503628730774 5.841093063354492 -3.9312117099761963 
vn 1.132503628730774 5.841093063354492 -3.9312117099761963 
vn 1.132503628730774 5.841093063354492 -3.9312117099761963 
vn 1.132503628730774 -1.3900820016860962 6.902207374572754 
vn 1.132503628730774 -1.3900820016860962 6.902207374572754 
vn 1.132503628730774 -1.3900820016860962 6.902207374572754 
vn 1.132503628730774 -1.3900820016860962 6.902207374572754 
vn -1.1939876079559326 6.891568183898926 1.3914158344268799 
vn -1.1939876079559326 6.891568183898926 1.3914158344268799 
vn -1.1939876079559326 6.891568183898926 1.3914158344268799 
vn -1.1939876079559326 6.891568183898926 1.3914158344268799 
vn -1.1939876079559326 5.842010974884033 3.9116058349609375 
vn -1.1939876079559326 5.842010974884033 3.9116058349609375 
vn -1.1939876079559326 5.842010974884033 3.9116058349609375 
vn -1.1939876079559326 5.842010974884033 3.9116058349609375 
vn -1.1939876079559326 3.9116058349609375 5.842010974884033 
vn -1.1939876079559326 3.9116058349609375 5.842010974884033 
vn -1.1939876079559326 3.9116058349609375 5.842010974884033 
vn -1.1939876079559326 3.9116058349609375 5.842010974884033 
vn -1.1939876079559326 1.3914158344268799 6.891568183898926 
vn -1.1939876079559326 1.3914158344268799 6.891568183898926 
vn -1.1939876079559326 1.3914158344268799 6.891568183898926 
vn -1.1939876079559326 1.3914158344268799 6.891568183898926 
vn -1.1939876079559326 -1.3914158344268799 6.891568183898926 
vn -1.1939876079559326 -1.3914158344268799 6.891568183898926 
vn -1.1939876079559326 -1.3914158344268799 6.891568183898926 
vn -1.1939876079559326 -1.3914158344268799 6.891568183898926 
vn -1.1939876079559326 -3.9116058349609375 5.842010974884033 
vn -1.1939876079559326 -3.9116058349609375 5.842010974884033 
vn -1.1939876079559326 -3.9116058349609375 5.842010974884033 
vn -1.1939876079559326 -3.9116058349609375 5.842010974884033 
vn -1.1939876079559326 -5.842010974884033 3.9116058349609375 
vn -1.1939876079559326 -5.842010974884033 3.9116058349609375 
vn -1.1939876079559326 -5.842010974884033 3.9116058349609375 
vn -1.1939876079559326 -5.842010974884033 3.9116058349609375 
vn -1.1939876079559326 -6.891568183898926 1.3914158344268799 
vn -1.1939876079559326 -6.891568183898926 1.3914158344268799 
vn -1.1939876079559326 -6.891568183898926 1.3914158344268799 
vn -1.1939876079559326 -6.891568183898926 1.3914158344268799 
vn -1.1939876079559326 -6.891568183898926 -1.3914158344268799 
vn -1.1939876079559326 -6.891568183898926 -1.3914158344268799 
vn -1.1939876079559326 -6.891568183898926 -1.3914158344268799 
vn -1.1939876079559326 -6.891568183898926 -1.3914158344268799 
vn -1.1939876079559326 -5.842010974884033 -3.9116058349609375 
vn -1.1939876079559326 -5.842010974884033 -3.9116058349609375 
vn -1.1939876079559326 -5.842010974884033 -3.9116058349609375 
vn -1.1939876079559326 -5.842010974884033 -3.9116058349609375 
vn -1.1939876079559326 -3.9116058349609375 -5.842010974884033 
vn -1.1939876079559326 -3.9116058349609375 -5.842010974884033 
vn -1.1939876079559326 -3.9116058349609375 -5.842010974884033 
vn -1.1939876079559326 -3.9116058349609375 -5.842010974884033 
vn -1.1939876079559326 -1.3914158344268799 -6.891568183898926 
vn -1.1939876079559326 -1.3914158344268799 -6.891568183898926 
vn -1.1939876079559326 -1.3914158344268799 -6.891568183898926 
vn -1.1939876079559326 -1.3914158344268799 -6.891568183898926 
vn -1.1939876079559326 1.3914158344268799 -6.891568183898926 
vn -1.1939876079559326 1.3914158344268799 -6.891568183898926 
vn -1.1939876079559326 1.3914158344268799 -6.891568183898926 
vn -1.1939876079559326 1.3914158344268799 -6.891568183898926 
vn -1.1939876079559326 3.9116058349609375 -5.842010974884033 
vn -1.1939876079559326 3.9116058349609375 -5.842010974884033 
vn -1.1939876079559326 3.9116058349609375 -5.842010974884033 
vn -1.1939876079559326 3.9116058349609375 -5.842010974884033 
vn -1.1939876079559326 5.842010974884033 -3.9116058349609375 
vn -1.1939876079559326 5.842010974884033 -3.9116058349609375 
vn -1.1939876079559326 5.842010974884033 -3.9116058349609375 
vn -1.1939876079559326 5.842010974884033 -3.9116058349609375 
vn -1.1939876079559326 6.891568183898926 -1.3914158344268799 
vn -1.1939876079559326 6.891568183898926 -1.3914158344268799 
vn -1.1939876079559326 6.891568183898926 -1.3914158344268799 
vn -1.1939876079559326 6.891568183898926 -1.3914158344268799 
vn 1.132503628730774 1.3900820016860962 -6.902207374572754 
vn 1.132503628730774 1.3900820016860962 -6.902207374572754 
vn 1.132503628730774 1.3900820016860962 -6.902207374572754 
vn 1.132503628730774 1.3900820016860962 -6.902207374572754 
vn 1.132503628730774 -1.3900820016860962 -6.902207374572754 
vn 1.132503628730774 -1.3900820016860962 -6.902207374572754 
vn 1.132503628730774 -1.3900820016860962 -6.902207374572754 
vn 1.132503628730774 -1.3900820016860962 -6.902207374572754 
vn 1.132503628730774 -3.9088587760925293 -5.856075286865234 
vn 1.132503628730774 -3.9088587760925293 -5.856075286865234 
vn 1.132503628730774 -3.9088587760925293 -5.856075286865234 
vn 1.132503628730774 -3.9088587760925293 -5.856075286865234 
vn 1.132503628730774 -5.841093063354492 -3.9312117099761963 
vn 1.132503628730774 -5.841093063354492 -3.9312117099761963 
vn 1.132503628730774 -5.841093063354492 -3.9312117099761963 
vn 1.132503628730774 -5.841093063354492 -3.9312117099761963 
vn 1.132503628730774 -6.907469749450684 -1.3636925220489502 
vn 1.132503628730774 -6.907469749450684 -1.3636925220489502 
vn 1.132503628730774 -6.907469749450684 -1.3636925220489502 
vn 1.132503628730774 -6.907469749450684 -1.3636925220489502 
vn 1.132503628730774 -6.907469749450684 1.3636925220489502 
vn 1.132503628730774 -6.907469749450684 1.3636925220489502 
vn 1.132503628730774 -6.907469749450684 1.3636925220489502 
vn 1.132503628730774 -6.907469749450684 1.3636925220489502 
vn 1.132503628730774 -5.841093063354492 3.9312117099761963 
vn 1.132503628730774 -5.841093063354492 3.9312117099761963 
vn 1.132503628730774 -5.841093063354492 3.9312117099761963 
vn 1.132503628730774 -5.841093063354492 3.9312117099761963 
vn 1.132503628730774 -3.9088587760925293 5.856075286865234 
vn 1.132503628730774 -3.9088587760925293 5.856075286865234 
vn 1.132503628730774 -3.9088587760925293 5.856075286865234 
vn 1.132503628730774 -3.9088587760925293 5.856075286865234 
vn 1.132503628730774 1.3900820016860962 6.902207374572754 
vn 1.132503628730774 1.3900820016860962 6.902207374572754 
vn 1.132503628730774 1.3900820016860962 6.902207374572754 
vn 1.132503628730774 1.3900820016860962 6.902207374572754 
vn 1.132503628730774 3.9088587760925293 5.856075286865234 
vn 1.132503628730774 3.9088587760925293 5.856075286865234 
vn 1.132503628730774 3.9088587760925293 5.856075286865234 
vn 1.132503628730774 3.9088587760925293 5.856075286865234 
vn 1.132503628730774 5.841093063354492 3.9312117099761963 
vn 1.132503628730774 5.841093063354492 3.9312117099761963 
vn 1.132503628730774 5.841093063354492 3.9312117099761963 
vn 1.132503628730774 5.841093063354492 3.9312117099761963 
vn 1.132503628730774 6.907469749450684 1.3636925220489502 
vn 1.132503628730774 6.907469749450684 1.3636925220489502 
vn 1.132503628730774 6.907469749450684 1.3636925220489502 
vn 1.132503628730774 6.907469749450684 1.3636925220489502 
vn 1.132503628730774 6.907469749450684 -1.3636925220489502 
vn 1.132503628730774 6.907469749450684 -1.3636925220489502 
vn 1.132503628730774 6.907469749450684 -1.3636925220489502 
vn 1.132503628730774 6.907469749450684 -1.3636925220489502 
s on 
f 1//1 2//2 3//3 
f 2//2 4//4 3//3 
f 3//3 4//4 4//4 
f 4//4 5//5 4//4 
f 4//4 5//5 5//5 
f 5//5 6//6 5//5 
f 5//5 6//6 7//7 
f 6//6 8//8 7//7 
f 7//7 8//8 8//8 
f 8//8 9//9 8//8 
f 8//8 9//9 9//9 
f 9//9 10//10 9//9 
f 9//9 10//10 11//11 
f 10//10 12//12 11//11 
f 11//11 12//12 12//12 
f 12//12 13//13 12//12 
f 12//12 13//13 13//13 
f 13//13 14//14 13//13 
f 13//13 14//14 15//15 
f 14//14 16//16 15//15 
f 15//15 16//16 16//16 
f 16//16 17//17 16//16 
f 16//16 17//17 17//17 
f 17//17 18//18 17//17 
f 17//17 18//18 19//19 
f 18//18 20//20 19//19 
f 19//19 20//20 20//20 
f 20//20 21//21 20//20 
f 20//20 21//21 21//21 
f 21//21 22//22 21//21 
f 21//21 22//22 23//23 
f 22//22 24//24 23//23 
f 23//23 24//24 24//24 
f 24//24 25//25 24//24 
f 24//24 25//25 25//25 
f 25//25 26//26 25//25 
f 25//25 26//26 27//27 
f 26//26 28//28 27//27 
f 27//27 28//28 28//28 
f 28//28 29//29 28//28 
f 28//28 29//29 29//29 
f 29//29 30//30 29//29 
f 29//29 30//30 31//31 
f 30//30 32//32 31//31 
f 31//31 32//32 32//32 
f 32//32 33//33 32//32 
f 32//32 33//33 33//33 
f 33//33 34//34 33//33 
f 33//33 34//34 35//35 
f 34//34 36//36 35//35 
f 35//35 36//36 36//36 
f 36//36 37//37 36//36 
f 36//36 37//37 37//37 
f 37//37 38//38 37//37 
f 37//37 38//38 39//39 
f 38//38 40//40 39//39 
f 39//39 40//40 40//40 
f 40//40 41//41 40//40 
f 40//40 41//41 41//41 
f 41//41 42//42 41//41 
f 41//41 42//42 43//43 
f 42//42 44//44 43//43 
f 43//43 44//44 44//44 
f 44//44 45//45 44//44 
f 44//44 45//45 45//45 
f 45//45 46//46 45//45 
f 45//45 46//46 47//47 
f 46//46 48//48 47//47 
f 47//47 48//48 48//48 
f 48//48 49//49 48//48 
f 48//48 49//49 49//49 
f 49//49 50//50 49//49 
f 49//49 50//50 51//51 
f 50//50 52//52 51//51 
f 51//51 52//52 52//52 
f 52//52 53//53 52//52 
f 52//52 53//53 53//53 
f 53//53 54//54 53//53 
f 53//53 54//54 55//55 
f 54//54 56//56 55//55 
f 55//55 56//56 56//56 
f 56//56 57//57 56//56 
f 56//56 57//57 57//57 
f 57//57 58//58 57//57 
f 57//57 58//58 59//59 
f 58//58 60//60 59//59 
f 59//59 60//60 60//60 
f 60//60 61//61 60//60 
f 60//60 61//61 61//61 
f 61//61 62//62 61//61 
f 61//61 62//62 63//63 
f 62//62 64//64 63//63 
f 63//63 64//64 64//64 
f 64//64 65//65 64//64 
f 64//64 65//65 65//65 
f 65//65 66//66 65//65 
f 65//65 66//66 67//67 
f 66//66 68//68 67//67 
f 67//67 68//68 68//68 
f 68//68 69//69 68//68 
f 68//68 69//69 69//69 
f 69//69 70//70 69//69 
f 69//69 70//70 71//71 
f 70//70 72//72 71//71 
f 71//71 72//72 72//72 
f 72//72 73//73 72//72 
f 72//72 73//73 73//73 
f 73//73 74//74 73//73 
f 73//73 74//74 75//75 
f 74//74 76//76 75//75 
f 75//75 76//76 76//76 
f 76//76 77//77 76//76 
f 76//76 77//77 77//77 
f 77//77 78//78 77//77 
f 77//77 78//78 79//79 
f 78//78 80//80 79//79 
f 79//79 80//80 80//80 
f 80//80 81//81 80//80 
f 80//80 81//81 81//81 
f 81//81 82//82 81//81 
f 81//81 82//82 83//83 
f 82//82 84//84 83//83 
f 83//83 84//84 84//84 
f 84//84 85//85 84//84 
f 84//84 85//85 85//85 
f 85//85 86//86 85//85 
f 85//85 86//86 87//87 
f 86//86 88//88 87//87 
f 87//87 88//88 88//88 
f 88//88 89//89 88//88 
f 88//88 89//89 89//89 
f 89//89 90//90 89//89 
f 89//89 90//90 91//91 
f 90//90 92//92 91//91 
f 91//91 92//92 92//92 
f 92//92 93//93 92//92 
f 92//92 93//93 93//93 
f 93//93 94//94 93//93 
f 93//93 94//94 95//95 
f 94//94 96//96 95//95 
f 95//95 96//96 96//96 
f 96//96 97//97 96//96 
f 96//96 97//97 97//97 
f 97//97 98//98 97//97 
f 97//97 98//98 99//99 
f 98//98 100//100 99//99 
f 99//99 100//100 100//100 
f 100//100 101//101 100//100 
f 100//100 101//101 101//101 
f 101//101 102//102 101//101 
f 101//101 102//102 103//103 
f 102//102 104//104 103//103 
f 103//103 104//104 104//104 
f 104//104 105//105 104//104 
f 104//104 105//105 105//105 
f 105//105 106//106 105//105 
f 105//105 106//106 107//107 
f 106//106 108//108 107//107 
f 107//107 108//108 108//108 
f 108//108 109//109 108//108 
f 108//108 109//109 109//109 
f 109//109 110//110 109//109 
f 109//109 110//110 111//111 
f 110//110 112//112 111//111 
f 111//111 112//112 112//112 
f 112//112 113//113 112//112 
f 112//112 113//113 113//113 
f 113//113 114//114 113//113 
f 113//113 114//114 115//115 
f 114//114 116//116 115//115 
f 115//115 116//116 116//116 
f 116//116 117//117 116//116 
f 116//116 117//117 117//117 
f 117//117 118//118 117//117 
f 117//117 118//118 119//119 
f 118//118 120//120 119//119 
f 119//119 120//120 120//120 
f 120//120 121//121 120//120 
f 120//120 121//121 121//121 
f 121//121 122//122 121//121 
f 121//121 122//122 123//123 
f 122//122 124//124 123//123 
f 123//123 124//124 124//124 
f 124//124 125//125 124//124 
f 124//124 125//125 125//125 
f 125//125 126//126 125//125 
f 125//125 126//126 127//127 
f 126//126 128//128 127//127 

