mtllib model_7.mtl
o model_7
v 43.0467414855957 4.876688480377197 0.22704049944877625 
v 43.0467414855957 4.876688480377197 0.23902016878128052 
v 43.083709716796875 4.923190593719482 0.22704049944877625 
v 43.083709716796875 4.923190593719482 0.23902016878128052 
v 43.56509017944336 4.52017068862915 0.2347332090139389 
v 43.083709716796875 4.923190593719482 0.23902016878128052 
v 43.562557220458984 4.516394138336182 0.2347332090139389 
v 43.0467414855957 4.876688480377197 0.23902016878128052 
v 43.56509017944336 4.52017068862915 0.2347332090139389 
v 43.56509017944336 4.52017068862915 0.23121529817581177 
v 43.083709716796875 4.923190593719482 0.23902016878128052 
v 43.083709716796875 4.923190593719482 0.22704049944877625 
v 43.0467414855957 4.876688480377197 0.23902016878128052 
v 43.0467414855957 4.876688480377197 0.22704049944877625 
v 43.562557220458984 4.516394138336182 0.2347332090139389 
v 43.562557220458984 4.516394138336182 0.23121529817581177 
v 43.562557220458984 4.516394138336182 0.23121529817581177 
v 43.0467414855957 4.876688480377197 0.22704049944877625 
v 43.56509017944336 4.52017068862915 0.23121529817581177 
v 43.083709716796875 4.923190593719482 0.22704049944877625 
v 43.562557220458984 4.516394138336182 0.2347332090139389 
v 43.562557220458984 4.516394138336182 0.23121529817581177 
v 43.56509017944336 4.52017068862915 0.2347332090139389 
v 43.56509017944336 4.52017068862915 0.23121529817581177 
vn -1.301100492477417 1.0415878295898438 -0.003149102907627821 
vn -1.301100492477417 1.0415878295898438 -0.003149102907627821 
vn -1.301100492477417 1.0415878295898438 -0.003149102907627821 
vn -1.301100492477417 1.0415878295898438 -0.003149102907627821 
vn 0.012586359865963459 -0.0036411569453775883 1.6666152477264404 
vn 0.012586359865963459 -0.0036411569453775883 1.6666152477264404 
vn 0.012586359865963459 -0.0036411569453775883 1.6666152477264404 
vn 0.012586359865963459 -0.0036411569453775883 1.6666152477264404 
vn 1.072547197341919 1.2756999731063843 0.00314908055588603 
vn 1.072547197341919 1.2756999731063843 0.00314908055588603 
vn 1.072547197341919 1.2756999731063843 0.00314908055588603 
vn 1.072547197341919 1.2756999731063843 0.00314908055588603 
vn -0.9571151733398438 -1.364440679550171 0.003138702129945159 
vn -0.9571151733398438 -1.364440679550171 0.003138702129945159 
vn -0.9571151733398438 -1.364440679550171 0.003138702129945159 
vn -0.9571151733398438 -1.364440679550171 0.003138702129945159 
vn 0.012586359865963459 -0.0036411569453775883 -1.6666152477264404 
vn 0.012586359865963459 -0.0036411569453775883 -1.6666152477264404 
vn 0.012586359865963459 -0.0036411569453775883 -1.6666152477264404 
vn 0.012586359865963459 -0.0036411569453775883 -1.6666152477264404 
vn 1.370680809020996 -0.9481571316719055 -0.0031431594397872686 
vn 1.370680809020996 -0.9481571316719055 -0.0031431594397872686 
vn 1.370680809020996 -0.9481571316719055 -0.0031431594397872686 
vn 1.370680809020996 -0.9481571316719055 -0.0031431594397872686 
s on 
f 1//1 2//2 3//3 
f 2//2 4//4 3//3 
f 3//3 4//4 4//4 
f 4//4 5//5 4//4 
f 4//4 5//5 5//5 
f 5//5 6//6 5//5 
f 5//5 6//6 7//7 
f 6//6 8//8 7//7 
f 7//7 8//8 8//8 
f 8//8 9//9 8//8 
f 8//8 9//9 9//9 
f 9//9 10//10 9//9 
f 9//9 10//10 11//11 
f 10//10 12//12 11//11 
f 11//11 12//12 12//12 
f 12//12 13//13 12//12 
f 12//12 13//13 13//13 
f 13//13 14//14 13//13 
f 13//13 14//14 15//15 
f 14//14 16//16 15//15 
f 15//15 16//16 16//16 
f 16//16 17//17 16//16 
f 16//16 17//17 17//17 
f 17//17 18//18 17//17 
f 17//17 18//18 19//19 
f 18//18 20//20 19//19 
f 19//19 20//20 20//20 
f 20//20 21//21 20//20 
f 20//20 21//21 21//21 
f 21//21 22//22 21//21 
f 21//21 22//22 23//23 
f 22//22 24//24 23//23 

