mtllib model_25.mtl
o model_25
v 42.59358215332031 5.839702129364014 0.32551005482673645 
v 42.59358215332031 3.9733309745788574 0.32551005482673645 
v 43.93893814086914 5.839702129364014 0.32551005482673645 
v 43.93893814086914 3.9733309745788574 0.32551005482673645 
v 42.56050109863281 5.870049476623535 0.2245960384607315 
v 43.960994720458984 5.870049476623535 0.2245960384607315 
v 42.56050109863281 3.942983388900757 0.2245960384607315 
v 43.960994720458984 3.942983388900757 0.2245960384607315 
v 42.59358215332031 5.839702129364014 0.32551005482673645 
v 42.56050109863281 5.870049476623535 0.3113468289375305 
v 42.59358215332031 3.9733309745788574 0.32551005482673645 
v 42.56050109863281 3.942983388900757 0.3113468289375305 
v 43.960994720458984 5.870049476623535 0.3113468289375305 
v 43.93893814086914 5.839702129364014 0.32551005482673645 
v 43.960994720458984 3.942983388900757 0.3113468289375305 
v 43.93893814086914 3.9733309745788574 0.32551005482673645 
v 43.960994720458984 3.942983388900757 0.3113468289375305 
v 43.93893814086914 3.9733309745788574 0.32551005482673645 
v 42.56050109863281 3.942983388900757 0.3113468289375305 
v 42.59358215332031 3.9733309745788574 0.32551005482673645 
v 43.93893814086914 5.839702129364014 0.32551005482673645 
v 43.960994720458984 5.870049476623535 0.3113468289375305 
v 42.59358215332031 5.839702129364014 0.32551005482673645 
v 42.56050109863281 5.870049476623535 0.3113468289375305 
v 43.960994720458984 3.942983388900757 0.3113468289375305 
v 43.960994720458984 3.942983388900757 0.2245960384607315 
v 43.960994720458984 5.870049476623535 0.3113468289375305 
v 43.960994720458984 5.870049476623535 0.2245960384607315 
v 42.56050109863281 3.942983388900757 0.3113468289375305 
v 42.56050109863281 3.942983388900757 0.2245960384607315 
v 43.960994720458984 3.942983388900757 0.3113468289375305 
v 43.960994720458984 3.942983388900757 0.2245960384607315 
v 42.56050109863281 5.870049476623535 0.3113468289375305 
v 42.56050109863281 5.870049476623535 0.2245960384607315 
v 42.56050109863281 3.942983388900757 0.3113468289375305 
v 42.56050109863281 3.942983388900757 0.2245960384607315 
v 42.56050109863281 5.870049476623535 0.2245960384607315 
v 42.56050109863281 5.870049476623535 0.3113468289375305 
v 43.960994720458984 5.870049476623535 0.2245960384607315 
v 43.960994720458984 5.870049476623535 0.3113468289375305 
vn -3.4507360619114025e-13 -0.0036411569453775883 1.6666626930236816 
vn -3.4507360619114025e-13 -0.0036411569453775883 1.6666626930236816 
vn -3.4507360619114025e-13 -0.0036411569453775883 1.6666626930236816 
vn -3.4507360619114025e-13 -0.0036411569453775883 1.6666626930236816 
vn 3.708826139083764e-16 -0.0036411569453775883 -1.6666626930236816 
vn 3.708826139083764e-16 -0.0036411569453775883 -1.6666626930236816 
vn 3.708826139083764e-16 -0.0036411569453775883 -1.6666626930236816 
vn 3.708826139083764e-16 -0.0036411569453775883 -1.6666626930236816 
vn -0.7633699774742126 -0.0036411569453775883 1.481563687324524 
vn -0.7633699774742126 -0.0036411569453775883 1.481563687324524 
vn -0.7633699774742126 -0.0036411569453775883 1.481563687324524 
vn -0.7633699774742126 -0.0036411569453775883 1.481563687324524 
vn 0.7633699774742126 -0.0036411569453775883 1.481563687324524 
vn 0.7633699774742126 -0.0036411569453775883 1.481563687324524 
vn 0.7633699774742126 -0.0036411569453775883 1.481563687324524 
vn 0.7633699774742126 -0.0036411569453775883 1.481563687324524 
vn 0.006289415527135134 -0.5878642797470093 1.559536337852478 
vn 0.006289415527135134 -0.5878642797470093 1.559536337852478 
vn 0.006289415527135134 -0.5878642797470093 1.559536337852478 
vn 0.006289415527135134 -0.5878642797470093 1.559536337852478 
vn -3.2302760184614587e-13 0.5878642797470093 1.55954909324646 
vn -3.2302760184614587e-13 0.5878642797470093 1.55954909324646 
vn -3.2302760184614587e-13 0.5878642797470093 1.55954909324646 
vn -3.2302760184614587e-13 0.5878642797470093 1.55954909324646 
vn 1.6666626930236816 -0.0036411569453775883 1.7272224232464661e-13 
vn 1.6666626930236816 -0.0036411569453775883 1.7272224232464661e-13 
vn 1.6666626930236816 -0.0036411569453775883 1.7272224232464661e-13 
vn 1.6666626930236816 -0.0036411569453775883 1.7272224232464661e-13 
vn 3.70074994462949e-16 -1.6666666269302368 8.217330287495252e-32 
vn 3.70074994462949e-16 -1.6666666269302368 8.217330287495252e-32 
vn 3.70074994462949e-16 -1.6666666269302368 8.217330287495252e-32 
vn 3.70074994462949e-16 -1.6666666269302368 8.217330287495252e-32 
vn -1.6666626930236816 -0.0036411569453775883 -5.166864657478454e-13 
vn -1.6666626930236816 -0.0036411569453775883 -5.166864657478454e-13 
vn -1.6666626930236816 -0.0036411569453775883 -5.166864657478454e-13 
vn -1.6666626930236816 -0.0036411569453775883 -5.166864657478454e-13 
vn -3.70074994462949e-16 1.6666666269302368 3.4470519429292967e-13 
vn -3.70074994462949e-16 1.6666666269302368 3.4470519429292967e-13 
vn -3.70074994462949e-16 1.6666666269302368 3.4470519429292967e-13 
vn -3.70074994462949e-16 1.6666666269302368 3.4470519429292967e-13 
s on 
f 1//1 2//2 3//3 
f 2//2 4//4 3//3 
f 3//3 4//4 4//4 
f 4//4 5//5 4//4 
f 4//4 5//5 5//5 
f 5//5 6//6 5//5 
f 5//5 6//6 7//7 
f 6//6 8//8 7//7 
f 7//7 8//8 8//8 
f 8//8 9//9 8//8 
f 8//8 9//9 9//9 
f 9//9 10//10 9//9 
f 9//9 10//10 11//11 
f 10//10 12//12 11//11 
f 11//11 12//12 12//12 
f 12//12 13//13 12//12 
f 12//12 13//13 13//13 
f 13//13 14//14 13//13 
f 13//13 14//14 15//15 
f 14//14 16//16 15//15 
f 15//15 16//16 16//16 
f 16//16 17//17 16//16 
f 16//16 17//17 17//17 
f 17//17 18//18 17//17 
f 17//17 18//18 19//19 
f 18//18 20//20 19//19 
f 19//19 20//20 20//20 
f 20//20 21//21 20//20 
f 20//20 21//21 21//21 
f 21//21 22//22 21//21 
f 21//21 22//22 23//23 
f 22//22 24//24 23//23 
f 23//23 24//24 24//24 
f 24//24 25//25 24//24 
f 24//24 25//25 25//25 
f 25//25 26//26 25//25 
f 25//25 26//26 27//27 
f 26//26 28//28 27//27 
f 27//27 28//28 28//28 
f 28//28 29//29 28//28 
f 28//28 29//29 29//29 
f 29//29 30//30 29//29 
f 29//29 30//30 31//31 
f 30//30 32//32 31//31 
f 31//31 32//32 32//32 
f 32//32 33//33 32//32 
f 32//32 33//33 33//33 
f 33//33 34//34 33//33 
f 33//33 34//34 35//35 
f 34//34 36//36 35//35 
f 35//35 36//36 36//36 
f 36//36 37//37 36//36 
f 36//36 37//37 37//37 
f 37//37 38//38 37//37 
f 37//37 38//38 39//39 
f 38//38 40//40 39//39 

