mtllib model_8.mtl
o model_8
v 42.8548583984375 5.43899393081665 0.39581796526908875 
v 42.47002029418945 5.43899393081665 0.39581796526908875 
v 42.8548583984375 5.467698097229004 0.424542635679245 
v 42.47002029418945 5.467698097229004 0.424542635679245 
v 42.8548583984375 5.477949619293213 0.4640407860279083 
v 42.47002029418945 5.477949619293213 0.4640407860279083 
v 42.8548583984375 5.467698097229004 0.5017421841621399 
v 42.47002029418945 5.467698097229004 0.5017421841621399 
v 42.8548583984375 5.43899393081665 0.5304691195487976 
v 42.47002029418945 5.43899393081665 0.5304691195487976 
v 42.8548583984375 5.400038242340088 0.5412403345108032 
v 42.47002029418945 5.400038242340088 0.5412403345108032 
v 42.8548583984375 5.361080169677734 0.5304691195487976 
v 42.47002029418945 5.361080169677734 0.5304691195487976 
v 42.8548583984375 5.332376480102539 0.5017421841621399 
v 42.47002029418945 5.332376480102539 0.5017421841621399 
v 42.8548583984375 5.322124481201172 0.4640407860279083 
v 42.47002029418945 5.322124481201172 0.4640407860279083 
v 42.8548583984375 5.332376480102539 0.424542635679245 
v 42.47002029418945 5.332376480102539 0.424542635679245 
v 42.8548583984375 5.361080169677734 0.39581796526908875 
v 42.47002029418945 5.361080169677734 0.39581796526908875 
v 42.8548583984375 5.400038242340088 0.3850467801094055 
v 42.47002029418945 5.400038242340088 0.3850467801094055 
v 42.8548583984375 5.43899393081665 0.39581796526908875 
v 42.47002029418945 5.43899393081665 0.39581796526908875 
v 42.47002029418945 5.43899393081665 0.5304691195487976 
v 42.47002029418945 5.467698097229004 0.5017421841621399 
v 42.47002029418945 5.400038242340088 0.4640407860279083 
v 42.47002029418945 5.477949619293213 0.4640407860279083 
v 42.47002029418945 5.467698097229004 0.424542635679245 
v 42.47002029418945 5.43899393081665 0.39581796526908875 
v 42.47002029418945 5.400038242340088 0.3850467801094055 
v 42.47002029418945 5.361080169677734 0.39581796526908875 
v 42.47002029418945 5.332376480102539 0.424542635679245 
v 42.47002029418945 5.322124481201172 0.4640407860279083 
v 42.47002029418945 5.332376480102539 0.5017421841621399 
v 42.47002029418945 5.361080169677734 0.5304691195487976 
v 42.47002029418945 5.400038242340088 0.5412403345108032 
v 42.8548583984375 5.361080169677734 0.5304691195487976 
v 42.8548583984375 5.332376480102539 0.5017421841621399 
v 42.8548583984375 5.400038242340088 0.4640407860279083 
v 42.8548583984375 5.322124481201172 0.4640407860279083 
v 42.8548583984375 5.332376480102539 0.424542635679245 
v 42.8548583984375 5.361080169677734 0.39581796526908875 
v 42.8548583984375 5.400038242340088 0.3850467801094055 
v 42.8548583984375 5.43899393081665 0.39581796526908875 
v 42.8548583984375 5.467698097229004 0.424542635679245 
v 42.8548583984375 5.477949619293213 0.4640407860279083 
v 42.8548583984375 5.467698097229004 0.5017421841621399 
v 42.8548583984375 5.43899393081665 0.5304691195487976 
v 42.8548583984375 5.400038242340088 0.5412403345108032 
vn 1.3619299822092046e-16 0.8312302231788635 -1.4445879459381104 
vn 1.3619299822092046e-16 0.8312302231788635 -1.4445879459381104 
vn -1.3508866578104786e-16 1.4427684545516968 -0.8343842625617981 
vn -1.3508866578104786e-16 1.4427684545516968 -0.8343842625617981 
vn -3.70074994462949e-16 1.6666666269302368 3.4470519429292967e-13 
vn -3.70074994462949e-16 1.6666666269302368 3.4470519429292967e-13 
vn -1.7307557026013248e-13 1.4427684545516968 0.8343842625617981 
vn -1.7307557026013248e-13 1.4427684545516968 0.8343842625617981 
vn 0.006294441409409046 0.8312302231788635 1.444574236869812 
vn 0.006294441409409046 0.8312302231788635 1.444574236869812 
vn -3.45075232494399e-13 0.0036411569453775883 1.6666626930236816 
vn -3.45075232494399e-13 0.0036411569453775883 1.6666626930236816 
vn -2.989103376708352e-13 -0.8312302231788635 1.4445879459381104 
vn -2.989103376708352e-13 -0.8312302231788635 1.4445879459381104 
vn -1.7243484743377502e-13 -1.4427684545516968 0.8343842625617981 
vn -1.7243484743377502e-13 -1.4427684545516968 0.8343842625617981 
vn 3.70074994462949e-16 -1.6666666269302368 8.217330287495252e-32 
vn 3.70074994462949e-16 -1.6666666269302368 8.217330287495252e-32 
vn 5.056303886328238e-16 -1.4427684545516968 -0.8343842625617981 
vn 5.056303886328238e-16 -1.4427684545516968 -0.8343842625617981 
vn 5.053340329804032e-16 -0.8312302231788635 -1.4445879459381104 
vn 5.053340329804032e-16 -0.8312302231788635 -1.4445879459381104 
vn 3.6926562801206794e-16 0.0036411569453775883 -1.6666626930236816 
vn 3.6926562801206794e-16 0.0036411569453775883 -1.6666626930236816 
vn 1.3619299822092046e-16 0.8312302231788635 -1.4445879459381104 
vn 1.3619299822092046e-16 0.8312302231788635 -1.4445879459381104 
vn -1.6666626930236816 -0.0036411569453775883 -5.166864657478454e-13 
vn -1.6666626930236816 -0.0036411569453775883 -5.166864657478454e-13 
vn -1.6666626930236816 -0.0036411569453775883 -5.166864657478454e-13 
vn -1.6666626930236816 -0.0036411569453775883 -5.166864657478454e-13 
vn -1.6666626930236816 -0.0036411569453775883 -5.166864657478454e-13 
vn -1.6666626930236816 -0.0036411569453775883 -5.166864657478454e-13 
vn -1.6666626930236816 -0.0036411569453775883 -5.166864657478454e-13 
vn -1.6666626930236816 -0.0036411569453775883 -5.166864657478454e-13 
vn -1.6666626930236816 -0.0036411569453775883 -5.166864657478454e-13 
vn -1.6666626930236816 -0.0036411569453775883 -5.166864657478454e-13 
vn -1.6666626930236816 -0.0036411569453775883 -5.166864657478454e-13 
vn -1.6666626930236816 -0.0036411569453775883 -5.166864657478454e-13 
vn -1.6666626930236816 -0.0036411569453775883 -5.166864657478454e-13 
vn 1.6666626930236816 -0.0036411569453775883 1.7272224232464661e-13 
vn 1.6666626930236816 -0.0036411569453775883 1.7272224232464661e-13 
vn 1.6666626930236816 0.0036411569453775883 1.7272224232464661e-13 
vn 1.6666626930236816 -0.0036411569453775883 1.7272224232464661e-13 
vn 1.6666626930236816 -0.0036411569453775883 1.7272224232464661e-13 
vn 1.6666626930236816 -0.0036411569453775883 1.7272224232464661e-13 
vn 1.6666626930236816 0.0036411569453775883 1.7272224232464661e-13 
vn 1.6666626930236816 0.0036411569453775883 1.7272224232464661e-13 
vn 1.6666626930236816 -0.0036411569453775883 1.7272224232464661e-13 
vn 1.6666626930236816 -0.0036411569453775883 1.7272224232464661e-13 
vn 1.6666626930236816 -0.0036411569453775883 1.7272224232464661e-13 
vn 1.6666626930236816 0.0036411569453775883 1.7272224232464661e-13 
vn 1.6666626930236816 0.0036411569453775883 1.7272224232464661e-13 
s on 
f 1//1 2//2 3//3 
f 2//2 4//4 3//3 
f 3//3 4//4 5//5 
f 4//4 6//6 5//5 
f 5//5 6//6 7//7 
f 6//6 8//8 7//7 
f 7//7 8//8 9//9 
f 8//8 10//10 9//9 
f 9//9 10//10 11//11 
f 10//10 12//12 11//11 
f 11//11 12//12 13//13 
f 12//12 14//14 13//13 
f 13//13 14//14 15//15 
f 14//14 16//16 15//15 
f 15//15 16//16 17//17 
f 16//16 18//18 17//17 
f 17//17 18//18 19//19 
f 18//18 20//20 19//19 
f 19//19 20//20 21//21 
f 20//20 22//22 21//21 
f 21//21 22//22 23//23 
f 22//22 24//24 23//23 
f 23//23 24//24 25//25 
f 24//24 26//26 25//25 
f 25//25 26//26 26//26 
f 26//26 27//27 26//26 
f 26//26 27//27 27//27 
f 27//27 28//28 27//27 
f 27//27 28//28 29//29 
f 28//28 30//30 29//29 
f 29//29 30//30 31//31 
f 30//30 31//31 31//31 
f 31//31 31//31 31//31 
f 31//31 32//32 31//31 
f 31//31 32//32 29//29 
f 32//32 33//33 29//29 
f 29//29 33//33 34//34 
f 33//33 34//34 34//34 
f 34//34 34//34 34//34 
f 34//34 35//35 34//34 
f 34//34 35//35 29//29 
f 35//35 36//36 29//29 
f 29//29 36//36 37//37 
f 36//36 37//37 37//37 
f 37//37 37//37 37//37 
f 37//37 38//38 37//37 
f 37//37 38//38 29//29 
f 38//38 39//39 29//29 
f 29//29 39//39 27//27 
f 39//39 27//27 27//27 
f 27//27 27//27 40//40 
f 27//27 40//40 40//40 
f 40//40 40//40 40//40 
f 40//40 41//41 40//40 
f 40//40 41//41 42//42 
f 41//41 43//43 42//42 
f 42//42 43//43 44//44 
f 43//43 44//44 44//44 
f 44//44 44//44 44//44 
f 44//44 45//45 44//44 
f 44//44 45//45 42//42 
f 45//45 46//46 42//42 
f 42//42 46//46 47//47 
f 46//46 47//47 47//47 
f 47//47 47//47 47//47 
f 47//47 48//48 47//47 
f 47//47 48//48 42//42 
f 48//48 49//49 42//42 
f 42//42 49//49 50//50 
f 49//49 50//50 50//50 
f 50//50 50//50 50//50 
f 50//50 51//51 50//50 
f 50//50 51//51 42//42 
f 51//51 52//52 42//42 
f 42//42 52//52 40//40 

