mtllib model_24.mtl
o model_24
v 35.76750564575195 14.670321464538574 0.014788968488574028 
v 35.76750564575195 14.670321464538574 -0.0011462116381153464 
v 31.323772430419922 14.670321464538574 0.014788968488574028 
v 31.323772430419922 14.670321464538574 -0.0011462116381153464 
v 31.323772430419922 14.670321464538574 0.014788968488574028 
v 31.323772430419922 13.597721099853516 0.014788968488574028 
v 35.76750564575195 14.670321464538574 0.014788968488574028 
v 35.76750564575195 13.597721099853516 0.014788968488574028 
v 35.76750564575195 14.670321464538574 0.014788968488574028 
v 35.76750564575195 13.597721099853516 0.014788968488574028 
v 35.76750564575195 14.670321464538574 -0.0011462116381153464 
v 35.76750564575195 13.597721099853516 -0.0011462116381153464 
v 35.76750564575195 14.670321464538574 -0.0011462116381153464 
v 35.76750564575195 13.597721099853516 -0.0011462116381153464 
v 31.323772430419922 14.670321464538574 -0.0011462116381153464 
v 31.323772430419922 13.597721099853516 -0.0011462116381153464 
v 31.323772430419922 13.597721099853516 -0.0011462116381153464 
v 31.323772430419922 13.597721099853516 0.014788968488574028 
v 31.323772430419922 14.670321464538574 -0.0011462116381153464 
v 31.323772430419922 14.670321464538574 0.014788968488574028 
vn -5.342541730193884e-13 5.166290760040283 0.01128679234534502 
vn -5.342541730193884e-13 5.166290760040283 0.01128679234534502 
vn -5.342541730193884e-13 5.166290760040283 0.01128679234534502 
vn -5.342541730193884e-13 5.166290760040283 0.01128679234534502 
vn 0 0 5.1663031578063965 
vn 0 0 5.1663031578063965 
vn 0 0 5.1663031578063965 
vn 0 0 5.1663031578063965 
vn 5.166290760040283 0 0.01128679234534502 
vn 5.166290760040283 0 0.01128679234534502 
vn 5.166290760040283 0 0.01128679234534502 
vn 5.166290760040283 0 0.01128679234534502 
vn -1.0685109481239907e-12 0 -5.1663031578063965 
vn -1.0685109481239907e-12 0 -5.1663031578063965 
vn -1.0685109481239907e-12 0 -5.1663031578063965 
vn -1.0685109481239907e-12 0 -5.1663031578063965 
vn -5.166290760040283 -1.0685083460387768e-12 0.01128679234534502 
vn -5.166290760040283 -1.0685083460387768e-12 0.01128679234534502 
vn -5.166290760040283 -1.0685083460387768e-12 0.01128679234534502 
vn -5.166290760040283 -1.0685083460387768e-12 0.01128679234534502 
vt 0.9608744382858276 0.8192139863967896 
vt 0.9608744382858276 0.8192139863967896 
vt 0.07420869916677475 0.8192139863967896 
vt 0.07420869916677475 0.8192139863967896 
vt 0.07420869916677475 0.8192139863967896 
vt 0.07420869916677475 0.4147050082683563 
vt 0.9608744382858276 0.8192139863967896 
vt 0.9608744382858276 0.4147050082683563 
vt 0.9608744382858276 0.8192139863967896 
vt 0.9608744382858276 0.4147050082683563 
vt 0.9608744382858276 0.8192139863967896 
vt 0.9608744382858276 0.4147050082683563 
vt 0.9608744382858276 0.8192139863967896 
vt 0.9608744382858276 0.4147050082683563 
vt 0.07420869916677475 0.8192139863967896 
vt 0.07420869916677475 0.4147050082683563 
vt 0.07420869916677475 0.4147050082683563 
vt 0.07420869916677475 0.4147050082683563 
vt 0.07420869916677475 0.8192139863967896 
vt 0.07420869916677475 0.8192139863967896 
s on 
f 1/1/1 2/2/2 3/3/3 
f 2/2/2 4/4/4 3/3/3 
f 3/3/3 4/4/4 4/4/4 
f 4/4/4 5/5/5 4/4/4 
f 4/4/4 5/5/5 5/5/5 
f 5/5/5 6/6/6 5/5/5 
f 5/5/5 6/6/6 7/7/7 
f 6/6/6 8/8/8 7/7/7 
f 7/7/7 8/8/8 8/8/8 
f 8/8/8 9/9/9 8/8/8 
f 8/8/8 9/9/9 9/9/9 
f 9/9/9 10/10/10 9/9/9 
f 9/9/9 10/10/10 11/11/11 
f 10/10/10 12/12/12 11/11/11 
f 11/11/11 12/12/12 12/12/12 
f 12/12/12 13/13/13 12/12/12 
f 12/12/12 13/13/13 13/13/13 
f 13/13/13 14/14/14 13/13/13 
f 13/13/13 14/14/14 15/15/15 
f 14/14/14 16/16/16 15/15/15 
f 15/15/15 16/16/16 16/16/16 
f 16/16/16 17/17/17 16/16/16 
f 16/16/16 17/17/17 17/17/17 
f 17/17/17 18/18/18 17/17/17 
f 17/17/17 18/18/18 19/19/19 
f 18/18/18 20/20/20 19/19/19 

