mtllib model_23.mtl
o model_23
v 44.71156311035156 6.942502498626709 -0.0007144901901483536 
v 44.71156311035156 6.942502498626709 0.014359724707901478 
v 43.14845657348633 6.942502498626709 -0.0007144901901483536 
v 43.14845657348633 6.942502498626709 0.014359724707901478 
v 43.14845657348633 8.543896675109863 0.014359724707901478 
v 43.14845657348633 6.942502498626709 0.014359724707901478 
v 44.71156311035156 8.543896675109863 0.014359724707901478 
v 44.71156311035156 6.942502498626709 0.014359724707901478 
v 43.14845657348633 8.543896675109863 0.014359724707901478 
v 43.14845657348633 8.543896675109863 -0.0007144901901483536 
v 43.14845657348633 6.942502498626709 0.014359724707901478 
v 43.14845657348633 6.942502498626709 -0.0007144901901483536 
v 44.71156311035156 6.942502498626709 0.014359724707901478 
v 44.71156311035156 6.942502498626709 -0.0007144901901483536 
v 44.71156311035156 8.543896675109863 0.014359724707901478 
v 44.71156311035156 8.543896675109863 -0.0007144901901483536 
v 44.71156311035156 8.543896675109863 -0.0007144901901483536 
v 44.71156311035156 6.942502498626709 -0.0007144901901483536 
v 43.14845657348633 8.543896675109863 -0.0007144901901483536 
v 43.14845657348633 6.942502498626709 -0.0007144901901483536 
v 44.71156311035156 8.543896675109863 0.014359724707901478 
v 44.71156311035156 8.543896675109863 -0.0007144901901483536 
v 43.14845657348633 8.543896675109863 0.014359724707901478 
v 43.14845657348633 8.543896675109863 -0.0007144901901483536 
vn 1.6918791671469147e-12 -5.461364269256592 0.01193143893033266 
vn 1.6918791671469147e-12 -5.461364269256592 0.01193143893033266 
vn 1.6918791671469147e-12 -5.461364269256592 0.01193143893033266 
vn 1.6918791671469147e-12 -5.461364269256592 0.01193143893033266 
vn 0 0 5.461377143859863 
vn 0 0 5.461377143859863 
vn 0 0 5.461377143859863 
vn 0 0 5.461377143859863 
vn -5.461364269256592 -1.1295362431842926e-12 0.01193143893033266 
vn -5.461364269256592 -1.1295362431842926e-12 0.01193143893033266 
vn -5.461364269256592 -1.1295362431842926e-12 0.01193143893033266 
vn -5.461364269256592 -1.1295362431842926e-12 0.01193143893033266 
vn 5.461364269256592 0 0.01193143893033266 
vn 5.461364269256592 0 0.01193143893033266 
vn 5.461364269256592 0 0.01193143893033266 
vn 5.461364269256592 0 0.01193143893033266 
vn -1.129539062109941e-12 0 -5.461377143859863 
vn -1.129539062109941e-12 0 -5.461377143859863 
vn -1.129539062109941e-12 0 -5.461377143859863 
vn -1.129539062109941e-12 0 -5.461377143859863 
vn -5.647681215921463e-13 5.461364269256592 0.01193143893033266 
vn -5.647681215921463e-13 5.461364269256592 0.01193143893033266 
vn -5.647681215921463e-13 5.461364269256592 0.01193143893033266 
vn -5.647681215921463e-13 5.461364269256592 0.01193143893033266 
vt 0.7228502035140991 0.2871989905834198 
vt 0.7228502035140991 0.2871989905834198 
vt 0.27714499831199646 0.2871989905834198 
vt 0.27714499831199646 0.2871989905834198 
vt 0.27714499831199646 0.6791895627975464 
vt 0.27714499831199646 0.2871989905834198 
vt 0.7228502035140991 0.6791895627975464 
vt 0.7228502035140991 0.2871989905834198 
vt 0.27714499831199646 0.6791895627975464 
vt 0.27714499831199646 0.6791895627975464 
vt 0.27714499831199646 0.2871989905834198 
vt 0.27714499831199646 0.2871989905834198 
vt 0.7228502035140991 0.2871989905834198 
vt 0.7228502035140991 0.2871989905834198 
vt 0.7228502035140991 0.6791895627975464 
vt 0.7228502035140991 0.6791895627975464 
vt 0.7228502035140991 0.6791895627975464 
vt 0.7228502035140991 0.2871989905834198 
vt 0.27714499831199646 0.6791895627975464 
vt 0.27714499831199646 0.2871989905834198 
vt 0.7228502035140991 0.6791895627975464 
vt 0.7228502035140991 0.6791895627975464 
vt 0.27714499831199646 0.6791895627975464 
vt 0.27714499831199646 0.6791895627975464 
s on 
f 1/1/1 2/2/2 3/3/3 
f 2/2/2 4/4/4 3/3/3 
f 3/3/3 4/4/4 4/4/4 
f 4/4/4 5/5/5 4/4/4 
f 4/4/4 5/5/5 5/5/5 
f 5/5/5 6/6/6 5/5/5 
f 5/5/5 6/6/6 7/7/7 
f 6/6/6 8/8/8 7/7/7 
f 7/7/7 8/8/8 8/8/8 
f 8/8/8 9/9/9 8/8/8 
f 8/8/8 9/9/9 9/9/9 
f 9/9/9 10/10/10 9/9/9 
f 9/9/9 10/10/10 11/11/11 
f 10/10/10 12/12/12 11/11/11 
f 11/11/11 12/12/12 12/12/12 
f 12/12/12 13/13/13 12/12/12 
f 12/12/12 13/13/13 13/13/13 
f 13/13/13 14/14/14 13/13/13 
f 13/13/13 14/14/14 15/15/15 
f 14/14/14 16/16/16 15/15/15 
f 15/15/15 16/16/16 16/16/16 
f 16/16/16 17/17/17 16/16/16 
f 16/16/16 17/17/17 17/17/17 
f 17/17/17 18/18/18 17/17/17 
f 17/17/17 18/18/18 19/19/19 
f 18/18/18 20/20/20 19/19/19 
f 19/19/19 20/20/20 20/20/20 
f 20/20/20 21/21/21 20/20/20 
f 20/20/20 21/21/21 21/21/21 
f 21/21/21 22/22/22 21/21/21 
f 21/21/21 22/22/22 23/23/23 
f 22/22/22 24/24/24 23/23/23 

