mtllib model_19.mtl
o model_19
v 16.075565338134766 3.481684446334839 -0.003113615093752742 
v 16.075565338134766 3.481684446334839 0.016755757853388786 
v 10.534732818603516 3.481684446334839 -0.003113615093752742 
v 10.534732818603516 3.481684446334839 0.016755757853388786 
v 10.534732818603516 5.587844371795654 0.016755757853388786 
v 10.534732818603516 3.481684446334839 0.016755757853388786 
v 16.075565338134766 5.587844371795654 0.016755757853388786 
v 16.075565338134766 3.481684446334839 0.016755757853388786 
v 10.534732818603516 5.587844371795654 0.016755757853388786 
v 10.534732818603516 5.587844371795654 -0.003113615093752742 
v 10.534732818603516 3.481684446334839 0.016755757853388786 
v 10.534732818603516 3.481684446334839 -0.003113615093752742 
v 16.075565338134766 3.481684446334839 0.016755757853388786 
v 16.075565338134766 3.481684446334839 -0.003113615093752742 
v 16.075565338134766 5.587844371795654 0.016755757853388786 
v 16.075565338134766 5.587844371795654 -0.003113615093752742 
v 16.075565338134766 5.587844371795654 -0.003113615093752742 
v 16.075565338134766 3.481684446334839 -0.003113615093752742 
v 10.534732818603516 5.587844371795654 -0.003113615093752742 
v 10.534732818603516 3.481684446334839 -0.003113615093752742 
v 16.075565338134766 5.587844371795654 0.016755757853388786 
v 16.075565338134766 5.587844371795654 -0.003113615093752742 
v 10.534732818603516 5.587844371795654 0.016755757853388786 
v 10.534732818603516 5.587844371795654 -0.003113615093752742 
vn 1.283570905813436e-12 -4.143350601196289 0.00905197486281395 
vn 1.283570905813436e-12 -4.143350601196289 0.00905197486281395 
vn 1.283570905813436e-12 -4.143350601196289 0.00905197486281395 
vn 1.283570905813436e-12 -4.143350601196289 0.00905197486281395 
vn 0 0 4.143360137939453 
vn 0 0 4.143360137939453 
vn 0 0 4.143360137939453 
vn 0 0 4.143360137939453 
vn -4.143350601196289 -8.569406035469074e-13 0.00905197486281395 
vn -4.143350601196289 -8.569406035469074e-13 0.00905197486281395 
vn -4.143350601196289 -8.569406035469074e-13 0.00905197486281395 
vn -4.143350601196289 -8.569406035469074e-13 0.00905197486281395 
vn 4.143350601196289 0 0.00905197486281395 
vn 4.143350601196289 0 0.00905197486281395 
vn 4.143350601196289 0 0.00905197486281395 
vn 4.143350601196289 0 0.00905197486281395 
vn -8.569426635310351e-13 0 -4.143360137939453 
vn -8.569426635310351e-13 0 -4.143360137939453 
vn -8.569426635310351e-13 0 -4.143360137939453 
vn -8.569426635310351e-13 0 -4.143360137939453 
vn -4.284703017734537e-13 4.143350601196289 0.00905197486281395 
vn -4.284703017734537e-13 4.143350601196289 0.00905197486281395 
vn -4.284703017734537e-13 4.143350601196289 0.00905197486281395 
vn -4.284703017734537e-13 4.143350601196289 0.00905197486281395 
vt 0.9781198501586914 0.1502390056848526 
vt 0.9781198501586914 0.1502390056848526 
vt 0.02187969908118248 0.1502390056848526 
vt 0.02187969908118248 0.1502390056848526 
vt 0.02187969908118248 0.8497613668441772 
vt 0.02187969908118248 0.1502390056848526 
vt 0.9781198501586914 0.8497613668441772 
vt 0.9781198501586914 0.1502390056848526 
vt 0.02187969908118248 0.8497613668441772 
vt 0.02187969908118248 0.8497613668441772 
vt 0.02187969908118248 0.1502390056848526 
vt 0.02187969908118248 0.1502390056848526 
vt 0.9781198501586914 0.1502390056848526 
vt 0.9781198501586914 0.1502390056848526 
vt 0.9781198501586914 0.8497613668441772 
vt 0.9781198501586914 0.8497613668441772 
vt 0.9781198501586914 0.8497613668441772 
vt 0.9781198501586914 0.1502390056848526 
vt 0.02187969908118248 0.8497613668441772 
vt 0.02187969908118248 0.1502390056848526 
vt 0.9781198501586914 0.8497613668441772 
vt 0.9781198501586914 0.8497613668441772 
vt 0.02187969908118248 0.8497613668441772 
vt 0.02187969908118248 0.8497613668441772 
s on 
f 1/1/1 2/2/2 3/3/3 
f 2/2/2 4/4/4 3/3/3 
f 3/3/3 4/4/4 4/4/4 
f 4/4/4 5/5/5 4/4/4 
f 4/4/4 5/5/5 5/5/5 
f 5/5/5 6/6/6 5/5/5 
f 5/5/5 6/6/6 7/7/7 
f 6/6/6 8/8/8 7/7/7 
f 7/7/7 8/8/8 8/8/8 
f 8/8/8 9/9/9 8/8/8 
f 8/8/8 9/9/9 9/9/9 
f 9/9/9 10/10/10 9/9/9 
f 9/9/9 10/10/10 11/11/11 
f 10/10/10 12/12/12 11/11/11 
f 11/11/11 12/12/12 12/12/12 
f 12/12/12 13/13/13 12/12/12 
f 12/12/12 13/13/13 13/13/13 
f 13/13/13 14/14/14 13/13/13 
f 13/13/13 14/14/14 15/15/15 
f 14/14/14 16/16/16 15/15/15 
f 15/15/15 16/16/16 16/16/16 
f 16/16/16 17/17/17 16/16/16 
f 16/16/16 17/17/17 17/17/17 
f 17/17/17 18/18/18 17/17/17 
f 17/17/17 18/18/18 19/19/19 
f 18/18/18 20/20/20 19/19/19 
f 19/19/19 20/20/20 20/20/20 
f 20/20/20 21/21/21 20/20/20 
f 20/20/20 21/21/21 21/21/21 
f 21/21/21 22/22/22 21/21/21 
f 21/21/21 22/22/22 23/23/23 
f 22/22/22 24/24/24 23/23/23 

