mtllib model_40.mtl
o model_40
v 0.7238337993621826 -1.0001599788665771 -0.23346219956874847 
v 0.6161379814147949 -1.0001599788665771 -0.4488537907600403 
v 0.005861800163984299 0.9998360276222229 0.005861800163984299 
v 0.44861119985580444 -1.0001599788665771 -0.6163805723190308 
v 0.23321959376335144 -1.0001599788665771 -0.7240763902664185 
v 0.005861800163984299 -1.0001599788665771 -0.759975016117096 
v -0.23346219956874847 -1.0001599788665771 -0.7240763902664185 
v -0.4488537907600403 -1.0001599788665771 -0.6163805723190308 
v -0.6163805723190308 -1.0001599788665771 -0.4488537907600403 
v -0.7240763902664185 -1.0001599788665771 -0.23346219956874847 
v -0.759975016117096 -1.0001599788665771 0.005861800163984299 
v -0.7240763902664185 -1.0001599788665771 0.23321959376335144 
v -0.6163805723190308 -1.0001599788665771 0.44861119985580444 
v -0.4488537907600403 -1.0001599788665771 0.6161379814147949 
v -0.23346219956874847 -1.0001599788665771 0.7238337993621826 
v 0.005861800163984299 -1.0001599788665771 0.7597324252128601 
v 0.23321959376335144 -1.0001599788665771 0.7238337993621826 
v 0.44861119985580444 -1.0001599788665771 0.6161379814147949 
v 0.6161379814147949 -1.0001599788665771 0.44861119985580444 
v 0.7238337993621826 -1.0001599788665771 0.23321959376335144 
v 0.7597324252128601 -1.0001599788665771 0.005861800163984299 
v 0.7238337993621826 -1.0001599788665771 -0.23346219956874847 
v 0.005861800163984299 -1.0001599788665771 -0.759975016117096 
v -0.23346219956874847 -1.0001599788665771 -0.7240763902664185 
v 0.23321959376335144 -1.0001599788665771 -0.7240763902664185 
v 0.44861119985580444 -1.0001599788665771 -0.6163805723190308 
v -0.4488537907600403 -1.0001599788665771 -0.6163805723190308 
v 0.6161379814147949 -1.0001599788665771 -0.4488537907600403 
v -0.6163805723190308 -1.0001599788665771 -0.4488537907600403 
v 0.7238337993621826 -1.0001599788665771 -0.23346219956874847 
v -0.7240763902664185 -1.0001599788665771 -0.23346219956874847 
v 0.7597324252128601 -1.0001599788665771 0.005861800163984299 
v -0.759975016117096 -1.0001599788665771 0.005861800163984299 
v 0.7238337993621826 -1.0001599788665771 0.23321959376335144 
v -0.7240763902664185 -1.0001599788665771 0.23321959376335144 
v 0.6161379814147949 -1.0001599788665771 0.44861119985580444 
v -0.6163805723190308 -1.0001599788665771 0.44861119985580444 
v 0.44861119985580444 -1.0001599788665771 0.6161379814147949 
v -0.4488537907600403 -1.0001599788665771 0.6161379814147949 
v 0.23321959376335144 -1.0001599788665771 0.7238337993621826 
v -0.23346219956874847 -1.0001599788665771 0.7238337993621826 
v 0.005861800163984299 -1.0001599788665771 0.7597324252128601 
vn 0.888961136341095 0.35391414165496826 -0.29067665338516235 
vn 0.7570623755455017 0.35140275955200195 -0.5507928133010864 
vn -1.0341130485562108e-13 0.999997615814209 0.002184694167226553 
vn 0.5471500754356384 0.3573521375656128 -0.7569189071655273 
vn 0.2883724868297577 0.3564107120037079 -0.888714075088501 
vn -0.0018890041392296553 0.3547569811344147 -0.9349566102027893 
vn -0.2913014888763428 0.3540208041667938 -0.888714075088501 
vn -0.549208402633667 0.35418057441711426 -0.7569189071655273 
vn -0.7570623755455017 0.35140275955200195 -0.5507928133010864 
vn -0.888961136341095 0.35391414165496826 -0.29067665338516235 
vn -0.935014009475708 0.354604035615921 0.002184694167226553 
vn -0.8877289891242981 0.35699349641799927 0.29067665338516235 
vn -0.7556878924369812 0.3543488383293152 0.5507928133010864 
vn -0.5499516725540161 0.3530253767967224 0.7569189071655273 
vn -0.28710460662841797 0.35743284225463867 0.888714075088501 
vn -3.6686491111702704e-14 0.3547620177268982 0.9349566102027893 
vn 0.29002678394317627 0.35506585240364075 0.888714075088501 
vn 0.5479075312614441 0.35618963837623596 0.7569189071655273 
vn 0.7540784478187561 0.35776111483573914 0.5507928133010864 
vn 0.8891292810440063 0.35349148511886597 0.29067665338516235 
vn 0.935014009475708 0.354604035615921 0.002184694167226553 
vn 0.888961136341095 0.35391414165496826 -0.29067665338516235 
vn 3.097898456858039e-13 -0.999997615814209 0.002184694167226553 
vn 3.097898456858039e-13 -0.999997615814209 0.002184694167226553 
vn 3.097898456858039e-13 -0.999997615814209 0.002184694167226553 
vn 3.097898456858039e-13 -0.999997615814209 0.002184694167226553 
vn 3.097898456858039e-13 -0.999997615814209 0.002184694167226553 
vn 3.097898456858039e-13 -0.999997615814209 0.002184694167226553 
vn 3.097898456858039e-13 -0.999997615814209 0.002184694167226553 
vn 3.097898456858039e-13 -0.999997615814209 0.002184694167226553 
vn 3.097898456858039e-13 -0.999997615814209 0.002184694167226553 
vn 3.097898456858039e-13 -0.999997615814209 0.002184694167226553 
vn 3.097898456858039e-13 -0.999997615814209 0.002184694167226553 
vn 3.097898456858039e-13 -0.999997615814209 0.002184694167226553 
vn 3.097898456858039e-13 -0.999997615814209 0.002184694167226553 
vn 3.097898456858039e-13 -0.999997615814209 0.002184694167226553 
vn 3.097898456858039e-13 -0.999997615814209 0.002184694167226553 
vn 3.097898456858039e-13 -0.999997615814209 0.002184694167226553 
vn 3.097898456858039e-13 -0.999997615814209 0.002184694167226553 
vn 3.097898456858039e-13 -0.999997615814209 0.002184694167226553 
vn 3.097898456858039e-13 -0.999997615814209 0.002184694167226553 
vn 3.097898456858039e-13 -0.999997615814209 0.002184694167226553 
s on 
f 1//1 2//2 3//3 
f 2//2 4//4 3//3 
f 3//3 4//4 3//3 
f 4//4 5//5 3//3 
f 3//3 5//5 3//3 
f 5//5 6//6 3//3 
f 3//3 6//6 3//3 
f 6//6 7//7 3//3 
f 3//3 7//7 3//3 
f 7//7 8//8 3//3 
f 3//3 8//8 3//3 
f 8//8 9//9 3//3 
f 3//3 9//9 3//3 
f 9//9 10//10 3//3 
f 3//3 10//10 3//3 
f 10//10 11//11 3//3 
f 3//3 11//11 3//3 
f 11//11 12//12 3//3 
f 3//3 12//12 3//3 
f 12//12 13//13 3//3 
f 3//3 13//13 3//3 
f 13//13 14//14 3//3 
f 3//3 14//14 3//3 
f 14//14 15//15 3//3 
f 3//3 15//15 3//3 
f 15//15 16//16 3//3 
f 3//3 16//16 3//3 
f 16//16 17//17 3//3 
f 3//3 17//17 3//3 
f 17//17 18//18 3//3 
f 3//3 18//18 3//3 
f 18//18 19//19 3//3 
f 3//3 19//19 3//3 
f 19//19 20//20 3//3 
f 3//3 20//20 3//3 
f 20//20 21//21 3//3 
f 3//3 21//21 22//22 
f 21//21 22//22 22//22 
f 22//22 22//22 23//23 
f 22//22 23//23 23//23 
f 23//23 23//23 24//24 
f 23//23 25//25 24//24 
f 24//24 25//25 24//24 
f 25//25 26//26 24//24 
f 24//24 26//26 27//27 
f 26//26 28//28 27//27 
f 27//27 28//28 29//29 
f 28//28 30//30 29//29 
f 29//29 30//30 31//31 
f 30//30 32//32 31//31 
f 31//31 32//32 33//33 
f 32//32 34//34 33//33 
f 33//33 34//34 35//35 
f 34//34 36//36 35//35 
f 35//35 36//36 37//37 
f 36//36 38//38 37//37 
f 37//37 38//38 39//39 
f 38//38 40//40 39//39 
f 39//39 40//40 41//41 
f 40//40 42//42 41//41 

