mtllib model_0.mtl
o model_0
v -10.259180068969727 -1.5800000429153442 4.998840008596517e-9 
v -10.51807975769043 -1.6225700378417969 4.998840008596517e-9 
v -10.03134822845459 -1.46696937084198 4.998840008596517e-9 
v -10.859827995300293 -1.5829359292984009 4.998840008596517e-9 
v -9.803516387939453 -1.3113688230514526 4.998840008596517e-9 
v -11.17050838470459 -1.4699052572250366 4.998840008596517e-9 
v -11.450119972229004 -1.2922857999801636 4.998840008596517e-9 
v -9.606752395629883 -1.138153076171875 4.998840008596517e-9 
v -11.688307762145996 -1.058884859085083 4.998840008596517e-9 
v -11.864359855651855 -0.7799781560897827 4.998840008596517e-9 
v -11.978276252746582 -0.46437323093414307 4.998840008596517e-9 
v -12.019700050354004 -0.11940968036651611 4.998840008596517e-9 
v -11.978276252746582 0.2240859419107437 4.998840008596517e-9 
v -11.864359855651855 0.5396909117698669 4.998840008596517e-9 
v -11.688307762145996 0.8185976147651672 4.998840008596517e-9 
v -11.450119972229004 1.051998496055603 4.998840008596517e-9 
v -11.17050838470459 1.229617953300476 4.998840008596517e-9 
v -10.859827995300293 1.3426486253738403 4.998840008596517e-9 
v -10.51807975769043 1.3822827339172363 4.998840008596517e-9 
v -10.300603866577148 1.3676034212112427 4.998840008596517e-9 
v -10.103839874267578 1.32503342628479 4.998840008596517e-9 
v -9.917431831359863 1.257508635520935 4.998840008596517e-9 
v -9.741379737854004 1.166496992111206 4.998840008596517e-9 
v -9.586039543151855 1.0534664392471313 4.998840008596517e-9 
v -9.430700302124023 -0.9722769856452942 4.998840008596517e-9 
v -9.441056251525879 0.9198847413063049 4.998840008596517e-9 
v -9.306427955627441 0.7701559066772461 4.998840008596517e-9 
v -9.275360107421875 -0.8416312336921692 4.998840008596517e-9 
v -9.161443710327148 -0.769702672958374 4.998840008596517e-9 
v 29.756404876708984 -0.769702672958374 4.998840008596517e-9 
v 29.9117431640625 0.7701559066772461 4.998840008596517e-9 
v 29.88067626953125 -0.8416312336921692 4.998840008596517e-9 
v 30.025659561157227 -0.9722769856452942 4.998840008596517e-9 
v 30.0360164642334 0.9198847413063049 4.998840008596517e-9 
v 30.180999755859375 1.0534664392471313 4.998840008596517e-9 
v 30.336339950561523 1.166496992111206 4.998840008596517e-9 
v 30.512392044067383 1.257508635520935 4.998840008596517e-9 
v 30.709156036376953 1.32503342628479 4.998840008596517e-9 
v 30.201711654663086 -1.138153076171875 4.998840008596517e-9 
v 30.905920028686523 1.3676034212112427 4.998840008596517e-9 
v 31.113040924072266 1.3822827339172363 4.998840008596517e-9 
v 31.454788208007812 1.3426486253738403 4.998840008596517e-9 
v 31.77582359313965 1.229617953300476 4.998840008596517e-9 
v 32.05543518066406 1.051998496055603 4.998840008596517e-9 
v 32.283267974853516 0.8185976147651672 4.998840008596517e-9 
v 32.459320068359375 0.5396909117698669 4.998840008596517e-9 
v 32.57323455810547 0.2240859419107437 4.998840008596517e-9 
v 32.61465835571289 -0.11940968036651611 4.998840008596517e-9 
v 32.57323455810547 -0.46437323093414307 4.998840008596517e-9 
v 30.408832550048828 -1.3113688230514526 4.998840008596517e-9 
v 32.459320068359375 -0.7799781560897827 4.998840008596517e-9 
v 32.283267974853516 -1.058884859085083 4.998840008596517e-9 
v 32.05543518066406 -1.2922857999801636 4.998840008596517e-9 
v 31.77582359313965 -1.4699052572250366 4.998840008596517e-9 
v 30.62630844116211 -1.46696937084198 4.998840008596517e-9 
v 31.454788208007812 -1.5829359292984009 4.998840008596517e-9 
v 30.8644962310791 -1.5800000429153442 4.998840008596517e-9 
v 31.113040924072266 -1.6225700378417969 4.998840008596517e-9 
v 31.113040924072266 -1.6225700378417969 4.998840008596517e-9 
v 31.454788208007812 -1.5829359292984009 4.998840008596517e-9 
v 30.8644962310791 -1.5800000429153442 4.998840008596517e-9 
v 30.62630844116211 -1.46696937084198 4.998840008596517e-9 
v 31.77582359313965 -1.4699052572250366 4.998840008596517e-9 
v 30.408832550048828 -1.3113688230514526 4.998840008596517e-9 
v 32.05543518066406 -1.2922857999801636 4.998840008596517e-9 
v 32.283267974853516 -1.058884859085083 4.998840008596517e-9 
v 32.459320068359375 -0.7799781560897827 4.998840008596517e-9 
v 32.57323455810547 -0.46437323093414307 4.998840008596517e-9 
v 30.201711654663086 -1.138153076171875 4.998840008596517e-9 
v 32.61465835571289 -0.11940968036651611 4.998840008596517e-9 
v 32.57323455810547 0.2240859419107437 4.998840008596517e-9 
v 32.459320068359375 0.5396909117698669 4.998840008596517e-9 
v 32.283267974853516 0.8185976147651672 4.998840008596517e-9 
v 32.05543518066406 1.051998496055603 4.998840008596517e-9 
v 31.77582359313965 1.229617953300476 4.998840008596517e-9 
v 31.454788208007812 1.3426486253738403 4.998840008596517e-9 
v 31.113040924072266 1.3822827339172363 4.998840008596517e-9 
v 30.905920028686523 1.3676034212112427 4.998840008596517e-9 
v 30.709156036376953 1.32503342628479 4.998840008596517e-9 
v 30.025659561157227 -0.9722769856452942 4.998840008596517e-9 
v 30.512392044067383 1.257508635520935 4.998840008596517e-9 
v 30.336339950561523 1.166496992111206 4.998840008596517e-9 
v 30.180999755859375 1.0534664392471313 4.998840008596517e-9 
v 30.0360164642334 0.9198847413063049 4.998840008596517e-9 
v 29.9117431640625 0.7701559066772461 4.998840008596517e-9 
v 29.88067626953125 -0.8416312336921692 4.998840008596517e-9 
v 29.756404876708984 -0.769702672958374 4.998840008596517e-9 
v -9.306427955627441 0.7701559066772461 4.998840008596517e-9 
v -9.161443710327148 -0.769702672958374 4.998840008596517e-9 
v -9.275360107421875 -0.8416312336921692 4.998840008596517e-9 
v -9.430700302124023 -0.9722769856452942 4.998840008596517e-9 
v -9.441056251525879 0.9198847413063049 4.998840008596517e-9 
v -9.586039543151855 1.0534664392471313 4.998840008596517e-9 
v -9.606752395629883 -1.138153076171875 4.998840008596517e-9 
v -9.741379737854004 1.166496992111206 4.998840008596517e-9 
v -9.917431831359863 1.257508635520935 4.998840008596517e-9 
v -10.103839874267578 1.32503342628479 4.998840008596517e-9 
v -10.300603866577148 1.3676034212112427 4.998840008596517e-9 
v -10.51807975769043 1.3822827339172363 4.998840008596517e-9 
v -10.859827995300293 1.3426486253738403 4.998840008596517e-9 
v -11.17050838470459 1.229617953300476 4.998840008596517e-9 
v -11.450119972229004 1.051998496055603 4.998840008596517e-9 
v -11.688307762145996 0.8185976147651672 4.998840008596517e-9 
v -11.864359855651855 0.5396909117698669 4.998840008596517e-9 
v -11.978276252746582 0.2240859419107437 4.998840008596517e-9 
v -12.019700050354004 -0.11940968036651611 4.998840008596517e-9 
v -11.978276252746582 -0.46437323093414307 4.998840008596517e-9 
v -11.864359855651855 -0.7799781560897827 4.998840008596517e-9 
v -11.688307762145996 -1.058884859085083 4.998840008596517e-9 
v -11.450119972229004 -1.2922857999801636 4.998840008596517e-9 
v -9.803516387939453 -1.3113688230514526 4.998840008596517e-9 
v -11.17050838470459 -1.4699052572250366 4.998840008596517e-9 
v -10.859827995300293 -1.5829359292984009 4.998840008596517e-9 
v -10.03134822845459 -1.46696937084198 4.998840008596517e-9 
v -10.51807975769043 -1.6225700378417969 4.998840008596517e-9 
v -10.259180068969727 -1.5800000429153442 4.998840008596517e-9 
v -9.441056251525879 0.9198847413063049 4.998840008596517e-9 
v -9.306427955627441 0.7701559066772461 4.998840008596517e-9 
v -9.586039543151855 1.0534664392471313 4.998840008596517e-9 
v -9.741379737854004 1.166496992111206 4.998840008596517e-9 
v -9.917431831359863 1.257508635520935 4.998840008596517e-9 
v -10.103839874267578 1.32503342628479 4.998840008596517e-9 
v -10.300603866577148 1.3676034212112427 4.998840008596517e-9 
v -10.51807975769043 1.3822827339172363 4.998840008596517e-9 
v -10.859827995300293 1.3426486253738403 4.998840008596517e-9 
v -11.17050838470459 1.229617953300476 4.998840008596517e-9 
v -11.450119972229004 1.051998496055603 4.998840008596517e-9 
v -11.688307762145996 0.8185976147651672 4.998840008596517e-9 
v -11.864359855651855 0.5396909117698669 4.998840008596517e-9 
v -11.978276252746582 0.2240859419107437 4.998840008596517e-9 
v -12.019700050354004 -0.11940968036651611 4.998840008596517e-9 
v -11.978276252746582 -0.46437323093414307 4.998840008596517e-9 
v -11.864359855651855 -0.7799781560897827 4.998840008596517e-9 
v -11.688307762145996 -1.058884859085083 4.998840008596517e-9 
v -11.450119972229004 -1.2922857999801636 4.998840008596517e-9 
v -11.17050838470459 -1.4699052572250366 4.998840008596517e-9 
v -10.859827995300293 -1.5829359292984009 4.998840008596517e-9 
v -10.51807975769043 -1.6225700378417969 4.998840008596517e-9 
v -10.259180068969727 -1.5800000429153442 4.998840008596517e-9 
v -10.03134822845459 -1.46696937084198 4.998840008596517e-9 
v -9.803516387939453 -1.3113688230514526 4.998840008596517e-9 
v -9.606752395629883 -1.138153076171875 4.998840008596517e-9 
v -9.430700302124023 -0.9722769856452942 4.998840008596517e-9 
v -9.275360107421875 -0.8416312336921692 4.998840008596517e-9 
v -9.161443710327148 -0.769702672958374 4.998840008596517e-9 
v 29.756404876708984 -0.769702672958374 4.998840008596517e-9 
v 29.88067626953125 -0.8416312336921692 4.998840008596517e-9 
v 30.025659561157227 -0.9722769856452942 4.998840008596517e-9 
v 30.201711654663086 -1.138153076171875 4.998840008596517e-9 
v 30.408832550048828 -1.3113688230514526 4.998840008596517e-9 
v 30.62630844116211 -1.46696937084198 4.998840008596517e-9 
v 30.8644962310791 -1.5800000429153442 4.998840008596517e-9 
v 31.113040924072266 -1.6225700378417969 4.998840008596517e-9 
v 31.454788208007812 -1.5829359292984009 4.998840008596517e-9 
v 31.77582359313965 -1.4699052572250366 4.998840008596517e-9 
v 32.05543518066406 -1.2922857999801636 4.998840008596517e-9 
v 32.283267974853516 -1.058884859085083 4.998840008596517e-9 
v 32.459320068359375 -0.7799781560897827 4.998840008596517e-9 
v 32.57323455810547 -0.46437323093414307 4.998840008596517e-9 
v 32.61465835571289 -0.11940968036651611 4.998840008596517e-9 
v 32.57323455810547 0.2240859419107437 4.998840008596517e-9 
v 32.459320068359375 0.5396909117698669 4.998840008596517e-9 
v 32.283267974853516 0.8185976147651672 4.998840008596517e-9 
v 32.05543518066406 1.051998496055603 4.998840008596517e-9 
v 31.77582359313965 1.229617953300476 4.998840008596517e-9 
v 31.454788208007812 1.3426486253738403 4.998840008596517e-9 
v 31.113040924072266 1.3822827339172363 4.998840008596517e-9 
v 30.905920028686523 1.3676034212112427 4.998840008596517e-9 
v 30.709156036376953 1.32503342628479 4.998840008596517e-9 
v 30.512392044067383 1.257508635520935 4.998840008596517e-9 
v 30.336339950561523 1.166496992111206 4.998840008596517e-9 
v 30.180999755859375 1.0534664392471313 4.998840008596517e-9 
v 30.0360164642334 0.9198847413063049 4.998840008596517e-9 
v 29.9117431640625 0.7701559066772461 4.998840008596517e-9 
vn 2.0682311115474694e-13 4.2775797696334704e-26 -1 
vn 2.0682311115474694e-13 4.2775797696334704e-26 -1 
vn 2.0682311115474694e-13 4.2775797696334704e-26 -1 
vn -2.0682311115474694e-13 0 -1 
vn -2.0682311115474694e-13 0 -1 
vn -2.0682311115474694e-13 0 -1 
vn 2.0682311115474694e-13 4.2775797696334704e-26 -1 
vn -2.0682311115474694e-13 0 -1 
vn 2.0682311115474694e-13 4.2775797696334704e-26 -1 
vn -2.0682311115474694e-13 0 -1 
vn 2.0682311115474694e-13 4.2775797696334704e-26 -1 
vn 2.0682311115474694e-13 4.2775797696334704e-26 -1 
vn 2.0682311115474694e-13 4.2775797696334704e-26 -1 
vn 2.0682311115474694e-13 4.2775797696334704e-26 -1 
vn 2.0682311115474694e-13 4.2775797696334704e-26 -1 
vn -2.0682311115474694e-13 0 -1 
vn -2.0682311115474694e-13 0 -1 
vn 2.0682311115474694e-13 4.2775797696334704e-26 -1 
vn 2.0682311115474694e-13 4.2775797696334704e-26 -1 
vn -2.0682311115474694e-13 0 -1 
vn -2.0682311115474694e-13 0 -1 
vn -2.0682311115474694e-13 0 -1 
vn -2.0682311115474694e-13 0 -1 
vn -2.0682311115474694e-13 0 -1 
vn -2.0682311115474694e-13 0 -1 
vn -2.0682311115474694e-13 0 -1 
vn 2.0682311115474694e-13 4.2775797696334704e-26 -1 
vn 2.0682311115474694e-13 4.2775797696334704e-26 -1 
vn 2.0682311115474694e-13 4.2775797696334704e-26 -1 
vn 2.0682311115474694e-13 4.2775797696334704e-26 -1 
vn 2.0682311115474694e-13 4.2775797696334704e-26 -1 
vn -2.0682311115474694e-13 0 -1 
vn -2.0682311115474694e-13 0 -1 
vn -2.0682311115474694e-13 0 -1 
vn -2.0682311115474694e-13 0 -1 
vn -2.0682311115474694e-13 0 -1 
vn -2.0682311115474694e-13 0 -1 
vn -2.0682311115474694e-13 0 -1 
vn -2.0682311115474694e-13 0 -1 
vn -2.0682311115474694e-13 0 -1 
vn -2.0682311115474694e-13 0 -1 
vn -2.0682311115474694e-13 0 -1 
vn -2.0682311115474694e-13 0 -1 
vn -2.0682311115474694e-13 0 -1 
vn -2.0682311115474694e-13 0 -1 
vn -2.0682311115474694e-13 0 -1 
vn -2.0682311115474694e-13 0 -1 
vn -2.0682311115474694e-13 0 -1 
vn -2.0682311115474694e-13 0 -1 
vn -2.0682311115474694e-13 0 -1 
vn -2.0682311115474694e-13 0 -1 
vn -2.0682311115474694e-13 0 -1 
vn -2.0682311115474694e-13 0 -1 
vn -2.0682311115474694e-13 0 -1 
vn -2.0682311115474694e-13 0 -1 
vn -2.0682311115474694e-13 0 -1 
vn -2.0682311115474694e-13 0 -1 
vn -2.0682311115474694e-13 0 -1 
vn 0 0 1 
vn 0 0 1 
vn 0 0 1 
vn 0 0 1 
vn 0 0 1 
vn 0 0 1 
vn 0 0 1 
vn 0 0 1 
vn 0 0 1 
vn 0 0 1 
vn 0 0 1 
vn 0 0 1 
vn 0 0 1 
vn 0 0 1 
vn 0 0 1 
vn 0 0 1 
vn 0 0 1 
vn 0 0 1 
vn 0 0 1 
vn 0 0 1 
vn 0 0 1 
vn 0 0 1 
vn 0 0 1 
vn 0 0 1 
vn 0 0 1 
vn 0 0 1 
vn 0 0 1 
vn 0 0 1 
vn 0 0 1 
vn 0 0 1 
vn 0 0 1 
vn 0 0 1 
vn 0 0 1 
vn 0 0 1 
vn 0 0 1 
vn 0 0 1 
vn 0 0 1 
vn 0 0 1 
vn 0 0 1 
vn 0 0 1 
vn 0 0 1 
vn 0 0 1 
vn 0 0 1 
vn 0 0 1 
vn 0 0 1 
vn 0 0 1 
vn 0 0 1 
vn 0 0 1 
vn 0 0 1 
vn 0 0 1 
vn 0 0 1 
vn 0 0 1 
vn 0 0 1 
vn 0 0 1 
vn 0 0 1 
vn 0 0 1 
vn 0 0 1 
vn 0 0 1 
vn 0.999997615814209 0 0.002184694167226553 
vn 0.999997615814209 0 0.002184694167226553 
vn 0.999997615814209 0 0.002184694167226553 
vn 0.999997615814209 0 0.002184694167226553 
vn 0.999997615814209 0 0.002184694167226553 
vn 0.999997615814209 0 0.002184694167226553 
vn 0.999997615814209 0 0.002184694167226553 
vn 0.999997615814209 0 0.002184694167226553 
vn 0.999997615814209 0 0.002184694167226553 
vn 0.999997615814209 0 0.002184694167226553 
vn 0.999997615814209 0 0.002184694167226553 
vn 0.999997615814209 0 0.002184694167226553 
vn 0.999997615814209 0 0.002184694167226553 
vn 0.999997615814209 0 0.002184694167226553 
vn 0.999997615814209 0 0.002184694167226553 
vn 0.999997615814209 0 0.002184694167226553 
vn 0.999997615814209 0 0.002184694167226553 
vn 0.999997615814209 0 0.002184694167226553 
vn 0.999997615814209 0 0.002184694167226553 
vn 0.999997615814209 0 0.002184694167226553 
vn 0.999997615814209 0 0.002184694167226553 
vn 0.999997615814209 0 0.002184694167226553 
vn 0.999997615814209 0 0.002184694167226553 
vn 0.999997615814209 0 0.002184694167226553 
vn 0.999997615814209 0 0.002184694167226553 
vn 0.999997615814209 0 0.002184694167226553 
vn 0.999997615814209 0 0.002184694167226553 
vn 0.999997615814209 0 0.002184694167226553 
vn 0.999997615814209 0 0.002184694167226553 
vn 0.999997615814209 0 0.002184694167226553 
vn 0.999997615814209 0 0.002184694167226553 
vn 0.999997615814209 0 0.002184694167226553 
vn 0.999997615814209 0 0.002184694167226553 
vn 0.999997615814209 0 0.002184694167226553 
vn 0.999997615814209 0 0.002184694167226553 
vn 0.999997615814209 0 0.002184694167226553 
vn 0.999997615814209 0 0.002184694167226553 
vn 0.999997615814209 0 0.002184694167226553 
vn 0.999997615814209 0 0.002184694167226553 
vn 0.999997615814209 0 0.002184694167226553 
vn 0.999997615814209 0 0.002184694167226553 
vn 0.999997615814209 0 0.002184694167226553 
vn 0.999997615814209 0 0.002184694167226553 
vn 0.999997615814209 0 0.002184694167226553 
vn 0.999997615814209 0 0.002184694167226553 
vn 0.999997615814209 0 0.002184694167226553 
vn 0.999997615814209 0 0.002184694167226553 
vn 0.999997615814209 0 0.002184694167226553 
vn 0.999997615814209 0 0.002184694167226553 
vn 0.999997615814209 0 0.002184694167226553 
vn 0.999997615814209 0 0.002184694167226553 
vn 0.999997615814209 0 0.002184694167226553 
vn 0.999997615814209 0 0.002184694167226553 
vn 0.999997615814209 0 0.002184694167226553 
vn 0.999997615814209 0 0.002184694167226553 
vn 0.999997615814209 0 0.002184694167226553 
vn 0.999997615814209 0 0.002184694167226553 
vn 0.999997615814209 0 0.002184694167226553 
s on 
f 1//1 2//2 3//3 
f 2//2 4//4 3//3 
f 3//3 4//4 5//5 
f 4//4 6//6 5//5 
f 5//5 6//6 5//5 
f 6//6 7//7 5//5 
f 5//5 7//7 8//8 
f 7//7 9//9 8//8 
f 8//8 9//9 8//8 
f 9//9 10//10 8//8 
f 8//8 10//10 8//8 
f 10//10 11//11 8//8 
f 8//8 11//11 8//8 
f 11//11 12//12 8//8 
f 8//8 12//12 8//8 
f 12//12 13//13 8//8 
f 8//8 13//13 8//8 
f 13//13 14//14 8//8 
f 8//8 14//14 8//8 
f 14//14 15//15 8//8 
f 8//8 15//15 8//8 
f 15//15 16//16 8//8 
f 8//8 16//16 8//8 
f 16//16 17//17 8//8 
f 8//8 17//17 8//8 
f 17//17 18//18 8//8 
f 8//8 18//18 8//8 
f 18//18 19//19 8//8 
f 8//8 19//19 8//8 
f 19//19 20//20 8//8 
f 8//8 20//20 8//8 
f 20//20 21//21 8//8 
f 8//8 21//21 8//8 
f 21//21 22//22 8//8 
f 8//8 22//22 8//8 
f 22//22 23//23 8//8 
f 8//8 23//23 8//8 
f 23//23 24//24 8//8 
f 8//8 24//24 25//25 
f 24//24 26//26 25//25 
f 25//25 26//26 25//25 
f 26//26 27//27 25//25 
f 25//25 27//27 28//28 
f 27//27 27//27 28//28 
f 28//28 27//27 29//29 
f 27//27 27//27 29//29 
f 29//29 27//27 30//30 
f 27//27 31//31 30//30 
f 30//30 31//31 32//32 
f 31//31 31//31 32//32 
f 32//32 31//31 33//33 
f 31//31 34//34 33//33 
f 33//33 34//34 33//33 
f 34//34 35//35 33//33 
f 33//33 35//35 33//33 
f 35//35 36//36 33//33 
f 33//33 36//36 33//33 
f 36//36 37//37 33//33 
f 33//33 37//37 33//33 
f 37//37 38//38 33//33 
f 33//33 38//38 39//39 
f 38//38 40//40 39//39 
f 39//39 40//40 39//39 
f 40//40 41//41 39//39 
f 39//39 41//41 39//39 
f 41//41 42//42 39//39 
f 39//39 42//42 39//39 
f 42//42 43//43 39//39 
f 39//39 43//43 39//39 
f 43//43 44//44 39//39 
f 39//39 44//44 39//39 
f 44//44 45//45 39//39 
f 39//39 45//45 39//39 
f 45//45 46//46 39//39 
f 39//39 46//46 39//39 
f 46//46 47//47 39//39 
f 39//39 47//47 39//39 
f 47//47 48//48 39//39 
f 39//39 48//48 39//39 
f 48//48 49//49 39//39 
f 39//39 49//49 50//50 
f 49//49 51//51 50//50 
f 50//50 51//51 50//50 
f 51//51 52//52 50//50 
f 50//50 52//52 50//50 
f 52//52 53//53 50//50 
f 50//50 53//53 50//50 
f 53//53 54//54 50//50 
f 50//50 54//54 55//55 
f 54//54 56//56 55//55 
f 55//55 56//56 57//57 
f 56//56 58//58 57//57 
f 57//57 58//58 58//58 
f 58//58 59//59 58//58 
f 58//58 59//59 59//59 
f 59//59 60//60 59//59 
f 59//59 60//60 61//61 
f 60//60 60//60 61//61 
f 61//61 60//60 62//62 
f 60//60 63//63 62//62 
f 62//62 63//63 64//64 
f 63//63 65//65 64//64 
f 64//64 65//65 64//64 
f 65//65 66//66 64//64 
f 64//64 66//66 64//64 
f 66//66 67//67 64//64 
f 64//64 67//67 64//64 
f 67//67 68//68 64//64 
f 64//64 68//68 69//69 
f 68//68 70//70 69//69 
f 69//69 70//70 69//69 
f 70//70 71//71 69//69 
f 69//69 71//71 69//69 
f 71//71 72//72 69//69 
f 69//69 72//72 69//69 
f 72//72 73//73 69//69 
f 69//69 73//73 69//69 
f 73//73 74//74 69//69 
f 69//69 74//74 69//69 
f 74//74 75//75 69//69 
f 69//69 75//75 69//69 
f 75//75 76//76 69//69 
f 69//69 76//76 69//69 
f 76//76 77//77 69//69 
f 69//69 77//77 69//69 
f 77//77 78//78 69//69 
f 69//69 78//78 69//69 
f 78//78 79//79 69//69 
f 69//69 79//79 80//80 
f 79//79 81//81 80//80 
f 80//80 81//81 80//80 
f 81//81 82//82 80//80 
f 80//80 82//82 80//80 
f 82//82 83//83 80//80 
f 80//80 83//83 80//80 
f 83//83 84//84 80//80 
f 80//80 84//84 80//80 
f 84//84 85//85 80//80 
f 80//80 85//85 86//86 
f 85//85 85//85 86//86 
f 86//86 85//85 87//87 
f 85//85 88//88 87//87 
f 87//87 88//88 89//89 
f 88//88 88//88 89//89 
f 89//89 88//88 90//90 
f 88//88 88//88 90//90 
f 90//90 88//88 91//91 
f 88//88 92//92 91//91 
f 91//91 92//92 91//91 
f 92//92 93//93 91//91 
f 91//91 93//93 94//94 
f 93//93 95//95 94//94 
f 94//94 95//95 94//94 
f 95//95 96//96 94//94 
f 94//94 96//96 94//94 
f 96//96 97//97 94//94 
f 94//94 97//97 94//94 
f 97//97 98//98 94//94 
f 94//94 98//98 94//94 
f 98//98 99//99 94//94 
f 94//94 99//99 94//94 
f 99//99 100//100 94//94 
f 94//94 100//100 94//94 
f 100//100 101//101 94//94 
f 94//94 101//101 94//94 
f 101//101 102//102 94//94 
f 94//94 102//102 94//94 
f 102//102 103//103 94//94 
f 94//94 103//103 94//94 
f 103//103 104//104 94//94 
f 94//94 104//104 94//94 
f 104//104 105//105 94//94 
f 94//94 105//105 94//94 
f 105//105 106//106 94//94 
f 94//94 106//106 94//94 
f 106//106 107//107 94//94 
f 94//94 107//107 94//94 
f 107//107 108//108 94//94 
f 94//94 108//108 94//94 
f 108//108 109//109 94//94 
f 94//94 109//109 94//94 
f 109//109 110//110 94//94 
f 94//94 110//110 111//111 
f 110//110 112//112 111//111 
f 111//111 112//112 111//111 
f 112//112 113//113 111//111 
f 111//111 113//113 114//114 
f 113//113 115//115 114//114 
f 114//114 115//115 116//116 

