mtllib model_32.mtl
o model_32
v 31.1033992767334 -1.6225500106811523 -10.62399959564209 
v 31.460060119628906 -1.5829159021377563 -10.62399959564209 
v 30.851640701293945 -1.5638327598571777 -10.62399959564209 
v 30.620859146118164 -1.4126360416412354 -10.62399959564209 
v 30.411060333251953 -1.2041898965835571 -10.62399959564209 
v 31.77475929260254 -1.469885230064392 -10.62399959564209 
v 32.04750061035156 -1.292265772819519 -10.62399959564209 
v 32.27827835083008 -1.0588648319244385 -10.62399959564209 
v 30.20125961303711 -0.9751928448677063 -10.62399959564209 
v 32.467098236083984 -0.779958188533783 -10.62399959564209 
v 32.571998596191406 -0.4643532335758209 -10.62399959564209 
v 32.61396026611328 -0.11938968300819397 -10.62399959564209 
v 32.571998596191406 0.22410593926906586 -10.62399959564209 
v 32.467098236083984 0.5397108793258667 -10.62399959564209 
v 32.27827835083008 0.818617582321167 -10.62399959564209 
v 32.04750061035156 1.052018404006958 -10.62399959564209 
v 31.77475929260254 1.2296379804611206 -10.62399959564209 
v 31.460060119628906 1.3426686525344849 -10.62399959564209 
v 30.03342056274414 -0.7608751058578491 -10.62399959564209 
v 31.1033992767334 1.3823027610778809 -10.62399959564209 
v 30.893600463867188 1.3470723628997803 -10.62399959564209 
v 30.70478057861328 1.254592776298523 -10.62399959564209 
v 30.515960693359375 1.1210111379623413 -10.62399959564209 
v 30.348119735717773 0.9639426469802856 -10.62399959564209 
v 30.180280685424805 0.7995344996452332 -10.62399959564209 
v 30.03342056274414 0.6454018354415894 -10.62399959564209 
v 29.886560440063477 -0.5964669585227966 -10.62399959564209 
v 29.90753936767578 0.5191598534584045 -10.62399959564209 
v 29.760679244995117 -0.5201345682144165 -10.62399959564209 
v -7.625679969787598 0.5191598534584045 -10.62399959564209 
v -7.478819847106934 -0.5201345682144165 -10.62399959564209 
v -7.604700088500977 -0.5964669585227966 -10.62399959564209 
v -7.751560211181641 -0.7608751058578491 -10.62399959564209 
v -7.751560211181641 0.6454018354415894 -10.62399959564209 
v -7.8984198570251465 0.7995344996452332 -10.62399959564209 
v -7.919400215148926 -0.9751928448677063 -10.62399959564209 
v -8.06626033782959 0.9639426469802856 -10.62399959564209 
v -8.129199981689453 -1.2041898965835571 -10.62399959564209 
v -8.234100341796875 1.1210111379623413 -10.62399959564209 
v -8.422920227050781 1.254592776298523 -10.62399959564209 
v -8.611740112304688 1.3470723628997803 -10.62399959564209 
v -8.821539878845215 1.3823027610778809 -10.62399959564209 
v -9.178199768066406 1.3426686525344849 -10.62399959564209 
v -9.492899894714355 1.2296379804611206 -10.62399959564209 
v -9.765640258789062 1.052018404006958 -10.62399959564209 
v -9.996419906616211 0.818617582321167 -10.62399959564209 
v -10.185239791870117 0.5397108793258667 -10.62399959564209 
v -10.290140151977539 0.22410593926906586 -10.62399959564209 
v -10.332099914550781 -0.11938968300819397 -10.62399959564209 
v -10.290140151977539 -0.4643532335758209 -10.62399959564209 
v -10.185239791870117 -0.779958188533783 -10.62399959564209 
v -9.996419906616211 -1.0588648319244385 -10.62399959564209 
v -9.765640258789062 -1.292265772819519 -10.62399959564209 
v -9.492899894714355 -1.469885230064392 -10.62399959564209 
v -9.178199768066406 -1.5829159021377563 -10.62399959564209 
v -8.33899974822998 -1.4126360416412354 -10.62399959564209 
v -8.821539878845215 -1.6225500106811523 -10.62399959564209 
v -8.569780349731445 -1.5638327598571777 -10.62399959564209 
vn 0 0 1 
vn 0 0 1 
vn 0 0 1 
vn 0 0 1 
vn 0 0 1 
vn 0 0 1 
vn 0 0 1 
vn 0 0 1 
vn 0 0 1 
vn 0 0 1 
vn 0 0 1 
vn 0 0 1 
vn 0 0 1 
vn 0 0 1 
vn 0 0 1 
vn 0 0 1 
vn 0 0 1 
vn 0 0 1 
vn 0 0 1 
vn 0 0 1 
vn 0 0 1 
vn 0 0 1 
vn 0 0 1 
vn 0 0 1 
vn 0 0 1 
vn 0 0 1 
vn 0 0 1 
vn 0 0 1 
vn 0 0 1 
vn 0 0 1 
vn 0 0 1 
vn 0 0 1 
vn 0 0 1 
vn 0 0 1 
vn 0 0 1 
vn 0 0 1 
vn 0 0 1 
vn 0 0 1 
vn 0 0 1 
vn 0 0 1 
vn 0 0 1 
vn 0 0 1 
vn 0 0 1 
vn 0 0 1 
vn 0 0 1 
vn 0 0 1 
vn 0 0 1 
vn 0 0 1 
vn 0 0 1 
vn 0 0 1 
vn 0 0 1 
vn 0 0 1 
vn 0 0 1 
vn 0 0 1 
vn 0 0 1 
vn 0 0 1 
vn 0 0 1 
vn 0 0 1 
s on 
f 1//1 2//2 3//3 
f 2//2 2//2 3//3 
f 3//3 2//2 4//4 
f 2//2 2//2 4//4 
f 4//4 2//2 5//5 
f 2//2 6//6 5//5 
f 5//5 6//6 5//5 
f 6//6 7//7 5//5 
f 5//5 7//7 5//5 
f 7//7 8//8 5//5 
f 5//5 8//8 9//9 
f 8//8 10//10 9//9 
f 9//9 10//10 9//9 
f 10//10 11//11 9//9 
f 9//9 11//11 9//9 
f 11//11 12//12 9//9 
f 9//9 12//12 9//9 
f 12//12 13//13 9//9 
f 9//9 13//13 9//9 
f 13//13 14//14 9//9 
f 9//9 14//14 9//9 
f 14//14 15//15 9//9 
f 9//9 15//15 9//9 
f 15//15 16//16 9//9 
f 9//9 16//16 9//9 
f 16//16 17//17 9//9 
f 9//9 17//17 9//9 
f 17//17 18//18 9//9 
f 9//9 18//18 19//19 
f 18//18 20//20 19//19 
f 19//19 20//20 19//19 
f 20//20 21//21 19//19 
f 19//19 21//21 19//19 
f 21//21 22//22 19//19 
f 19//19 22//22 19//19 
f 22//22 23//23 19//19 
f 19//19 23//23 19//19 
f 23//23 24//24 19//19 
f 19//19 24//24 19//19 
f 24//24 25//25 19//19 
f 19//19 25//25 19//19 
f 25//25 26//26 19//19 
f 19//19 26//26 27//27 
f 26//26 28//28 27//27 
f 27//27 28//28 29//29 
f 28//28 30//30 29//29 
f 29//29 30//30 31//31 
f 30//30 30//30 31//31 
f 31//31 30//30 32//32 
f 30//30 30//30 32//32 
f 32//32 30//30 33//33 
f 30//30 34//34 33//33 
f 33//33 34//34 33//33 
f 34//34 35//35 33//33 
f 33//33 35//35 36//36 
f 35//35 37//37 36//36 
f 36//36 37//37 38//38 
f 37//37 39//39 38//38 
f 38//38 39//39 38//38 
f 39//39 40//40 38//38 
f 38//38 40//40 38//38 
f 40//40 41//41 38//38 
f 38//38 41//41 38//38 
f 41//41 42//42 38//38 
f 38//38 42//42 38//38 
f 42//42 43//43 38//38 
f 38//38 43//43 38//38 
f 43//43 44//44 38//38 
f 38//38 44//44 38//38 
f 44//44 45//45 38//38 
f 38//38 45//45 38//38 
f 45//45 46//46 38//38 
f 38//38 46//46 38//38 
f 46//46 47//47 38//38 
f 38//38 47//47 38//38 
f 47//47 48//48 38//38 
f 38//38 48//48 38//38 
f 48//48 49//49 38//38 
f 38//38 49//49 38//38 
f 49//49 50//50 38//38 
f 38//38 50//50 38//38 
f 50//50 51//51 38//38 
f 38//38 51//51 38//38 
f 51//51 52//52 38//38 
f 38//38 52//52 38//38 
f 52//52 53//53 38//38 
f 38//38 53//53 38//38 
f 53//53 54//54 38//38 
f 38//38 54//54 38//38 
f 54//54 55//55 38//38 
f 38//38 55//55 56//56 
f 55//55 57//57 56//56 
f 56//56 57//57 58//58 

