mtllib model_10.mtl
o model_10
v -4.962826728820801 -1.6225700378417969 -2.1115000858884514e-9 
v -4.618042945861816 -1.5829359292984009 -2.1115000858884514e-9 
v -5.211836814880371 -1.5638527870178223 -2.1115000858884514e-9 
v -5.45127010345459 -1.4126560688018799 -2.1115000858884514e-9 
v -5.671548366546631 -1.2042099237442017 -2.1115000858884514e-9 
v -4.3019914627075195 -1.4699052572250366 -2.1115000858884514e-9 
v -4.02424955368042 -1.2922857999801636 -2.1115000858884514e-9 
v -3.794393539428711 -1.058884859085083 -2.1115000858884514e-9 
v -5.872672080993652 -0.9752128720283508 -2.1115000858884514e-9 
v -3.612424612045288 -0.7799781560897827 -2.1115000858884514e-9 
v -3.5070741176605225 -0.46437323093414307 -2.1115000858884514e-9 
v -3.4591875076293945 -0.11940968036651611 -2.1115000858884514e-9 
v -3.5070741176605225 0.2240859419107437 -2.1115000858884514e-9 
v -3.612424612045288 0.5396909117698669 -2.1115000858884514e-9 
v -3.794393539428711 0.8185976147651672 -2.1115000858884514e-9 
v -4.02424955368042 1.051998496055603 -2.1115000858884514e-9 
v -4.3019914627075195 1.229617953300476 -2.1115000858884514e-9 
v -4.618042945861816 1.3426486253738403 -2.1115000858884514e-9 
v -6.0450639724731445 -0.7608950734138489 -2.1115000858884514e-9 
v -4.962826728820801 1.3822827339172363 -2.1115000858884514e-9 
v -5.173527717590332 1.3470523357391357 -2.1115000858884514e-9 
v -5.3746514320373535 1.2545727491378784 -2.1115000858884514e-9 
v -5.5566205978393555 1.1209911108016968 -2.1115000858884514e-9 
v -5.738589763641357 0.9639226794242859 -2.1115000858884514e-9 
v -5.901403903961182 0.7995144724845886 -2.1115000858884514e-9 
v -6.0450639724731445 0.6453818678855896 -2.1115000858884514e-9 
v -6.198300838470459 -0.5964869260787964 -2.1115000858884514e-9 
v -6.16956901550293 0.5191398859024048 -2.1115000858884514e-9 
v -6.322806358337402 -0.520154595375061 -2.1115000858884514e-9 
v -29.07851791381836 0.5191398859024048 -1.2111500247158347e-8 
v -28.934858322143555 -0.520154595375061 7.888499631292234e-9 
v -29.049785614013672 -0.5964869260787964 7.888499631292234e-9 
v -29.20302391052246 -0.7608950734138489 7.888499631292234e-9 
v -29.212600708007812 0.6453818678855896 -1.2111500247158347e-8 
v -29.356260299682617 0.7995144724845886 -1.2111500247158347e-8 
v -29.375415802001953 -0.9752128720283508 7.888499631292234e-9 
v -29.519075393676758 0.9639226794242859 -1.2111500247158347e-8 
v -29.576539993286133 -1.2042099237442017 7.888499631292234e-9 
v -29.69146728515625 1.1209911108016968 -2.1115000858884514e-9 
v -29.883012771606445 1.2545727491378784 -2.1115000858884514e-9 
v -30.074560165405273 1.3470523357391357 -2.1115000858884514e-9 
v -30.285261154174805 1.3822827339172363 -2.1115000858884514e-9 
v -30.63004493713379 1.3426486253738403 -2.1115000858884514e-9 
v -30.946096420288086 1.229617953300476 -2.1115000858884514e-9 
v -31.223838806152344 1.051998496055603 -2.1115000858884514e-9 
v -31.46327018737793 0.8185976147651672 -2.1115000858884514e-9 
v -31.635662078857422 0.5396909117698669 -2.1115000858884514e-9 
v -31.750591278076172 0.2240859419107437 -2.1115000858884514e-9 
v -31.78890037536621 -0.11940968036651611 -2.1115000858884514e-9 
v -31.750591278076172 -0.46437323093414307 -2.1115000858884514e-9 
v -31.635662078857422 -0.7799781560897827 -2.1115000858884514e-9 
v -31.46327018737793 -1.058884859085083 -2.1115000858884514e-9 
v -31.223838806152344 -1.2922857999801636 -2.1115000858884514e-9 
v -30.946096420288086 -1.4699052572250366 -2.1115000858884514e-9 
v -30.63004493713379 -1.5829359292984009 -2.1115000858884514e-9 
v -29.796817779541016 -1.4126560688018799 -2.1115000858884514e-9 
v -30.285261154174805 -1.6225700378417969 -2.1115000858884514e-9 
v -30.036251068115234 -1.5638527870178223 -2.1115000858884514e-9 
vn 0 0 1 
vn 0 0 1 
vn 0 0 1 
vn 0 0 1 
vn 0 0 1 
vn 0 0 1 
vn 0 0 1 
vn 0 0 1 
vn 0 0 1 
vn 0 0 1 
vn 0 0 1 
vn 0 0 1 
vn 0 0 1 
vn 0 0 1 
vn 0 0 1 
vn 0 0 1 
vn 0 0 1 
vn 0 0 1 
vn 0 0 1 
vn 0 0 1 
vn 0 0 1 
vn 0 0 1 
vn 0 0 1 
vn 0 0 1 
vn 0 0 1 
vn 0 0 1 
vn 0 0 1 
vn 0 0 1 
vn 0 0 1 
vn 0 0 1 
vn 0 0 1 
vn 0 0 1 
vn 0 0 1 
vn 0 0 1 
vn 0 0 1 
vn 0 0 1 
vn 0 0 1 
vn 0 0 1 
vn 0 0 1 
vn 0 0 1 
vn 0 0 1 
vn 0 0 1 
vn 0 0 1 
vn 0 0 1 
vn 0 0 1 
vn 0 0 1 
vn 0 0 1 
vn 0 0 1 
vn 0 0 1 
vn 0 0 1 
vn 0 0 1 
vn 0 0 1 
vn 0 0 1 
vn 0 0 1 
vn 0 0 1 
vn 0 0 1 
vn 0 0 1 
vn 0 0 1 
s on 
f 1//1 2//2 3//3 
f 2//2 2//2 3//3 
f 3//3 2//2 4//4 
f 2//2 2//2 4//4 
f 4//4 2//2 5//5 
f 2//2 6//6 5//5 
f 5//5 6//6 5//5 
f 6//6 7//7 5//5 
f 5//5 7//7 5//5 
f 7//7 8//8 5//5 
f 5//5 8//8 9//9 
f 8//8 10//10 9//9 
f 9//9 10//10 9//9 
f 10//10 11//11 9//9 
f 9//9 11//11 9//9 
f 11//11 12//12 9//9 
f 9//9 12//12 9//9 
f 12//12 13//13 9//9 
f 9//9 13//13 9//9 
f 13//13 14//14 9//9 
f 9//9 14//14 9//9 
f 14//14 15//15 9//9 
f 9//9 15//15 9//9 
f 15//15 16//16 9//9 
f 9//9 16//16 9//9 
f 16//16 17//17 9//9 
f 9//9 17//17 9//9 
f 17//17 18//18 9//9 
f 9//9 18//18 19//19 
f 18//18 20//20 19//19 
f 19//19 20//20 19//19 
f 20//20 21//21 19//19 
f 19//19 21//21 19//19 
f 21//21 22//22 19//19 
f 19//19 22//22 19//19 
f 22//22 23//23 19//19 
f 19//19 23//23 19//19 
f 23//23 24//24 19//19 
f 19//19 24//24 19//19 
f 24//24 25//25 19//19 
f 19//19 25//25 19//19 
f 25//25 26//26 19//19 
f 19//19 26//26 27//27 
f 26//26 28//28 27//27 
f 27//27 28//28 29//29 
f 28//28 30//30 29//29 
f 29//29 30//30 31//31 
f 30//30 30//30 31//31 
f 31//31 30//30 32//32 
f 30//30 30//30 32//32 
f 32//32 30//30 33//33 
f 30//30 34//34 33//33 
f 33//33 34//34 33//33 
f 34//34 35//35 33//33 
f 33//33 35//35 36//36 
f 35//35 37//37 36//36 
f 36//36 37//37 38//38 
f 37//37 39//39 38//38 
f 38//38 39//39 38//38 
f 39//39 40//40 38//38 
f 38//38 40//40 38//38 
f 40//40 41//41 38//38 
f 38//38 41//41 38//38 
f 41//41 42//42 38//38 
f 38//38 42//42 38//38 
f 42//42 43//43 38//38 
f 38//38 43//43 38//38 
f 43//43 44//44 38//38 
f 38//38 44//44 38//38 
f 44//44 45//45 38//38 
f 38//38 45//45 38//38 
f 45//45 46//46 38//38 
f 38//38 46//46 38//38 
f 46//46 47//47 38//38 
f 38//38 47//47 38//38 
f 47//47 48//48 38//38 
f 38//38 48//48 38//38 
f 48//48 49//49 38//38 
f 38//38 49//49 38//38 
f 49//49 50//50 38//38 
f 38//38 50//50 38//38 
f 50//50 51//51 38//38 
f 38//38 51//51 38//38 
f 51//51 52//52 38//38 
f 38//38 52//52 38//38 
f 52//52 53//53 38//38 
f 38//38 53//53 38//38 
f 53//53 54//54 38//38 
f 38//38 54//54 38//38 
f 54//54 55//55 38//38 
f 38//38 55//55 56//56 
f 55//55 57//57 56//56 
f 56//56 57//57 58//58 

