mtllib model_34.mtl
o model_34
v 31.11311912536621 -1.6225700378417969 4.99880004056763e-9 
v 31.45486831665039 -1.5829359292984009 4.99880004056763e-9 
v 30.86457633972168 -1.5638527870178223 4.99880004056763e-9 
v 30.626388549804688 -1.4126560688018799 4.99880004056763e-9 
v 30.408912658691406 -1.2042099237442017 4.99880004056763e-9 
v 31.775903701782227 -1.4699052572250366 4.99880004056763e-9 
v 32.05551528930664 -1.2922857999801636 4.99880004056763e-9 
v 32.283348083496094 -1.058884859085083 4.99880004056763e-9 
v 30.201791763305664 -0.9752128720283508 4.99880004056763e-9 
v 32.45940017700195 -0.7799781560897827 4.99880004056763e-9 
v 32.57331466674805 -0.46437323093414307 4.99880004056763e-9 
v 32.61473846435547 -0.11940968036651611 4.99880004056763e-9 
v 32.57331466674805 0.2240859419107437 4.99880004056763e-9 
v 32.45940017700195 0.5396909117698669 4.99880004056763e-9 
v 32.283348083496094 0.8185976147651672 4.99880004056763e-9 
v 32.05551528930664 1.051998496055603 4.99880004056763e-9 
v 31.775903701782227 1.229617953300476 4.99880004056763e-9 
v 31.45486831665039 1.3426486253738403 4.99880004056763e-9 
v 30.025739669799805 -0.7608950734138489 4.99880004056763e-9 
v 31.11311912536621 1.3822827339172363 4.99880004056763e-9 
v 30.9060001373291 1.3470523357391357 -5.00119989865766e-9 
v 30.70923614501953 1.2545727491378784 -5.00119989865766e-9 
v 30.51247215270996 1.1209911108016968 -5.00119989865766e-9 
v 30.3364200592041 0.9639226794242859 -5.00119989865766e-9 
v 30.181079864501953 0.7995144724845886 -1.500120028197216e-8 
v 30.036096572875977 0.6453818678855896 -1.500120028197216e-8 
v 29.880756378173828 -0.5964869260787964 1.499880042388213e-8 
v 29.911823272705078 0.5191398859024048 -1.500120028197216e-8 
v 29.75648307800293 -0.520154595375061 1.499880042388213e-8 
v -11.698583602905273 0.5191398859024048 4.99880004056763e-9 
v -11.543244361877441 -0.520154595375061 4.99880004056763e-9 
v -11.667515754699707 -0.5964869260787964 4.99880004056763e-9 
v -11.8125 -0.7608950734138489 4.99880004056763e-9 
v -11.822855949401855 0.6453818678855896 4.99880004056763e-9 
v -11.967840194702148 0.7995144724845886 4.99880004056763e-9 
v -11.98855209350586 -0.9752128720283508 4.99880004056763e-9 
v -12.133536338806152 0.9639226794242859 4.99880004056763e-9 
v -12.195672035217285 -1.2042099237442017 4.99880004056763e-9 
v -12.29923152923584 1.1209911108016968 4.99880004056763e-9 
v -12.495996475219727 1.2545727491378784 4.99880004056763e-9 
v -12.692760467529297 1.3470523357391357 4.99880004056763e-9 
v -12.899880409240723 1.3822827339172363 4.99880004056763e-9 
v -13.24162769317627 1.3426486253738403 4.99880004056763e-9 
v -13.562664031982422 1.229617953300476 4.99880004056763e-9 
v -13.842275619506836 1.051998496055603 4.99880004056763e-9 
v -14.070108413696289 0.8185976147651672 4.99880004056763e-9 
v -14.246159553527832 0.5396909117698669 4.99880004056763e-9 
v -14.360075950622559 0.2240859419107437 4.99880004056763e-9 
v -14.40149974822998 -0.11940968036651611 4.99880004056763e-9 
v -14.360075950622559 -0.46437323093414307 4.99880004056763e-9 
v -14.246159553527832 -0.7799781560897827 4.99880004056763e-9 
v -14.070108413696289 -1.058884859085083 4.99880004056763e-9 
v -13.842275619506836 -1.2922857999801636 4.99880004056763e-9 
v -13.562664031982422 -1.4699052572250366 4.99880004056763e-9 
v -13.24162769317627 -1.5829359292984009 4.99880004056763e-9 
v -12.413147926330566 -1.4126560688018799 4.99880004056763e-9 
v -12.899880409240723 -1.6225700378417969 4.99880004056763e-9 
v -12.651335716247559 -1.5638527870178223 4.99880004056763e-9 
vn 0 0 1 
vn 0 0 1 
vn 0 0 1 
vn 0 0 1 
vn 0 0 1 
vn 0 0 1 
vn 0 0 1 
vn 0 0 1 
vn 0 0 1 
vn 0 0 1 
vn 0 0 1 
vn 0 0 1 
vn 0 0 1 
vn 0 0 1 
vn 0 0 1 
vn 0 0 1 
vn 0 0 1 
vn 0 0 1 
vn 0 0 1 
vn 0 0 1 
vn 0 0 1 
vn 0 0 1 
vn 0 0 1 
vn 0 0 1 
vn 0 0 1 
vn 0 0 1 
vn 0 0 1 
vn 0 0 1 
vn 0 0 1 
vn 0 0 1 
vn 0 0 1 
vn 0 0 1 
vn 0 0 1 
vn 0 0 1 
vn 0 0 1 
vn 0 0 1 
vn 0 0 1 
vn 0 0 1 
vn 0 0 1 
vn 0 0 1 
vn 0 0 1 
vn 0 0 1 
vn 0 0 1 
vn 0 0 1 
vn 0 0 1 
vn 0 0 1 
vn 0 0 1 
vn 0 0 1 
vn 0 0 1 
vn 0 0 1 
vn 0 0 1 
vn 0 0 1 
vn 0 0 1 
vn 0 0 1 
vn 0 0 1 
vn 0 0 1 
vn 0 0 1 
vn 0 0 1 
s on 
f 1//1 2//2 3//3 
f 2//2 2//2 3//3 
f 3//3 2//2 4//4 
f 2//2 2//2 4//4 
f 4//4 2//2 5//5 
f 2//2 6//6 5//5 
f 5//5 6//6 5//5 
f 6//6 7//7 5//5 
f 5//5 7//7 5//5 
f 7//7 8//8 5//5 
f 5//5 8//8 9//9 
f 8//8 10//10 9//9 
f 9//9 10//10 9//9 
f 10//10 11//11 9//9 
f 9//9 11//11 9//9 
f 11//11 12//12 9//9 
f 9//9 12//12 9//9 
f 12//12 13//13 9//9 
f 9//9 13//13 9//9 
f 13//13 14//14 9//9 
f 9//9 14//14 9//9 
f 14//14 15//15 9//9 
f 9//9 15//15 9//9 
f 15//15 16//16 9//9 
f 9//9 16//16 9//9 
f 16//16 17//17 9//9 
f 9//9 17//17 9//9 
f 17//17 18//18 9//9 
f 9//9 18//18 19//19 
f 18//18 20//20 19//19 
f 19//19 20//20 19//19 
f 20//20 21//21 19//19 
f 19//19 21//21 19//19 
f 21//21 22//22 19//19 
f 19//19 22//22 19//19 
f 22//22 23//23 19//19 
f 19//19 23//23 19//19 
f 23//23 24//24 19//19 
f 19//19 24//24 19//19 
f 24//24 25//25 19//19 
f 19//19 25//25 19//19 
f 25//25 26//26 19//19 
f 19//19 26//26 27//27 
f 26//26 28//28 27//27 
f 27//27 28//28 29//29 
f 28//28 30//30 29//29 
f 29//29 30//30 31//31 
f 30//30 30//30 31//31 
f 31//31 30//30 32//32 
f 30//30 30//30 32//32 
f 32//32 30//30 33//33 
f 30//30 34//34 33//33 
f 33//33 34//34 33//33 
f 34//34 35//35 33//33 
f 33//33 35//35 36//36 
f 35//35 37//37 36//36 
f 36//36 37//37 38//38 
f 37//37 39//39 38//38 
f 38//38 39//39 38//38 
f 39//39 40//40 38//38 
f 38//38 40//40 38//38 
f 40//40 41//41 38//38 
f 38//38 41//41 38//38 
f 41//41 42//42 38//38 
f 38//38 42//42 38//38 
f 42//42 43//43 38//38 
f 38//38 43//43 38//38 
f 43//43 44//44 38//38 
f 38//38 44//44 38//38 
f 44//44 45//45 38//38 
f 38//38 45//45 38//38 
f 45//45 46//46 38//38 
f 38//38 46//46 38//38 
f 46//46 47//47 38//38 
f 38//38 47//47 38//38 
f 47//47 48//48 38//38 
f 38//38 48//48 38//38 
f 48//48 49//49 38//38 
f 38//38 49//49 38//38 
f 49//49 50//50 38//38 
f 38//38 50//50 38//38 
f 50//50 51//51 38//38 
f 38//38 51//51 38//38 
f 51//51 52//52 38//38 
f 38//38 52//52 38//38 
f 52//52 53//53 38//38 
f 38//38 53//53 38//38 
f 53//53 54//54 38//38 
f 38//38 54//54 38//38 
f 54//54 55//55 38//38 
f 38//38 55//55 56//56 
f 55//55 57//57 56//56 
f 56//56 57//57 58//58 

