mtllib model_4.mtl
o model_4
v -18.026880264282227 9.202265739440918 -1.0416799783706665 
v -17.998489379882812 9.202265739440918 -0.9598966836929321 
v -18.026880264282227 9.111490249633789 -1.0416799783706665 
v -17.998489379882812 9.111490249633789 -0.9598966836929321 
v -18.026880264282227 8.148240089416504 -0.07156170159578323 
v -17.998489379882812 8.230023384094238 -0.07156170159578323 
v -18.026880264282227 8.148240089416504 0.019214456900954247 
v -17.998489379882812 8.230023384094238 0.019214456900954247 
vn 0.9402724504470825 0 -0.34042292833328247 
vn 0.9402724504470825 0 -0.34042292833328247 
vn 0.9402724504470825 0 -0.34042292833328247 
vn 0.9402724504470825 0 -0.34042292833328247 
vn 0.940263032913208 -0.34044185280799866 0.002184694167226553 
vn 0.940263032913208 -0.34044185280799866 0.002184694167226553 
vn 0.940263032913208 -0.34044185280799866 0.002184694167226553 
vn 0.940263032913208 -0.34044185280799866 0.002184694167226553 
s on 
f 1//1 2//2 3//3 
f 2//2 4//4 3//3 
f 3//3 4//4 4//4 
f 4//4 5//5 4//4 
f 4//4 5//5 5//5 
f 5//5 6//6 5//5 
f 5//5 6//6 7//7 
f 6//6 8//8 7//7 

