mtllib model_31.mtl
o model_31
v -25.523099899291992 18.783700942993164 0.005593313369899988 
v -24.843652725219727 18.783700942993164 0.005593313369899988 
v -25.523099899291992 19.426422119140625 0.005593313369899988 
v -24.843652725219727 19.426422119140625 0.005593313369899988 
v -25.523099899291992 19.426422119140625 -0.00023744700592942536 
v -24.843652725219727 19.426422119140625 -0.00023744700592942536 
v -25.523099899291992 18.783700942993164 -0.00023744700592942536 
v -24.843652725219727 18.783700942993164 -0.00023744700592942536 
vn 0 0 1 
vn 0 0 1 
vn 0 0 1 
vn 0 0 1 
vn -2.0682311115474694e-13 0 -1 
vn -2.0682311115474694e-13 0 -1 
vn -2.0682311115474694e-13 0 -1 
vn -2.0682311115474694e-13 0 -1 
vt 0 0 
vt 1.0000005960464478 0 
vt 0 1.0000005960464478 
vt 1.0000005960464478 1.0000005960464478 
vt 0 1.0000005960464478 
vt 1.0000005960464478 1.0000005960464478 
vt 0 0 
vt 1.0000005960464478 0 
s on 
f 1/1/1 2/2/2 3/3/3 
f 2/2/2 4/4/4 3/3/3 
f 3/3/3 4/4/4 4/4/4 
f 4/4/4 5/5/5 4/4/4 
f 4/4/4 5/5/5 5/5/5 
f 5/5/5 6/6/6 5/5/5 
f 5/5/5 6/6/6 7/7/7 
f 6/6/6 8/8/8 7/7/7 

