mtllib model_7.mtl
o model_7
v -3.167332887649536 7.590390205383301 0.6975018382072449 
v -3.167332887649536 7.880366325378418 0.6975018382072449 
v -4.874340057373047 7.590390205383301 0.6975018382072449 
v -4.874340057373047 7.880366325378418 0.6975018382072449 
v -4.874340057373047 7.590390205383301 0.6850339770317078 
v -4.874340057373047 7.880366325378418 0.6850339770317078 
v -3.167332887649536 7.590390205383301 0.6850339770317078 
v -3.167332887649536 7.880366325378418 0.6850339770317078 
vn 0 0 1 
vn 0 0 1 
vn 0 0 1 
vn 0 0 1 
vn -2.0682311115474694e-13 0 -1 
vn -2.0682311115474694e-13 0 -1 
vn -2.0682311115474694e-13 0 -1 
vn -2.0682311115474694e-13 0 -1 
vt 1.0000005960464478 0.43211498856544495 
vt 1.0000005960464478 0.5558556914329529 
vt 0 0.43211498856544495 
vt 0 0.5558556914329529 
vt 0 0.43211498856544495 
vt 0 0.5558556914329529 
vt 1.0000005960464478 0.43211498856544495 
vt 1.0000005960464478 0.5558556914329529 
s on 
f 1/1/1 2/2/2 3/3/3 
f 2/2/2 4/4/4 3/3/3 
f 3/3/3 4/4/4 4/4/4 
f 4/4/4 5/5/5 4/4/4 
f 4/4/4 5/5/5 5/5/5 
f 5/5/5 6/6/6 5/5/5 
f 5/5/5 6/6/6 7/7/7 
f 6/6/6 8/8/8 7/7/7 

