mtllib model_12.mtl
o model_12
v -3.7957630157470703 11.095999717712402 0.6652358770370483 
v -3.7957630157470703 11.512650489807129 0.6652358770370483 
v -5.502769947052002 11.095999717712402 0.6652358770370483 
v -5.502769947052002 11.512650489807129 0.6652358770370483 
v -5.502769947052002 11.095999717712402 0.6527680158615112 
v -5.502769947052002 11.512650489807129 0.6527680158615112 
v -3.7957630157470703 11.095999717712402 0.6527680158615112 
v -3.7957630157470703 11.512650489807129 0.6527680158615112 
vn 0 0 1 
vn 0 0 1 
vn 0 0 1 
vn 0 0 1 
vn -2.0682311115474694e-13 0 -1 
vn -2.0682311115474694e-13 0 -1 
vn -2.0682311115474694e-13 0 -1 
vn -2.0682311115474694e-13 0 -1 
vt 1.0000005960464478 0.42557400465011597 
vt 1.0000005960464478 0.6362060308456421 
vt 0 0.42557400465011597 
vt 0 0.6362060308456421 
vt 0 0.42557400465011597 
vt 0 0.6362060308456421 
vt 1.0000005960464478 0.42557400465011597 
vt 1.0000005960464478 0.6362060308456421 
s on 
f 1/1/1 2/2/2 3/3/3 
f 2/2/2 4/4/4 3/3/3 
f 3/3/3 4/4/4 4/4/4 
f 4/4/4 5/5/5 4/4/4 
f 4/4/4 5/5/5 5/5/5 
f 5/5/5 6/6/6 5/5/5 
f 5/5/5 6/6/6 7/7/7 
f 6/6/6 8/8/8 7/7/7 

