mtllib model_4.mtl
o model_4
v -0.12132114917039871 9.824131965637207 0.7072513103485107 
v -0.10871729254722595 9.825234413146973 0.7040619850158691 
v -0.10871729254722595 9.817087173461914 0.7279102802276611 
v -0.09613806009292603 9.824131965637207 0.7072513103485107 
v -0.12132114917039871 9.810042381286621 0.7485455274581909 
v -0.10871729254722595 9.817087173461914 0.7279102802276611 
v -0.10871729254722595 9.808939933776855 0.7517585754394531 
v -0.09613806009292603 9.810042381286621 0.7485455274581909 
v -0.12132114917039871 9.812678337097168 0.7495927214622498 
v -0.10871729254722595 9.811575889587402 0.7527820467948914 
v -0.10871729254722595 9.8200101852417 0.729052722454071 
v -0.09613806009292603 9.812678337097168 0.7495927214622498 
v -0.08690672367811203 9.81579303741455 0.7409054636955261 
v -0.12132114917039871 9.82729434967041 0.708488941192627 
v -0.10871729254722595 9.8200101852417 0.729052722454071 
v -0.10871729254722595 9.828444480895996 0.7053234577178955 
v -0.09613806009292603 9.82729434967041 0.708488941192627 
v -0.08353420346975327 9.817134857177734 0.7279102802276611 
v -0.08690672367811203 9.813061714172363 0.7398106455802917 
v -0.10871729254722595 9.817087173461914 0.7279102802276611 
v -0.08690672367811203 9.821112632751465 0.7159861326217651 
v -0.08353420346975327 9.817134857177734 0.7279102802276611 
v -0.10871729254722595 9.817087173461914 0.7279102802276611 
v -0.09613806009292603 9.824131965637207 0.7072513103485107 
v -0.08690672367811203 9.821112632751465 0.7159861326217651 
v -0.10871729254722595 9.817087173461914 0.7279102802276611 
v -0.1305524855852127 9.821112632751465 0.7159861326217651 
v -0.12132114917039871 9.824131965637207 0.7072513103485107 
v -0.10871729254722595 9.817087173461914 0.7279102802276611 
v -0.13392500579357147 9.817134857177734 0.7279102802276611 
v -0.1305524855852127 9.821112632751465 0.7159861326217651 
v -0.10871729254722595 9.817087173461914 0.7279102802276611 
v -0.1305524855852127 9.813061714172363 0.7398106455802917 
v -0.13392500579357147 9.817134857177734 0.7279102802276611 
v -0.10871729254722595 9.817087173461914 0.7279102802276611 
v -0.12132114917039871 9.810042381286621 0.7485455274581909 
v -0.1305524855852127 9.813061714172363 0.7398106455802917 
v -0.10871729254722595 9.817087173461914 0.7279102802276611 
v -0.08690672367811203 9.81579303741455 0.7409054636955261 
v -0.08353420346975327 9.8200101852417 0.729052722454071 
v -0.10871729254722595 9.8200101852417 0.729052722454071 
v -0.08353420346975327 9.8200101852417 0.729052722454071 
v -0.08690672367811203 9.824227333068848 0.7171761989593506 
v -0.10871729254722595 9.8200101852417 0.729052722454071 
v -0.08690672367811203 9.824227333068848 0.7171761989593506 
v -0.09613806009292603 9.82729434967041 0.708488941192627 
v -0.10871729254722595 9.8200101852417 0.729052722454071 
v -0.12132114917039871 9.82729434967041 0.708488941192627 
v -0.1305524855852127 9.824227333068848 0.7171761989593506 
v -0.10871729254722595 9.8200101852417 0.729052722454071 
v -0.1305524855852127 9.824227333068848 0.7171761989593506 
v -0.13392500579357147 9.8200101852417 0.729052722454071 
v -0.10871729254722595 9.8200101852417 0.729052722454071 
v -0.13392500579357147 9.8200101852417 0.729052722454071 
v -0.1305524855852127 9.81579303741455 0.7409054636955261 
v -0.10871729254722595 9.8200101852417 0.729052722454071 
v -0.1305524855852127 9.81579303741455 0.7409054636955261 
v -0.12132114917039871 9.812678337097168 0.7495927214622498 
v -0.10871729254722595 9.8200101852417 0.729052722454071 
v -0.08690672367811203 9.813061714172363 0.7398106455802917 
vn 0.0056648822501301765 -0.9460613131523132 -0.3239381015300751 
vn -0.001888304017484188 -0.9460763931274414 -0.3239381015300751 
vn -0.001888304017484188 -0.9460763931274414 -0.3239381015300751 
vn -0.001888304017484188 -0.9460763931274414 -0.3239381015300751 
vn -0.001888304017484188 -0.9460763931274414 -0.3239381015300751 
vn -0.001888304017484188 -0.9460763931274414 -0.3239381015300751 
vn -0.001888304017484188 -0.9460763931274414 -0.3239381015300751 
vn -0.001888304017484188 -0.9460763931274414 -0.3239381015300751 
vn -9.738792481868777e-14 0.9417508840560913 0.3363112509250641 
vn -9.738792481868777e-14 0.9417508840560913 0.3363112509250641 
vn -9.738792481868777e-14 0.9417508840560913 0.3363112509250641 
vn -9.738792481868777e-14 0.9417508840560913 0.3363112509250641 
vn -9.738792481868777e-14 0.9417508840560913 0.3363112509250641 
vn -9.738792481868777e-14 0.9417508840560913 0.3363112509250641 
vn -9.738792481868777e-14 0.9417508840560913 0.3363112509250641 
vn -9.738792481868777e-14 0.9417508840560913 0.3363112509250641 
vn -9.738792481868777e-14 0.9417508840560913 0.3363112509250641 
vn -0.001888304017484188 -0.9460763931274414 -0.3239381015300751 
vn -0.001888304017484188 -0.9460763931274414 -0.3239381015300751 
vn -0.001888304017484188 -0.9460763931274414 -0.3239381015300751 
vn 2.935218257685279e-13 -0.9474846720695496 -0.3198012113571167 
vn 2.935218257685279e-13 -0.9474846720695496 -0.3198012113571167 
vn 2.935218257685279e-13 -0.9474846720695496 -0.3198012113571167 
vn -0.001888304017484188 -0.9460763931274414 -0.3239381015300751 
vn -0.001888304017484188 -0.9460763931274414 -0.3239381015300751 
vn -0.001888304017484188 -0.9460763931274414 -0.3239381015300751 
vn -0.001888304017484188 -0.9460763931274414 -0.3239381015300751 
vn -0.001888304017484188 -0.9460763931274414 -0.3239381015300751 
vn -0.001888304017484188 -0.9460763931274414 -0.3239381015300751 
vn 2.935218257685279e-13 -0.9474846720695496 -0.3198012113571167 
vn 2.935218257685279e-13 -0.9474846720695496 -0.3198012113571167 
vn 2.935218257685279e-13 -0.9474846720695496 -0.3198012113571167 
vn -0.001888304017484188 -0.9460763931274414 -0.3239381015300751 
vn -0.001888304017484188 -0.9460763931274414 -0.3239381015300751 
vn -0.001888304017484188 -0.9460763931274414 -0.3239381015300751 
vn -0.001888304017484188 -0.9460763931274414 -0.3239381015300751 
vn -0.001888304017484188 -0.9460763931274414 -0.3239381015300751 
vn -0.001888304017484188 -0.9460763931274414 -0.3239381015300751 
vn -9.738792481868777e-14 0.9417508840560913 0.3363112509250641 
vn -9.738792481868777e-14 0.9417508840560913 0.3363112509250641 
vn -9.738792481868777e-14 0.9417508840560913 0.3363112509250641 
vn 0.0018873782828450203 0.9432094693183899 0.33219319581985474 
vn 0.0018873782828450203 0.9432094693183899 0.33219319581985474 
vn 0.0018873782828450203 0.9432094693183899 0.33219319581985474 
vn 0.0018873782828450203 0.9432094693183899 0.33219319581985474 
vn 0.0018873782828450203 0.9432094693183899 0.33219319581985474 
vn 0.0018873782828450203 0.9432094693183899 0.33219319581985474 
vn 0.0018873782828450203 0.9432094693183899 0.33219319581985474 
vn 0.0018873782828450203 0.9432094693183899 0.33219319581985474 
vn 0.0018873782828450203 0.9432094693183899 0.33219319581985474 
vn 0.0018873782828450203 0.9432094693183899 0.33219319581985474 
vn 0.0018873782828450203 0.9432094693183899 0.33219319581985474 
vn 0.0018873782828450203 0.9432094693183899 0.33219319581985474 
vn -9.738792481868777e-14 0.9417508840560913 0.3363112509250641 
vn -9.738792481868777e-14 0.9417508840560913 0.3363112509250641 
vn -9.738792481868777e-14 0.9417508840560913 0.3363112509250641 
vn -9.738792481868777e-14 0.9417508840560913 0.3363112509250641 
vn -9.738792481868777e-14 0.9417508840560913 0.3363112509250641 
vn -9.738792481868777e-14 0.9417508840560913 0.3363112509250641 
vn -0.001888304017484188 -0.9460763931274414 -0.3239381015300751 
vt 0.25060227513313293 0.9189938902854919 
vt 0.49994951486587524 0.9613237380981445 
vt 0.49994951486587524 0.4930497109889984 
vt 0.7494136095046997 0.9209781289100647 
vt 0.26158571243286133 0.09113655239343643 
vt 0.49994951486587524 0.4930497109889984 
vt 0.49994951486587524 0.0711842030286789 
vt 0.7330552935600281 0.086286261677742 
vt 0.2608846426010132 0.09290029853582382 
vt 0.49994951486587524 0.07217630743980408 
vt 0.49994951486587524 0.4999944567680359 
vt 0.7336395382881165 0.08816023916006088 
vt 0.9064532518386841 0.2685030698776245 
vt 0.25001806020736694 0.9310094118118286 
vt 0.49994951486587524 0.4999944567680359 
vt 0.49994951486587524 0.9741109013557434 
vt 0.7499977946281433 0.9331038594245911 
vt 0.9769108295440674 0.4930497109889984 
vt 0.9052848219871521 0.2645346224308014 
vt 0.49994951486587524 0.4930497109889984 
vt 0.9319254755973816 0.7401943206787109 
vt 0.9769108295440674 0.4930497109889984 
vt 0.49994951486587524 0.4930497109889984 
vt 0.7494136095046997 0.9209781289100647 
vt 0.9319254755973816 0.7401943206787109 
vt 0.49994951486587524 0.4930497109889984 
vt 0.06470188498497009 0.7340212464332581 
vt 0.25060227513313293 0.9189938902854919 
vt 0.49994951486587524 0.4930497109889984 
vt 0.02240399457514286 0.4930497109889984 
vt 0.06470188498497009 0.7340212464332581 
vt 0.49994951486587524 0.4930497109889984 
vt 0.09811955690383911 0.2713691294193268 
vt 0.02240399457514286 0.4930497109889984 
vt 0.49994951486587524 0.4930497109889984 
vt 0.26158571243286133 0.09113655239343643 
vt 0.09811955690383911 0.2713691294193268 
vt 0.49994951486587524 0.4930497109889984 
vt 0.9064532518386841 0.2685030698776245 
vt 0.9781960844993591 0.5001046657562256 
vt 0.49994951486587524 0.4999944567680359 
vt 0.9781960844993591 0.5001046657562256 
vt 0.9329770803451538 0.7501153945922852 
vt 0.49994951486587524 0.4999944567680359 
vt 0.9329770803451538 0.7501153945922852 
vt 0.7499977946281433 0.9331038594245911 
vt 0.49994951486587524 0.4999944567680359 
vt 0.25001806020736694 0.9310094118118286 
vt 0.06353343278169632 0.7439423203468323 
vt 0.49994951486587524 0.4999944567680359 
vt 0.06353343278169632 0.7439423203468323 
vt 0.02111870050430298 0.5001046657562256 
vt 0.49994951486587524 0.4999944567680359 
vt 0.02111870050430298 0.5001046657562256 
vt 0.09695110470056534 0.2753375768661499 
vt 0.49994951486587524 0.4999944567680359 
vt 0.09695110470056534 0.2753375768661499 
vt 0.2608846426010132 0.09290029853582382 
vt 0.49994951486587524 0.4999944567680359 
vt 0.9052848219871521 0.2645346224308014 
s on 
f 1/1/1 2/2/2 3/3/3 
f 2/2/2 4/4/4 3/3/3 
f 3/3/3 4/4/4 4/4/4 
f 4/4/4 5/5/5 4/4/4 
f 4/4/4 5/5/5 5/5/5 
f 5/5/5 6/6/6 5/5/5 
f 5/5/5 6/6/6 7/7/7 
f 6/6/6 8/8/8 7/7/7 
f 7/7/7 8/8/8 8/8/8 
f 8/8/8 9/9/9 8/8/8 
f 8/8/8 9/9/9 9/9/9 
f 9/9/9 10/10/10 9/9/9 
f 9/9/9 10/10/10 11/11/11 
f 10/10/10 12/12/12 11/11/11 
f 11/11/11 12/12/12 13/13/13 
f 12/12/12 13/13/13 13/13/13 
f 13/13/13 13/13/13 14/14/14 
f 13/13/13 14/14/14 14/14/14 
f 14/14/14 14/14/14 14/14/14 
f 14/14/14 15/15/15 14/14/14 
f 14/14/14 15/15/15 16/16/16 
f 15/15/15 17/17/17 16/16/16 
f 18/18/18 19/19/19 20/20/20 
f 21/21/21 22/22/22 23/23/23 
f 24/24/24 25/25/25 26/26/26 
f 27/27/27 28/28/28 29/29/29 
f 30/30/30 31/31/31 32/32/32 
f 33/33/33 34/34/34 35/35/35 
f 36/36/36 37/37/37 38/38/38 
f 39/39/39 40/40/40 41/41/41 
f 42/42/42 43/43/43 44/44/44 
f 45/45/45 46/46/46 47/47/47 
f 48/48/48 49/49/49 50/50/50 
f 51/51/51 52/52/52 53/53/53 
f 54/54/54 55/55/55 56/56/56 
f 57/57/57 58/58/58 59/59/59 
f 60/60/60 8/8/8 6/6/6 

