mtllib model_11.mtl
o model_11
v -0.779902994632721 10.855199813842773 0.719871997833252 
v -0.779902994632721 11.370323181152344 0.719871997833252 
v -2.486910104751587 10.855199813842773 0.719871997833252 
v -2.486910104751587 11.370323181152344 0.719871997833252 
v -2.486910104751587 10.855199813842773 0.7074040174484253 
v -2.486910104751587 11.370323181152344 0.7074040174484253 
v -0.779902994632721 10.855199813842773 0.7074040174484253 
v -0.779902994632721 11.370323181152344 0.7074040174484253 
vn 0 0 1 
vn 0 0 1 
vn 0 0 1 
vn 0 0 1 
vn -2.0682311115474694e-13 0 -1 
vn -2.0682311115474694e-13 0 -1 
vn -2.0682311115474694e-13 0 -1 
vn -2.0682311115474694e-13 0 -1 
vt 1.0000005960464478 0.10573799908161163 
vt 1.0000005960464478 0.7718974351882935 
vt 0 0.10573799908161163 
vt 0 0.7718974351882935 
vt 0 0.10573799908161163 
vt 0 0.7718974351882935 
vt 1.0000005960464478 0.10573799908161163 
vt 1.0000005960464478 0.7718974351882935 
s on 
f 1/1/1 2/2/2 3/3/3 
f 2/2/2 4/4/4 3/3/3 
f 3/3/3 4/4/4 4/4/4 
f 4/4/4 5/5/5 4/4/4 
f 4/4/4 5/5/5 5/5/5 
f 5/5/5 6/6/6 5/5/5 
f 5/5/5 6/6/6 7/7/7 
f 6/6/6 8/8/8 7/7/7 

