mtllib model_13.mtl
o model_13
v 0.7408490180969238 11.437399864196777 0.7798929810523987 
v 0.7408490180969238 11.9058256149292 0.7798929810523987 
v -0.9661579728126526 11.437399864196777 0.7798929810523987 
v -0.9661579728126526 11.9058256149292 0.7798929810523987 
v -0.9661579728126526 11.437399864196777 0.767425000667572 
v -0.9661579728126526 11.9058256149292 0.767425000667572 
v 0.7408490180969238 11.437399864196777 0.767425000667572 
v 0.7408490180969238 11.9058256149292 0.767425000667572 
vn 0 0 1 
vn 0 0 1 
vn 0 0 1 
vn 0 0 1 
vn -2.0682311115474694e-13 0 -1 
vn -2.0682311115474694e-13 0 -1 
vn -2.0682311115474694e-13 0 -1 
vn -2.0682311115474694e-13 0 -1 
vt 1.0000005960464478 0.18911099433898926 
vt 1.0000005960464478 0.7948819398880005 
vt 0 0.18911099433898926 
vt 0 0.7948819398880005 
vt 0 0.18911099433898926 
vt 0 0.7948819398880005 
vt 1.0000005960464478 0.18911099433898926 
vt 1.0000005960464478 0.7948819398880005 
s on 
f 1/1/1 2/2/2 3/3/3 
f 2/2/2 4/4/4 3/3/3 
f 3/3/3 4/4/4 4/4/4 
f 4/4/4 5/5/5 4/4/4 
f 4/4/4 5/5/5 5/5/5 
f 5/5/5 6/6/6 5/5/5 
f 5/5/5 6/6/6 7/7/7 
f 6/6/6 8/8/8 7/7/7 

