mtllib model_9.mtl
o model_9
v -5.553102970123291 10.226699829101562 0.6348229646682739 
v -5.553102970123291 10.79554557800293 0.6348229646682739 
v -7.260109901428223 10.226699829101562 0.6348229646682739 
v -7.260109901428223 10.79554557800293 0.6348229646682739 
v -7.260109901428223 10.226699829101562 0.6223549842834473 
v -7.260109901428223 10.79554557800293 0.6223549842834473 
v -5.553102970123291 10.226699829101562 0.6223549842834473 
v -5.553102970123291 10.79554557800293 0.6223549842834473 
vn 0 0 1 
vn 0 0 1 
vn 0 0 1 
vn 0 0 1 
vn -2.0682311115474694e-13 0 -1 
vn -2.0682311115474694e-13 0 -1 
vn -2.0682311115474694e-13 0 -1 
vn -2.0682311115474694e-13 0 -1 
vt 1.0000005960464478 0.1458050012588501 
vt 1.0000005960464478 0.8814398050308228 
vt 0 0.1458050012588501 
vt 0 0.8814398050308228 
vt 0 0.1458050012588501 
vt 0 0.8814398050308228 
vt 1.0000005960464478 0.1458050012588501 
vt 1.0000005960464478 0.8814398050308228 
s on 
f 1/1/1 2/2/2 3/3/3 
f 2/2/2 4/4/4 3/3/3 
f 3/3/3 4/4/4 4/4/4 
f 4/4/4 5/5/5 4/4/4 
f 4/4/4 5/5/5 5/5/5 
f 5/5/5 6/6/6 5/5/5 
f 5/5/5 6/6/6 7/7/7 
f 6/6/6 8/8/8 7/7/7 

