mtllib model_8.mtl
o model_8
v 6.321817398071289 9.302878379821777 0.8851346373558044 
v 6.321817398071289 8.784219741821289 0.8851346373558044 
v 8.757943153381348 9.302878379821777 0.8851346373558044 
v 8.757943153381348 8.784219741821289 0.8851346373558044 
v 6.321817398071289 9.302878379821777 0.8275140523910522 
v 8.757943153381348 9.302878379821777 0.8275140523910522 
v 6.321817398071289 8.784219741821289 0.8275140523910522 
v 8.757943153381348 8.784219741821289 0.8275140523910522 
vn -0.003438421757891774 0 1.5738649368286133 
vn -0.003438421757891774 0 1.5738649368286133 
vn -0.003438421757891774 0 1.5738649368286133 
vn -0.003438421757891774 0 1.5738649368286133 
vn -0.003438421757891774 -3.255116445485817e-13 -1.5738649368286133 
vn -0.003438421757891774 -3.255116445485817e-13 -1.5738649368286133 
vn -0.003438421757891774 -3.255116445485817e-13 -1.5738649368286133 
vn -0.003438421757891774 -3.255116445485817e-13 -1.5738649368286133 
vt 0.025301700457930565 0.7007030844688416 
vt 0.025301700457930565 0.29240700602531433 
vt 0.974467933177948 0.7007030844688416 
vt 0.974467933177948 0.29240700602531433 
vt 0.025301700457930565 0.7007030844688416 
vt 0.974467933177948 0.7007030844688416 
vt 0.025301700457930565 0.29240700602531433 
vt 0.974467933177948 0.29240700602531433 
s on 
f 1/1/1 2/2/2 3/3/3 
f 2/2/2 4/4/4 3/3/3 
f 3/3/3 4/4/4 4/4/4 
f 4/4/4 5/5/5 4/4/4 
f 4/4/4 5/5/5 5/5/5 
f 5/5/5 6/6/6 5/5/5 
f 5/5/5 6/6/6 7/7/7 
f 6/6/6 8/8/8 7/7/7 

