mtllib model_17.mtl
o model_17
v -6.384538173675537 3.5974369049072266 -0.05047358572483063 
v -6.384538173675537 3.262213706970215 -0.05047358572483063 
v -4.8100056648254395 3.5974369049072266 -0.05047358572483063 
v -4.8100056648254395 3.262213706970215 -0.05047358572483063 
v -6.384538173675537 3.5974369049072266 -0.08771530538797379 
v -4.8100056648254395 3.5974369049072266 -0.08771530538797379 
v -6.384538173675537 3.262213706970215 -0.08771530538797379 
v -4.8100056648254395 3.262213706970215 -0.08771530538797379 
vn -0.005319945514202118 0 2.4350926876068115 
vn -0.005319945514202118 0 2.4350926876068115 
vn -0.005319945514202118 0 2.4350926876068115 
vn -0.005319945514202118 0 2.4350926876068115 
vn -0.005319945514202118 -5.036334305326406e-13 -2.4350926876068115 
vn -0.005319945514202118 -5.036334305326406e-13 -2.4350926876068115 
vn -0.005319945514202118 -5.036334305326406e-13 -2.4350926876068115 
vn -0.005319945514202118 -5.036334305326406e-13 -2.4350926876068115 
vt 0.008865860290825367 0.7274221181869507 
vt 0.008865860290825367 0.3191260099411011 
vt 0.9909034967422485 0.7274221181869507 
vt 0.9909034967422485 0.3191260099411011 
vt 0.008865860290825367 0.7274221181869507 
vt 0.9909034967422485 0.7274221181869507 
vt 0.008865860290825367 0.3191260099411011 
vt 0.9909034967422485 0.3191260099411011 
s on 
f 1/1/1 2/2/2 3/3/3 
f 2/2/2 4/4/4 3/3/3 
f 3/3/3 4/4/4 4/4/4 
f 4/4/4 5/5/5 4/4/4 
f 4/4/4 5/5/5 5/5/5 
f 5/5/5 6/6/6 5/5/5 
f 5/5/5 6/6/6 7/7/7 
f 6/6/6 8/8/8 7/7/7 

