mtllib model_20.mtl
o model_20
v 3.9571566581726074 5.432600498199463 -0.04326970502734184 
v 3.9571566581726074 4.967678546905518 -0.04326970502734184 
v 6.140881061553955 5.432600498199463 -0.04326970502734184 
v 6.140881061553955 4.967678546905518 -0.04326970502734184 
v 3.9571566581726074 5.432600498199463 -0.09492035210132599 
v 6.140881061553955 5.432600498199463 -0.09492035210132599 
v 3.9571566581726074 4.967678546905518 -0.09492035210132599 
v 6.140881061553955 4.967678546905518 -0.09492035210132599 
vn -0.003835845272988081 0 1.75577712059021 
vn -0.003835845272988081 0 1.75577712059021 
vn -0.003835845272988081 0 1.75577712059021 
vn -0.003835845272988081 0 1.75577712059021 
vn -0.003835845272988081 -3.6313527597246764e-13 -1.75577712059021 
vn -0.003835845272988081 -3.6313527597246764e-13 -1.75577712059021 
vn -0.003835845272988081 -3.6313527597246764e-13 -1.75577712059021 
vn -0.003835845272988081 -3.6313527597246764e-13 -1.75577712059021 
vt 0.025301700457930565 0.7315251231193542 
vt 0.025301700457930565 0.32322901487350464 
vt 0.974467933177948 0.7315251231193542 
vt 0.974467933177948 0.32322901487350464 
vt 0.025301700457930565 0.7315251231193542 
vt 0.974467933177948 0.7315251231193542 
vt 0.025301700457930565 0.32322901487350464 
vt 0.974467933177948 0.32322901487350464 
s on 
f 1/1/1 2/2/2 3/3/3 
f 2/2/2 4/4/4 3/3/3 
f 3/3/3 4/4/4 4/4/4 
f 4/4/4 5/5/5 4/4/4 
f 4/4/4 5/5/5 5/5/5 
f 5/5/5 6/6/6 5/5/5 
f 5/5/5 6/6/6 7/7/7 
f 6/6/6 8/8/8 7/7/7 

