mtllib model_13.mtl
o model_13
v -6.212148189544678 1.5016849040985107 -0.05047358572483063 
v -6.212148189544678 1.166461706161499 -0.05047358572483063 
v -4.637615203857422 1.5016849040985107 -0.05047358572483063 
v -4.637615203857422 1.166461706161499 -0.05047358572483063 
v -6.212148189544678 1.5016849040985107 -0.08771530538797379 
v -4.637615203857422 1.5016849040985107 -0.08771530538797379 
v -6.212148189544678 1.166461706161499 -0.08771530538797379 
v -4.637615203857422 1.166461706161499 -0.08771530538797379 
vn -0.005319945514202118 0 2.4350926876068115 
vn -0.005319945514202118 0 2.4350926876068115 
vn -0.005319945514202118 0 2.4350926876068115 
vn -0.005319945514202118 0 2.4350926876068115 
vn -0.005319945514202118 -5.036334305326406e-13 -2.4350926876068115 
vn -0.005319945514202118 -5.036334305326406e-13 -2.4350926876068115 
vn -0.005319945514202118 -5.036334305326406e-13 -2.4350926876068115 
vn -0.005319945514202118 -5.036334305326406e-13 -2.4350926876068115 
vt 0.008865860290825367 0.7040001153945923 
vt 0.008865860290825367 0.2957040071487427 
vt 0.9909034967422485 0.7040001153945923 
vt 0.9909034967422485 0.2957040071487427 
vt 0.008865860290825367 0.7040001153945923 
vt 0.9909034967422485 0.7040001153945923 
vt 0.008865860290825367 0.2957040071487427 
vt 0.9909034967422485 0.2957040071487427 
s on 
f 1/1/1 2/2/2 3/3/3 
f 2/2/2 4/4/4 3/3/3 
f 3/3/3 4/4/4 4/4/4 
f 4/4/4 5/5/5 4/4/4 
f 4/4/4 5/5/5 5/5/5 
f 5/5/5 6/6/6 5/5/5 
f 5/5/5 6/6/6 7/7/7 
f 6/6/6 8/8/8 7/7/7 

