mtllib model_14.mtl
o model_14
v 4.242797374725342 2.4320366382598877 -0.0402853786945343 
v 4.242797374725342 1.9133776426315308 -0.0402853786945343 
v 6.678923606872559 2.4320366382598877 -0.0402853786945343 
v 6.678923606872559 1.9133776426315308 -0.0402853786945343 
v 4.242797374725342 2.4320366382598877 -0.0979059711098671 
v 6.678923606872559 2.4320366382598877 -0.0979059711098671 
v 4.242797374725342 1.9133776426315308 -0.0979059711098671 
v 6.678923606872559 1.9133776426315308 -0.0979059711098671 
vn -0.003438421757891774 0 1.5738649368286133 
vn -0.003438421757891774 0 1.5738649368286133 
vn -0.003438421757891774 0 1.5738649368286133 
vn -0.003438421757891774 0 1.5738649368286133 
vn -0.003438421757891774 -3.255116445485817e-13 -1.5738649368286133 
vn -0.003438421757891774 -3.255116445485817e-13 -1.5738649368286133 
vn -0.003438421757891774 -3.255116445485817e-13 -1.5738649368286133 
vn -0.003438421757891774 -3.255116445485817e-13 -1.5738649368286133 
vt 0.008865860290825367 0.6933531165122986 
vt 0.008865860290825367 0.285057008266449 
vt 0.9909034967422485 0.6933531165122986 
vt 0.9909034967422485 0.285057008266449 
vt 0.008865860290825367 0.6933531165122986 
vt 0.9909034967422485 0.6933531165122986 
vt 0.008865860290825367 0.285057008266449 
vt 0.9909034967422485 0.285057008266449 
s on 
f 1/1/1 2/2/2 3/3/3 
f 2/2/2 4/4/4 3/3/3 
f 3/3/3 4/4/4 4/4/4 
f 4/4/4 5/5/5 4/4/4 
f 4/4/4 5/5/5 5/5/5 
f 5/5/5 6/6/6 5/5/5 
f 5/5/5 6/6/6 7/7/7 
f 6/6/6 8/8/8 7/7/7 

