mtllib model_16.mtl
o model_16
v 4.593167304992676 3.49971866607666 -0.0402853786945343 
v 4.593167304992676 2.9810595512390137 -0.0402853786945343 
v 7.029293537139893 3.49971866607666 -0.0402853786945343 
v 7.029293537139893 2.9810595512390137 -0.0402853786945343 
v 4.593167304992676 3.49971866607666 -0.0979059711098671 
v 7.029293537139893 3.49971866607666 -0.0979059711098671 
v 4.593167304992676 2.9810595512390137 -0.0979059711098671 
v 7.029293537139893 2.9810595512390137 -0.0979059711098671 
vn -0.003438421757891774 0 1.5738649368286133 
vn -0.003438421757891774 0 1.5738649368286133 
vn -0.003438421757891774 0 1.5738649368286133 
vn -0.003438421757891774 0 1.5738649368286133 
vn -0.003438421757891774 -3.255116445485817e-13 -1.5738649368286133 
vn -0.003438421757891774 -3.255116445485817e-13 -1.5738649368286133 
vn -0.003438421757891774 -3.255116445485817e-13 -1.5738649368286133 
vn -0.003438421757891774 -3.255116445485817e-13 -1.5738649368286133 
vt 0.025301700457930565 0.7315251231193542 
vt 0.025301700457930565 0.32322901487350464 
vt 0.974467933177948 0.7315251231193542 
vt 0.974467933177948 0.32322901487350464 
vt 0.025301700457930565 0.7315251231193542 
vt 0.974467933177948 0.7315251231193542 
vt 0.025301700457930565 0.32322901487350464 
vt 0.974467933177948 0.32322901487350464 
s on 
f 1/1/1 2/2/2 3/3/3 
f 2/2/2 4/4/4 3/3/3 
f 3/3/3 4/4/4 4/4/4 
f 4/4/4 5/5/5 4/4/4 
f 4/4/4 5/5/5 5/5/5 
f 5/5/5 6/6/6 5/5/5 
f 5/5/5 6/6/6 7/7/7 
f 6/6/6 8/8/8 7/7/7 

