mtllib model_1.mtl
o model_1
v -0.07692699134349823 -0.1010468527674675 0.11568000167608261 
v -0.07692697644233704 -0.043068524450063705 0.1156800165772438 
v -0.07692702859640121 -0.10104680061340332 -0.0693310871720314 
v -0.07692701369524002 -0.043068476021289825 -0.06933107227087021 
vn -1000 0.0002682209888007492 0.00020861685334239155 
vn -1000 0.0002682209888007492 0.00020861685334239155 
vn -1000 0.0002682209888007492 0.00020861685334239155 
vn -1000 0.0002682209888007492 0.00020861685334239155 
vt 0 1.0000005960464478 
vt 1.0000005960464478 1.0000005960464478 
vt 0 0 
vt 1.0000005960464478 0 
s on 
f 1/1/1 2/2/2 3/3/3 
f 2/2/2 4/4/4 3/3/3 

